<svg width="1770" height="1012" xmlns="http://www.w3.org/2000/svg" xmlns:xlink="http://www.w3.org/1999/xlink" xml:space="preserve" overflow="hidden"><defs><clipPath id="clip0"><rect x="4245" y="2826" width="1770" height="1012"/></clipPath></defs><g clip-path="url(#clip0)" transform="translate(-4245 -2826)"><g><path d="M4597.65 2997.5 4597.65 3729.5M4819.66 2997.5 4819.66 3729.5M5040.67 2997.5 5040.67 3729.5M5262.67 2997.5 5262.67 3729.5M5483.68 2997.5 5483.68 3729.5M5705.69 2997.5 5705.69 3729.5M5926.5 2997.5 5926.5 3729.5" stroke="#D9D9D9" stroke-width="3.4375" stroke-linejoin="round" stroke-miterlimit="10" fill="none"/></g><g><path d="M5668.19 3651.12 4377 3651.12 4377 3564.12 5668.19 3564.12ZM5115.17 3407.11 4377 3407.11 4377 3320.11 5115.17 3320.11ZM4561.15 3162.1 4377 3162.1 4377 3076.1 4561.15 3076.1Z" fill="#4ADE80"/></g><g><path d="M0 0 0.000360892 732" stroke="#D9D9D9" stroke-width="3.4375" stroke-linejoin="round" stroke-miterlimit="10" fill="none" fill-rule="evenodd" transform="matrix(1 0 0 -1 4376.5 3729.5)"/></g><g><text fill="#E5E7EB" font-family="Calibri,Calibri_MSFontService,sans-serif" font-weight="400" font-size="41" transform="matrix(1 0 0 1 4351.5 3795)">0%</text></g><g><text fill="#E5E7EB" font-family="Calibri,Calibri_MSFontService,sans-serif" font-weight="400" font-size="41" transform="matrix(1 0 0 1 4562.47 3795)">10%</text></g><g><text fill="#E5E7EB" font-family="Calibri,Calibri_MSFontService,sans-serif" font-weight="400" font-size="41" transform="matrix(1 0 0 1 4783.89 3795)">20%</text></g><g><text fill="#E5E7EB" font-family="Calibri,Calibri_MSFontService,sans-serif" font-weight="400" font-size="41" transform="matrix(1 0 0 1 5005.31 3795)">30%</text></g><g><text fill="#E5E7EB" font-family="Calibri,Calibri_MSFontService,sans-serif" font-weight="400" font-size="41" transform="matrix(1 0 0 1 5226.74 3795)">40%</text></g><g><text fill="#E5E7EB" font-family="Calibri,Calibri_MSFontService,sans-serif" font-weight="400" font-size="41" transform="matrix(1 0 0 1 5448.16 3795)">50%</text></g><g><text fill="#E5E7EB" font-family="Calibri,Calibri_MSFontService,sans-serif" font-weight="400" font-size="41" transform="matrix(1 0 0 1 5669.58 3795)">60%</text></g><g><text fill="#E5E7EB" font-family="Calibri,Calibri_MSFontService,sans-serif" font-weight="400" font-size="41" transform="matrix(1 0 0 1 5891 3795)">70%</text></g><g><text fill="#E5E7EB" font-family="Calibri,Calibri_MSFontService,sans-serif" font-weight="400" font-size="41" transform="matrix(1 0 0 1 4276.12 3619)">TP1</text></g><g><text fill="#E5E7EB" font-family="Calibri,Calibri_MSFontService,sans-serif" font-weight="400" font-size="41" transform="matrix(1 0 0 1 4276.12 3375)">TP2</text></g><g><text fill="#E5E7EB" font-family="Calibri,Calibri_MSFontService,sans-serif" font-weight="400" font-size="41" transform="matrix(1 0 0 1 4276.12 3131)">TP3</text></g><g><text fill="#E5E7EB" font-family="Calibri,Calibri_MSFontService,sans-serif" font-weight="400" font-size="64" transform="matrix(1 0 0 1 4842.59 2923)">Number of Targets Hit</text></g><rect x="4246.5" y="2827.5" width="1767" height="1009" stroke="#D9D9D9" stroke-width="3.4375" stroke-linejoin="round" stroke-miterlimit="10" fill="none"/></g></svg>