<svg width="1085" height="1126" xmlns="http://www.w3.org/2000/svg" xmlns:xlink="http://www.w3.org/1999/xlink" xml:space="preserve" overflow="hidden"><defs><clipPath id="clip0"><rect x="4244" y="3892" width="1085" height="1126"/></clipPath></defs><g clip-path="url(#clip0)" transform="translate(-4244 -3892)"><g><path d="M4785.98 4119.35C4975.13 4119.35 5128.47 4272.69 5128.47 4461.84 5128.47 4651 4975.13 4804.34 4785.98 4804.34 4596.82 4804.34 4443.48 4651 4443.48 4461.84L4529.11 4461.84C4529.11 4603.71 4644.11 4718.71 4785.98 4718.71 4927.84 4718.71 5042.85 4603.71 5042.85 4461.84 5042.85 4319.98 4927.84 4204.97 4785.98 4204.97Z" stroke="#FFFFFF" stroke-width="6.875" stroke-linejoin="round" stroke-miterlimit="10" fill="#4ADE80" fill-rule="evenodd"/></g><g><path d="M4443.48 4461.84C4443.48 4272.69 4596.82 4119.35 4785.98 4119.35L4785.98 4204.97C4644.11 4204.97 4529.11 4319.98 4529.11 4461.84Z" stroke="#FFFFFF" stroke-width="6.875" stroke-linejoin="round" stroke-miterlimit="10" fill="#FFCB37" fill-rule="evenodd"/></g><g><path d="M4997.5 4673.5 5061.67 4735.5 5082.5 4735.5" stroke="#A6A6A6" stroke-width="3.4375" stroke-linejoin="round" stroke-miterlimit="10" fill="none"/></g><g><path d="M4574.5 4249.5 4547.65 4192.5 4527.5 4192.5" stroke="#A6A6A6" stroke-width="3.4375" stroke-linejoin="round" stroke-miterlimit="10" fill="none"/></g><g><text fill="#4ADE80" font-family="Calibri,Calibri_MSFontService,sans-serif" font-weight="400" font-size="41" transform="matrix(1 0 0 1 5096.09 4749)">75%</text></g><g><text fill="#FFCB37" font-family="Calibri,Calibri_MSFontService,sans-serif" font-weight="400" font-size="41" transform="matrix(1 0 0 1 4442.18 4207)">25%</text></g><g><text fill="#E5E7EB" font-family="Calibri,Calibri_MSFontService,sans-serif" font-weight="400" font-size="64" transform="matrix(1 0 0 1 4666.32 4485)">WIN RATE</text></g><g><rect x="4644.5" y="4938.5" width="22" height="22" stroke="#FFFFFF" stroke-width="6.875" stroke-linejoin="round" stroke-miterlimit="10" fill="#4ADE80"/></g><g><text fill="#E5E7EB" font-family="Calibri,Calibri_MSFontService,sans-serif" font-weight="400" font-size="41" transform="matrix(1 0 0 1 4676.38 4961)">PROFIT</text></g><g><rect x="4829.5" y="4938.5" width="23" height="22" stroke="#FFFFFF" stroke-width="6.875" stroke-linejoin="round" stroke-miterlimit="10" fill="#FFCB37"/></g><g><text fill="#E5E7EB" font-family="Calibri,Calibri_MSFontService,sans-serif" font-weight="400" font-size="41" transform="matrix(1 0 0 1 4861.75 4961)">LOSS</text></g><rect x="4245.5" y="3893.5" width="1082" height="1123" stroke="#D9D9D9" stroke-width="3.4375" stroke-linejoin="round" stroke-miterlimit="10" fill="none"/></g></svg>