<svg width="1086" height="1105" xmlns="http://www.w3.org/2000/svg" xmlns:xlink="http://www.w3.org/1999/xlink" xml:space="preserve" overflow="hidden"><defs><clipPath id="clip0"><rect x="4245" y="3825" width="1086" height="1105"/></clipPath></defs><g clip-path="url(#clip0)" transform="translate(-4245 -3825)"><g><path d="M4787.28 4051.27C4971.28 4051.27 5120.43 4200.42 5120.43 4384.42 5120.43 4568.41 4971.28 4717.57 4787.28 4717.57 4603.29 4717.57 4454.13 4568.41 4454.13 4384.42L4537.42 4384.42C4537.42 4522.41 4649.29 4634.28 4787.28 4634.28 4925.28 4634.28 5037.14 4522.41 5037.14 4384.42 5037.14 4246.42 4925.28 4134.55 4787.28 4134.55Z" stroke="#FFFFFF" stroke-width="6.875" stroke-linejoin="round" stroke-miterlimit="10" fill="#4ADE80" fill-rule="evenodd"/></g><g><path d="M4454.13 4384.42C4454.13 4200.42 4603.29 4051.27 4787.28 4051.27L4787.28 4134.55C4649.29 4134.55 4537.42 4246.42 4537.42 4384.42Z" stroke="#FFFFFF" stroke-width="6.875" stroke-linejoin="round" stroke-miterlimit="10" fill="#BB1111" fill-rule="evenodd"/></g><g><path d="M4993.5 4590.5 5057.67 4650.5 5077.5 4650.5" stroke="#A6A6A6" stroke-width="3.4375" stroke-linejoin="round" stroke-miterlimit="10" fill="none"/></g><g><path d="M4581.5 4178.5 4554.65 4122.5 4534.5 4122.5" stroke="#A6A6A6" stroke-width="3.4375" stroke-linejoin="round" stroke-miterlimit="10" fill="none"/></g><g><text fill="#4ADE80" font-family="Calibri,Calibri_MSFontService,sans-serif" font-weight="400" font-size="41" transform="matrix(1 0 0 1 5091.65 4664)">75</text></g><g><text fill="#4ADE80" font-family="Calibri,Calibri_MSFontService,sans-serif" font-weight="400" font-size="41" transform="matrix(1 0 0 1 5133.44 4664)">%</text></g><g><text fill="#BB1111" font-family="Calibri,Calibri_MSFontService,sans-serif" font-weight="400" font-size="41" transform="matrix(1 0 0 1 4449.25 4136)">25</text></g><g><text fill="#BB1111" font-family="Calibri,Calibri_MSFontService,sans-serif" font-weight="400" font-size="41" transform="matrix(1 0 0 1 4491.05 4136)">%</text></g><g><text fill="#E5E7EB" font-family="Calibri,Calibri_MSFontService,sans-serif" font-weight="400" font-size="64" transform="matrix(1 0 0 1 4667.59 4408)">WIN RATE</text></g><g><rect x="4645.5" y="4850.5" width="23" height="22" stroke="#FFFFFF" stroke-width="6.875" stroke-linejoin="round" stroke-miterlimit="10" fill="#4ADE80"/></g><g><text fill="#E5E7EB" font-family="Calibri,Calibri_MSFontService,sans-serif" font-weight="400" font-size="41" transform="matrix(1 0 0 1 4677.69 4873)">PROFIT</text></g><g><rect x="4830.5" y="4850.5" width="23" height="22" stroke="#FFFFFF" stroke-width="6.875" stroke-linejoin="round" stroke-miterlimit="10" fill="#BB1111"/></g><g><text fill="#E5E7EB" font-family="Calibri,Calibri_MSFontService,sans-serif" font-weight="400" font-size="41" transform="matrix(1 0 0 1 4863.05 4873)">LOSS</text></g><rect x="4246.5" y="3826.5" width="1083" height="1102" stroke="#D9D9D9" stroke-width="3.4375" stroke-linejoin="round" stroke-miterlimit="10" fill="none"/></g></svg>