<svg width="1052" height="1122" xmlns="http://www.w3.org/2000/svg" xmlns:xlink="http://www.w3.org/1999/xlink" xml:space="preserve" overflow="hidden"><defs><clipPath id="clip0"><rect x="5475" y="3900" width="1052" height="1122"/></clipPath></defs><g clip-path="url(#clip0)" transform="translate(-5475 -3900)"><g><path d="M6010.84 4130.72C6199.36 4130.72 6352.19 4283.55 6352.19 4472.08 6352.19 4660.6 6199.36 4813.43 6010.84 4813.43 5966.01 4813.43 5921.62 4804.6 5880.21 4787.45L5912.87 4708.6C6043.5 4762.71 6193.26 4700.68 6247.37 4570.05 6301.48 4439.42 6239.44 4289.66 6108.81 4235.55 6077.75 4222.68 6044.46 4216.06 6010.84 4216.06Z" stroke="#FFFFFF" stroke-width="6.875" stroke-linejoin="round" stroke-miterlimit="10" fill="#4ADE80" fill-rule="evenodd"/></g><g><path d="M5880.21 4787.45C5706.04 4715.3 5623.33 4515.62 5695.47 4341.45 5748.31 4213.89 5872.78 4130.72 6010.84 4130.72L6010.84 4216.06C5869.45 4216.06 5754.82 4330.68 5754.82 4472.08 5754.82 4575.63 5817.2 4668.98 5912.87 4708.6Z" stroke="#FFFFFF" stroke-width="6.875" stroke-linejoin="round" stroke-miterlimit="10" fill="#FFCB37" fill-rule="evenodd"/></g><g><path d="M6303.5 4530.5 6367.71 4718.5 6388.5 4718.5" stroke="#A6A6A6" stroke-width="3.4375" stroke-linejoin="round" stroke-miterlimit="10" fill="none"/></g><g><path d="M5717.5 4413.5 5595.68 4352.5 5574.5 4352.5" stroke="#A6A6A6" stroke-width="3.4375" stroke-linejoin="round" stroke-miterlimit="10" fill="none"/></g><g><text fill="#4ADE80" font-family="Calibri,Calibri_MSFontService,sans-serif" font-weight="700" font-size="41" transform="matrix(1 0 0 1 6401.76 4733)">56%</text></g><g><text fill="#FFCB37" font-family="Calibri,Calibri_MSFontService,sans-serif" font-weight="700" font-size="41" transform="matrix(1 0 0 1 5489.28 4367)">44%</text></g><g><text fill="#FFCB37" font-family="Calibri,Calibri_MSFontService,sans-serif" font-weight="700" font-size="64" transform="matrix(1 0 0 1 5842.64 4487)">Short</text></g><g><text fill="#E5E7EB" font-family="Calibri,Calibri_MSFontService,sans-serif" font-weight="700" font-size="64" transform="matrix(1 0 0 1 6001.45 4487)">&amp;</text></g><g><text fill="#4ADE80" font-family="Calibri,Calibri_MSFontService,sans-serif" font-weight="700" font-size="64" transform="matrix(1 0 0 1 6061.17 4487)">Long</text></g><rect x="5476.5" y="3901.5" width="1049" height="1119" stroke="#D9D9D9" stroke-width="3.4375" stroke-linejoin="round" stroke-miterlimit="10" fill="none"/></g></svg>