<svg width="2074" height="1378" xmlns="http://www.w3.org/2000/svg" xmlns:xlink="http://www.w3.org/1999/xlink" xml:space="preserve" overflow="hidden"><defs><clipPath id="clip0"><rect x="4422" y="6309" width="147" height="51"/></clipPath><clipPath id="clip1"><rect x="4541" y="6309" width="147" height="51"/></clipPath><clipPath id="clip2"><rect x="4659" y="6309" width="147" height="51"/></clipPath><clipPath id="clip3"><rect x="4778" y="6309" width="147" height="51"/></clipPath><clipPath id="clip4"><rect x="4896" y="6309" width="147" height="51"/></clipPath><clipPath id="clip5"><rect x="5015" y="6309" width="147" height="51"/></clipPath><clipPath id="clip6"><rect x="5133" y="6309" width="147" height="51"/></clipPath><clipPath id="clip7"><rect x="5252" y="6309" width="147" height="51"/></clipPath><clipPath id="clip8"><rect x="5370" y="6309" width="147" height="51"/></clipPath><clipPath id="clip9"><rect x="5415" y="6309" width="294" height="51"/></clipPath><clipPath id="clip10"><rect x="5534" y="6309" width="293" height="51"/></clipPath><clipPath id="clip11"><rect x="5652" y="6309" width="294" height="51"/></clipPath><clipPath id="clip12"><rect x="5771" y="6309" width="293" height="51"/></clipPath><clipPath id="clip13"><rect x="5889" y="6309" width="294" height="51"/></clipPath><clipPath id="clip14"><rect x="6008" y="6309" width="293" height="51"/></clipPath><clipPath id="clip15"><rect x="6126" y="6309" width="294" height="51"/></clipPath><clipPath id="clip16"><rect x="4037" y="6088" width="646" height="52"/></clipPath><clipPath id="clip17"><rect x="4037" y="5425" width="646" height="51"/></clipPath></defs><g transform="translate(-4289 -5007)"><rect x="4289.5" y="5007.5" width="2073" height="1377" fill="#000000" fill-opacity="0"/><rect x="4289.5" y="5007.5" width="2073" height="1377" stroke="#D9D9D9" stroke-width="3.4375" stroke-miterlimit="2" fill="none"/><g><path d="M4436.5 6113.5 6332.5 6113.5" stroke="#D9D9D9" stroke-width="3.4375" stroke-miterlimit="2" fill="none"/><path d="M4436.5 5947.5 6332.5 5947.5" stroke="#D9D9D9" stroke-width="3.4375" stroke-miterlimit="2" fill="none"/><path d="M4436.5 5782.5 6332.5 5782.5" stroke="#D9D9D9" stroke-width="3.4375" stroke-miterlimit="2" fill="none"/><path d="M4436.5 5616.5 6332.5 5616.5" stroke="#D9D9D9" stroke-width="3.4375" stroke-miterlimit="2" fill="none"/><path d="M4436.5 5450.5 6332.5 5450.5" stroke="#D9D9D9" stroke-width="3.4375" stroke-miterlimit="2" fill="none"/><path d="M4436.5 5284.5 6332.5 5284.5" stroke="#D9D9D9" stroke-width="3.4375" stroke-miterlimit="2" fill="none"/><rect x="4456.5" y="6220.5" width="79" height="59" fill="#4ADE80"/><rect x="4456.5" y="6220.5" width="79" height="59" stroke="#4ADE80" stroke-width="10.3125" stroke-linecap="round" stroke-miterlimit="2" fill="none"/><rect x="4574.5" y="6135.5" width="79" height="85" fill="#4ADE80"/><rect x="4574.5" y="6135.5" width="79" height="85" stroke="#4ADE80" stroke-width="10.3125" stroke-linecap="round" stroke-miterlimit="2" fill="none"/><rect x="4693.5" y="5981.5" width="79" height="154" fill="#4ADE80"/><rect x="4693.5" y="5981.5" width="79" height="154" stroke="#4ADE80" stroke-width="10.3125" stroke-linecap="round" stroke-miterlimit="2" fill="none"/><rect x="4811.5" y="5735.5" width="79" height="246" fill="#4ADE80"/><rect x="4811.5" y="5735.5" width="79" height="246" stroke="#4ADE80" stroke-width="10.3125" stroke-linecap="round" stroke-miterlimit="2" fill="none"/><rect x="4930.5" y="5735.5" width="79" height="89" fill="#FFCB37"/><rect x="4930.5" y="5735.5" width="79" height="89" stroke="#FFCB37" stroke-width="10.3125" stroke-linecap="round" stroke-miterlimit="2" fill="none"/><rect x="5048.5" y="5733.5" width="79" height="91" fill="#4ADE80"/><rect x="5048.5" y="5733.5" width="79" height="91" stroke="#4ADE80" stroke-width="10.3125" stroke-linecap="round" stroke-miterlimit="2" fill="none"/><rect x="5167.5" y="5595.5" width="79" height="138" fill="#4ADE80"/><rect x="5167.5" y="5595.5" width="79" height="138" stroke="#4ADE80" stroke-width="10.3125" stroke-linecap="round" stroke-miterlimit="2" fill="none"/><rect x="5285.5" y="5595.5" width="79" height="83" fill="#FFCB37"/><rect x="5285.5" y="5595.5" width="79" height="83" stroke="#FFCB37" stroke-width="10.3125" stroke-linecap="round" stroke-miterlimit="2" fill="none"/><rect x="5404.5" y="5678.5" width="79" height="122" fill="#FFCB37"/><rect x="5404.5" y="5678.5" width="79" height="122" stroke="#FFCB37" stroke-width="10.3125" stroke-linecap="round" stroke-miterlimit="2" fill="none"/><rect x="5522.5" y="5681.5" width="79" height="119" fill="#4ADE80"/><rect x="5522.5" y="5681.5" width="79" height="119" stroke="#4ADE80" stroke-width="10.3125" stroke-linecap="round" stroke-miterlimit="2" fill="none"/><rect x="5641.5" y="5602.5" width="79" height="79" fill="#4ADE80"/><rect x="5641.5" y="5602.5" width="79" height="79" stroke="#4ADE80" stroke-width="10.3125" stroke-linecap="round" stroke-miterlimit="2" fill="none"/><rect x="5759.5" y="5511.5" width="79" height="91" fill="#4ADE80"/><rect x="5759.5" y="5511.5" width="79" height="91" stroke="#4ADE80" stroke-width="10.3125" stroke-linecap="round" stroke-miterlimit="2" fill="none"/><rect x="5878.5" y="5421.5" width="79" height="90" fill="#4ADE80"/><rect x="5878.5" y="5421.5" width="79" height="90" stroke="#4ADE80" stroke-width="10.3125" stroke-linecap="round" stroke-miterlimit="2" fill="none"/><rect x="5996.5" y="5421.5" width="79" height="63" fill="#FFCB37"/><rect x="5996.5" y="5421.5" width="79" height="63" stroke="#FFCB37" stroke-width="10.3125" stroke-linecap="round" stroke-miterlimit="2" fill="none"/><rect x="6115.5" y="5455.5" width="79" height="29" fill="#4ADE80"/><rect x="6115.5" y="5455.5" width="79" height="29" stroke="#4ADE80" stroke-width="10.3125" stroke-linecap="round" stroke-miterlimit="2" fill="none"/><rect x="6233.5" y="5440.5" width="79" height="15" fill="#4ADE80"/><rect x="6233.5" y="5440.5" width="79" height="15" stroke="#4ADE80" stroke-width="10.3125" stroke-linecap="round" stroke-miterlimit="2" fill="none"/><path d="M4535.5 6220.5 4574.5 6220.5" stroke="#D9D9D9" stroke-width="3.4375" stroke-miterlimit="2" fill="none"/><path d="M4653.5 6135.5 4693.5 6135.5" stroke="#D9D9D9" stroke-width="3.4375" stroke-miterlimit="2" fill="none"/><path d="M4772.5 5981.5 4811.5 5981.5" stroke="#D9D9D9" stroke-width="3.4375" stroke-miterlimit="2" fill="none"/><path d="M4890.5 5735.5 4930.5 5735.5" stroke="#D9D9D9" stroke-width="3.4375" stroke-miterlimit="2" fill="none"/><path d="M5009.5 5824.5 5048.5 5824.5" stroke="#D9D9D9" stroke-width="3.4375" stroke-miterlimit="2" fill="none"/><path d="M5127.5 5733.5 5167.5 5733.5" stroke="#D9D9D9" stroke-width="3.4375" stroke-miterlimit="2" fill="none"/><path d="M5246.5 5595.5 5285.5 5595.5" stroke="#D9D9D9" stroke-width="3.4375" stroke-miterlimit="2" fill="none"/><path d="M5364.5 5678.5 5404.5 5678.5" stroke="#D9D9D9" stroke-width="3.4375" stroke-miterlimit="2" fill="none"/><path d="M5483.5 5800.5 5522.5 5800.5" stroke="#D9D9D9" stroke-width="3.4375" stroke-miterlimit="2" fill="none"/><path d="M5601.5 5681.5 5641.5 5681.5" stroke="#D9D9D9" stroke-width="3.4375" stroke-miterlimit="2" fill="none"/><path d="M5720.5 5602.5 5759.5 5602.5" stroke="#D9D9D9" stroke-width="3.4375" stroke-miterlimit="2" fill="none"/><path d="M5838.5 5511.5 5878.5 5511.5" stroke="#D9D9D9" stroke-width="3.4375" stroke-miterlimit="2" fill="none"/><path d="M5957.5 5421.5 5996.5 5421.5" stroke="#D9D9D9" stroke-width="3.4375" stroke-miterlimit="2" fill="none"/><path d="M6075.5 5484.5 6115.5 5484.5" stroke="#D9D9D9" stroke-width="3.4375" stroke-miterlimit="2" fill="none"/><path d="M6194.5 5455.5 6233.5 5455.5" stroke="#D9D9D9" stroke-width="3.4375" stroke-miterlimit="2" fill="none"/></g><path d="M4436.5 6279.5 6332.5 6279.5" stroke="#E5E7EB" stroke-width="3.4375" stroke-miterlimit="2" fill="none"/><g clip-path="url(#clip0)"><text fill="#E5E7EB" font-family="Calibri,Calibri_MSFontService,sans-serif" font-weight="400" font-size="41" transform="translate(4485.36 6348)">1</text></g><g clip-path="url(#clip1)"><text fill="#E5E7EB" font-family="Calibri,Calibri_MSFontService,sans-serif" font-weight="400" font-size="41" transform="translate(4603.84 6348)">2</text></g><g clip-path="url(#clip2)"><text fill="#E5E7EB" font-family="Calibri,Calibri_MSFontService,sans-serif" font-weight="400" font-size="41" transform="translate(4722.32 6348)">3</text></g><g clip-path="url(#clip3)"><text fill="#E5E7EB" font-family="Calibri,Calibri_MSFontService,sans-serif" font-weight="400" font-size="41" transform="translate(4840.8 6348)">4</text></g><g clip-path="url(#clip4)"><text fill="#E5E7EB" font-family="Calibri,Calibri_MSFontService,sans-serif" font-weight="400" font-size="41" transform="translate(4959.28 6348)">5</text></g><g clip-path="url(#clip5)"><text fill="#E5E7EB" font-family="Calibri,Calibri_MSFontService,sans-serif" font-weight="400" font-size="41" transform="translate(5077.76 6348)">6</text></g><g clip-path="url(#clip6)"><text fill="#E5E7EB" font-family="Calibri,Calibri_MSFontService,sans-serif" font-weight="400" font-size="41" transform="translate(5196.24 6348)">7</text></g><g clip-path="url(#clip7)"><text fill="#E5E7EB" font-family="Calibri,Calibri_MSFontService,sans-serif" font-weight="400" font-size="41" transform="translate(5314.72 6348)">8</text></g><g clip-path="url(#clip8)"><text fill="#E5E7EB" font-family="Calibri,Calibri_MSFontService,sans-serif" font-weight="400" font-size="41" transform="translate(5433.2 6348)">9</text></g><g clip-path="url(#clip9)"><text fill="#E5E7EB" font-family="Calibri,Calibri_MSFontService,sans-serif" font-weight="400" font-size="41" transform="translate(5541.23 6348)">10</text></g><g clip-path="url(#clip10)"><text fill="#E5E7EB" font-family="Calibri,Calibri_MSFontService,sans-serif" font-weight="400" font-size="41" transform="translate(5659.71 6348)">11</text></g><g clip-path="url(#clip11)"><text fill="#E5E7EB" font-family="Calibri,Calibri_MSFontService,sans-serif" font-weight="400" font-size="41" transform="translate(5778.19 6348)">12</text></g><g clip-path="url(#clip12)"><text fill="#E5E7EB" font-family="Calibri,Calibri_MSFontService,sans-serif" font-weight="400" font-size="41" transform="translate(5896.67 6348)">13</text></g><g clip-path="url(#clip13)"><text fill="#E5E7EB" font-family="Calibri,Calibri_MSFontService,sans-serif" font-weight="400" font-size="41" transform="translate(6015.16 6348)">14</text></g><g clip-path="url(#clip14)"><text fill="#E5E7EB" font-family="Calibri,Calibri_MSFontService,sans-serif" font-weight="400" font-size="41" transform="translate(6133.64 6348)">15</text></g><g clip-path="url(#clip15)"><text fill="#E5E7EB" font-family="Calibri,Calibri_MSFontService,sans-serif" font-weight="400" font-size="41" transform="translate(6252.12 6348)">16</text></g><path d="M4436.5 6279.5 4436.5 5284.5" stroke="#E5E7EB" stroke-width="3.4375" stroke-miterlimit="2" fill="none"/><g><text fill="#E5E7EB" font-family="Calibri,Calibri_MSFontService,sans-serif" font-weight="400" font-size="41" transform="translate(4356.22 6293)">0%</text></g><g clip-path="url(#clip16)"><text fill="#E5E7EB" font-family="Calibri,Calibri_MSFontService,sans-serif" font-weight="400" font-size="41" transform="translate(4314.21 6127)">100%</text></g><g><text fill="#E5E7EB" font-family="Calibri,Calibri_MSFontService,sans-serif" font-weight="400" font-size="41" transform="translate(4314.21 5962)">200%</text></g><g><text fill="#E5E7EB" font-family="Calibri,Calibri_MSFontService,sans-serif" font-weight="400" font-size="41" transform="translate(4314.21 5796)">300%</text></g><g><text fill="#E5E7EB" font-family="Calibri,Calibri_MSFontService,sans-serif" font-weight="400" font-size="41" transform="translate(4314.21 5630)">400%</text></g><g clip-path="url(#clip17)"><text fill="#E5E7EB" font-family="Calibri,Calibri_MSFontService,sans-serif" font-weight="400" font-size="41" transform="translate(4314.21 5464)">500%</text></g><g><text fill="#E5E7EB" font-family="Calibri,Calibri_MSFontService,sans-serif" font-weight="400" font-size="41" transform="translate(4314.21 5299)">600%</text></g><g><text fill="#E5E7EB" font-family="Calibri,Calibri_MSFontService,sans-serif" font-weight="400" font-size="64" transform="translate(5018.44 5093)">SIGNALS GROSS PROFIT </text></g><rect x="4994" y="5128" width="663" height="114" fill="#000000" fill-opacity="0"/><rect x="5034.5" y="5168.5" width="33" height="33" fill="#4ADE80"/><rect x="5034.5" y="5168.5" width="33" height="33" stroke="#4ADE80" stroke-width="10.3125" stroke-linecap="round" stroke-miterlimit="2" fill="none"/><g><text fill="#E5E7EB" font-family="Calibri,Calibri_MSFontService,sans-serif" font-weight="400" font-size="41" transform="translate(5084.66 5199)">Increase</text></g><rect x="5259.5" y="5168.5" width="33" height="33" fill="#FFCB37"/><rect x="5259.5" y="5168.5" width="33" height="33" stroke="#FFCB37" stroke-width="10.3125" stroke-linecap="round" stroke-miterlimit="2" fill="none"/><g><text fill="#E5E7EB" font-family="Calibri,Calibri_MSFontService,sans-serif" font-weight="400" font-size="41" transform="translate(5309.51 5199)">Decrease</text></g><rect x="5498" y="5169" width="32" height="32" fill="#A5A5A5"/><g><text fill="#E5E7EB" font-family="Calibri,Calibri_MSFontService,sans-serif" font-weight="400" font-size="41" transform="translate(5547.9 5199)">Total</text></g><path d="M4289 5007 6362.16 5007 6362.16 6384.64 4289 6384.64Z" fill="#000000" fill-rule="evenodd" fill-opacity="0"/></g></svg>