<svg width="2077" height="1352" xmlns="http://www.w3.org/2000/svg" xmlns:xlink="http://www.w3.org/1999/xlink" xml:space="preserve" overflow="hidden"><defs><clipPath id="clip0"><rect x="4203" y="6138" width="353" height="52"/></clipPath><clipPath id="clip1"><rect x="4203" y="6138" width="353" height="52"/></clipPath></defs><g transform="translate(-4287 -4918)"><rect x="4287.5" y="4918.5" width="2076" height="1350" fill="#000000" fill-opacity="0"/><rect x="4287.5" y="4918.5" width="2076" height="1350" stroke="#D9D9D9" stroke-width="3.4375" stroke-miterlimit="2" fill="none"/><g><path d="M4434.5 6002.5 6333.5 6002.5" stroke="#D9D9D9" stroke-width="3.4375" stroke-miterlimit="2" fill="none"/><path d="M4434.5 5841.5 6333.5 5841.5" stroke="#D9D9D9" stroke-width="3.4375" stroke-miterlimit="2" fill="none"/><path d="M4434.5 5679.5 6333.5 5679.5" stroke="#D9D9D9" stroke-width="3.4375" stroke-miterlimit="2" fill="none"/><path d="M4434.5 5518.5 6333.5 5518.5" stroke="#D9D9D9" stroke-width="3.4375" stroke-miterlimit="2" fill="none"/><path d="M4434.5 5357.5 6333.5 5357.5" stroke="#D9D9D9" stroke-width="3.4375" stroke-miterlimit="2" fill="none"/><path d="M4434.5 5195.5 6333.5 5195.5" stroke="#D9D9D9" stroke-width="3.4375" stroke-miterlimit="2" fill="none"/><rect x="4454.5" y="6106.5" width="79" height="57" fill="#4ADE80"/><rect x="4454.5" y="6106.5" width="79" height="57" stroke="#4ADE80" stroke-width="10.3125" stroke-linecap="round" stroke-miterlimit="2" fill="none"/><rect x="4573.5" y="6023.5" width="79" height="83" fill="#4ADE80"/><rect x="4573.5" y="6023.5" width="79" height="83" stroke="#4ADE80" stroke-width="10.3125" stroke-linecap="round" stroke-miterlimit="2" fill="none"/><rect x="4691.5" y="5874.5" width="79" height="149" fill="#4ADE80"/><rect x="4691.5" y="5874.5" width="79" height="149" stroke="#4ADE80" stroke-width="10.3125" stroke-linecap="round" stroke-miterlimit="2" fill="none"/><rect x="4810.5" y="5634.5" width="79" height="240" fill="#4ADE80"/><rect x="4810.5" y="5634.5" width="79" height="240" stroke="#4ADE80" stroke-width="10.3125" stroke-linecap="round" stroke-miterlimit="2" fill="none"/><rect x="4929.5" y="5634.5" width="79" height="86" fill="#BB1111"/><rect x="4929.5" y="5634.5" width="79" height="86" stroke="#BB1111" stroke-width="10.3125" stroke-linecap="round" stroke-miterlimit="2" fill="none"/><rect x="5047.5" y="5632.5" width="79" height="88" fill="#4ADE80"/><rect x="5047.5" y="5632.5" width="79" height="88" stroke="#4ADE80" stroke-width="10.3125" stroke-linecap="round" stroke-miterlimit="2" fill="none"/><rect x="5166.5" y="5498.5" width="79" height="134" fill="#4ADE80"/><rect x="5166.5" y="5498.5" width="79" height="134" stroke="#4ADE80" stroke-width="10.3125" stroke-linecap="round" stroke-miterlimit="2" fill="none"/><rect x="5285.5" y="5498.5" width="79" height="81" fill="#BB1111"/><rect x="5285.5" y="5498.5" width="79" height="81" stroke="#BB1111" stroke-width="10.3125" stroke-linecap="round" stroke-miterlimit="2" fill="none"/><rect x="5403.5" y="5579.5" width="80" height="118" fill="#BB1111"/><rect x="5403.5" y="5579.5" width="80" height="118" stroke="#BB1111" stroke-width="10.3125" stroke-linecap="round" stroke-miterlimit="2" fill="none"/><rect x="5522.5" y="5582.5" width="79" height="115" fill="#4ADE80"/><rect x="5522.5" y="5582.5" width="79" height="115" stroke="#4ADE80" stroke-width="10.3125" stroke-linecap="round" stroke-miterlimit="2" fill="none"/><rect x="5641.5" y="5505.5" width="79" height="77" fill="#4ADE80"/><rect x="5641.5" y="5505.5" width="79" height="77" stroke="#4ADE80" stroke-width="10.3125" stroke-linecap="round" stroke-miterlimit="2" fill="none"/><rect x="5759.5" y="5415.5" width="80" height="90" fill="#4ADE80"/><rect x="5759.5" y="5415.5" width="80" height="90" stroke="#4ADE80" stroke-width="10.3125" stroke-linecap="round" stroke-miterlimit="2" fill="none"/><rect x="5878.5" y="5328.5" width="79" height="87" fill="#4ADE80"/><rect x="5878.5" y="5328.5" width="79" height="87" stroke="#4ADE80" stroke-width="10.3125" stroke-linecap="round" stroke-miterlimit="2" fill="none"/><rect x="5997.5" y="5328.5" width="79" height="61" fill="#BB1111"/><rect x="5997.5" y="5328.5" width="79" height="61" stroke="#BB1111" stroke-width="10.3125" stroke-linecap="round" stroke-miterlimit="2" fill="none"/><rect x="6116.5" y="5361.5" width="79" height="28" fill="#4ADE80"/><rect x="6116.5" y="5361.5" width="79" height="28" stroke="#4ADE80" stroke-width="10.3125" stroke-linecap="round" stroke-miterlimit="2" fill="none"/><rect x="6234.5" y="5347.5" width="79" height="14" fill="#4ADE80"/><rect x="6234.5" y="5347.5" width="79" height="14" stroke="#4ADE80" stroke-width="10.3125" stroke-linecap="round" stroke-miterlimit="2" fill="none"/><path d="M4533.5 6106.5 4573.5 6106.5" stroke="#D9D9D9" stroke-width="3.4375" stroke-miterlimit="2" fill="none"/><path d="M4652.5 6023.5 4691.5 6023.5" stroke="#D9D9D9" stroke-width="3.4375" stroke-miterlimit="2" fill="none"/><path d="M4770.5 5874.5 4810.5 5874.5" stroke="#D9D9D9" stroke-width="3.4375" stroke-miterlimit="2" fill="none"/><path d="M4889.5 5634.5 4929.5 5634.5" stroke="#D9D9D9" stroke-width="3.4375" stroke-miterlimit="2" fill="none"/><path d="M5008.5 5720.5 5047.5 5720.5" stroke="#D9D9D9" stroke-width="3.4375" stroke-miterlimit="2" fill="none"/><path d="M5126.5 5632.5 5166.5 5632.5" stroke="#D9D9D9" stroke-width="3.4375" stroke-miterlimit="2" fill="none"/><path d="M5245.5 5498.5 5285.5 5498.5" stroke="#D9D9D9" stroke-width="3.4375" stroke-miterlimit="2" fill="none"/><path d="M5364.5 5579.5 5403.5 5579.5" stroke="#D9D9D9" stroke-width="3.4375" stroke-miterlimit="2" fill="none"/><path d="M5483.5 5697.5 5522.5 5697.5" stroke="#D9D9D9" stroke-width="3.4375" stroke-miterlimit="2" fill="none"/><path d="M5601.5 5582.5 5641.5 5582.5" stroke="#D9D9D9" stroke-width="3.4375" stroke-miterlimit="2" fill="none"/><path d="M5720.5 5505.5 5759.5 5505.5" stroke="#D9D9D9" stroke-width="3.4375" stroke-miterlimit="2" fill="none"/><path d="M5839.5 5415.5 5878.5 5415.5" stroke="#D9D9D9" stroke-width="3.4375" stroke-miterlimit="2" fill="none"/><path d="M5957.5 5328.5 5997.5 5328.5" stroke="#D9D9D9" stroke-width="3.4375" stroke-miterlimit="2" fill="none"/><path d="M6076.5 5389.5 6116.5 5389.5" stroke="#D9D9D9" stroke-width="3.4375" stroke-miterlimit="2" fill="none"/><path d="M6195.5 5361.5 6234.5 5361.5" stroke="#D9D9D9" stroke-width="3.4375" stroke-miterlimit="2" fill="none"/></g><path d="M4434.5 6163.5 6333.5 6163.5" stroke="#E5E7EB" stroke-width="3.4375" stroke-miterlimit="2" fill="none"/><g><text fill="#E5E7EB" font-family="Calibri,Calibri_MSFontService,sans-serif" font-weight="400" font-size="41" transform="translate(4483.46 6233)">1</text></g><g><text fill="#E5E7EB" font-family="Calibri,Calibri_MSFontService,sans-serif" font-weight="400" font-size="41" transform="translate(4602.15 6233)">2</text></g><g><text fill="#E5E7EB" font-family="Calibri,Calibri_MSFontService,sans-serif" font-weight="400" font-size="41" transform="translate(4720.85 6233)">3</text></g><g><text fill="#E5E7EB" font-family="Calibri,Calibri_MSFontService,sans-serif" font-weight="400" font-size="41" transform="translate(4839.54 6233)">4</text></g><g><text fill="#E5E7EB" font-family="Calibri,Calibri_MSFontService,sans-serif" font-weight="400" font-size="41" transform="translate(4958.23 6233)">5</text></g><g><text fill="#E5E7EB" font-family="Calibri,Calibri_MSFontService,sans-serif" font-weight="400" font-size="41" transform="translate(5076.92 6233)">6</text></g><g><text fill="#E5E7EB" font-family="Calibri,Calibri_MSFontService,sans-serif" font-weight="400" font-size="41" transform="translate(5195.61 6233)">7</text></g><g><text fill="#E5E7EB" font-family="Calibri,Calibri_MSFontService,sans-serif" font-weight="400" font-size="41" transform="translate(5314.31 6233)">8</text></g><g><text fill="#E5E7EB" font-family="Calibri,Calibri_MSFontService,sans-serif" font-weight="400" font-size="41" transform="translate(5433 6233)">9</text></g><g><text fill="#E5E7EB" font-family="Calibri,Calibri_MSFontService,sans-serif" font-weight="400" font-size="41" transform="translate(5541.24 6233)">10</text></g><g><text fill="#E5E7EB" font-family="Calibri,Calibri_MSFontService,sans-serif" font-weight="400" font-size="41" transform="translate(5659.93 6233)">11</text></g><g><text fill="#E5E7EB" font-family="Calibri,Calibri_MSFontService,sans-serif" font-weight="400" font-size="41" transform="translate(5778.63 6233)">12</text></g><g><text fill="#E5E7EB" font-family="Calibri,Calibri_MSFontService,sans-serif" font-weight="400" font-size="41" transform="translate(5897.32 6233)">13</text></g><g><text fill="#E5E7EB" font-family="Calibri,Calibri_MSFontService,sans-serif" font-weight="400" font-size="41" transform="translate(6016.01 6233)">14</text></g><g><text fill="#E5E7EB" font-family="Calibri,Calibri_MSFontService,sans-serif" font-weight="400" font-size="41" transform="translate(6134.7 6233)">15</text></g><g><text fill="#E5E7EB" font-family="Calibri,Calibri_MSFontService,sans-serif" font-weight="400" font-size="41" transform="translate(6253.39 6233)">16</text></g><path d="M4434.5 6163.5 4434.5 5195.5" stroke="#E5E7EB" stroke-width="3.4375" stroke-miterlimit="2" fill="none"/><g clip-path="url(#clip0)"><text fill="#E5E7EB" font-family="Calibri,Calibri_MSFontService,sans-serif" font-weight="400" font-size="41" transform="translate(4354.22 6177)">0</text></g><g clip-path="url(#clip1)"><text fill="#E5E7EB" font-family="Calibri,Calibri_MSFontService,sans-serif" font-weight="400" font-size="41" transform="translate(4375.12 6177)">%</text></g><g><text fill="#E5E7EB" font-family="Calibri,Calibri_MSFontService,sans-serif" font-weight="400" font-size="41" transform="translate(4312.21 6016)">100</text></g><g><text fill="#E5E7EB" font-family="Calibri,Calibri_MSFontService,sans-serif" font-weight="400" font-size="41" transform="translate(4374.91 6016)">%</text></g><g><text fill="#E5E7EB" font-family="Calibri,Calibri_MSFontService,sans-serif" font-weight="400" font-size="41" transform="translate(4312.21 5855)">200</text></g><g><text fill="#E5E7EB" font-family="Calibri,Calibri_MSFontService,sans-serif" font-weight="400" font-size="41" transform="translate(4374.91 5855)">%</text></g><g><text fill="#E5E7EB" font-family="Calibri,Calibri_MSFontService,sans-serif" font-weight="400" font-size="41" transform="translate(4312.21 5694)">300</text></g><g><text fill="#E5E7EB" font-family="Calibri,Calibri_MSFontService,sans-serif" font-weight="400" font-size="41" transform="translate(4374.91 5694)">%</text></g><g><text fill="#E5E7EB" font-family="Calibri,Calibri_MSFontService,sans-serif" font-weight="400" font-size="41" transform="translate(4312.21 5532)">400</text></g><g><text fill="#E5E7EB" font-family="Calibri,Calibri_MSFontService,sans-serif" font-weight="400" font-size="41" transform="translate(4374.91 5532)">%</text></g><g><text fill="#E5E7EB" font-family="Calibri,Calibri_MSFontService,sans-serif" font-weight="400" font-size="41" transform="translate(4312.21 5371)">500</text></g><g><text fill="#E5E7EB" font-family="Calibri,Calibri_MSFontService,sans-serif" font-weight="400" font-size="41" transform="translate(4374.91 5371)">%</text></g><g><text fill="#E5E7EB" font-family="Calibri,Calibri_MSFontService,sans-serif" font-weight="400" font-size="41" transform="translate(4312.21 5210)">600</text></g><g><text fill="#E5E7EB" font-family="Calibri,Calibri_MSFontService,sans-serif" font-weight="400" font-size="41" transform="translate(4374.91 5210)">%</text></g><g><text fill="#E5E7EB" font-family="Calibri,Calibri_MSFontService,sans-serif" font-weight="400" font-size="64" transform="translate(5018.13 5004)">SIGNALS GROSS PROFIT </text></g><rect x="4993" y="5039" width="664" height="114" fill="#000000" fill-opacity="0"/><rect x="5034.5" y="5079.5" width="33" height="33" fill="#4ADE80"/><rect x="5034.5" y="5079.5" width="33" height="33" stroke="#4ADE80" stroke-width="10.3125" stroke-linecap="round" stroke-miterlimit="2" fill="none"/><g><text fill="#E5E7EB" font-family="Calibri,Calibri_MSFontService,sans-serif" font-weight="400" font-size="41" transform="translate(5084.36 5110)">Increase</text></g><rect x="5258.5" y="5079.5" width="33" height="33" fill="#BB1111"/><rect x="5258.5" y="5079.5" width="33" height="33" stroke="#BB1111" stroke-width="10.3125" stroke-linecap="round" stroke-miterlimit="2" fill="none"/><g><text fill="#E5E7EB" font-family="Calibri,Calibri_MSFontService,sans-serif" font-weight="400" font-size="41" transform="translate(5309.2 5110)">Decrease</text></g><rect x="5498" y="5080" width="32" height="32" fill="#A5A5A5"/><g><text fill="#E5E7EB" font-family="Calibri,Calibri_MSFontService,sans-serif" font-weight="400" font-size="41" transform="translate(5547.59 5110)">Total</text></g><path d="M4287 4919 6363.55 4919 6363.55 6269.94 4287 6269.94Z" fill="#000000" fill-rule="evenodd" fill-opacity="0"/></g></svg>