<svg width="1892" height="1129" xmlns="http://www.w3.org/2000/svg" xmlns:xlink="http://www.w3.org/1999/xlink" xml:space="preserve" overflow="hidden"><defs><clipPath id="clip0"><rect x="4479" y="6674" width="1892" height="1129"/></clipPath></defs><g clip-path="url(#clip0)" transform="translate(-4479 -6674)"><g><path d="M4650.5 7553.75 6297.5 7553.75M4650.5 7411.74 6297.5 7411.74M4650.5 7270.74 6297.5 7270.74M4650.5 7128.73 6297.5 7128.73M4650.5 6986.73 6297.5 6986.73M4650.5 6845.5 6297.5 6845.5" stroke="#D9D9D9" stroke-width="3.4375" stroke-linejoin="round" stroke-miterlimit="10" fill="none"/></g><g><path d="M4833.66 6845.5 4833.66 7695.5M5016.66 6845.5 5016.66 7695.5M5199.67 6845.5 5199.67 7695.5M5382.68 6845.5 5382.68 7695.5M5565.68 6845.5 5565.68 7695.5M5748.69 6845.5 5748.69 7695.5M5931.69 6845.5 5931.69 7695.5M6114.7 6845.5 6114.7 7695.5M6297.5 6845.5 6297.5 7695.5" stroke="#D9D9D9" stroke-width="3.4375" stroke-linejoin="round" stroke-miterlimit="10" fill="none"/></g><g><path d="M0 0 0.000360892 850" stroke="#BFBFBF" stroke-width="3.4375" stroke-linejoin="round" stroke-miterlimit="10" fill="none" fill-rule="evenodd" transform="matrix(1 0 0 -1 4650.5 7695.5)"/></g><g><path d="M4650.5 7695.5 6297.5 7695.5" stroke="#BFBFBF" stroke-width="3.4375" stroke-linejoin="round" stroke-miterlimit="10" fill="none" fill-rule="evenodd"/></g><g><path d="M4741.5 7644.5 4833.66 7571.75 4924.66 7309.74 5016.67 7098.73 5107.67 7250.74 5199.67 7095.73 5290.67 6977.5 5382.68 7119.73 5473.68 7327.74 5565.68 7226.74 5656.69 7158.74 5748.69 7080.73 5839.69 7004.73 5931.69 7111.73 6022.7 7086.73 6114.5 7074.73" stroke="#FFCB37" stroke-width="6.875" stroke-linecap="round" stroke-linejoin="round" stroke-miterlimit="10" fill="none"/></g><g><path d="M4754.2 7644.96C4754.2 7651.31 4749.05 7656.46 4742.7 7656.46 4736.35 7656.46 4731.2 7651.31 4731.2 7644.96 4731.2 7638.61 4736.35 7633.46 4742.7 7633.46 4749.05 7633.46 4754.2 7638.61 4754.2 7644.96Z" fill="#FFCB37"/><path d="M4845.2 7572.96C4845.2 7579.31 4840.05 7584.46 4833.7 7584.46 4827.35 7584.46 4822.2 7579.31 4822.2 7572.96 4822.2 7566.61 4827.35 7561.46 4833.7 7561.46 4840.05 7561.46 4845.2 7566.61 4845.2 7572.96Z" fill="#FFCB37"/><path d="M4937.2 7310.96C4937.2 7317.31 4932.05 7322.46 4925.7 7322.46 4919.35 7322.46 4914.2 7317.31 4914.2 7310.96 4914.2 7304.61 4919.35 7299.46 4925.7 7299.46 4932.05 7299.46 4937.2 7304.61 4937.2 7310.96Z" fill="#FFCB37"/><path d="M5028.2 7099.96C5028.2 7106.31 5023.05 7111.46 5016.7 7111.46 5010.35 7111.46 5005.2 7106.31 5005.2 7099.96 5005.2 7093.61 5010.35 7088.46 5016.7 7088.46 5023.05 7088.46 5028.2 7093.61 5028.2 7099.96Z" fill="#FFCB37"/><path d="M5120.2 7251.96C5120.2 7258.31 5115.05 7263.46 5108.7 7263.46 5102.35 7263.46 5097.2 7258.31 5097.2 7251.96 5097.2 7245.61 5102.35 7240.46 5108.7 7240.46 5115.05 7240.46 5120.2 7245.61 5120.2 7251.96Z" fill="#FFCB37"/><path d="M5211.2 7095.96C5211.2 7102.31 5206.05 7107.46 5199.7 7107.46 5193.35 7107.46 5188.2 7102.31 5188.2 7095.96 5188.2 7089.61 5193.35 7084.46 5199.7 7084.46 5206.05 7084.46 5211.2 7089.61 5211.2 7095.96Z" fill="#FFCB37"/><path d="M5303.2 6978.96C5303.2 6985.31 5298.05 6990.46 5291.7 6990.46 5285.35 6990.46 5280.2 6985.31 5280.2 6978.96 5280.2 6972.61 5285.35 6967.46 5291.7 6967.46 5298.05 6967.46 5303.2 6972.61 5303.2 6978.96Z" fill="#FFCB37"/><path d="M5394.2 7120.96C5394.2 7127.31 5389.05 7132.46 5382.7 7132.46 5376.35 7132.46 5371.2 7127.31 5371.2 7120.96 5371.2 7114.61 5376.35 7109.46 5382.7 7109.46 5389.05 7109.46 5394.2 7114.61 5394.2 7120.96Z" fill="#FFCB37"/><path d="M5486.2 7328.96C5486.2 7335.31 5481.05 7340.46 5474.7 7340.46 5468.35 7340.46 5463.2 7335.31 5463.2 7328.96 5463.2 7322.61 5468.35 7317.46 5474.7 7317.46 5481.05 7317.46 5486.2 7322.61 5486.2 7328.96Z" fill="#FFCB37"/><path d="M5577.2 7227.96C5577.2 7234.31 5572.05 7239.46 5565.7 7239.46 5559.35 7239.46 5554.2 7234.31 5554.2 7227.96 5554.2 7221.61 5559.35 7216.46 5565.7 7216.46 5572.05 7216.46 5577.2 7221.61 5577.2 7227.96Z" fill="#FFCB37"/><path d="M5669.2 7159.96C5669.2 7166.31 5664.05 7171.46 5657.7 7171.46 5651.35 7171.46 5646.2 7166.31 5646.2 7159.96 5646.2 7153.61 5651.35 7148.46 5657.7 7148.46 5664.05 7148.46 5669.2 7153.61 5669.2 7159.96Z" fill="#FFCB37"/><path d="M5760.2 7081.96C5760.2 7088.31 5755.05 7093.46 5748.7 7093.46 5742.35 7093.46 5737.2 7088.31 5737.2 7081.96 5737.2 7075.61 5742.35 7070.46 5748.7 7070.46 5755.05 7070.46 5760.2 7075.61 5760.2 7081.96Z" fill="#FFCB37"/><path d="M5852.2 7004.96C5852.2 7011.31 5847.05 7016.46 5840.7 7016.46 5834.35 7016.46 5829.2 7011.31 5829.2 7004.96 5829.2 6998.61 5834.35 6993.46 5840.7 6993.46 5847.05 6993.46 5852.2 6998.61 5852.2 7004.96Z" fill="#FFCB37"/><path d="M5943.2 7112.96C5943.2 7119.31 5938.05 7124.46 5931.7 7124.46 5925.35 7124.46 5920.2 7119.31 5920.2 7112.96 5920.2 7106.61 5925.35 7101.46 5931.7 7101.46 5938.05 7101.46 5943.2 7106.61 5943.2 7112.96Z" fill="#FFCB37"/><path d="M6035.2 7087.96C6035.2 7094.31 6030.05 7099.46 6023.7 7099.46 6017.35 7099.46 6012.2 7094.31 6012.2 7087.96 6012.2 7081.61 6017.35 7076.46 6023.7 7076.46 6030.05 7076.46 6035.2 7081.61 6035.2 7087.96Z" fill="#FFCB37"/><path d="M6126.2 7074.96C6126.2 7081.31 6121.05 7086.46 6114.7 7086.46 6108.35 7086.46 6103.2 7081.31 6103.2 7074.96 6103.2 7068.61 6108.35 7063.46 6114.7 7063.46 6121.05 7063.46 6126.2 7068.61 6126.2 7074.96Z" fill="#FFCB37"/></g><g><text fill="#E5E7EB" font-family="Calibri,Calibri_MSFontService,sans-serif" font-weight="400" font-size="41" transform="matrix(1 0 0 1 4560.07 7707)"> $-</text></g><g><text fill="#E5E7EB" font-family="Calibri,Calibri_MSFontService,sans-serif" font-weight="400" font-size="41" transform="matrix(1 0 0 1 4530.89 7565)"> $50</text></g><g><text fill="#E5E7EB" font-family="Calibri,Calibri_MSFontService,sans-serif" font-weight="400" font-size="41" transform="matrix(1 0 0 1 4509.99 7423)"> $100</text></g><g><text fill="#E5E7EB" font-family="Calibri,Calibri_MSFontService,sans-serif" font-weight="400" font-size="41" transform="matrix(1 0 0 1 4509.99 7282)"> $150</text></g><g><text fill="#E5E7EB" font-family="Calibri,Calibri_MSFontService,sans-serif" font-weight="400" font-size="41" transform="matrix(1 0 0 1 4509.99 7140)"> $200</text></g><g><text fill="#E5E7EB" font-family="Calibri,Calibri_MSFontService,sans-serif" font-weight="400" font-size="41" transform="matrix(1 0 0 1 4509.99 6999)"> $250</text></g><g><text fill="#E5E7EB" font-family="Calibri,Calibri_MSFontService,sans-serif" font-weight="400" font-size="41" transform="matrix(1 0 0 1 4509.99 6857)"> $300</text></g><g><text fill="#E5E7EB" font-family="Calibri,Calibri_MSFontService,sans-serif" font-weight="400" font-size="41" transform="matrix(1 0 0 1 4640.06 7760)">0</text></g><g><text fill="#E5E7EB" font-family="Calibri,Calibri_MSFontService,sans-serif" font-weight="400" font-size="41" transform="matrix(1 0 0 1 4823.03 7760)">2</text></g><g><text fill="#E5E7EB" font-family="Calibri,Calibri_MSFontService,sans-serif" font-weight="400" font-size="41" transform="matrix(1 0 0 1 5006 7760)">4</text></g><g><text fill="#E5E7EB" font-family="Calibri,Calibri_MSFontService,sans-serif" font-weight="400" font-size="41" transform="matrix(1 0 0 1 5188.97 7760)">6</text></g><g><text fill="#E5E7EB" font-family="Calibri,Calibri_MSFontService,sans-serif" font-weight="400" font-size="41" transform="matrix(1 0 0 1 5371.94 7760)">8</text></g><g><text fill="#E5E7EB" font-family="Calibri,Calibri_MSFontService,sans-serif" font-weight="400" font-size="41" transform="matrix(1 0 0 1 5544.46 7760)">10</text></g><g><text fill="#E5E7EB" font-family="Calibri,Calibri_MSFontService,sans-serif" font-weight="400" font-size="41" transform="matrix(1 0 0 1 5727.43 7760)">12</text></g><g><text fill="#E5E7EB" font-family="Calibri,Calibri_MSFontService,sans-serif" font-weight="400" font-size="41" transform="matrix(1 0 0 1 5910.4 7760)">14</text></g><g><text fill="#E5E7EB" font-family="Calibri,Calibri_MSFontService,sans-serif" font-weight="400" font-size="41" transform="matrix(1 0 0 1 6093.37 7760)">16</text></g><g><text fill="#E5E7EB" font-family="Calibri,Calibri_MSFontService,sans-serif" font-weight="400" font-size="41" transform="matrix(1 0 0 1 6276.34 7760)">18</text></g><g><text fill="#E5E7EB" font-family="Calibri,Calibri_MSFontService,sans-serif" font-weight="400" font-size="64" transform="matrix(1 0 0 1 4928.53 6771)">Profit with 50$ Engaged on Each Entry</text></g><rect x="4480.5" y="6675.5" width="1889" height="1126" stroke="#D9D9D9" stroke-width="3.4375" stroke-linejoin="round" stroke-miterlimit="10" fill="none"/></g></svg>