<svg width="1240" height="1104" xmlns="http://www.w3.org/2000/svg" xmlns:xlink="http://www.w3.org/1999/xlink" xml:space="preserve" overflow="hidden"><defs><clipPath id="clip0"><rect x="3765" y="3963" width="1240" height="1104"/></clipPath></defs><g clip-path="url(#clip0)" transform="translate(-3765 -3963)"><g><path d="M4384.52 4188.77C4568.51 4188.77 4717.67 4337.92 4717.67 4521.92 4717.67 4705.91 4568.51 4855.07 4384.52 4855.07 4200.52 4855.07 4051.37 4705.91 4051.37 4521.92 4051.37 4463.44 4066.76 4405.99 4096 4355.34L4168.13 4396.99C4099.13 4516.49 4140.08 4669.31 4259.59 4738.3 4379.09 4807.3 4531.91 4766.35 4600.91 4646.85 4669.9 4527.34 4628.96 4374.53 4509.45 4305.53 4471.47 4283.6 4428.38 4272.05 4384.52 4272.05Z" stroke="#FFFFFF" stroke-width="6.875" stroke-linejoin="round" stroke-miterlimit="10" fill="#4ADE80" fill-rule="evenodd"/></g><g><path d="M4096 4355.34C4155.51 4252.27 4265.5 4188.77 4384.52 4188.77L4384.52 4272.05C4295.25 4272.05 4212.76 4319.68 4168.13 4396.99Z" stroke="#FFFFFF" stroke-width="6.875" stroke-linejoin="round" stroke-miterlimit="10" fill="#FFCB37" fill-rule="evenodd"/></g><g><path d="M4530.5 4774.5 4613.65 4834.5 4633.5 4834.5" stroke="#A6A6A6" stroke-width="3.4375" stroke-linejoin="round" stroke-miterlimit="10" fill="none"/></g><g><path d="M4238.5 4269.5 4198.64 4213.5 4178.5 4213.5" stroke="#A6A6A6" stroke-width="3.4375" stroke-linejoin="round" stroke-miterlimit="10" fill="none"/></g><g><text fill="#4ADE80" font-family="Calibri,Calibri_MSFontService,sans-serif" font-weight="400" font-size="41" transform="matrix(1 0 0 1 4647.64 4848)">83%</text></g><g><text fill="#FFCB37" font-family="Calibri,Calibri_MSFontService,sans-serif" font-weight="400" font-size="41" transform="matrix(1 0 0 1 4093.1 4227)">17%</text></g><g><text fill="#E5E7EB" font-family="Calibri,Calibri_MSFontService,sans-serif" font-weight="400" font-size="64" transform="matrix(1 0 0 1 4219.11 4546)">WIN RATE</text></g><g><rect x="4242.5" y="4987.5" width="23" height="23" stroke="#FFFFFF" stroke-width="6.875" stroke-linejoin="round" stroke-miterlimit="10" fill="#4ADE80"/></g><g><text fill="#E5E7EB" font-family="Calibri,Calibri_MSFontService,sans-serif" font-weight="400" font-size="41" transform="matrix(1 0 0 1 4274.93 5011)">PROFIT</text></g><g><rect x="4428.5" y="4987.5" width="22" height="23" stroke="#FFFFFF" stroke-width="6.875" stroke-linejoin="round" stroke-miterlimit="10" fill="#FFCB37"/></g><g><text fill="#E5E7EB" font-family="Calibri,Calibri_MSFontService,sans-serif" font-weight="400" font-size="41" transform="matrix(1 0 0 1 4460.29 5011)">LOSS</text></g><rect x="3766.5" y="3964.5" width="1237" height="1101" stroke="#D9D9D9" stroke-width="3.4375" stroke-linejoin="round" stroke-miterlimit="10" fill="none"/></g></svg>