<svg width="1056" height="1101" xmlns="http://www.w3.org/2000/svg" xmlns:xlink="http://www.w3.org/1999/xlink" xml:space="preserve" overflow="hidden"><defs><clipPath id="clip0"><rect x="5151" y="3971" width="1056" height="1101"/></clipPath></defs><g clip-path="url(#clip0)" transform="translate(-5151 -3971)"><g><path d="M5689.71 4189.37C5878.9 4189.37 6032.27 4342.74 6032.27 4531.94 6032.27 4721.13 5878.9 4874.5 5689.71 4874.5L5689.71 4788.86C5831.6 4788.86 5946.63 4673.83 5946.63 4531.94 5946.63 4390.04 5831.6 4275.01 5689.71 4275.01Z" stroke="#FFFFFF" stroke-width="6.875" stroke-linejoin="round" stroke-miterlimit="10" fill="#4ADE80" fill-rule="evenodd"/></g><g><path d="M5689.71 4874.5C5500.51 4874.5 5347.14 4721.13 5347.14 4531.94 5347.14 4342.74 5500.51 4189.37 5689.71 4189.37L5689.71 4275.01C5547.81 4275.01 5432.78 4390.04 5432.78 4531.94 5432.78 4673.83 5547.81 4788.86 5689.71 4788.86Z" stroke="#FFFFFF" stroke-width="6.875" stroke-linejoin="round" stroke-miterlimit="10" fill="#FFCB37" fill-rule="evenodd"/></g><g><path d="M5989.5 4531.5 6053.7 4716.5 6074.5 4716.5" stroke="#A6A6A6" stroke-width="3.4375" stroke-linejoin="round" stroke-miterlimit="10" fill="none"/></g><g><path d="M5389.5 4531.5 5272.67 4472.5 5251.5 4472.5" stroke="#A6A6A6" stroke-width="3.4375" stroke-linejoin="round" stroke-miterlimit="10" fill="none"/></g><g><text fill="#4ADE80" font-family="Calibri,Calibri_MSFontService,sans-serif" font-weight="700" font-size="41" transform="matrix(1 0 0 1 6087.9 4731)">50%</text></g><g><text fill="#FFCB37" font-family="Calibri,Calibri_MSFontService,sans-serif" font-weight="700" font-size="41" transform="matrix(1 0 0 1 5166.25 4486)">50%</text></g><g><text fill="#FFCB37" font-family="Calibri,Calibri_MSFontService,sans-serif" font-weight="700" font-size="64" transform="matrix(1 0 0 1 5520.86 4548)">Short</text></g><g><text fill="#E5E7EB" font-family="Calibri,Calibri_MSFontService,sans-serif" font-weight="700" font-size="64" transform="matrix(1 0 0 1 5679.67 4548)">&amp;</text></g><g><text fill="#4ADE80" font-family="Calibri,Calibri_MSFontService,sans-serif" font-weight="700" font-size="64" transform="matrix(1 0 0 1 5739.39 4548)">Long</text></g><rect x="5152.5" y="3972.5" width="1053" height="1098" stroke="#D9D9D9" stroke-width="3.4375" stroke-linejoin="round" stroke-miterlimit="10" fill="none"/></g></svg>