<svg width="2049" height="1107" xmlns="http://www.w3.org/2000/svg" xmlns:xlink="http://www.w3.org/1999/xlink" xml:space="preserve" overflow="hidden"><defs><clipPath id="clip0"><rect x="4002" y="6692" width="2049" height="1107"/></clipPath></defs><g clip-path="url(#clip0)" transform="translate(-4002 -6692)"><g><path d="M4173.5 7607.75 5977.5 7607.75M4173.5 7525.75 5977.5 7525.75M4173.5 7442.74 5977.5 7442.74M4173.5 7359.74 5977.5 7359.74M4173.5 7276.74 5977.5 7276.74M4173.5 7193.74 5977.5 7193.74M4173.5 7111.73 5977.5 7111.73M4173.5 7028.73 5977.5 7028.73M4173.5 6945.73 5977.5 6945.73M4173.5 6862.5 5977.5 6862.5" stroke="#D9D9D9" stroke-width="3.4375" stroke-linejoin="round" stroke-miterlimit="10" fill="none"/></g><g><path d="M4353.64 6862.5 4353.64 7691.5M4534.65 6862.5 4534.65 7691.5M4714.65 6862.5 4714.65 7691.5M4895.66 6862.5 4895.66 7691.5M5075.67 6862.5 5075.67 7691.5M5255.67 6862.5 5255.67 7691.5M5436.68 6862.5 5436.68 7691.5M5616.68 6862.5 5616.68 7691.5M5797.69 6862.5 5797.69 7691.5M5977.5 6862.5 5977.5 7691.5" stroke="#D9D9D9" stroke-width="3.4375" stroke-linejoin="round" stroke-miterlimit="10" fill="none"/></g><g><path d="M0 0 0.000360892 829" stroke="#BFBFBF" stroke-width="3.4375" stroke-linejoin="round" stroke-miterlimit="10" fill="none" fill-rule="evenodd" transform="matrix(1 0 0 -1 4173.5 7691.5)"/></g><g><path d="M4173.5 7691.5 5977.5 7691.5" stroke="#BFBFBF" stroke-width="3.4375" stroke-linejoin="round" stroke-miterlimit="10" fill="none" fill-rule="evenodd"/></g><g><path d="M4263.5 7608.5 4353.64 7536.75 4443.65 7499.75 4534.65 7469.75 4624.65 7450.74 4714.65 7318.74 4804.66 7241.74 4895.66 7203.74 4985.66 7148.73 5075.67 7236.74 5165.67 7315.74 5255.67 7250.74 5346.68 7195.74 5436.68 7086.73 5526.68 7047.73 5616.68 6967.5 5707.69 6990.73 5797.5 6978.73" stroke="#FFCB37" stroke-width="6.875" stroke-linecap="round" stroke-linejoin="round" stroke-miterlimit="10" fill="none"/></g><g><path d="M4274.57 7608.31C4274.57 7614.39 4269.65 7619.31 4263.57 7619.31 4257.5 7619.31 4252.57 7614.39 4252.57 7608.31 4252.57 7602.24 4257.5 7597.31 4263.57 7597.31 4269.65 7597.31 4274.57 7602.24 4274.57 7608.31Z" stroke="#FFCB37" stroke-width="3.4375" stroke-linejoin="round" stroke-miterlimit="10" fill="#FFCB37"/><path d="M4364.57 7537.31C4364.57 7543.39 4359.65 7548.31 4353.57 7548.31 4347.5 7548.31 4342.57 7543.39 4342.57 7537.31 4342.57 7531.24 4347.5 7526.31 4353.57 7526.31 4359.65 7526.31 4364.57 7531.24 4364.57 7537.31Z" stroke="#FFCB37" stroke-width="3.4375" stroke-linejoin="round" stroke-miterlimit="10" fill="#FFCB37"/><path d="M4455.57 7499.31C4455.57 7505.39 4450.65 7510.31 4444.57 7510.31 4438.5 7510.31 4433.57 7505.39 4433.57 7499.31 4433.57 7493.24 4438.5 7488.31 4444.57 7488.31 4450.65 7488.31 4455.57 7493.24 4455.57 7499.31Z" stroke="#FFCB37" stroke-width="3.4375" stroke-linejoin="round" stroke-miterlimit="10" fill="#FFCB37"/><path d="M4545.57 7469.31C4545.57 7475.39 4540.65 7480.31 4534.57 7480.31 4528.5 7480.31 4523.57 7475.39 4523.57 7469.31 4523.57 7463.24 4528.5 7458.31 4534.57 7458.31 4540.65 7458.31 4545.57 7463.24 4545.57 7469.31Z" stroke="#FFCB37" stroke-width="3.4375" stroke-linejoin="round" stroke-miterlimit="10" fill="#FFCB37"/><path d="M4635.57 7450.31C4635.57 7456.39 4630.65 7461.31 4624.57 7461.31 4618.5 7461.31 4613.57 7456.39 4613.57 7450.31 4613.57 7444.24 4618.5 7439.31 4624.57 7439.31 4630.65 7439.31 4635.57 7444.24 4635.57 7450.31Z" stroke="#FFCB37" stroke-width="3.4375" stroke-linejoin="round" stroke-miterlimit="10" fill="#FFCB37"/><path d="M4725.57 7319.31C4725.57 7325.39 4720.65 7330.31 4714.57 7330.31 4708.5 7330.31 4703.57 7325.39 4703.57 7319.31 4703.57 7313.24 4708.5 7308.31 4714.57 7308.31 4720.65 7308.31 4725.57 7313.24 4725.57 7319.31Z" stroke="#FFCB37" stroke-width="3.4375" stroke-linejoin="round" stroke-miterlimit="10" fill="#FFCB37"/><path d="M4815.57 7241.31C4815.57 7247.39 4810.65 7252.31 4804.57 7252.31 4798.5 7252.31 4793.57 7247.39 4793.57 7241.31 4793.57 7235.24 4798.5 7230.31 4804.57 7230.31 4810.65 7230.31 4815.57 7235.24 4815.57 7241.31Z" stroke="#FFCB37" stroke-width="3.4375" stroke-linejoin="round" stroke-miterlimit="10" fill="#FFCB37"/><path d="M4906.57 7203.31C4906.57 7209.39 4901.65 7214.31 4895.57 7214.31 4889.5 7214.31 4884.57 7209.39 4884.57 7203.31 4884.57 7197.24 4889.5 7192.31 4895.57 7192.31 4901.65 7192.31 4906.57 7197.24 4906.57 7203.31Z" stroke="#FFCB37" stroke-width="3.4375" stroke-linejoin="round" stroke-miterlimit="10" fill="#FFCB37"/><path d="M4996.57 7148.31C4996.57 7154.39 4991.65 7159.31 4985.57 7159.31 4979.5 7159.31 4974.57 7154.39 4974.57 7148.31 4974.57 7142.24 4979.5 7137.31 4985.57 7137.31 4991.65 7137.31 4996.57 7142.24 4996.57 7148.31Z" stroke="#FFCB37" stroke-width="3.4375" stroke-linejoin="round" stroke-miterlimit="10" fill="#FFCB37"/><path d="M5086.57 7236.31C5086.57 7242.39 5081.65 7247.31 5075.57 7247.31 5069.5 7247.31 5064.57 7242.39 5064.57 7236.31 5064.57 7230.24 5069.5 7225.31 5075.57 7225.31 5081.65 7225.31 5086.57 7230.24 5086.57 7236.31Z" stroke="#FFCB37" stroke-width="3.4375" stroke-linejoin="round" stroke-miterlimit="10" fill="#FFCB37"/><path d="M5176.57 7315.31C5176.57 7321.39 5171.65 7326.31 5165.57 7326.31 5159.5 7326.31 5154.57 7321.39 5154.57 7315.31 5154.57 7309.24 5159.5 7304.31 5165.57 7304.31 5171.65 7304.31 5176.57 7309.24 5176.57 7315.31Z" stroke="#FFCB37" stroke-width="3.4375" stroke-linejoin="round" stroke-miterlimit="10" fill="#FFCB37"/><path d="M5267.57 7251.31C5267.57 7257.39 5262.65 7262.31 5256.57 7262.31 5250.5 7262.31 5245.57 7257.39 5245.57 7251.31 5245.57 7245.24 5250.5 7240.31 5256.57 7240.31 5262.65 7240.31 5267.57 7245.24 5267.57 7251.31Z" stroke="#FFCB37" stroke-width="3.4375" stroke-linejoin="round" stroke-miterlimit="10" fill="#FFCB37"/><path d="M5357.57 7195.31C5357.57 7201.39 5352.65 7206.31 5346.57 7206.31 5340.5 7206.31 5335.57 7201.39 5335.57 7195.31 5335.57 7189.24 5340.5 7184.31 5346.57 7184.31 5352.65 7184.31 5357.57 7189.24 5357.57 7195.31Z" stroke="#FFCB37" stroke-width="3.4375" stroke-linejoin="round" stroke-miterlimit="10" fill="#FFCB37"/><path d="M5447.57 7086.31C5447.57 7092.39 5442.65 7097.31 5436.57 7097.31 5430.5 7097.31 5425.57 7092.39 5425.57 7086.31 5425.57 7080.24 5430.5 7075.31 5436.57 7075.31 5442.65 7075.31 5447.57 7080.24 5447.57 7086.31Z" stroke="#FFCB37" stroke-width="3.4375" stroke-linejoin="round" stroke-miterlimit="10" fill="#FFCB37"/><path d="M5537.57 7047.31C5537.57 7053.39 5532.65 7058.31 5526.57 7058.31 5520.5 7058.31 5515.57 7053.39 5515.57 7047.31 5515.57 7041.24 5520.5 7036.31 5526.57 7036.31 5532.65 7036.31 5537.57 7041.24 5537.57 7047.31Z" stroke="#FFCB37" stroke-width="3.4375" stroke-linejoin="round" stroke-miterlimit="10" fill="#FFCB37"/><path d="M5628.57 6967.31C5628.57 6973.39 5623.65 6978.31 5617.57 6978.31 5611.5 6978.31 5606.57 6973.39 5606.57 6967.31 5606.57 6961.24 5611.5 6956.31 5617.57 6956.31 5623.65 6956.31 5628.57 6961.24 5628.57 6967.31Z" stroke="#FFCB37" stroke-width="3.4375" stroke-linejoin="round" stroke-miterlimit="10" fill="#FFCB37"/><path d="M5718.57 6990.31C5718.57 6996.39 5713.65 7001.31 5707.57 7001.31 5701.5 7001.31 5696.57 6996.39 5696.57 6990.31 5696.57 6984.24 5701.5 6979.31 5707.57 6979.31 5713.65 6979.31 5718.57 6984.24 5718.57 6990.31Z" stroke="#FFCB37" stroke-width="3.4375" stroke-linejoin="round" stroke-miterlimit="10" fill="#FFCB37"/><path d="M5808.57 6979.31C5808.57 6985.39 5803.65 6990.31 5797.57 6990.31 5791.5 6990.31 5786.57 6985.39 5786.57 6979.31 5786.57 6973.24 5791.5 6968.31 5797.57 6968.31 5803.65 6968.31 5808.57 6973.24 5808.57 6979.31Z" stroke="#FFCB37" stroke-width="3.4375" stroke-linejoin="round" stroke-miterlimit="10" fill="#FFCB37"/></g><g><text fill="#E5E7EB" font-family="Calibri,Calibri_MSFontService,sans-serif" font-weight="400" font-size="41" transform="matrix(1 0 0 1 4082.94 7703)"> $-</text></g><g><text fill="#E5E7EB" font-family="Calibri,Calibri_MSFontService,sans-serif" font-weight="400" font-size="41" transform="matrix(1 0 0 1 4053.76 7620)"> $50</text></g><g><text fill="#E5E7EB" font-family="Calibri,Calibri_MSFontService,sans-serif" font-weight="400" font-size="41" transform="matrix(1 0 0 1 4032.86 7537)"> $100</text></g><g><text fill="#E5E7EB" font-family="Calibri,Calibri_MSFontService,sans-serif" font-weight="400" font-size="41" transform="matrix(1 0 0 1 4032.86 7454)"> $150</text></g><g><text fill="#E5E7EB" font-family="Calibri,Calibri_MSFontService,sans-serif" font-weight="400" font-size="41" transform="matrix(1 0 0 1 4032.86 7371)"> $200</text></g><g><text fill="#E5E7EB" font-family="Calibri,Calibri_MSFontService,sans-serif" font-weight="400" font-size="41" transform="matrix(1 0 0 1 4032.86 7288)"> $250</text></g><g><text fill="#E5E7EB" font-family="Calibri,Calibri_MSFontService,sans-serif" font-weight="400" font-size="41" transform="matrix(1 0 0 1 4032.86 7206)"> $300</text></g><g><text fill="#E5E7EB" font-family="Calibri,Calibri_MSFontService,sans-serif" font-weight="400" font-size="41" transform="matrix(1 0 0 1 4032.86 7123)"> $350</text></g><g><text fill="#E5E7EB" font-family="Calibri,Calibri_MSFontService,sans-serif" font-weight="400" font-size="41" transform="matrix(1 0 0 1 4032.86 7040)"> $400</text></g><g><text fill="#E5E7EB" font-family="Calibri,Calibri_MSFontService,sans-serif" font-weight="400" font-size="41" transform="matrix(1 0 0 1 4032.86 6957)"> $450</text></g><g><text fill="#E5E7EB" font-family="Calibri,Calibri_MSFontService,sans-serif" font-weight="400" font-size="41" transform="matrix(1 0 0 1 4032.86 6874)"> $500</text></g><g><text fill="#E5E7EB" font-family="Calibri,Calibri_MSFontService,sans-serif" font-weight="400" font-size="41" transform="matrix(1 0 0 1 4162.94 7756)">0</text></g><g><text fill="#E5E7EB" font-family="Calibri,Calibri_MSFontService,sans-serif" font-weight="400" font-size="41" transform="matrix(1 0 0 1 4343.39 7756)">2</text></g><g><text fill="#E5E7EB" font-family="Calibri,Calibri_MSFontService,sans-serif" font-weight="400" font-size="41" transform="matrix(1 0 0 1 4523.84 7756)">4</text></g><g><text fill="#E5E7EB" font-family="Calibri,Calibri_MSFontService,sans-serif" font-weight="400" font-size="41" transform="matrix(1 0 0 1 4704.3 7756)">6</text></g><g><text fill="#E5E7EB" font-family="Calibri,Calibri_MSFontService,sans-serif" font-weight="400" font-size="41" transform="matrix(1 0 0 1 4884.75 7756)">8</text></g><g><text fill="#E5E7EB" font-family="Calibri,Calibri_MSFontService,sans-serif" font-weight="400" font-size="41" transform="matrix(1 0 0 1 5054.76 7756)">10</text></g><g><text fill="#E5E7EB" font-family="Calibri,Calibri_MSFontService,sans-serif" font-weight="400" font-size="41" transform="matrix(1 0 0 1 5235.21 7756)">12</text></g><g><text fill="#E5E7EB" font-family="Calibri,Calibri_MSFontService,sans-serif" font-weight="400" font-size="41" transform="matrix(1 0 0 1 5415.66 7756)">14</text></g><g><text fill="#E5E7EB" font-family="Calibri,Calibri_MSFontService,sans-serif" font-weight="400" font-size="41" transform="matrix(1 0 0 1 5596.12 7756)">16</text></g><g><text fill="#E5E7EB" font-family="Calibri,Calibri_MSFontService,sans-serif" font-weight="400" font-size="41" transform="matrix(1 0 0 1 5776.57 7756)">18</text></g><g><text fill="#E5E7EB" font-family="Calibri,Calibri_MSFontService,sans-serif" font-weight="400" font-size="41" transform="matrix(1 0 0 1 5957.03 7756)">20</text></g><g><text fill="#E5E7EB" font-family="Calibri,Calibri_MSFontService,sans-serif" font-weight="400" font-size="64" transform="matrix(1 0 0 1 4530.31 6788)">Profit with 50$ Engaged on Each Entry</text></g><rect x="4003.5" y="6693.5" width="2046" height="1104" stroke="#D9D9D9" stroke-width="3.4375" stroke-linejoin="round" stroke-miterlimit="10" fill="none"/></g></svg>