<svg width="1082" height="1104" xmlns="http://www.w3.org/2000/svg" xmlns:xlink="http://www.w3.org/1999/xlink" xml:space="preserve" overflow="hidden"><defs><clipPath id="clip0"><rect x="3112" y="5136" width="1082" height="1104"/></clipPath></defs><g clip-path="url(#clip0)" transform="translate(-3112 -5136)"><g><path d="M3652.81 5361.56C3836.81 5361.56 3985.96 5510.72 3985.96 5694.71 3985.96 5878.7 3836.81 6027.86 3652.81 6027.86 3533.79 6027.86 3423.81 5964.36 3364.3 5861.29L3436.43 5819.64C3505.42 5939.15 3658.24 5980.1 3777.74 5911.1 3897.25 5842.1 3938.2 5689.29 3869.2 5569.78 3824.57 5492.47 3742.08 5444.85 3652.81 5444.85Z" stroke="#FFFFFF" stroke-width="6.875" stroke-linejoin="round" stroke-miterlimit="10" fill="#4ADE80" fill-rule="evenodd"/></g><g><path d="M3364.3 5861.29C3272.3 5701.94 3326.9 5498.19 3486.24 5406.2 3536.88 5376.96 3594.33 5361.56 3652.81 5361.56L3652.81 5444.85C3514.82 5444.85 3402.95 5556.72 3402.95 5694.71 3402.95 5738.57 3414.5 5781.66 3436.43 5819.64Z" stroke="#FFFFFF" stroke-width="6.875" stroke-linejoin="round" stroke-miterlimit="10" fill="#FFCB37" fill-rule="evenodd"/></g><g><path d="M3905.5 5840.5 3968.63 5900.5 3989.5 5900.5" stroke="#A6A6A6" stroke-width="3.4375" stroke-linejoin="round" stroke-miterlimit="10" fill="none"/></g><g><path d="M3400.5 5548.5 3374.61 5492.5 3353.5 5492.5" stroke="#A6A6A6" stroke-width="3.4375" stroke-linejoin="round" stroke-miterlimit="10" fill="none"/></g><g><text fill="#4ADE80" font-family="Calibri,Calibri_MSFontService,sans-serif" font-weight="400" font-size="41" transform="matrix(1 0 0 1 4003.01 5914)">67%</text></g><g><text fill="#FFCB37" font-family="Calibri,Calibri_MSFontService,sans-serif" font-weight="400" font-size="41" transform="matrix(1 0 0 1 3268.81 5507)">33%</text></g><g><text fill="#E5E7EB" font-family="Calibri,Calibri_MSFontService,sans-serif" font-weight="400" font-size="64" transform="matrix(1 0 0 1 3515.11 5714)">WIN RATE</text></g><g><rect x="3510.5" y="6160.5" width="23" height="23" stroke="#FFFFFF" stroke-width="6.875" stroke-linejoin="round" stroke-miterlimit="10" fill="#4ADE80"/></g><g><text fill="#E5E7EB" font-family="Calibri,Calibri_MSFontService,sans-serif" font-weight="400" font-size="41" transform="matrix(1 0 0 1 3543.22 6183)">PROFIT</text></g><g><rect x="3696.5" y="6160.5" width="22" height="23" stroke="#FFFFFF" stroke-width="6.875" stroke-linejoin="round" stroke-miterlimit="10" fill="#FFCB37"/></g><g><text fill="#E5E7EB" font-family="Calibri,Calibri_MSFontService,sans-serif" font-weight="400" font-size="41" transform="matrix(1 0 0 1 3728.59 6183)">LOSS</text></g><rect x="3113.5" y="5137.5" width="1079" height="1101" stroke="#D9D9D9" stroke-width="3.4375" stroke-linejoin="round" stroke-miterlimit="10" fill="none"/></g></svg>