<svg width="1114" height="1073" xmlns="http://www.w3.org/2000/svg" xmlns:xlink="http://www.w3.org/1999/xlink" xml:space="preserve" overflow="hidden"><defs><clipPath id="clip0"><rect x="4406" y="5151" width="1114" height="1073"/></clipPath></defs><g clip-path="url(#clip0)" transform="translate(-4406 -5151)"><g><path d="M4974.01 5336.27C5173.55 5336.27 5335.31 5498.03 5335.31 5697.58 5335.31 5897.12 5173.55 6058.89 4974.01 6058.89 4822.11 6058.89 4686.44 5963.89 4634.49 5821.15L4719.37 5790.26C4770.56 5930.89 4926.06 6003.4 5066.69 5952.22 5207.32 5901.03 5279.83 5745.53 5228.65 5604.9 5189.68 5497.85 5087.93 5426.6 4974.01 5426.6Z" stroke="#FFFFFF" stroke-width="6.875" stroke-linejoin="round" stroke-miterlimit="10" fill="#4ADE80" fill-rule="evenodd"/></g><g><path d="M4634.49 5821.15C4566.24 5633.64 4662.92 5426.31 4850.43 5358.06 4890.04 5343.65 4931.86 5336.27 4974.01 5336.27L4974.01 5426.6C4824.35 5426.6 4703.03 5547.92 4703.03 5697.58 4703.03 5729.19 4708.56 5760.56 4719.37 5790.26Z" stroke="#FFFFFF" stroke-width="6.875" stroke-linejoin="round" stroke-miterlimit="10" fill="#FFCB37" fill-rule="evenodd"/></g><g><path d="M5232.5 5878.5 5304.67 6059.5 5325.5 6059.5" stroke="#A6A6A6" stroke-width="3.4375" stroke-linejoin="round" stroke-miterlimit="10" fill="none"/></g><g><path d="M4715.5 5516.5 4635.65 5495.5 4615.5 5495.5" stroke="#A6A6A6" stroke-width="3.4375" stroke-linejoin="round" stroke-miterlimit="10" fill="none"/></g><g><text fill="#4ADE80" font-family="Calibri,Calibri_MSFontService,sans-serif" font-weight="700" font-size="41" transform="matrix(1 0 0 1 5338.78 6073)">69%</text></g><g><text fill="#FFCB37" font-family="Calibri,Calibri_MSFontService,sans-serif" font-weight="700" font-size="41" transform="matrix(1 0 0 1 4529.67 5510)">31%</text></g><g><text fill="#FFCB37" font-family="Calibri,Calibri_MSFontService,sans-serif" font-weight="700" font-size="64" transform="matrix(1 0 0 1 4795.17 5715)">Short</text></g><g><text fill="#E5E7EB" font-family="Calibri,Calibri_MSFontService,sans-serif" font-weight="700" font-size="64" transform="matrix(1 0 0 1 4953.98 5715)">&amp;</text></g><g><text fill="#4ADE80" font-family="Calibri,Calibri_MSFontService,sans-serif" font-weight="700" font-size="64" transform="matrix(1 0 0 1 5013.7 5715)">Long</text></g><rect x="4407.5" y="5152.5" width="1111" height="1070" stroke="#D9D9D9" stroke-width="3.4375" stroke-linejoin="round" stroke-miterlimit="10" fill="none"/></g></svg>