<svg width="2095" height="1352" xmlns="http://www.w3.org/2000/svg" xmlns:xlink="http://www.w3.org/1999/xlink" xml:space="preserve" overflow="hidden"><defs><clipPath id="clip0"><rect x="3119" y="6685" width="2095" height="1352"/></clipPath><clipPath id="clip1"><rect x="3035" y="7905" width="353" height="52"/></clipPath><clipPath id="clip2"><rect x="2867" y="7518" width="646" height="51"/></clipPath><clipPath id="clip3"><rect x="2867" y="7034" width="646" height="51"/></clipPath></defs><g clip-path="url(#clip0)" transform="translate(-3119 -6685)"><rect x="3119.5" y="6685.5" width="2094" height="1350" fill="#000000" fill-opacity="0"/><rect x="3119.5" y="6685.5" width="2094" height="1350" stroke="#D9D9D9" stroke-width="3.4375" stroke-miterlimit="2" fill="none"/><g><path d="M3266.5 7833.5 5183.5 7833.5" stroke="#D9D9D9" stroke-width="3.4375" stroke-miterlimit="2" fill="none"/><path d="M3266.5 7737.5 5183.5 7737.5" stroke="#D9D9D9" stroke-width="3.4375" stroke-miterlimit="2" fill="none"/><path d="M3266.5 7640.5 5183.5 7640.5" stroke="#D9D9D9" stroke-width="3.4375" stroke-miterlimit="2" fill="none"/><path d="M3266.5 7543.5 5183.5 7543.5" stroke="#D9D9D9" stroke-width="3.4375" stroke-miterlimit="2" fill="none"/><path d="M3266.5 7446.5 5183.5 7446.5" stroke="#D9D9D9" stroke-width="3.4375" stroke-miterlimit="2" fill="none"/><path d="M3266.5 7349.5 5183.5 7349.5" stroke="#D9D9D9" stroke-width="3.4375" stroke-miterlimit="2" fill="none"/><path d="M3266.5 7253.5 5183.5 7253.5" stroke="#D9D9D9" stroke-width="3.4375" stroke-miterlimit="2" fill="none"/><path d="M3266.5 7156.5 5183.5 7156.5" stroke="#D9D9D9" stroke-width="3.4375" stroke-miterlimit="2" fill="none"/><path d="M3266.5 7059.5 5183.5 7059.5" stroke="#D9D9D9" stroke-width="3.4375" stroke-miterlimit="2" fill="none"/><path d="M3266.5 6962.5 5183.5 6962.5" stroke="#D9D9D9" stroke-width="3.4375" stroke-miterlimit="2" fill="none"/><rect x="3276" y="7861" width="34" height="69" fill="#4ADE80"/><rect x="3329" y="7749" width="35" height="111" fill="#4ADE80"/><rect x="3382" y="7673" width="35" height="75" fill="#4ADE80"/><rect x="3436" y="7631" width="34" height="41" fill="#4ADE80"/><rect x="3489" y="7631" width="34" height="48" fill="#FFCB37"/><rect x="3542" y="7620" width="35" height="59" fill="#4ADE80"/><rect x="3595" y="7584" width="35" height="35" fill="#4ADE80"/><rect x="3649" y="7523" width="34" height="60" fill="#4ADE80"/><rect x="3702" y="7523" width="34" height="39" fill="#FFCB37"/><rect x="3755" y="7475" width="35" height="87" fill="#4ADE80"/><rect x="3808" y="7397" width="35" height="77" fill="#4ADE80"/><rect x="3862" y="7397" width="34" height="47" fill="#FFCB37"/><rect x="3915" y="7430" width="34" height="14" fill="#4ADE80"/><rect x="3968" y="7331" width="35" height="98" fill="#4ADE80"/><rect x="4021" y="7331" width="35" height="24" fill="#FFCB37"/><rect x="4075" y="7315" width="34" height="40" fill="#4ADE80"/><rect x="4128" y="7315" width="34" height="49" fill="#FFCB37"/><rect x="4181" y="7365" width="35" height="55" fill="#FFCB37"/><rect x="4234" y="7346" width="35" height="74" fill="#4ADE80"/><rect x="4288" y="7297" width="34" height="48" fill="#4ADE80"/><rect x="4341" y="7259" width="34" height="37" fill="#4ADE80"/><rect x="4394" y="7167" width="35" height="91" fill="#4ADE80"/><rect x="4447" y="7167" width="35" height="47" fill="#FFCB37"/><rect x="4501" y="7125" width="34" height="89" fill="#4ADE80"/><rect x="4554" y="7065" width="34" height="59" fill="#4ADE80"/><rect x="4607" y="7065" width="35" height="47" fill="#FFCB37"/><rect x="4660" y="7113" width="35" height="11" fill="#FFCB37"/><rect x="4713" y="7058" width="35" height="66" fill="#4ADE80"/><rect x="4767" y="7023" width="34" height="34" fill="#4ADE80"/><rect x="4820" y="7023" width="34" height="10" fill="#FFCB37"/><rect x="4873" y="7034" width="35" height="34" fill="#FFCB37"/><rect x="4926" y="7057" width="35" height="11" fill="#4ADE80"/><rect x="4980" y="7033" width="34" height="23" fill="#4ADE80"/><rect x="5033" y="7033" width="34" height="15" fill="#FFCB37"/><rect x="5086" y="7030" width="35" height="18" fill="#4ADE80"/><rect x="5139" y="6988" width="35" height="41" fill="#4ADE80"/><path d="M3310.5 7860.5 3328.5 7860.5" stroke="#D9D9D9" stroke-width="3.4375" stroke-miterlimit="2" fill="none"/><path d="M3364.5 7748.5 3381.5 7748.5" stroke="#D9D9D9" stroke-width="3.4375" stroke-miterlimit="2" fill="none"/><path d="M3417.5 7672.5 3435.5 7672.5" stroke="#D9D9D9" stroke-width="3.4375" stroke-miterlimit="2" fill="none"/><path d="M3470.5 7630.5 3488.5 7630.5" stroke="#D9D9D9" stroke-width="3.4375" stroke-miterlimit="2" fill="none"/><path d="M3523.5 7679.5 3541.5 7679.5" stroke="#D9D9D9" stroke-width="3.4375" stroke-miterlimit="2" fill="none"/><path d="M3577.5 7619.5 3594.5 7619.5" stroke="#D9D9D9" stroke-width="3.4375" stroke-miterlimit="2" fill="none"/><path d="M3630.5 7583.5 3648.5 7583.5" stroke="#D9D9D9" stroke-width="3.4375" stroke-miterlimit="2" fill="none"/><path d="M3683.5 7522.5 3701.5 7522.5" stroke="#D9D9D9" stroke-width="3.4375" stroke-miterlimit="2" fill="none"/><path d="M3736.5 7562.5 3754.5 7562.5" stroke="#D9D9D9" stroke-width="3.4375" stroke-miterlimit="2" fill="none"/><path d="M3790.5 7474.5 3807.5 7474.5" stroke="#D9D9D9" stroke-width="3.4375" stroke-miterlimit="2" fill="none"/><path d="M3843.5 7396.5 3861.5 7396.5" stroke="#D9D9D9" stroke-width="3.4375" stroke-miterlimit="2" fill="none"/><path d="M3896.5 7444.5 3914.5 7444.5" stroke="#D9D9D9" stroke-width="3.4375" stroke-miterlimit="2" fill="none"/><path d="M3949.5 7429.5 3967.5 7429.5" stroke="#D9D9D9" stroke-width="3.4375" stroke-miterlimit="2" fill="none"/><path d="M4003.5 7330.5 4020.5 7330.5" stroke="#D9D9D9" stroke-width="3.4375" stroke-miterlimit="2" fill="none"/><path d="M4056.5 7355.5 4074.5 7355.5" stroke="#D9D9D9" stroke-width="3.4375" stroke-miterlimit="2" fill="none"/><path d="M4109.5 7314.5 4127.5 7314.5" stroke="#D9D9D9" stroke-width="3.4375" stroke-miterlimit="2" fill="none"/><path d="M4162.5 7364.5 4180.5 7364.5" stroke="#D9D9D9" stroke-width="3.4375" stroke-miterlimit="2" fill="none"/><path d="M4216.5 7420.5 4233.5 7420.5" stroke="#D9D9D9" stroke-width="3.4375" stroke-miterlimit="2" fill="none"/><path d="M4269.5 7345.5 4287.5 7345.5" stroke="#D9D9D9" stroke-width="3.4375" stroke-miterlimit="2" fill="none"/><path d="M4322.5 7296.5 4340.5 7296.5" stroke="#D9D9D9" stroke-width="3.4375" stroke-miterlimit="2" fill="none"/><path d="M4375.5 7258.5 4393.5 7258.5" stroke="#D9D9D9" stroke-width="3.4375" stroke-miterlimit="2" fill="none"/><path d="M4429.5 7166.5 4446.5 7166.5" stroke="#D9D9D9" stroke-width="3.4375" stroke-miterlimit="2" fill="none"/><path d="M4482.5 7214.5 4500.5 7214.5" stroke="#D9D9D9" stroke-width="3.4375" stroke-miterlimit="2" fill="none"/><path d="M4535.5 7124.5 4553.5 7124.5" stroke="#D9D9D9" stroke-width="3.4375" stroke-miterlimit="2" fill="none"/><path d="M4588.5 7064.5 4606.5 7064.5" stroke="#D9D9D9" stroke-width="3.4375" stroke-miterlimit="2" fill="none"/><path d="M4642.5 7112.5 4659.5 7112.5" stroke="#D9D9D9" stroke-width="3.4375" stroke-miterlimit="2" fill="none"/><path d="M4695.5 7124.5 4712.5 7124.5" stroke="#D9D9D9" stroke-width="3.4375" stroke-miterlimit="2" fill="none"/><path d="M4748.5 7057.5 4766.5 7057.5" stroke="#D9D9D9" stroke-width="3.4375" stroke-miterlimit="2" fill="none"/><path d="M4801.5 7022.5 4819.5 7022.5" stroke="#D9D9D9" stroke-width="3.4375" stroke-miterlimit="2" fill="none"/><path d="M4854.5 7033.5 4872.5 7033.5" stroke="#D9D9D9" stroke-width="3.4375" stroke-miterlimit="2" fill="none"/><path d="M4908.5 7068.5 4925.5 7068.5" stroke="#D9D9D9" stroke-width="3.4375" stroke-miterlimit="2" fill="none"/><path d="M4961.5 7056.5 4979.5 7056.5" stroke="#D9D9D9" stroke-width="3.4375" stroke-miterlimit="2" fill="none"/><path d="M5014.5 7032.5 5032.5 7032.5" stroke="#D9D9D9" stroke-width="3.4375" stroke-miterlimit="2" fill="none"/><path d="M5067.5 7048.5 5085.5 7048.5" stroke="#D9D9D9" stroke-width="3.4375" stroke-miterlimit="2" fill="none"/><path d="M5121.5 7029.5 5138.5 7029.5" stroke="#D9D9D9" stroke-width="3.4375" stroke-miterlimit="2" fill="none"/></g><path d="M3266.5 7930.5 5183.5 7930.5" stroke="#D9D9D9" stroke-width="3.4375" stroke-linejoin="round" stroke-miterlimit="10" fill="none"/><g><text fill="#E5E7EB" font-family="Calibri,Calibri_MSFontService,sans-serif" font-weight="400" font-size="41" transform="translate(3282.74 8000)">1</text></g><g><text fill="#E5E7EB" font-family="Calibri,Calibri_MSFontService,sans-serif" font-weight="400" font-size="41" transform="translate(3335.98 8000)">2</text></g><g><text fill="#E5E7EB" font-family="Calibri,Calibri_MSFontService,sans-serif" font-weight="400" font-size="41" transform="translate(3389.22 8000)">3</text></g><g><text fill="#E5E7EB" font-family="Calibri,Calibri_MSFontService,sans-serif" font-weight="400" font-size="41" transform="translate(3442.47 8000)">4</text></g><g><text fill="#E5E7EB" font-family="Calibri,Calibri_MSFontService,sans-serif" font-weight="400" font-size="41" transform="translate(3495.71 8000)">5</text></g><g><text fill="#E5E7EB" font-family="Calibri,Calibri_MSFontService,sans-serif" font-weight="400" font-size="41" transform="translate(3548.95 8000)">6</text></g><g><text fill="#E5E7EB" font-family="Calibri,Calibri_MSFontService,sans-serif" font-weight="400" font-size="41" transform="translate(3602.2 8000)">7</text></g><g><text fill="#E5E7EB" font-family="Calibri,Calibri_MSFontService,sans-serif" font-weight="400" font-size="41" transform="translate(3655.44 8000)">8</text></g><g><text fill="#E5E7EB" font-family="Calibri,Calibri_MSFontService,sans-serif" font-weight="400" font-size="41" transform="translate(3708.68 8000)">9</text></g><g><text fill="#E5E7EB" font-family="Calibri,Calibri_MSFontService,sans-serif" font-weight="400" font-size="41" transform="translate(3751.47 8000)">10</text></g><g><text fill="#E5E7EB" font-family="Calibri,Calibri_MSFontService,sans-serif" font-weight="400" font-size="41" transform="translate(3804.72 8000)">11</text></g><g><text fill="#E5E7EB" font-family="Calibri,Calibri_MSFontService,sans-serif" font-weight="400" font-size="41" transform="translate(3857.96 8000)">12</text></g><g><text fill="#E5E7EB" font-family="Calibri,Calibri_MSFontService,sans-serif" font-weight="400" font-size="41" transform="translate(3911.2 8000)">13</text></g><g><text fill="#E5E7EB" font-family="Calibri,Calibri_MSFontService,sans-serif" font-weight="400" font-size="41" transform="translate(3964.45 8000)">14</text></g><g><text fill="#E5E7EB" font-family="Calibri,Calibri_MSFontService,sans-serif" font-weight="400" font-size="41" transform="translate(4017.69 8000)">15</text></g><g><text fill="#E5E7EB" font-family="Calibri,Calibri_MSFontService,sans-serif" font-weight="400" font-size="41" transform="translate(4070.93 8000)">16</text></g><g><text fill="#E5E7EB" font-family="Calibri,Calibri_MSFontService,sans-serif" font-weight="400" font-size="41" transform="translate(4124.17 8000)">17</text></g><g><text fill="#E5E7EB" font-family="Calibri,Calibri_MSFontService,sans-serif" font-weight="400" font-size="41" transform="translate(4177.42 8000)">18</text></g><g><text fill="#E5E7EB" font-family="Calibri,Calibri_MSFontService,sans-serif" font-weight="400" font-size="41" transform="translate(4230.66 8000)">19</text></g><g><text fill="#E5E7EB" font-family="Calibri,Calibri_MSFontService,sans-serif" font-weight="400" font-size="41" transform="translate(4283.9 8000)">20</text></g><g><text fill="#E5E7EB" font-family="Calibri,Calibri_MSFontService,sans-serif" font-weight="400" font-size="41" transform="translate(4337.15 8000)">21</text></g><g><text fill="#E5E7EB" font-family="Calibri,Calibri_MSFontService,sans-serif" font-weight="400" font-size="41" transform="translate(4390.39 8000)">22</text></g><g><text fill="#E5E7EB" font-family="Calibri,Calibri_MSFontService,sans-serif" font-weight="400" font-size="41" transform="translate(4443.63 8000)">23</text></g><g><text fill="#E5E7EB" font-family="Calibri,Calibri_MSFontService,sans-serif" font-weight="400" font-size="41" transform="translate(4496.88 8000)">24</text></g><g><text fill="#E5E7EB" font-family="Calibri,Calibri_MSFontService,sans-serif" font-weight="400" font-size="41" transform="translate(4550.12 8000)">25</text></g><g><text fill="#E5E7EB" font-family="Calibri,Calibri_MSFontService,sans-serif" font-weight="400" font-size="41" transform="translate(4603.36 8000)">26</text></g><g><text fill="#E5E7EB" font-family="Calibri,Calibri_MSFontService,sans-serif" font-weight="400" font-size="41" transform="translate(4656.6 8000)">27</text></g><g><text fill="#E5E7EB" font-family="Calibri,Calibri_MSFontService,sans-serif" font-weight="400" font-size="41" transform="translate(4709.85 8000)">28</text></g><g><text fill="#E5E7EB" font-family="Calibri,Calibri_MSFontService,sans-serif" font-weight="400" font-size="41" transform="translate(4763.09 8000)">29</text></g><g><text fill="#E5E7EB" font-family="Calibri,Calibri_MSFontService,sans-serif" font-weight="400" font-size="41" transform="translate(4816.33 8000)">30</text></g><g><text fill="#E5E7EB" font-family="Calibri,Calibri_MSFontService,sans-serif" font-weight="400" font-size="41" transform="translate(4869.58 8000)">31</text></g><g><text fill="#E5E7EB" font-family="Calibri,Calibri_MSFontService,sans-serif" font-weight="400" font-size="41" transform="translate(4922.82 8000)">32</text></g><g><text fill="#E5E7EB" font-family="Calibri,Calibri_MSFontService,sans-serif" font-weight="400" font-size="41" transform="translate(4976.06 8000)">33</text></g><g><text fill="#E5E7EB" font-family="Calibri,Calibri_MSFontService,sans-serif" font-weight="400" font-size="41" transform="translate(5029.3 8000)">34</text></g><g><text fill="#E5E7EB" font-family="Calibri,Calibri_MSFontService,sans-serif" font-weight="400" font-size="41" transform="translate(5082.55 8000)">35</text></g><g><text fill="#E5E7EB" font-family="Calibri,Calibri_MSFontService,sans-serif" font-weight="400" font-size="41" transform="translate(5135.79 8000)">36</text></g><path d="M3266.5 7930.5 3266.5 6962.5" stroke="#D9D9D9" stroke-width="3.4375" stroke-linejoin="round" stroke-miterlimit="10" fill="none"/><g clip-path="url(#clip1)"><text fill="#E5E7EB" font-family="Calibri,Calibri_MSFontService,sans-serif" font-weight="400" font-size="41" transform="translate(3186.22 7944)">0%</text></g><g><text fill="#E5E7EB" font-family="Calibri,Calibri_MSFontService,sans-serif" font-weight="400" font-size="41" transform="translate(3165.22 7848)">50%</text></g><g><text fill="#E5E7EB" font-family="Calibri,Calibri_MSFontService,sans-serif" font-weight="400" font-size="41" transform="translate(3144.21 7751)">100%</text></g><g><text fill="#E5E7EB" font-family="Calibri,Calibri_MSFontService,sans-serif" font-weight="400" font-size="41" transform="translate(3144.21 7654)">150%</text></g><g clip-path="url(#clip2)"><text fill="#E5E7EB" font-family="Calibri,Calibri_MSFontService,sans-serif" font-weight="400" font-size="41" transform="translate(3144.21 7557)">200%</text></g><g><text fill="#E5E7EB" font-family="Calibri,Calibri_MSFontService,sans-serif" font-weight="400" font-size="41" transform="translate(3144.21 7461)">250%</text></g><g><text fill="#E5E7EB" font-family="Calibri,Calibri_MSFontService,sans-serif" font-weight="400" font-size="41" transform="translate(3144.21 7364)">300%</text></g><g><text fill="#E5E7EB" font-family="Calibri,Calibri_MSFontService,sans-serif" font-weight="400" font-size="41" transform="translate(3144.21 7267)">350%</text></g><g><text fill="#E5E7EB" font-family="Calibri,Calibri_MSFontService,sans-serif" font-weight="400" font-size="41" transform="translate(3144.21 7170)">400%</text></g><g clip-path="url(#clip3)"><text fill="#E5E7EB" font-family="Calibri,Calibri_MSFontService,sans-serif" font-weight="400" font-size="41" transform="translate(3144.21 7073)">450%</text></g><g><text fill="#E5E7EB" font-family="Calibri,Calibri_MSFontService,sans-serif" font-weight="400" font-size="41" transform="translate(3144.21 6977)">500%</text></g><g><text fill="#E5E7EB" font-family="Calibri,Calibri_MSFontService,sans-serif" font-weight="400" font-size="64" transform="translate(3858.97 6771)">SIGNALS GROSS PROFIT </text></g><rect x="3875" y="6847" width="32" height="32" fill="#4ADE80"/><g><text fill="#E5E7EB" font-family="Calibri,Calibri_MSFontService,sans-serif" font-weight="400" font-size="41" transform="translate(3925.19 6877)">Increase</text></g><rect x="4100" y="6847" width="32" height="32" fill="#FFCB37"/><g><text fill="#E5E7EB" font-family="Calibri,Calibri_MSFontService,sans-serif" font-weight="400" font-size="41" transform="translate(4150.04 6877)">Decrease</text></g><rect x="4339" y="6847" width="32" height="32" fill="#A5A5A5"/><g><text fill="#E5E7EB" font-family="Calibri,Calibri_MSFontService,sans-serif" font-weight="400" font-size="41" transform="translate(4388.42 6877)">Total</text></g><path d="M3119 6686 5213.22 6686 5213.22 8036.94 3119 8036.94Z" fill="#000000" fill-rule="evenodd" fill-opacity="0"/></g></svg>