<svg width="2133" height="1301" xmlns="http://www.w3.org/2000/svg" xmlns:xlink="http://www.w3.org/1999/xlink" xml:space="preserve" overflow="hidden"><defs><clipPath id="clip0"><rect x="3082" y="8188" width="2133" height="1301"/></clipPath></defs><g clip-path="url(#clip0)" transform="translate(-3082 -8188)"><g><path d="M3305.5 9210.8 5141.5 9210.8M3305.5 9039.8 5141.5 9039.8M3305.5 8869.79 5141.5 8869.79M3305.5 8699.79 5141.5 8699.79M3305.5 8528.78 5141.5 8528.78M3305.5 8358.5 5141.5 8358.5" stroke="#D9D9D9" stroke-width="3.4375" stroke-linejoin="round" stroke-miterlimit="10" fill="none"/></g><g><path d="M3535.62 8358.5 3535.62 9381.5M3764.62 8358.5 3764.62 9381.5M3994.63 8358.5 3994.63 9381.5M4223.64 8358.5 4223.64 9381.5M4453.65 8358.5 4453.65 9381.5M4682.65 8358.5 4682.65 9381.5M4912.66 8358.5 4912.66 9381.5M5141.5 8358.5 5141.5 9381.5" stroke="#D9D9D9" stroke-width="3.4375" stroke-linejoin="round" stroke-miterlimit="10" fill="none"/></g><g><path d="M0 0 0.000360892 1023" stroke="#BFBFBF" stroke-width="3.4375" stroke-linejoin="round" stroke-miterlimit="10" fill="none" fill-rule="evenodd" transform="matrix(1 0 0 -1 3305.5 9381.5)"/></g><g><path d="M3305.5 9381.5 5141.5 9381.5" stroke="#BFBFBF" stroke-width="3.4375" stroke-linejoin="round" stroke-miterlimit="10" fill="none" fill-rule="evenodd"/></g><g><path d="M3351.5 9319.5 3397.61 9220.8 3443.61 9153.8 3489.61 9116.8 3535.62 9160.8 3581.62 9107.8 3626.62 9075.8 3672.62 9021.8 3718.62 9056.8 3764.62 8978.79 3810.62 8910.79 3856.63 8952.79 3902.63 8940.79 3948.63 8852.79 3994.63 8874.79 4040.63 8838.79 4085.63 8882.79 4131.64 8931.79 4177.64 8865.79 4223.64 8822.79 4269.64 8789.79 4315.64 8708.79 4361.64 8750.79 4407.64 8671.79 4453.65 8618.78 4499.65 8660.78 4545.65 8670.79 4590.65 8611.78 4636.65 8581.78 4682.65 8590.78 4728.66 8621.78 4774.66 8611.78 4820.66 8589.78 4866.66 8604.78 4912.66 8587.78 4958.5 8550.5" stroke="#FFCB37" stroke-width="6.875" stroke-linecap="round" stroke-linejoin="round" stroke-miterlimit="10" fill="none"/></g><g><path d="M3362.66 9319.01C3362.66 9325.08 3357.73 9330.01 3351.66 9330.01 3345.58 9330.01 3340.66 9325.08 3340.66 9319.01 3340.66 9312.93 3345.58 9308.01 3351.66 9308.01 3357.73 9308.01 3362.66 9312.93 3362.66 9319.01Z" stroke="#FFCB37" stroke-width="3.4375" stroke-linejoin="round" stroke-miterlimit="10" fill="#FFCB37"/><path d="M3408.66 9220.01C3408.66 9226.08 3403.73 9231.01 3397.66 9231.01 3391.58 9231.01 3386.66 9226.08 3386.66 9220.01 3386.66 9213.93 3391.58 9209.01 3397.66 9209.01 3403.73 9209.01 3408.66 9213.93 3408.66 9220.01Z" stroke="#FFCB37" stroke-width="3.4375" stroke-linejoin="round" stroke-miterlimit="10" fill="#FFCB37"/><path d="M3454.66 9153.01C3454.66 9159.08 3449.73 9164.01 3443.66 9164.01 3437.58 9164.01 3432.66 9159.08 3432.66 9153.01 3432.66 9146.93 3437.58 9142.01 3443.66 9142.01 3449.73 9142.01 3454.66 9146.93 3454.66 9153.01Z" stroke="#FFCB37" stroke-width="3.4375" stroke-linejoin="round" stroke-miterlimit="10" fill="#FFCB37"/><path d="M3500.66 9116.01C3500.66 9122.08 3495.73 9127.01 3489.66 9127.01 3483.58 9127.01 3478.66 9122.08 3478.66 9116.01 3478.66 9109.93 3483.58 9105.01 3489.66 9105.01 3495.73 9105.01 3500.66 9109.93 3500.66 9116.01Z" stroke="#FFCB37" stroke-width="3.4375" stroke-linejoin="round" stroke-miterlimit="10" fill="#FFCB37"/><path d="M3546.66 9160.01C3546.66 9166.08 3541.73 9171.01 3535.66 9171.01 3529.58 9171.01 3524.66 9166.08 3524.66 9160.01 3524.66 9153.93 3529.58 9149.01 3535.66 9149.01 3541.73 9149.01 3546.66 9153.93 3546.66 9160.01Z" stroke="#FFCB37" stroke-width="3.4375" stroke-linejoin="round" stroke-miterlimit="10" fill="#FFCB37"/><path d="M3592.66 9107.01C3592.66 9113.08 3587.73 9118.01 3581.66 9118.01 3575.58 9118.01 3570.66 9113.08 3570.66 9107.01 3570.66 9100.93 3575.58 9096.01 3581.66 9096.01 3587.73 9096.01 3592.66 9100.93 3592.66 9107.01Z" stroke="#FFCB37" stroke-width="3.4375" stroke-linejoin="round" stroke-miterlimit="10" fill="#FFCB37"/><path d="M3638.66 9075.01C3638.66 9081.08 3633.73 9086.01 3627.66 9086.01 3621.58 9086.01 3616.66 9081.08 3616.66 9075.01 3616.66 9068.93 3621.58 9064.01 3627.66 9064.01 3633.73 9064.01 3638.66 9068.93 3638.66 9075.01Z" stroke="#FFCB37" stroke-width="3.4375" stroke-linejoin="round" stroke-miterlimit="10" fill="#FFCB37"/><path d="M3683.66 9021.01C3683.66 9027.08 3678.73 9032.01 3672.66 9032.01 3666.58 9032.01 3661.66 9027.08 3661.66 9021.01 3661.66 9014.93 3666.58 9010.01 3672.66 9010.01 3678.73 9010.01 3683.66 9014.93 3683.66 9021.01Z" stroke="#FFCB37" stroke-width="3.4375" stroke-linejoin="round" stroke-miterlimit="10" fill="#FFCB37"/><path d="M3729.66 9056.01C3729.66 9062.08 3724.73 9067.01 3718.66 9067.01 3712.58 9067.01 3707.66 9062.08 3707.66 9056.01 3707.66 9049.93 3712.58 9045.01 3718.66 9045.01 3724.73 9045.01 3729.66 9049.93 3729.66 9056.01Z" stroke="#FFCB37" stroke-width="3.4375" stroke-linejoin="round" stroke-miterlimit="10" fill="#FFCB37"/><path d="M3775.66 8979.01C3775.66 8985.08 3770.73 8990.01 3764.66 8990.01 3758.58 8990.01 3753.66 8985.08 3753.66 8979.01 3753.66 8972.93 3758.58 8968.01 3764.66 8968.01 3770.73 8968.01 3775.66 8972.93 3775.66 8979.01Z" stroke="#FFCB37" stroke-width="3.4375" stroke-linejoin="round" stroke-miterlimit="10" fill="#FFCB37"/><path d="M3821.66 8910.01C3821.66 8916.08 3816.73 8921.01 3810.66 8921.01 3804.58 8921.01 3799.66 8916.08 3799.66 8910.01 3799.66 8903.93 3804.58 8899.01 3810.66 8899.01 3816.73 8899.01 3821.66 8903.93 3821.66 8910.01Z" stroke="#FFCB37" stroke-width="3.4375" stroke-linejoin="round" stroke-miterlimit="10" fill="#FFCB37"/><path d="M3867.66 8952.01C3867.66 8958.08 3862.73 8963.01 3856.66 8963.01 3850.58 8963.01 3845.66 8958.08 3845.66 8952.01 3845.66 8945.93 3850.58 8941.01 3856.66 8941.01 3862.73 8941.01 3867.66 8945.93 3867.66 8952.01Z" stroke="#FFCB37" stroke-width="3.4375" stroke-linejoin="round" stroke-miterlimit="10" fill="#FFCB37"/><path d="M3913.66 8940.01C3913.66 8946.08 3908.73 8951.01 3902.66 8951.01 3896.58 8951.01 3891.66 8946.08 3891.66 8940.01 3891.66 8933.93 3896.58 8929.01 3902.66 8929.01 3908.73 8929.01 3913.66 8933.93 3913.66 8940.01Z" stroke="#FFCB37" stroke-width="3.4375" stroke-linejoin="round" stroke-miterlimit="10" fill="#FFCB37"/><path d="M3959.66 8852.01C3959.66 8858.08 3954.73 8863.01 3948.66 8863.01 3942.58 8863.01 3937.66 8858.08 3937.66 8852.01 3937.66 8845.93 3942.58 8841.01 3948.66 8841.01 3954.73 8841.01 3959.66 8845.93 3959.66 8852.01Z" stroke="#FFCB37" stroke-width="3.4375" stroke-linejoin="round" stroke-miterlimit="10" fill="#FFCB37"/><path d="M4005.66 8874.01C4005.66 8880.08 4000.73 8885.01 3994.66 8885.01 3988.58 8885.01 3983.66 8880.08 3983.66 8874.01 3983.66 8867.93 3988.58 8863.01 3994.66 8863.01 4000.73 8863.01 4005.66 8867.93 4005.66 8874.01Z" stroke="#FFCB37" stroke-width="3.4375" stroke-linejoin="round" stroke-miterlimit="10" fill="#FFCB37"/><path d="M4051.66 8839.01C4051.66 8845.08 4046.73 8850.01 4040.66 8850.01 4034.58 8850.01 4029.66 8845.08 4029.66 8839.01 4029.66 8832.93 4034.58 8828.01 4040.66 8828.01 4046.73 8828.01 4051.66 8832.93 4051.66 8839.01Z" stroke="#FFCB37" stroke-width="3.4375" stroke-linejoin="round" stroke-miterlimit="10" fill="#FFCB37"/><path d="M4097.66 8882.01C4097.66 8888.08 4092.73 8893.01 4086.66 8893.01 4080.58 8893.01 4075.66 8888.08 4075.66 8882.01 4075.66 8875.93 4080.58 8871.01 4086.66 8871.01 4092.73 8871.01 4097.66 8875.93 4097.66 8882.01Z" stroke="#FFCB37" stroke-width="3.4375" stroke-linejoin="round" stroke-miterlimit="10" fill="#FFCB37"/><path d="M4143.66 8931.01C4143.66 8937.08 4138.73 8942.01 4132.66 8942.01 4126.58 8942.01 4121.66 8937.08 4121.66 8931.01 4121.66 8924.93 4126.58 8920.01 4132.66 8920.01 4138.73 8920.01 4143.66 8924.93 4143.66 8931.01Z" stroke="#FFCB37" stroke-width="3.4375" stroke-linejoin="round" stroke-miterlimit="10" fill="#FFCB37"/><path d="M4188.66 8865.01C4188.66 8871.08 4183.73 8876.01 4177.66 8876.01 4171.58 8876.01 4166.66 8871.08 4166.66 8865.01 4166.66 8858.93 4171.58 8854.01 4177.66 8854.01 4183.73 8854.01 4188.66 8858.93 4188.66 8865.01Z" stroke="#FFCB37" stroke-width="3.4375" stroke-linejoin="round" stroke-miterlimit="10" fill="#FFCB37"/><path d="M4234.66 8823.01C4234.66 8829.08 4229.73 8834.01 4223.66 8834.01 4217.58 8834.01 4212.66 8829.08 4212.66 8823.01 4212.66 8816.93 4217.58 8812.01 4223.66 8812.01 4229.73 8812.01 4234.66 8816.93 4234.66 8823.01Z" stroke="#FFCB37" stroke-width="3.4375" stroke-linejoin="round" stroke-miterlimit="10" fill="#FFCB37"/><path d="M4280.66 8789.01C4280.66 8795.08 4275.73 8800.01 4269.66 8800.01 4263.58 8800.01 4258.66 8795.08 4258.66 8789.01 4258.66 8782.93 4263.58 8778.01 4269.66 8778.01 4275.73 8778.01 4280.66 8782.93 4280.66 8789.01Z" stroke="#FFCB37" stroke-width="3.4375" stroke-linejoin="round" stroke-miterlimit="10" fill="#FFCB37"/><path d="M4326.66 8708.01C4326.66 8714.08 4321.73 8719.01 4315.66 8719.01 4309.58 8719.01 4304.66 8714.08 4304.66 8708.01 4304.66 8701.93 4309.58 8697.01 4315.66 8697.01 4321.73 8697.01 4326.66 8701.93 4326.66 8708.01Z" stroke="#FFCB37" stroke-width="3.4375" stroke-linejoin="round" stroke-miterlimit="10" fill="#FFCB37"/><path d="M4372.66 8750.01C4372.66 8756.08 4367.73 8761.01 4361.66 8761.01 4355.58 8761.01 4350.66 8756.08 4350.66 8750.01 4350.66 8743.93 4355.58 8739.01 4361.66 8739.01 4367.73 8739.01 4372.66 8743.93 4372.66 8750.01Z" stroke="#FFCB37" stroke-width="3.4375" stroke-linejoin="round" stroke-miterlimit="10" fill="#FFCB37"/><path d="M4418.66 8671.01C4418.66 8677.08 4413.73 8682.01 4407.66 8682.01 4401.58 8682.01 4396.66 8677.08 4396.66 8671.01 4396.66 8664.93 4401.58 8660.01 4407.66 8660.01 4413.73 8660.01 4418.66 8664.93 4418.66 8671.01Z" stroke="#FFCB37" stroke-width="3.4375" stroke-linejoin="round" stroke-miterlimit="10" fill="#FFCB37"/><path d="M4464.66 8618.01C4464.66 8624.08 4459.73 8629.01 4453.66 8629.01 4447.58 8629.01 4442.66 8624.08 4442.66 8618.01 4442.66 8611.93 4447.58 8607.01 4453.66 8607.01 4459.73 8607.01 4464.66 8611.93 4464.66 8618.01Z" stroke="#FFCB37" stroke-width="3.4375" stroke-linejoin="round" stroke-miterlimit="10" fill="#FFCB37"/><path d="M4510.66 8660.01C4510.66 8666.08 4505.73 8671.01 4499.66 8671.01 4493.58 8671.01 4488.66 8666.08 4488.66 8660.01 4488.66 8653.93 4493.58 8649.01 4499.66 8649.01 4505.73 8649.01 4510.66 8653.93 4510.66 8660.01Z" stroke="#FFCB37" stroke-width="3.4375" stroke-linejoin="round" stroke-miterlimit="10" fill="#FFCB37"/><path d="M4556.66 8671.01C4556.66 8677.08 4551.73 8682.01 4545.66 8682.01 4539.58 8682.01 4534.66 8677.08 4534.66 8671.01 4534.66 8664.93 4539.58 8660.01 4545.66 8660.01 4551.73 8660.01 4556.66 8664.93 4556.66 8671.01Z" stroke="#FFCB37" stroke-width="3.4375" stroke-linejoin="round" stroke-miterlimit="10" fill="#FFCB37"/><path d="M4602.66 8612.01C4602.66 8618.08 4597.73 8623.01 4591.66 8623.01 4585.58 8623.01 4580.66 8618.08 4580.66 8612.01 4580.66 8605.93 4585.58 8601.01 4591.66 8601.01 4597.73 8601.01 4602.66 8605.93 4602.66 8612.01Z" stroke="#FFCB37" stroke-width="3.4375" stroke-linejoin="round" stroke-miterlimit="10" fill="#FFCB37"/><path d="M4647.66 8581.01C4647.66 8587.08 4642.73 8592.01 4636.66 8592.01 4630.58 8592.01 4625.66 8587.08 4625.66 8581.01 4625.66 8574.93 4630.58 8570.01 4636.66 8570.01 4642.73 8570.01 4647.66 8574.93 4647.66 8581.01Z" stroke="#FFCB37" stroke-width="3.4375" stroke-linejoin="round" stroke-miterlimit="10" fill="#FFCB37"/><path d="M4693.66 8591.01C4693.66 8597.08 4688.73 8602.01 4682.66 8602.01 4676.58 8602.01 4671.66 8597.08 4671.66 8591.01 4671.66 8584.93 4676.58 8580.01 4682.66 8580.01 4688.73 8580.01 4693.66 8584.93 4693.66 8591.01Z" stroke="#FFCB37" stroke-width="3.4375" stroke-linejoin="round" stroke-miterlimit="10" fill="#FFCB37"/><path d="M4739.66 8621.01C4739.66 8627.08 4734.73 8632.01 4728.66 8632.01 4722.58 8632.01 4717.66 8627.08 4717.66 8621.01 4717.66 8614.93 4722.58 8610.01 4728.66 8610.01 4734.73 8610.01 4739.66 8614.93 4739.66 8621.01Z" stroke="#FFCB37" stroke-width="3.4375" stroke-linejoin="round" stroke-miterlimit="10" fill="#FFCB37"/><path d="M4785.66 8611.01C4785.66 8617.08 4780.73 8622.01 4774.66 8622.01 4768.58 8622.01 4763.66 8617.08 4763.66 8611.01 4763.66 8604.93 4768.58 8600.01 4774.66 8600.01 4780.73 8600.01 4785.66 8604.93 4785.66 8611.01Z" stroke="#FFCB37" stroke-width="3.4375" stroke-linejoin="round" stroke-miterlimit="10" fill="#FFCB37"/><path d="M4831.66 8590.01C4831.66 8596.08 4826.73 8601.01 4820.66 8601.01 4814.58 8601.01 4809.66 8596.08 4809.66 8590.01 4809.66 8583.93 4814.58 8579.01 4820.66 8579.01 4826.73 8579.01 4831.66 8583.93 4831.66 8590.01Z" stroke="#FFCB37" stroke-width="3.4375" stroke-linejoin="round" stroke-miterlimit="10" fill="#FFCB37"/><path d="M4877.66 8604.01C4877.66 8610.08 4872.73 8615.01 4866.66 8615.01 4860.58 8615.01 4855.66 8610.08 4855.66 8604.01 4855.66 8597.93 4860.58 8593.01 4866.66 8593.01 4872.73 8593.01 4877.66 8597.93 4877.66 8604.01Z" stroke="#FFCB37" stroke-width="3.4375" stroke-linejoin="round" stroke-miterlimit="10" fill="#FFCB37"/><path d="M4923.66 8587.01C4923.66 8593.08 4918.73 8598.01 4912.66 8598.01 4906.58 8598.01 4901.66 8593.08 4901.66 8587.01 4901.66 8580.93 4906.58 8576.01 4912.66 8576.01 4918.73 8576.01 4923.66 8580.93 4923.66 8587.01Z" stroke="#FFCB37" stroke-width="3.4375" stroke-linejoin="round" stroke-miterlimit="10" fill="#FFCB37"/><path d="M4969.66 8550.01C4969.66 8556.08 4964.73 8561.01 4958.66 8561.01 4952.58 8561.01 4947.66 8556.08 4947.66 8550.01 4947.66 8543.93 4952.58 8539.01 4958.66 8539.01 4964.73 8539.01 4969.66 8543.93 4969.66 8550.01Z" stroke="#FFCB37" stroke-width="3.4375" stroke-linejoin="round" stroke-miterlimit="10" fill="#FFCB37"/></g><g><text fill="#E5E7EB" font-family="Calibri,Calibri_MSFontService,sans-serif" font-weight="400" font-size="41" transform="matrix(1 0 0 1 3196.57 9393)"> $-</text></g><g><text fill="#E5E7EB" font-family="Calibri,Calibri_MSFontService,sans-serif" font-weight="400" font-size="41" transform="matrix(1 0 0 1 3133.85 9222)"> $50.00</text></g><g><text fill="#E5E7EB" font-family="Calibri,Calibri_MSFontService,sans-serif" font-weight="400" font-size="41" transform="matrix(1 0 0 1 3112.95 9052)"> $100.00</text></g><g><text fill="#E5E7EB" font-family="Calibri,Calibri_MSFontService,sans-serif" font-weight="400" font-size="41" transform="matrix(1 0 0 1 3112.95 8881)"> $150.00</text></g><g><text fill="#E5E7EB" font-family="Calibri,Calibri_MSFontService,sans-serif" font-weight="400" font-size="41" transform="matrix(1 0 0 1 3112.95 8711)"> $200.00</text></g><g><text fill="#E5E7EB" font-family="Calibri,Calibri_MSFontService,sans-serif" font-weight="400" font-size="41" transform="matrix(1 0 0 1 3112.95 8540)"> $250.00</text></g><g><text fill="#E5E7EB" font-family="Calibri,Calibri_MSFontService,sans-serif" font-weight="400" font-size="41" transform="matrix(1 0 0 1 3112.95 8370)"> $300.00</text></g><g><text fill="#E5E7EB" font-family="Calibri,Calibri_MSFontService,sans-serif" font-weight="400" font-size="41" transform="matrix(1 0 0 1 3295.23 9446)">0</text></g><g><text fill="#E5E7EB" font-family="Calibri,Calibri_MSFontService,sans-serif" font-weight="400" font-size="41" transform="matrix(1 0 0 1 3524.76 9446)">5</text></g><g><text fill="#E5E7EB" font-family="Calibri,Calibri_MSFontService,sans-serif" font-weight="400" font-size="41" transform="matrix(1 0 0 1 3743.85 9446)">10</text></g><g><text fill="#E5E7EB" font-family="Calibri,Calibri_MSFontService,sans-serif" font-weight="400" font-size="41" transform="matrix(1 0 0 1 3973.38 9446)">15</text></g><g><text fill="#E5E7EB" font-family="Calibri,Calibri_MSFontService,sans-serif" font-weight="400" font-size="41" transform="matrix(1 0 0 1 4202.92 9446)">20</text></g><g><text fill="#E5E7EB" font-family="Calibri,Calibri_MSFontService,sans-serif" font-weight="400" font-size="41" transform="matrix(1 0 0 1 4432.46 9446)">25</text></g><g><text fill="#E5E7EB" font-family="Calibri,Calibri_MSFontService,sans-serif" font-weight="400" font-size="41" transform="matrix(1 0 0 1 4661.99 9446)">30</text></g><g><text fill="#E5E7EB" font-family="Calibri,Calibri_MSFontService,sans-serif" font-weight="400" font-size="41" transform="matrix(1 0 0 1 4891.53 9446)">35</text></g><g><text fill="#E5E7EB" font-family="Calibri,Calibri_MSFontService,sans-serif" font-weight="400" font-size="41" transform="matrix(1 0 0 1 5121.06 9446)">40</text></g><g><text fill="#E5E7EB" font-family="Calibri,Calibri_MSFontService,sans-serif" font-weight="400" font-size="64" transform="matrix(1 0 0 1 3709.16 8284)">Profit with 50$ put on each Signal</text></g><rect x="3083.5" y="8189.5" width="2130" height="1298" stroke="#D9D9D9" stroke-width="3.4375" stroke-linejoin="round" stroke-miterlimit="10" fill="none"/></g></svg>