<svg width="1062" height="1058" xmlns="http://www.w3.org/2000/svg" xmlns:xlink="http://www.w3.org/1999/xlink" xml:space="preserve" overflow="hidden"><defs><clipPath id="clip0"><rect x="3301" y="3924" width="1062" height="1058"/></clipPath></defs><g clip-path="url(#clip0)" transform="translate(-3301 -3924)"><g><path d="M3831.67 4146.64C4004.51 4146.64 4144.63 4286.76 4144.63 4459.6 4144.63 4632.44 4004.51 4772.56 3831.67 4772.56 3691.81 4772.56 3568.93 4679.76 3530.66 4545.25L3605.91 4523.83C3641.39 4648.52 3771.22 4720.83 3895.9 4685.36 4020.59 4649.88 4092.91 4520.05 4057.43 4395.37 4028.72 4294.48 3936.56 4224.88 3831.67 4224.88Z" stroke="#FFFFFF" stroke-width="6.875" stroke-linejoin="round" stroke-miterlimit="10" fill="#4ADE80" fill-rule="evenodd"/></g><g><path d="M3530.66 4545.25C3483.36 4379 3579.78 4205.89 3746.02 4158.59 3773.88 4150.66 3802.71 4146.64 3831.67 4146.64L3831.67 4224.88C3702.04 4224.88 3596.95 4329.97 3596.95 4459.6 3596.95 4481.32 3599.97 4502.94 3605.91 4523.83Z" stroke="#FFFFFF" stroke-width="6.875" stroke-linejoin="round" stroke-miterlimit="10" fill="#FFCB37" fill-rule="evenodd"/></g><g><path d="M4050.5 4624.5 4111.64 4682.5 4131.5 4682.5" stroke="#A6A6A6" stroke-width="3.4375" stroke-linejoin="round" stroke-miterlimit="10" fill="none"/></g><g><path d="M3613.5 4294.5 3588.62 4240.5 3568.5 4240.5" stroke="#A6A6A6" stroke-width="3.4375" stroke-linejoin="round" stroke-miterlimit="10" fill="none"/></g><g><text fill="#4ADE80" font-family="Calibri,Calibri_MSFontService,sans-serif" font-weight="400" font-size="41" transform="matrix(1 0 0 1 4145.54 4696)">71%</text></g><g><text fill="#FFCB37" font-family="Calibri,Calibri_MSFontService,sans-serif" font-weight="400" font-size="41" transform="matrix(1 0 0 1 3483.31 4255)">29%</text></g><g><text fill="#E5E7EB" font-family="Calibri,Calibri_MSFontService,sans-serif" font-weight="400" font-size="64" transform="matrix(1 0 0 1 3697.37 4476)">WIN RATE</text></g><g><rect x="3689.5" y="4902.5" width="23" height="22" stroke="#FFFFFF" stroke-width="6.875" stroke-linejoin="round" stroke-miterlimit="10" fill="#4ADE80"/></g><g><text fill="#E5E7EB" font-family="Calibri,Calibri_MSFontService,sans-serif" font-weight="400" font-size="41" transform="matrix(1 0 0 1 3722.08 4925)">PROFIT</text></g><g><rect x="3875.5" y="4902.5" width="22" height="22" stroke="#FFFFFF" stroke-width="6.875" stroke-linejoin="round" stroke-miterlimit="10" fill="#FFCB37"/></g><g><text fill="#E5E7EB" font-family="Calibri,Calibri_MSFontService,sans-serif" font-weight="400" font-size="41" transform="matrix(1 0 0 1 3907.44 4925)">LOSS</text></g><rect x="3302.5" y="3925.5" width="1059" height="1055" stroke="#D9D9D9" stroke-width="3.4375" stroke-linejoin="round" stroke-miterlimit="10" fill="none"/></g></svg>