<svg width="1059" height="1056" xmlns="http://www.w3.org/2000/svg" xmlns:xlink="http://www.w3.org/1999/xlink" xml:space="preserve" overflow="hidden"><defs><clipPath id="clip0"><rect x="4568" y="3922" width="1059" height="1056"/></clipPath></defs><g clip-path="url(#clip0)" transform="translate(-4568 -3922)"><g><path d="M5107.96 4116.15C5297.79 4116.15 5451.68 4270.04 5451.68 4459.87 5451.68 4598.89 5367.93 4724.22 5239.49 4777.42L5206.61 4698.03C5338.15 4643.55 5400.61 4492.75 5346.12 4361.21 5306.22 4264.89 5212.22 4202.08 5107.96 4202.08Z" stroke="#FFFFFF" stroke-width="6.875" stroke-linejoin="round" stroke-miterlimit="10" fill="#4ADE80" fill-rule="evenodd"/></g><g><path d="M5239.49 4777.42C5064.11 4850.07 4863.05 4766.79 4790.4 4591.4 4717.76 4416.02 4801.04 4214.96 4976.42 4142.31 5018.12 4125.04 5062.82 4116.15 5107.96 4116.15L5107.96 4202.08C4965.58 4202.08 4850.17 4317.49 4850.17 4459.87 4850.17 4602.24 4965.58 4717.66 5107.96 4717.66 5141.81 4717.66 5175.33 4710.99 5206.61 4698.03Z" stroke="#FFFFFF" stroke-width="6.875" stroke-linejoin="round" stroke-miterlimit="10" fill="#FFCB37" fill-rule="evenodd"/></g><g><path d="M5402.5 4401.5 5467.68 4578.5 5488.5 4578.5" stroke="#A6A6A6" stroke-width="3.4375" stroke-linejoin="round" stroke-miterlimit="10" fill="none"/></g><g><path d="M4812.5 4518.5 4740.66 4498.5 4720.5 4498.5" stroke="#A6A6A6" stroke-width="3.4375" stroke-linejoin="round" stroke-miterlimit="10" fill="none"/></g><g><text fill="#4ADE80" font-family="Calibri,Calibri_MSFontService,sans-serif" font-weight="700" font-size="41" transform="matrix(1 0 0 1 5501.84 4592)">44%</text></g><g><text fill="#FFCB37" font-family="Calibri,Calibri_MSFontService,sans-serif" font-weight="700" font-size="41" transform="matrix(1 0 0 1 4634.89 4512)">56%</text></g><g><text fill="#FFCB37" font-family="Calibri,Calibri_MSFontService,sans-serif" font-weight="700" font-size="64" transform="matrix(1 0 0 1 4938.49 4478)">Short</text></g><g><text fill="#E5E7EB" font-family="Calibri,Calibri_MSFontService,sans-serif" font-weight="700" font-size="64" transform="matrix(1 0 0 1 5097.31 4478)">&amp;</text></g><g><text fill="#4ADE80" font-family="Calibri,Calibri_MSFontService,sans-serif" font-weight="700" font-size="64" transform="matrix(1 0 0 1 5157.03 4478)">Long</text></g><rect x="4569.5" y="3923.5" width="1056" height="1053" stroke="#D9D9D9" stroke-width="3.4375" stroke-linejoin="round" stroke-miterlimit="10" fill="none"/></g></svg>