<svg width="2499" height="1321" xmlns="http://www.w3.org/2000/svg" xmlns:xlink="http://www.w3.org/1999/xlink" xml:space="preserve" overflow="hidden"><defs><clipPath id="clip0"><rect x="3248" y="6827" width="2499" height="1321"/></clipPath></defs><g clip-path="url(#clip0)" transform="translate(-3248 -6827)"><g><path d="M3414.5 8096.5 5694.5 8096.5M3414.5 7985.76 5694.5 7985.76M3414.5 7876.76 5694.5 7876.76M3414.5 7766.75 5694.5 7766.75M3414.5 7656.75 5694.5 7656.75M3414.5 7546.75 5694.5 7546.75M3414.5 7436.74 5694.5 7436.74M3414.5 7327.74 5694.5 7327.74M3414.5 7217.74 5694.5 7217.74M3414.5 7107.73 5694.5 7107.73M3414.5 6997.5 5694.5 6997.5" stroke="#D9D9D9" stroke-width="3.4375" stroke-linejoin="round" stroke-miterlimit="10" fill="none"/></g><g><path d="M3481 7895.26 3616.12 8009 3750.12 7902.26 3884.13 7764.25 4018.13 7826.26 4152.14 7712.25 4286.14 7598.25 4420.15 7489.25 4554.15 7405.24 4688.15 7212.24 4823.16 7123.23 4957.16 7223.24 5091.17 7080 5225.17 7157.23 5359.18 7276.24 5493.18 7184.24 5627 7088.23" stroke="#FFCB37" stroke-width="10.3125" stroke-linecap="round" stroke-linejoin="round" stroke-miterlimit="10" fill="none"/></g><g><text fill="#595959" font-family="Calibri,Calibri_MSFontService,sans-serif" font-weight="400" font-size="41" transform="matrix(1 0 0 1 3279.12 8108)"> $(10)</text></g><g><text fill="#595959" font-family="Calibri,Calibri_MSFontService,sans-serif" font-weight="400" font-size="41" transform="matrix(1 0 0 1 3323.99 7998)"> $-</text></g><g><text fill="#595959" font-family="Calibri,Calibri_MSFontService,sans-serif" font-weight="400" font-size="41" transform="matrix(1 0 0 1 3294.81 7888)"> $10</text></g><g><text fill="#595959" font-family="Calibri,Calibri_MSFontService,sans-serif" font-weight="400" font-size="41" transform="matrix(1 0 0 1 3294.81 7778)"> $20</text></g><g><text fill="#595959" font-family="Calibri,Calibri_MSFontService,sans-serif" font-weight="400" font-size="41" transform="matrix(1 0 0 1 3294.81 7668)"> $30</text></g><g><text fill="#595959" font-family="Calibri,Calibri_MSFontService,sans-serif" font-weight="400" font-size="41" transform="matrix(1 0 0 1 3294.81 7558)"> $40</text></g><g><text fill="#595959" font-family="Calibri,Calibri_MSFontService,sans-serif" font-weight="400" font-size="41" transform="matrix(1 0 0 1 3294.81 7449)"> $50</text></g><g><text fill="#595959" font-family="Calibri,Calibri_MSFontService,sans-serif" font-weight="400" font-size="41" transform="matrix(1 0 0 1 3294.81 7339)"> $60</text></g><g><text fill="#595959" font-family="Calibri,Calibri_MSFontService,sans-serif" font-weight="400" font-size="41" transform="matrix(1 0 0 1 3294.81 7229)"> $70</text></g><g><text fill="#595959" font-family="Calibri,Calibri_MSFontService,sans-serif" font-weight="400" font-size="41" transform="matrix(1 0 0 1 3294.81 7119)"> $80</text></g><g><text fill="#595959" font-family="Calibri,Calibri_MSFontService,sans-serif" font-weight="400" font-size="41" transform="matrix(1 0 0 1 3294.81 7009)"> $90</text></g><g><text fill="#E5E7EB" font-family="Calibri,Calibri_MSFontService,sans-serif" font-weight="400" font-size="64" transform="matrix(1 0 0 1 4109.78 6923)">Profit with 50$ on each Signal</text></g><rect x="3249.5" y="6828.5" width="2496" height="1318" stroke="#D9D9D9" stroke-width="3.4375" stroke-linejoin="round" stroke-miterlimit="10" fill="none"/></g></svg>