<svg width="1038" height="1093" xmlns="http://www.w3.org/2000/svg" xmlns:xlink="http://www.w3.org/1999/xlink" xml:space="preserve" overflow="hidden"><defs><clipPath id="clip0"><rect x="2911" y="3476" width="1038" height="1093"/></clipPath></defs><g clip-path="url(#clip0)" transform="translate(-2911 -3476)"><g><path d="M3429.66 3701.46C3610.84 3701.46 3757.71 3848.33 3757.71 4029.51 3757.71 4210.68 3610.84 4357.56 3429.66 4357.56 3287.55 4357.56 3161.59 4266.04 3117.67 4130.88L3195.67 4105.54C3237.66 4234.77 3376.46 4305.49 3505.69 4263.5 3634.93 4221.51 3705.65 4082.71 3663.66 3953.48 3630.72 3852.11 3536.25 3783.47 3429.66 3783.47Z" stroke="#FFFFFF" stroke-width="6.875" stroke-linejoin="round" stroke-miterlimit="10" fill="#4ADE80" fill-rule="evenodd"/></g><g><path d="M3117.67 4130.88C3061.69 3958.57 3155.98 3773.5 3328.29 3717.52 3361.03 3706.88 3395.24 3701.46 3429.66 3701.46L3429.66 3783.47C3293.78 3783.47 3183.63 3893.63 3183.63 4029.51 3183.63 4055.33 3187.69 4080.98 3195.67 4105.54Z" stroke="#FFFFFF" stroke-width="6.875" stroke-linejoin="round" stroke-miterlimit="10" fill="#FFCB37" fill-rule="evenodd"/></g><g><path d="M3661.5 4198.5 3719.62 4257.5 3740.5 4257.5" stroke="#A6A6A6" stroke-width="3.4375" stroke-linejoin="round" stroke-miterlimit="10" fill="none"/></g><g><path d="M3197.5 3860.5 3175.6 3805.5 3154.5 3805.5" stroke="#A6A6A6" stroke-width="3.4375" stroke-linejoin="round" stroke-miterlimit="10" fill="none"/></g><g><text fill="#404040" font-family="Calibri,Calibri_MSFontService,sans-serif" font-weight="400" font-size="41" transform="matrix(1 0 0 1 3754.14 4272)">70%</text></g><g><text fill="#FFCB37" font-family="Calibri,Calibri_MSFontService,sans-serif" font-weight="400" font-size="41" transform="matrix(1 0 0 1 3069.84 3819)">30%</text></g><g><text fill="#E5E7EB" font-family="Calibri,Calibri_MSFontService,sans-serif" font-weight="400" font-size="64" transform="matrix(1 0 0 1 3299.38 4040)">WIN RATE</text></g><g><rect x="3287.5" y="4489.5" width="23" height="23" stroke="#FFFFFF" stroke-width="6.875" stroke-linejoin="round" stroke-miterlimit="10" fill="#4ADE80"/></g><g><text fill="#E5E7EB" font-family="Calibri,Calibri_MSFontService,sans-serif" font-weight="400" font-size="41" transform="matrix(1 0 0 1 3320.07 4512)">PROFIT</text></g><g><rect x="3473.5" y="4489.5" width="22" height="23" stroke="#FFFFFF" stroke-width="6.875" stroke-linejoin="round" stroke-miterlimit="10" fill="#FFCB37"/></g><g><text fill="#E5E7EB" font-family="Calibri,Calibri_MSFontService,sans-serif" font-weight="400" font-size="41" transform="matrix(1 0 0 1 3505.44 4512)">LOSS</text></g><rect x="2912.5" y="3477.5" width="1035" height="1090" stroke="#D9D9D9" stroke-width="3.4375" stroke-linejoin="round" stroke-miterlimit="10" fill="none"/></g></svg>