<svg width="1000" height="1073" xmlns="http://www.w3.org/2000/svg" xmlns:xlink="http://www.w3.org/1999/xlink" xml:space="preserve" overflow="hidden"><defs><clipPath id="clip0"><rect x="4078" y="3500" width="1000" height="1073"/></clipPath></defs><g clip-path="url(#clip0)" transform="translate(-4078 -3500)"><g><path d="M4587.85 3722.22C4767.04 3722.22 4912.3 3867.48 4912.3 4046.66 4912.3 4225.85 4767.04 4371.11 4587.85 4371.11 4519.33 4371.11 4452.58 4349.42 4397.15 4309.14L4444.82 4243.52C4553.55 4322.52 4705.72 4298.41 4784.71 4189.69 4863.7 4080.97 4839.6 3928.79 4730.88 3849.8 4689.31 3819.6 4639.24 3803.33 4587.85 3803.33Z" stroke="#FFFFFF" stroke-width="6.875" stroke-linejoin="round" stroke-miterlimit="10" fill="#4ADE80" fill-rule="evenodd"/></g><g><path d="M4397.15 4309.14C4252.18 4203.82 4220.05 4000.92 4325.37 3855.96 4386.42 3771.94 4484 3722.22 4587.85 3722.22L4587.85 3803.33C4453.46 3803.33 4344.52 3912.27 4344.52 4046.66 4344.52 4124.55 4381.81 4197.74 4444.82 4243.52Z" stroke="#FFFFFF" stroke-width="6.875" stroke-linejoin="round" stroke-miterlimit="10" fill="#FFCB37" fill-rule="evenodd"/></g><g><path d="M4857.5 4134.5 4914.66 4314.5 4935.5 4314.5" stroke="#A6A6A6" stroke-width="3.4375" stroke-linejoin="round" stroke-miterlimit="10" fill="none"/></g><g><path d="M4317.5 3958.5 4253.64 3938.5 4233.5 3938.5" stroke="#A6A6A6" stroke-width="3.4375" stroke-linejoin="round" stroke-miterlimit="10" fill="none"/></g><g><text fill="#4ADE80" font-family="Calibri,Calibri_MSFontService,sans-serif" font-weight="700" font-size="41" transform="matrix(1 0 0 1 4949.19 4329)">60%</text></g><g><text fill="#FFCB37" font-family="Calibri,Calibri_MSFontService,sans-serif" font-weight="700" font-size="41" transform="matrix(1 0 0 1 4147.74 3952)">40%</text></g><g><text fill="#FFCB37" font-family="Calibri,Calibri_MSFontService,sans-serif" font-weight="700" font-size="64" transform="matrix(1 0 0 1 4428.66 4064)">Short</text></g><g><text fill="#E5E7EB" font-family="Calibri,Calibri_MSFontService,sans-serif" font-weight="700" font-size="64" transform="matrix(1 0 0 1 4587.47 4064)">&amp;</text></g><g><text fill="#4ADE80" font-family="Calibri,Calibri_MSFontService,sans-serif" font-weight="700" font-size="64" transform="matrix(1 0 0 1 4647.19 4064)">Long</text></g><rect x="4079.5" y="3501.5" width="997" height="1070" stroke="#D9D9D9" stroke-width="3.4375" stroke-linejoin="round" stroke-miterlimit="10" fill="none"/></g></svg>