<svg width="1085" height="1104" xmlns="http://www.w3.org/2000/svg" xmlns:xlink="http://www.w3.org/1999/xlink" xml:space="preserve" overflow="hidden"><defs><clipPath id="clip0"><rect x="3718" y="4032" width="1085" height="1104"/></clipPath></defs><g clip-path="url(#clip0)" transform="translate(-3718 -4032)"><g><path d="M4259.87 4257.52C4443.86 4257.52 4593.02 4406.67 4593.02 4590.67 4593.02 4774.66 4443.86 4923.82 4259.87 4923.82 4127.63 4923.82 4007.9 4845.6 3954.78 4724.49L4031.05 4691.03C4086.49 4817.41 4233.87 4874.92 4360.24 4819.48 4486.61 4764.05 4544.12 4616.67 4488.69 4490.3 4448.85 4399.47 4359.05 4340.8 4259.87 4340.8Z" stroke="#FFFFFF" stroke-width="6.875" stroke-linejoin="round" stroke-miterlimit="10" fill="#4ADE80" fill-rule="evenodd"/></g><g><path d="M3954.78 4724.49C3880.87 4556 3957.55 4359.49 4126.05 4285.58 4168.23 4267.07 4213.8 4257.52 4259.87 4257.52L4259.87 4340.8C4121.88 4340.8 4010.01 4452.67 4010.01 4590.67 4010.01 4625.22 4017.18 4659.39 4031.05 4691.04Z" stroke="#FFFFFF" stroke-width="6.875" stroke-linejoin="round" stroke-miterlimit="10" fill="#FFCB37" fill-rule="evenodd"/></g><g><path d="M4503.5 4750.5 4567.65 4810.5 4588.5 4810.5" stroke="#A6A6A6" stroke-width="3.4375" stroke-linejoin="round" stroke-miterlimit="10" fill="none"/></g><g><path d="M4015.5 4431.5 3989.63 4375.5 3969.5 4375.5" stroke="#A6A6A6" stroke-width="3.4375" stroke-linejoin="round" stroke-miterlimit="10" fill="none"/></g><g><text fill="#4ADE80" font-family="Calibri,Calibri_MSFontService,sans-serif" font-weight="400" font-size="41" transform="matrix(1 0 0 1 4602.03 4824)">68%</text></g><g><text fill="#FFCB37" font-family="Calibri,Calibri_MSFontService,sans-serif" font-weight="400" font-size="41" transform="matrix(1 0 0 1 3884.01 4389)">32%</text></g><g><text fill="#E5E7EB" font-family="Calibri,Calibri_MSFontService,sans-serif" font-weight="400" font-size="64" transform="matrix(1 0 0 1 4130.89 4614)">WIN RATE</text></g><g><rect x="4118.5" y="5056.5" width="22" height="23" stroke="#FFFFFF" stroke-width="6.875" stroke-linejoin="round" stroke-miterlimit="10" fill="#4ADE80"/></g><g><text fill="#E5E7EB" font-family="Calibri,Calibri_MSFontService,sans-serif" font-weight="400" font-size="41" transform="matrix(1 0 0 1 4150.28 5079)">PROFIT</text></g><g><rect x="4303.5" y="5056.5" width="23" height="23" stroke="#FFFFFF" stroke-width="6.875" stroke-linejoin="round" stroke-miterlimit="10" fill="#FFCB37"/></g><g><text fill="#E5E7EB" font-family="Calibri,Calibri_MSFontService,sans-serif" font-weight="400" font-size="41" transform="matrix(1 0 0 1 4335.64 5079)">LOSS</text></g><rect x="3719.5" y="4033.5" width="1082" height="1101" stroke="#D9D9D9" stroke-width="3.4375" stroke-linejoin="round" stroke-miterlimit="10" fill="none"/></g></svg>