<svg width="1051" height="1100" xmlns="http://www.w3.org/2000/svg" xmlns:xlink="http://www.w3.org/1999/xlink" xml:space="preserve" overflow="hidden"><defs><clipPath id="clip0"><rect x="4948" y="4040" width="1051" height="1100"/></clipPath></defs><g clip-path="url(#clip0)" transform="translate(-4948 -4040)"><g><path d="M5483.56 4259.68C5671.89 4259.68 5824.56 4412.35 5824.56 4600.69 5824.56 4789.02 5671.89 4941.69 5483.56 4941.69 5295.22 4941.69 5142.55 4789.02 5142.55 4600.69 5142.55 4455.03 5235.07 4325.45 5372.83 4278.16L5400.51 4358.79C5266.92 4404.65 5195.8 4550.13 5241.66 4683.73 5287.52 4817.33 5433 4888.45 5566.6 4842.58 5700.2 4796.72 5771.32 4651.24 5725.45 4517.64 5689.98 4414.32 5592.8 4344.93 5483.56 4344.93Z" stroke="#FFFFFF" stroke-width="6.875" stroke-linejoin="round" stroke-miterlimit="10" fill="#4ADE80" fill-rule="evenodd"/></g><g><path d="M5372.83 4278.16C5408.47 4265.92 5445.88 4259.68 5483.56 4259.68L5483.56 4344.93C5455.3 4344.93 5427.24 4349.61 5400.51 4358.79Z" stroke="#FFFFFF" stroke-width="6.875" stroke-linejoin="round" stroke-miterlimit="10" fill="#FFCB37" fill-rule="evenodd"/></g><g><path d="M5532.5 4894.5 5595.68 5079.5 5616.5 5079.5" stroke="#A6A6A6" stroke-width="3.4375" stroke-linejoin="round" stroke-miterlimit="10" fill="none"/></g><g><path d="M5434.5 4306.5 5259.67 4246.5 5238.5 4246.5" stroke="#A6A6A6" stroke-width="3.4375" stroke-linejoin="round" stroke-miterlimit="10" fill="none"/></g><g><text fill="#4ADE80" font-family="Calibri,Calibri_MSFontService,sans-serif" font-weight="700" font-size="41" transform="matrix(1 0 0 1 5630.51 5094)">95%</text></g><g><text fill="#FFCB37" font-family="Calibri,Calibri_MSFontService,sans-serif" font-weight="700" font-size="41" transform="matrix(1 0 0 1 5174.13 4260)">5%</text></g><g><text fill="#FFCB37" font-family="Calibri,Calibri_MSFontService,sans-serif" font-weight="700" font-size="64" transform="matrix(1 0 0 1 5315.54 4617)">Short</text></g><g><text fill="#E5E7EB" font-family="Calibri,Calibri_MSFontService,sans-serif" font-weight="700" font-size="64" transform="matrix(1 0 0 1 5474.35 4617)">&amp;</text></g><g><text fill="#4ADE80" font-family="Calibri,Calibri_MSFontService,sans-serif" font-weight="700" font-size="64" transform="matrix(1 0 0 1 5534.07 4617)">Long</text></g><rect x="4949.5" y="4041.5" width="1048" height="1097" stroke="#D9D9D9" stroke-width="3.4375" stroke-linejoin="round" stroke-miterlimit="10" fill="none"/></g></svg>