<svg width="1889" height="1107" xmlns="http://www.w3.org/2000/svg" xmlns:xlink="http://www.w3.org/1999/xlink" xml:space="preserve" overflow="hidden"><defs><clipPath id="clip0"><rect x="3954" y="6761" width="1889" height="1107"/></clipPath></defs><g clip-path="url(#clip0)" transform="translate(-3954 -6761)"><rect x="3955" y="6762" width="1886" height="1104" fill="#FFFFFF"/><g><path d="M4125.5 7815.5 5769.5 7815.5M4125.5 7618.75 5769.5 7618.75M4125.5 7520.75 5769.5 7520.75M4125.5 7422.74 5769.5 7422.74M4125.5 7324.74 5769.5 7324.74M4125.5 7226.74 5769.5 7226.74M4125.5 7127.73 5769.5 7127.73M4125.5 7029.73 5769.5 7029.73M4125.5 6931.5 5769.5 6931.5" stroke="#D9D9D9" stroke-width="3.4375" stroke-linejoin="round" stroke-miterlimit="10" fill="none"/></g><g><path d="M4289.64 6931.5 4289.64 7815.5M4453.65 6931.5 4453.65 7815.5M4618.65 6931.5 4618.65 7815.5M4782.66 6931.5 4782.66 7815.5M4947.66 6931.5 4947.66 7815.5M5111.67 6931.5 5111.67 7815.5M5275.67 6931.5 5275.67 7815.5M5440.68 6931.5 5440.68 7815.5M5604.68 6931.5 5604.68 7815.5M5769.5 6931.5 5769.5 7815.5" stroke="#D9D9D9" stroke-width="3.4375" stroke-linejoin="round" stroke-miterlimit="10" fill="none"/></g><g><path d="M0 0 0.000360892 884" stroke="#BFBFBF" stroke-width="3.4375" stroke-linejoin="round" stroke-miterlimit="10" fill="none" fill-rule="evenodd" transform="matrix(1 0 0 -1 4125.5 7815.5)"/></g><g><path d="M4125.5 7717.5 5769.5 7717.5" stroke="#BFBFBF" stroke-width="3.4375" stroke-linejoin="round" stroke-miterlimit="10" fill="none" fill-rule="evenodd"/></g><g><path d="M4207.5 7511.75 4289.64 7428.74 4371.64 7404.74 4453.65 7347.74 4536.65 7172.74 4618.65 7415.74 4700.65 7148.73 4782.66 7229.74 4864.66 7458.75 4947.66 7743.5 5029.67 7566.75 5111.67 7504.75 5193.67 7443.74 5275.67 7319.74 5358.68 7568.75 5440.68 7479.75 5522.68 7727.75 5604.68 7633.75 5687.5 7055.5" stroke="#FFCB37" stroke-width="6.875" stroke-linecap="round" stroke-linejoin="round" stroke-miterlimit="10" fill="none"/></g><g><path d="M4218.3 7511.06C4218.3 7517.14 4213.37 7522.06 4207.3 7522.06 4201.22 7522.06 4196.3 7517.14 4196.3 7511.06 4196.3 7504.99 4201.22 7500.06 4207.3 7500.06 4213.37 7500.06 4218.3 7504.99 4218.3 7511.06Z" stroke="#FFCB37" stroke-width="3.4375" stroke-linejoin="round" stroke-miterlimit="10" fill="#FFCB37"/><path d="M4300.3 7428.06C4300.3 7434.14 4295.37 7439.06 4289.3 7439.06 4283.22 7439.06 4278.3 7434.14 4278.3 7428.06 4278.3 7421.99 4283.22 7417.06 4289.3 7417.06 4295.37 7417.06 4300.3 7421.99 4300.3 7428.06Z" stroke="#FFCB37" stroke-width="3.4375" stroke-linejoin="round" stroke-miterlimit="10" fill="#FFCB37"/><path d="M4382.3 7404.06C4382.3 7410.14 4377.37 7415.06 4371.3 7415.06 4365.22 7415.06 4360.3 7410.14 4360.3 7404.06 4360.3 7397.99 4365.22 7393.06 4371.3 7393.06 4377.37 7393.06 4382.3 7397.99 4382.3 7404.06Z" stroke="#FFCB37" stroke-width="3.4375" stroke-linejoin="round" stroke-miterlimit="10" fill="#FFCB37"/><path d="M4464.3 7347.06C4464.3 7353.14 4459.37 7358.06 4453.3 7358.06 4447.22 7358.06 4442.3 7353.14 4442.3 7347.06 4442.3 7340.99 4447.22 7336.06 4453.3 7336.06 4459.37 7336.06 4464.3 7340.99 4464.3 7347.06Z" stroke="#FFCB37" stroke-width="3.4375" stroke-linejoin="round" stroke-miterlimit="10" fill="#FFCB37"/><path d="M4547.3 7172.06C4547.3 7178.14 4542.37 7183.06 4536.3 7183.06 4530.22 7183.06 4525.3 7178.14 4525.3 7172.06 4525.3 7165.99 4530.22 7161.06 4536.3 7161.06 4542.37 7161.06 4547.3 7165.99 4547.3 7172.06Z" stroke="#FFCB37" stroke-width="3.4375" stroke-linejoin="round" stroke-miterlimit="10" fill="#FFCB37"/><path d="M4629.3 7415.06C4629.3 7421.14 4624.37 7426.06 4618.3 7426.06 4612.22 7426.06 4607.3 7421.14 4607.3 7415.06 4607.3 7408.99 4612.22 7404.06 4618.3 7404.06 4624.37 7404.06 4629.3 7408.99 4629.3 7415.06Z" stroke="#FFCB37" stroke-width="3.4375" stroke-linejoin="round" stroke-miterlimit="10" fill="#FFCB37"/><path d="M4711.3 7148.06C4711.3 7154.14 4706.37 7159.06 4700.3 7159.06 4694.22 7159.06 4689.3 7154.14 4689.3 7148.06 4689.3 7141.99 4694.22 7137.06 4700.3 7137.06 4706.37 7137.06 4711.3 7141.99 4711.3 7148.06Z" stroke="#FFCB37" stroke-width="3.4375" stroke-linejoin="round" stroke-miterlimit="10" fill="#FFCB37"/><path d="M4793.3 7229.06C4793.3 7235.14 4788.37 7240.06 4782.3 7240.06 4776.22 7240.06 4771.3 7235.14 4771.3 7229.06 4771.3 7222.99 4776.22 7218.06 4782.3 7218.06 4788.37 7218.06 4793.3 7222.99 4793.3 7229.06Z" stroke="#FFCB37" stroke-width="3.4375" stroke-linejoin="round" stroke-miterlimit="10" fill="#FFCB37"/><path d="M4876.3 7458.06C4876.3 7464.14 4871.37 7469.06 4865.3 7469.06 4859.22 7469.06 4854.3 7464.14 4854.3 7458.06 4854.3 7451.99 4859.22 7447.06 4865.3 7447.06 4871.37 7447.06 4876.3 7451.99 4876.3 7458.06Z" stroke="#FFCB37" stroke-width="3.4375" stroke-linejoin="round" stroke-miterlimit="10" fill="#FFCB37"/><path d="M4958.3 7743.06C4958.3 7749.14 4953.37 7754.06 4947.3 7754.06 4941.22 7754.06 4936.3 7749.14 4936.3 7743.06 4936.3 7736.99 4941.22 7732.06 4947.3 7732.06 4953.37 7732.06 4958.3 7736.99 4958.3 7743.06Z" stroke="#FFCB37" stroke-width="3.4375" stroke-linejoin="round" stroke-miterlimit="10" fill="#FFCB37"/><path d="M5040.3 7566.06C5040.3 7572.14 5035.37 7577.06 5029.3 7577.06 5023.22 7577.06 5018.3 7572.14 5018.3 7566.06 5018.3 7559.99 5023.22 7555.06 5029.3 7555.06 5035.37 7555.06 5040.3 7559.99 5040.3 7566.06Z" stroke="#FFCB37" stroke-width="3.4375" stroke-linejoin="round" stroke-miterlimit="10" fill="#FFCB37"/><path d="M5122.3 7505.06C5122.3 7511.14 5117.37 7516.06 5111.3 7516.06 5105.22 7516.06 5100.3 7511.14 5100.3 7505.06 5100.3 7498.99 5105.22 7494.06 5111.3 7494.06 5117.37 7494.06 5122.3 7498.99 5122.3 7505.06Z" stroke="#FFCB37" stroke-width="3.4375" stroke-linejoin="round" stroke-miterlimit="10" fill="#FFCB37"/><path d="M5204.3 7443.06C5204.3 7449.14 5199.37 7454.06 5193.3 7454.06 5187.22 7454.06 5182.3 7449.14 5182.3 7443.06 5182.3 7436.99 5187.22 7432.06 5193.3 7432.06 5199.37 7432.06 5204.3 7436.99 5204.3 7443.06Z" stroke="#FFCB37" stroke-width="3.4375" stroke-linejoin="round" stroke-miterlimit="10" fill="#FFCB37"/><path d="M5287.3 7319.06C5287.3 7325.14 5282.37 7330.06 5276.3 7330.06 5270.22 7330.06 5265.3 7325.14 5265.3 7319.06 5265.3 7312.99 5270.22 7308.06 5276.3 7308.06 5282.37 7308.06 5287.3 7312.99 5287.3 7319.06Z" stroke="#FFCB37" stroke-width="3.4375" stroke-linejoin="round" stroke-miterlimit="10" fill="#FFCB37"/><path d="M5369.3 7568.06C5369.3 7574.14 5364.37 7579.06 5358.3 7579.06 5352.22 7579.06 5347.3 7574.14 5347.3 7568.06 5347.3 7561.99 5352.22 7557.06 5358.3 7557.06 5364.37 7557.06 5369.3 7561.99 5369.3 7568.06Z" stroke="#FFCB37" stroke-width="3.4375" stroke-linejoin="round" stroke-miterlimit="10" fill="#FFCB37"/><path d="M5451.3 7479.06C5451.3 7485.14 5446.37 7490.06 5440.3 7490.06 5434.22 7490.06 5429.3 7485.14 5429.3 7479.06 5429.3 7472.99 5434.22 7468.06 5440.3 7468.06 5446.37 7468.06 5451.3 7472.99 5451.3 7479.06Z" stroke="#FFCB37" stroke-width="3.4375" stroke-linejoin="round" stroke-miterlimit="10" fill="#FFCB37"/><path d="M5533.3 7727.06C5533.3 7733.14 5528.37 7738.06 5522.3 7738.06 5516.22 7738.06 5511.3 7733.14 5511.3 7727.06 5511.3 7720.99 5516.22 7716.06 5522.3 7716.06 5528.37 7716.06 5533.3 7720.99 5533.3 7727.06Z" stroke="#FFCB37" stroke-width="3.4375" stroke-linejoin="round" stroke-miterlimit="10" fill="#FFCB37"/><path d="M5616.3 7633.06C5616.3 7639.14 5611.37 7644.06 5605.3 7644.06 5599.22 7644.06 5594.3 7639.14 5594.3 7633.06 5594.3 7626.99 5599.22 7622.06 5605.3 7622.06 5611.37 7622.06 5616.3 7626.99 5616.3 7633.06Z" stroke="#FFCB37" stroke-width="3.4375" stroke-linejoin="round" stroke-miterlimit="10" fill="#FFCB37"/><path d="M5698.3 7055.06C5698.3 7061.14 5693.37 7066.06 5687.3 7066.06 5681.22 7066.06 5676.3 7061.14 5676.3 7055.06 5676.3 7048.99 5681.22 7044.06 5687.3 7044.06 5693.37 7044.06 5698.3 7048.99 5698.3 7055.06Z" stroke="#FFCB37" stroke-width="3.4375" stroke-linejoin="round" stroke-miterlimit="10" fill="#FFCB37"/></g><g><text fill="#E5E7EB" font-family="Calibri,Calibri_MSFontService,sans-serif" font-weight="400" font-size="41" transform="matrix(1 0 0 1 3989.79 7827)"> $(20)</text></g><g><text fill="#E5E7EB" font-family="Calibri,Calibri_MSFontService,sans-serif" font-weight="400" font-size="41" transform="matrix(1 0 0 1 4034.66 7729)"> $-</text></g><g><text fill="#E5E7EB" font-family="Calibri,Calibri_MSFontService,sans-serif" font-weight="400" font-size="41" transform="matrix(1 0 0 1 4005.49 7631)"> $20</text></g><g><text fill="#E5E7EB" font-family="Calibri,Calibri_MSFontService,sans-serif" font-weight="400" font-size="41" transform="matrix(1 0 0 1 4005.49 7533)"> $40</text></g><g><text fill="#E5E7EB" font-family="Calibri,Calibri_MSFontService,sans-serif" font-weight="400" font-size="41" transform="matrix(1 0 0 1 4005.49 7434)"> $60</text></g><g><text fill="#E5E7EB" font-family="Calibri,Calibri_MSFontService,sans-serif" font-weight="400" font-size="41" transform="matrix(1 0 0 1 4005.49 7336)"> $80</text></g><g><text fill="#E5E7EB" font-family="Calibri,Calibri_MSFontService,sans-serif" font-weight="400" font-size="41" transform="matrix(1 0 0 1 3984.59 7238)"> $100</text></g><g><text fill="#E5E7EB" font-family="Calibri,Calibri_MSFontService,sans-serif" font-weight="400" font-size="41" transform="matrix(1 0 0 1 3984.59 7140)"> $120</text></g><g><text fill="#E5E7EB" font-family="Calibri,Calibri_MSFontService,sans-serif" font-weight="400" font-size="41" transform="matrix(1 0 0 1 3984.59 7041)"> $140</text></g><g><text fill="#E5E7EB" font-family="Calibri,Calibri_MSFontService,sans-serif" font-weight="400" font-size="41" transform="matrix(1 0 0 1 3984.59 6943)"> $160</text></g><g><text fill="#E5E7EB" font-family="Calibri,Calibri_MSFontService,sans-serif" font-weight="400" font-size="41" transform="matrix(1 0 0 1 4114.66 7783)">0</text></g><g><text fill="#E5E7EB" font-family="Calibri,Calibri_MSFontService,sans-serif" font-weight="400" font-size="41" transform="matrix(1 0 0 1 4279.09 7783)">2</text></g><g><text fill="#E5E7EB" font-family="Calibri,Calibri_MSFontService,sans-serif" font-weight="400" font-size="41" transform="matrix(1 0 0 1 4443.53 7783)">4</text></g><g><text fill="#E5E7EB" font-family="Calibri,Calibri_MSFontService,sans-serif" font-weight="400" font-size="41" transform="matrix(1 0 0 1 4607.96 7783)">6</text></g><g><text fill="#E5E7EB" font-family="Calibri,Calibri_MSFontService,sans-serif" font-weight="400" font-size="41" transform="matrix(1 0 0 1 4772.39 7783)">8</text></g><g><text fill="#E5E7EB" font-family="Calibri,Calibri_MSFontService,sans-serif" font-weight="400" font-size="41" transform="matrix(1 0 0 1 4926.37 7783)">10</text></g><g><text fill="#E5E7EB" font-family="Calibri,Calibri_MSFontService,sans-serif" font-weight="400" font-size="41" transform="matrix(1 0 0 1 5090.8 7783)">12</text></g><g><text fill="#E5E7EB" font-family="Calibri,Calibri_MSFontService,sans-serif" font-weight="400" font-size="41" transform="matrix(1 0 0 1 5255.24 7783)">14</text></g><g><text fill="#E5E7EB" font-family="Calibri,Calibri_MSFontService,sans-serif" font-weight="400" font-size="41" transform="matrix(1 0 0 1 5419.67 7783)">16</text></g><g><text fill="#E5E7EB" font-family="Calibri,Calibri_MSFontService,sans-serif" font-weight="400" font-size="41" transform="matrix(1 0 0 1 5584.1 7783)">18</text></g><g><text fill="#E5E7EB" font-family="Calibri,Calibri_MSFontService,sans-serif" font-weight="400" font-size="41" transform="matrix(1 0 0 1 5748.53 7783)">20</text></g><g><text fill="#E5E7EB" font-family="Calibri,Calibri_MSFontService,sans-serif" font-weight="400" font-size="64" transform="matrix(1 0 0 1 4400.8 6857)">Profit with 50$ Engaged on each entry</text></g><rect x="3955.5" y="6762.5" width="1886" height="1104" stroke="#D9D9D9" stroke-width="3.4375" stroke-linejoin="round" stroke-miterlimit="10" fill="none"/></g></svg>