<svg width="996" height="1036" xmlns="http://www.w3.org/2000/svg" xmlns:xlink="http://www.w3.org/1999/xlink" xml:space="preserve" overflow="hidden"><defs><clipPath id="clip0"><rect x="3211" y="4677" width="996" height="1036"/></clipPath></defs><g clip-path="url(#clip0)" transform="translate(-3211 -4677)"><g><path d="M3708.76 4898.97C3876.28 4898.97 4012.08 5034.77 4012.08 5202.29 4012.08 5369.81 3876.28 5505.61 3708.76 5505.61 3541.24 5505.61 3405.44 5369.81 3405.44 5202.29 3405.44 5170.46 3410.45 5138.83 3420.28 5108.56L3492.4 5131.99C3453.58 5251.48 3518.97 5379.82 3638.46 5418.65 3757.95 5457.47 3886.29 5392.08 3925.12 5272.59 3963.94 5153.1 3898.55 5024.76 3779.06 4985.93 3756.35 4978.56 3732.63 4974.8 3708.76 4974.8Z" stroke="#FFFFFF" stroke-width="6.875" stroke-linejoin="round" stroke-miterlimit="10" fill="#4ADE80" fill-rule="evenodd"/></g><g><path d="M3420.28 5108.56C3460.89 4983.58 3577.35 4898.97 3708.76 4898.97L3708.76 4974.8C3610.2 4974.8 3522.86 5038.26 3492.4 5131.99Z" stroke="#FFFFFF" stroke-width="6.875" stroke-linejoin="round" stroke-miterlimit="10" fill="#FFCB37" fill-rule="evenodd"/></g><g><path d="M3864.5 5417.5 3917.63 5473.5 3938.5 5473.5" stroke="#A6A6A6" stroke-width="3.4375" stroke-linejoin="round" stroke-miterlimit="10" fill="none"/></g><g><path d="M3552.5 4987.5 3534.62 4934.5 3513.5 4934.5" stroke="#A6A6A6" stroke-width="3.4375" stroke-linejoin="round" stroke-miterlimit="10" fill="none"/></g><g><text fill="#4ADE80" font-family="Calibri,Calibri_MSFontService,sans-serif" font-weight="400" font-size="41" transform="matrix(1 0 0 1 3951.94 5487)">80%</text></g><g><text fill="#FFCB37" font-family="Calibri,Calibri_MSFontService,sans-serif" font-weight="400" font-size="41" transform="matrix(1 0 0 1 3428.8 4949)">20%</text></g><g><text fill="#E5E7EB" font-family="Calibri,Calibri_MSFontService,sans-serif" font-weight="400" font-size="64" transform="matrix(1 0 0 1 3576.12 5234)">WIN RATE</text></g><g><rect x="3566.5" y="5633.5" width="23" height="23" stroke="#FFFFFF" stroke-width="6.875" stroke-linejoin="round" stroke-miterlimit="10" fill="#4ADE80"/></g><g><text fill="#E5E7EB" font-family="Calibri,Calibri_MSFontService,sans-serif" font-weight="400" font-size="41" transform="matrix(1 0 0 1 3599.17 5657)">PROFIT</text></g><g><rect x="3752.5" y="5633.5" width="22" height="23" stroke="#FFFFFF" stroke-width="6.875" stroke-linejoin="round" stroke-miterlimit="10" fill="#FFCB37"/></g><g><text fill="#E5E7EB" font-family="Calibri,Calibri_MSFontService,sans-serif" font-weight="400" font-size="41" transform="matrix(1 0 0 1 3784.53 5657)">LOSS</text></g><rect x="3212.5" y="4678.5" width="993" height="1033" stroke="#D9D9D9" stroke-width="3.4375" stroke-linejoin="round" stroke-miterlimit="10" fill="none"/></g></svg>