<svg width="1041" height="1020" xmlns="http://www.w3.org/2000/svg" xmlns:xlink="http://www.w3.org/1999/xlink" xml:space="preserve" overflow="hidden"><defs><clipPath id="clip0"><rect x="4291" y="4688" width="1041" height="1020"/></clipPath></defs><g clip-path="url(#clip0)" transform="translate(-4291 -4688)"><g><path d="M4821.5 4869.86C5008.09 4869.86 5159.35 5021.12 5159.35 5207.71 5159.35 5394.3 5008.09 5545.56 4821.5 5545.56 4672.23 5545.56 4540.66 5447.6 4497.85 5304.61L4578.76 5280.38C4618.9 5414.45 4760.11 5490.59 4894.17 5450.45 5028.24 5410.32 5104.38 5269.1 5064.24 5135.04 5032.14 5027.79 4933.45 4954.33 4821.5 4954.33Z" stroke="#FFFFFF" stroke-width="6.875" stroke-linejoin="round" stroke-miterlimit="10" fill="#4ADE80" fill-rule="evenodd"/></g><g><path d="M4497.85 5304.61C4444.33 5125.86 4545.86 4937.57 4724.61 4884.06 4756.04 4874.64 4788.69 4869.86 4821.5 4869.86L4821.5 4954.33C4681.56 4954.33 4568.12 5067.77 4568.12 5207.71 4568.12 5232.32 4571.7 5256.81 4578.76 5280.38Z" stroke="#FFFFFF" stroke-width="6.875" stroke-linejoin="round" stroke-miterlimit="10" fill="#FFCB37" fill-rule="evenodd"/></g><g><path d="M5058.5 5384.5 5120.67 5555.5 5141.5 5555.5" stroke="#A6A6A6" stroke-width="3.4375" stroke-linejoin="round" stroke-miterlimit="10" fill="none"/></g><g><path d="M4584.5 5031.5 4514.65 5011.5 4494.5 5011.5" stroke="#A6A6A6" stroke-width="3.4375" stroke-linejoin="round" stroke-miterlimit="10" fill="none"/></g><g><text fill="#4ADE80" font-family="Calibri,Calibri_MSFontService,sans-serif" font-weight="700" font-size="41" transform="matrix(1 0 0 1 5155.22 5570)">70%</text></g><g><text fill="#FFCB37" font-family="Calibri,Calibri_MSFontService,sans-serif" font-weight="700" font-size="41" transform="matrix(1 0 0 1 4408.72 5026)">30%</text></g><g><text fill="#FFCB37" font-family="Calibri,Calibri_MSFontService,sans-serif" font-weight="700" font-size="64" transform="matrix(1 0 0 1 4655.17 5228)">Short</text></g><g><text fill="#E5E7EB" font-family="Calibri,Calibri_MSFontService,sans-serif" font-weight="700" font-size="64" transform="matrix(1 0 0 1 4813.98 5228)">&amp;</text></g><g><text fill="#4ADE80" font-family="Calibri,Calibri_MSFontService,sans-serif" font-weight="700" font-size="64" transform="matrix(1 0 0 1 4873.7 5228)">Long</text></g><rect x="4292.5" y="4689.5" width="1038" height="1017" stroke="#D9D9D9" stroke-width="3.4375" stroke-linejoin="round" stroke-miterlimit="10" fill="none"/></g></svg>