<svg width="2104" height="1216" xmlns="http://www.w3.org/2000/svg" xmlns:xlink="http://www.w3.org/1999/xlink" xml:space="preserve" overflow="hidden"><defs><clipPath id="clip0"><rect x="3127" y="7466" width="2104" height="1216"/></clipPath></defs><g clip-path="url(#clip0)" transform="translate(-3127 -7466)"><g><path d="M3350.5 8416.78 5157.5 8416.78M3350.5 8260.77 5157.5 8260.77M3350.5 8104.77 5157.5 8104.77M3350.5 7948.76 5157.5 7948.76M3350.5 7792.76 5157.5 7792.76M3350.5 7636.5 5157.5 7636.5" stroke="#D9D9D9" stroke-width="3.4375" stroke-linejoin="round" stroke-miterlimit="10" fill="none"/></g><g><path d="M3608.62 7636.5 3608.62 8573.5M3866.63 7636.5 3866.63 8573.5M4124.64 7636.5 4124.64 8573.5M4382.64 7636.5 4382.64 8573.5M4640.65 7636.5 4640.65 8573.5M4898.66 7636.5 4898.66 8573.5M5157.5 7636.5 5157.5 8573.5" stroke="#D9D9D9" stroke-width="3.4375" stroke-linejoin="round" stroke-miterlimit="10" fill="none"/></g><g><path d="M0 0 0.000360892 937" stroke="#BFBFBF" stroke-width="3.4375" stroke-linejoin="round" stroke-miterlimit="10" fill="none" fill-rule="evenodd" transform="matrix(1 0 0 -1 3350.5 8573.5)"/></g><g><path d="M3350.5 8573.5 5157.5 8573.5" stroke="#BFBFBF" stroke-width="3.4375" stroke-linejoin="round" stroke-miterlimit="10" fill="none" fill-rule="evenodd"/></g><g><path d="M3401.5 8542.5 3453.61 8510.78 3504.62 8491.78 3556.62 8523.78 3608.62 8473.78 3659.62 8383.78 3711.62 8342.77 3762.62 8305.77 3814.63 8270.77 3866.63 8319.77 3917.63 8298.77 3969.63 8273.77 4021.63 8193.77 4072.63 8155.77 4124.64 8131.77 4176.64 8076.77 4227.64 8047.76 4279.64 8079.77 4330.64 8112.77 4382.64 8095.77 4434.65 8016.76 4485.65 7997.76 4537.65 7977.76 4589.65 7905.76 4640.65 7850.76 4692.65 7784.76 4743.66 7751.5 4795.66 7791.76 4847.66 7825.76 4899.5 7816.76" stroke="#FFCB37" stroke-width="6.875" stroke-linecap="round" stroke-linejoin="round" stroke-miterlimit="10" fill="none"/></g><g><path d="M3412.01 8542.13C3412.01 8548.21 3407.08 8553.13 3401.01 8553.13 3394.93 8553.13 3390.01 8548.21 3390.01 8542.13 3390.01 8536.06 3394.93 8531.13 3401.01 8531.13 3407.08 8531.13 3412.01 8536.06 3412.01 8542.13Z" stroke="#FFCB37" stroke-width="3.4375" stroke-linejoin="round" stroke-miterlimit="10" fill="#FFCB37"/><path d="M3464.01 8510.13C3464.01 8516.21 3459.08 8521.13 3453.01 8521.13 3446.93 8521.13 3442.01 8516.21 3442.01 8510.13 3442.01 8504.06 3446.93 8499.13 3453.01 8499.13 3459.08 8499.13 3464.01 8504.06 3464.01 8510.13Z" stroke="#FFCB37" stroke-width="3.4375" stroke-linejoin="round" stroke-miterlimit="10" fill="#FFCB37"/><path d="M3515.01 8492.13C3515.01 8498.21 3510.08 8503.13 3504.01 8503.13 3497.93 8503.13 3493.01 8498.21 3493.01 8492.13 3493.01 8486.06 3497.93 8481.13 3504.01 8481.13 3510.08 8481.13 3515.01 8486.06 3515.01 8492.13Z" stroke="#FFCB37" stroke-width="3.4375" stroke-linejoin="round" stroke-miterlimit="10" fill="#FFCB37"/><path d="M3567.01 8523.13C3567.01 8529.21 3562.08 8534.13 3556.01 8534.13 3549.93 8534.13 3545.01 8529.21 3545.01 8523.13 3545.01 8517.06 3549.93 8512.13 3556.01 8512.13 3562.08 8512.13 3567.01 8517.06 3567.01 8523.13Z" stroke="#FFCB37" stroke-width="3.4375" stroke-linejoin="round" stroke-miterlimit="10" fill="#FFCB37"/><path d="M3619.01 8473.13C3619.01 8479.21 3614.08 8484.13 3608.01 8484.13 3601.93 8484.13 3597.01 8479.21 3597.01 8473.13 3597.01 8467.06 3601.93 8462.13 3608.01 8462.13 3614.08 8462.13 3619.01 8467.06 3619.01 8473.13Z" stroke="#FFCB37" stroke-width="3.4375" stroke-linejoin="round" stroke-miterlimit="10" fill="#FFCB37"/><path d="M3670.01 8383.13C3670.01 8389.21 3665.08 8394.13 3659.01 8394.13 3652.93 8394.13 3648.01 8389.21 3648.01 8383.13 3648.01 8377.06 3652.93 8372.13 3659.01 8372.13 3665.08 8372.13 3670.01 8377.06 3670.01 8383.13Z" stroke="#FFCB37" stroke-width="3.4375" stroke-linejoin="round" stroke-miterlimit="10" fill="#FFCB37"/><path d="M3722.01 8343.13C3722.01 8349.21 3717.08 8354.13 3711.01 8354.13 3704.93 8354.13 3700.01 8349.21 3700.01 8343.13 3700.01 8337.06 3704.93 8332.13 3711.01 8332.13 3717.08 8332.13 3722.01 8337.06 3722.01 8343.13Z" stroke="#FFCB37" stroke-width="3.4375" stroke-linejoin="round" stroke-miterlimit="10" fill="#FFCB37"/><path d="M3774.01 8306.13C3774.01 8312.21 3769.08 8317.13 3763.01 8317.13 3756.93 8317.13 3752.01 8312.21 3752.01 8306.13 3752.01 8300.06 3756.93 8295.13 3763.01 8295.13 3769.08 8295.13 3774.01 8300.06 3774.01 8306.13Z" stroke="#FFCB37" stroke-width="3.4375" stroke-linejoin="round" stroke-miterlimit="10" fill="#FFCB37"/><path d="M3825.01 8270.13C3825.01 8276.21 3820.08 8281.13 3814.01 8281.13 3807.93 8281.13 3803.01 8276.21 3803.01 8270.13 3803.01 8264.06 3807.93 8259.13 3814.01 8259.13 3820.08 8259.13 3825.01 8264.06 3825.01 8270.13Z" stroke="#FFCB37" stroke-width="3.4375" stroke-linejoin="round" stroke-miterlimit="10" fill="#FFCB37"/><path d="M3877.01 8319.13C3877.01 8325.21 3872.08 8330.13 3866.01 8330.13 3859.93 8330.13 3855.01 8325.21 3855.01 8319.13 3855.01 8313.06 3859.93 8308.13 3866.01 8308.13 3872.08 8308.13 3877.01 8313.06 3877.01 8319.13Z" stroke="#FFCB37" stroke-width="3.4375" stroke-linejoin="round" stroke-miterlimit="10" fill="#FFCB37"/><path d="M3929.01 8298.13C3929.01 8304.21 3924.08 8309.13 3918.01 8309.13 3911.93 8309.13 3907.01 8304.21 3907.01 8298.13 3907.01 8292.06 3911.93 8287.13 3918.01 8287.13 3924.08 8287.13 3929.01 8292.06 3929.01 8298.13Z" stroke="#FFCB37" stroke-width="3.4375" stroke-linejoin="round" stroke-miterlimit="10" fill="#FFCB37"/><path d="M3980.01 8273.13C3980.01 8279.21 3975.08 8284.13 3969.01 8284.13 3962.93 8284.13 3958.01 8279.21 3958.01 8273.13 3958.01 8267.06 3962.93 8262.13 3969.01 8262.13 3975.08 8262.13 3980.01 8267.06 3980.01 8273.13Z" stroke="#FFCB37" stroke-width="3.4375" stroke-linejoin="round" stroke-miterlimit="10" fill="#FFCB37"/><path d="M4032.01 8194.13C4032.01 8200.21 4027.08 8205.13 4021.01 8205.13 4014.93 8205.13 4010.01 8200.21 4010.01 8194.13 4010.01 8188.06 4014.93 8183.13 4021.01 8183.13 4027.08 8183.13 4032.01 8188.06 4032.01 8194.13Z" stroke="#FFCB37" stroke-width="3.4375" stroke-linejoin="round" stroke-miterlimit="10" fill="#FFCB37"/><path d="M4083.01 8155.13C4083.01 8161.21 4078.08 8166.13 4072.01 8166.13 4065.93 8166.13 4061.01 8161.21 4061.01 8155.13 4061.01 8149.06 4065.93 8144.13 4072.01 8144.13 4078.08 8144.13 4083.01 8149.06 4083.01 8155.13Z" stroke="#FFCB37" stroke-width="3.4375" stroke-linejoin="round" stroke-miterlimit="10" fill="#FFCB37"/><path d="M4135.01 8131.13C4135.01 8137.21 4130.08 8142.13 4124.01 8142.13 4117.93 8142.13 4113.01 8137.21 4113.01 8131.13 4113.01 8125.06 4117.93 8120.13 4124.01 8120.13 4130.08 8120.13 4135.01 8125.06 4135.01 8131.13Z" stroke="#FFCB37" stroke-width="3.4375" stroke-linejoin="round" stroke-miterlimit="10" fill="#FFCB37"/><path d="M4187.01 8076.13C4187.01 8082.21 4182.08 8087.13 4176.01 8087.13 4169.93 8087.13 4165.01 8082.21 4165.01 8076.13 4165.01 8070.06 4169.93 8065.13 4176.01 8065.13 4182.08 8065.13 4187.01 8070.06 4187.01 8076.13Z" stroke="#FFCB37" stroke-width="3.4375" stroke-linejoin="round" stroke-miterlimit="10" fill="#FFCB37"/><path d="M4238.01 8047.13C4238.01 8053.21 4233.08 8058.13 4227.01 8058.13 4220.93 8058.13 4216.01 8053.21 4216.01 8047.13 4216.01 8041.06 4220.93 8036.13 4227.01 8036.13 4233.08 8036.13 4238.01 8041.06 4238.01 8047.13Z" stroke="#FFCB37" stroke-width="3.4375" stroke-linejoin="round" stroke-miterlimit="10" fill="#FFCB37"/><path d="M4290.01 8079.13C4290.01 8085.21 4285.08 8090.13 4279.01 8090.13 4272.93 8090.13 4268.01 8085.21 4268.01 8079.13 4268.01 8073.06 4272.93 8068.13 4279.01 8068.13 4285.08 8068.13 4290.01 8073.06 4290.01 8079.13Z" stroke="#FFCB37" stroke-width="3.4375" stroke-linejoin="round" stroke-miterlimit="10" fill="#FFCB37"/><path d="M4342.01 8112.13C4342.01 8118.21 4337.08 8123.13 4331.01 8123.13 4324.93 8123.13 4320.01 8118.21 4320.01 8112.13 4320.01 8106.06 4324.93 8101.13 4331.01 8101.13 4337.08 8101.13 4342.01 8106.06 4342.01 8112.13Z" stroke="#FFCB37" stroke-width="3.4375" stroke-linejoin="round" stroke-miterlimit="10" fill="#FFCB37"/><path d="M4393.01 8095.13C4393.01 8101.21 4388.08 8106.13 4382.01 8106.13 4375.93 8106.13 4371.01 8101.21 4371.01 8095.13 4371.01 8089.06 4375.93 8084.13 4382.01 8084.13 4388.08 8084.13 4393.01 8089.06 4393.01 8095.13Z" stroke="#FFCB37" stroke-width="3.4375" stroke-linejoin="round" stroke-miterlimit="10" fill="#FFCB37"/><path d="M4445.01 8016.13C4445.01 8022.21 4440.08 8027.13 4434.01 8027.13 4427.93 8027.13 4423.01 8022.21 4423.01 8016.13 4423.01 8010.06 4427.93 8005.13 4434.01 8005.13 4440.08 8005.13 4445.01 8010.06 4445.01 8016.13Z" stroke="#FFCB37" stroke-width="3.4375" stroke-linejoin="round" stroke-miterlimit="10" fill="#FFCB37"/><path d="M4496.01 7998.13C4496.01 8004.21 4491.08 8009.13 4485.01 8009.13 4478.93 8009.13 4474.01 8004.21 4474.01 7998.13 4474.01 7992.06 4478.93 7987.13 4485.01 7987.13 4491.08 7987.13 4496.01 7992.06 4496.01 7998.13Z" stroke="#FFCB37" stroke-width="3.4375" stroke-linejoin="round" stroke-miterlimit="10" fill="#FFCB37"/><path d="M4548.01 7977.13C4548.01 7983.21 4543.08 7988.13 4537.01 7988.13 4530.93 7988.13 4526.01 7983.21 4526.01 7977.13 4526.01 7971.06 4530.93 7966.13 4537.01 7966.13 4543.08 7966.13 4548.01 7971.06 4548.01 7977.13Z" stroke="#FFCB37" stroke-width="3.4375" stroke-linejoin="round" stroke-miterlimit="10" fill="#FFCB37"/><path d="M4600.01 7905.13C4600.01 7911.21 4595.08 7916.13 4589.01 7916.13 4582.93 7916.13 4578.01 7911.21 4578.01 7905.13 4578.01 7899.06 4582.93 7894.13 4589.01 7894.13 4595.08 7894.13 4600.01 7899.06 4600.01 7905.13Z" stroke="#FFCB37" stroke-width="3.4375" stroke-linejoin="round" stroke-miterlimit="10" fill="#FFCB37"/><path d="M4651.01 7851.13C4651.01 7857.21 4646.08 7862.13 4640.01 7862.13 4633.93 7862.13 4629.01 7857.21 4629.01 7851.13 4629.01 7845.06 4633.93 7840.13 4640.01 7840.13 4646.08 7840.13 4651.01 7845.06 4651.01 7851.13Z" stroke="#FFCB37" stroke-width="3.4375" stroke-linejoin="round" stroke-miterlimit="10" fill="#FFCB37"/><path d="M4703.01 7785.13C4703.01 7791.21 4698.08 7796.13 4692.01 7796.13 4685.93 7796.13 4681.01 7791.21 4681.01 7785.13 4681.01 7779.06 4685.93 7774.13 4692.01 7774.13 4698.08 7774.13 4703.01 7779.06 4703.01 7785.13Z" stroke="#FFCB37" stroke-width="3.4375" stroke-linejoin="round" stroke-miterlimit="10" fill="#FFCB37"/><path d="M4755.01 7751.13C4755.01 7757.21 4750.08 7762.13 4744.01 7762.13 4737.93 7762.13 4733.01 7757.21 4733.01 7751.13 4733.01 7745.06 4737.93 7740.13 4744.01 7740.13 4750.08 7740.13 4755.01 7745.06 4755.01 7751.13Z" stroke="#FFCB37" stroke-width="3.4375" stroke-linejoin="round" stroke-miterlimit="10" fill="#FFCB37"/><path d="M4806.01 7791.13C4806.01 7797.21 4801.08 7802.13 4795.01 7802.13 4788.93 7802.13 4784.01 7797.21 4784.01 7791.13 4784.01 7785.06 4788.93 7780.13 4795.01 7780.13 4801.08 7780.13 4806.01 7785.06 4806.01 7791.13Z" stroke="#FFCB37" stroke-width="3.4375" stroke-linejoin="round" stroke-miterlimit="10" fill="#FFCB37"/><path d="M4858.01 7825.13C4858.01 7831.21 4853.08 7836.13 4847.01 7836.13 4840.93 7836.13 4836.01 7831.21 4836.01 7825.13 4836.01 7819.06 4840.93 7814.13 4847.01 7814.13 4853.08 7814.13 4858.01 7819.06 4858.01 7825.13Z" stroke="#FFCB37" stroke-width="3.4375" stroke-linejoin="round" stroke-miterlimit="10" fill="#FFCB37"/><path d="M4910.01 7816.13C4910.01 7822.21 4905.08 7827.13 4899.01 7827.13 4892.93 7827.13 4888.01 7822.21 4888.01 7816.13 4888.01 7810.06 4892.93 7805.13 4899.01 7805.13 4905.08 7805.13 4910.01 7810.06 4910.01 7816.13Z" stroke="#FFCB37" stroke-width="3.4375" stroke-linejoin="round" stroke-miterlimit="10" fill="#FFCB37"/></g><g><text fill="#E5E7EB" font-family="Calibri,Calibri_MSFontService,sans-serif" font-weight="400" font-size="41" transform="matrix(1 0 0 1 3240.92 8585)"> $-</text></g><g><text fill="#E5E7EB" font-family="Calibri,Calibri_MSFontService,sans-serif" font-weight="400" font-size="41" transform="matrix(1 0 0 1 3157.3 8429)"> $100.00</text></g><g><text fill="#E5E7EB" font-family="Calibri,Calibri_MSFontService,sans-serif" font-weight="400" font-size="41" transform="matrix(1 0 0 1 3157.3 8273)"> $200.00</text></g><g><text fill="#E5E7EB" font-family="Calibri,Calibri_MSFontService,sans-serif" font-weight="400" font-size="41" transform="matrix(1 0 0 1 3157.3 8117)"> $300.00</text></g><g><text fill="#E5E7EB" font-family="Calibri,Calibri_MSFontService,sans-serif" font-weight="400" font-size="41" transform="matrix(1 0 0 1 3157.3 7960)"> $400.00</text></g><g><text fill="#E5E7EB" font-family="Calibri,Calibri_MSFontService,sans-serif" font-weight="400" font-size="41" transform="matrix(1 0 0 1 3157.3 7804)"> $500.00</text></g><g><text fill="#E5E7EB" font-family="Calibri,Calibri_MSFontService,sans-serif" font-weight="400" font-size="41" transform="matrix(1 0 0 1 3157.3 7648)"> $600.00</text></g><g><text fill="#E5E7EB" font-family="Calibri,Calibri_MSFontService,sans-serif" font-weight="400" font-size="41" transform="matrix(1 0 0 1 3339.57 8639)">0</text></g><g><text fill="#E5E7EB" font-family="Calibri,Calibri_MSFontService,sans-serif" font-weight="400" font-size="41" transform="matrix(1 0 0 1 3597.75 8639)">5</text></g><g><text fill="#E5E7EB" font-family="Calibri,Calibri_MSFontService,sans-serif" font-weight="400" font-size="41" transform="matrix(1 0 0 1 3845.47 8639)">10</text></g><g><text fill="#E5E7EB" font-family="Calibri,Calibri_MSFontService,sans-serif" font-weight="400" font-size="41" transform="matrix(1 0 0 1 4103.64 8639)">15</text></g><g><text fill="#E5E7EB" font-family="Calibri,Calibri_MSFontService,sans-serif" font-weight="400" font-size="41" transform="matrix(1 0 0 1 4361.81 8639)">20</text></g><g><text fill="#E5E7EB" font-family="Calibri,Calibri_MSFontService,sans-serif" font-weight="400" font-size="41" transform="matrix(1 0 0 1 4619.98 8639)">25</text></g><g><text fill="#E5E7EB" font-family="Calibri,Calibri_MSFontService,sans-serif" font-weight="400" font-size="41" transform="matrix(1 0 0 1 4878.15 8639)">30</text></g><g><text fill="#E5E7EB" font-family="Calibri,Calibri_MSFontService,sans-serif" font-weight="400" font-size="41" transform="matrix(1 0 0 1 5136.32 8639)">35</text></g><g><text fill="#E5E7EB" font-family="Calibri,Calibri_MSFontService,sans-serif" font-weight="400" font-size="64" transform="matrix(1 0 0 1 3636.07 7562)">Profit with 5% Max Engaged at Each Entry</text></g><rect x="3128.5" y="7467.5" width="2101" height="1213" stroke="#D9D9D9" stroke-width="3.4375" stroke-linejoin="round" stroke-miterlimit="10" fill="none"/></g></svg>