<svg width="1080" height="1104" xmlns="http://www.w3.org/2000/svg" xmlns:xlink="http://www.w3.org/1999/xlink" xml:space="preserve" overflow="hidden"><defs><clipPath id="clip0"><rect x="2963" y="3898" width="1080" height="1104"/></clipPath></defs><g clip-path="url(#clip0)" transform="translate(-2963 -3898)"><g><path d="M3502.81 4124.06C3686.81 4124.06 3835.96 4273.22 3835.96 4457.21 3835.96 4641.2 3686.81 4790.36 3502.81 4790.36 3341.14 4790.36 3202.8 4674.28 3174.72 4515.06L3256.75 4500.6C3280.71 4636.5 3410.3 4727.24 3546.2 4703.28 3682.1 4679.31 3772.84 4549.72 3748.88 4413.82 3727.82 4294.41 3624.07 4207.35 3502.81 4207.35Z" stroke="#FFFFFF" stroke-width="6.875" stroke-linejoin="round" stroke-miterlimit="10" fill="#4ADE80" fill-rule="evenodd"/></g><g><path d="M3174.72 4515.06C3142.77 4333.86 3263.76 4161.07 3444.96 4129.12 3464.06 4125.75 3483.42 4124.06 3502.81 4124.06L3502.81 4207.35C3364.82 4207.35 3252.95 4319.22 3252.95 4457.21 3252.95 4471.76 3254.22 4486.27 3256.75 4500.6Z" stroke="#FFFFFF" stroke-width="6.875" stroke-linejoin="round" stroke-miterlimit="10" fill="#FFCB37" fill-rule="evenodd"/></g><g><path d="M3726.5 4644.5 3789.62 4704.5 3809.5 4704.5" stroke="#A6A6A6" stroke-width="3.4375" stroke-linejoin="round" stroke-miterlimit="10" fill="none"/></g><g><path d="M3279.5 4269.5 3253.61 4213.5 3233.5 4213.5" stroke="#A6A6A6" stroke-width="3.4375" stroke-linejoin="round" stroke-miterlimit="10" fill="none"/></g><g><text fill="#4ADE80" font-family="Calibri,Calibri_MSFontService,sans-serif" font-weight="400" font-size="41" transform="matrix(1 0 0 1 3823.64 4719)">72</text></g><g><text fill="#4ADE80" font-family="Calibri,Calibri_MSFontService,sans-serif" font-weight="400" font-size="41" transform="matrix(1 0 0 1 3865.44 4719)">%</text></g><g><text fill="#FFCB37" font-family="Calibri,Calibri_MSFontService,sans-serif" font-weight="400" font-size="41" transform="matrix(1 0 0 1 3148.12 4228)">28%</text></g><g><text fill="#E5E7EB" font-family="Calibri,Calibri_MSFontService,sans-serif" font-weight="400" font-size="64" transform="matrix(1 0 0 1 3378.96 4490)">WIN RATE</text></g><g><rect x="3360.5" y="4922.5" width="23" height="23" stroke="#FFFFFF" stroke-width="6.875" stroke-linejoin="round" stroke-miterlimit="10" fill="#4ADE80"/></g><g><text fill="#E5E7EB" font-family="Calibri,Calibri_MSFontService,sans-serif" font-weight="400" font-size="41" transform="matrix(1 0 0 1 3393.22 4946)">PROFIT</text></g><g><rect x="3546.5" y="4922.5" width="22" height="23" stroke="#FFFFFF" stroke-width="6.875" stroke-linejoin="round" stroke-miterlimit="10" fill="#FFCB37"/></g><g><text fill="#E5E7EB" font-family="Calibri,Calibri_MSFontService,sans-serif" font-weight="400" font-size="41" transform="matrix(1 0 0 1 3578.58 4946)">LOSS</text></g><rect x="2964.5" y="3899.5" width="1077" height="1101" stroke="#D9D9D9" stroke-width="3.4375" stroke-linejoin="round" stroke-miterlimit="10" fill="none"/></g></svg>