<svg width="1076" height="1087" xmlns="http://www.w3.org/2000/svg" xmlns:xlink="http://www.w3.org/1999/xlink" xml:space="preserve" overflow="hidden"><defs><clipPath id="clip0"><rect x="4331" y="3906" width="1076" height="1087"/></clipPath></defs><g clip-path="url(#clip0)" transform="translate(-4331 -3906)"><g><path d="M4879.48 4111.23C5072.22 4111.23 5228.47 4267.48 5228.47 4460.22 5228.47 4652.96 5072.22 4809.21 4879.48 4809.21 4686.74 4809.21 4530.49 4652.96 4530.49 4460.22 4530.49 4357.06 4576.13 4259.19 4655.16 4192.88L4711.24 4259.71C4600.5 4352.63 4586.06 4517.72 4678.98 4628.46 4771.89 4739.2 4936.99 4753.64 5047.72 4660.72 5158.46 4567.8 5172.9 4402.71 5079.99 4291.97 5030.25 4232.71 4956.85 4198.48 4879.48 4198.48Z" stroke="#FFFFFF" stroke-width="6.875" stroke-linejoin="round" stroke-miterlimit="10" fill="#4ADE80" fill-rule="evenodd"/></g><g><path d="M4655.16 4192.88C4718.01 4140.14 4797.43 4111.23 4879.48 4111.23L4879.48 4198.48C4817.94 4198.48 4758.38 4220.16 4711.24 4259.71Z" stroke="#FFFFFF" stroke-width="6.875" stroke-linejoin="round" stroke-miterlimit="10" fill="#FFCB37" fill-rule="evenodd"/></g><g><path d="M4983.5 4747.5 5050.67 4929.5 5071.5 4929.5" stroke="#A6A6A6" stroke-width="3.4375" stroke-linejoin="round" stroke-miterlimit="10" fill="none"/></g><g><path d="M4775.5 4173.5 4604.65 4114.5 4584.5 4114.5" stroke="#A6A6A6" stroke-width="3.4375" stroke-linejoin="round" stroke-miterlimit="10" fill="none"/></g><g><text fill="#4ADE80" font-family="Calibri,Calibri_MSFontService,sans-serif" font-weight="700" font-size="41" transform="matrix(1 0 0 1 5084.89 4944)">89</text></g><g><text fill="#4ADE80" font-family="Calibri,Calibri_MSFontService,sans-serif" font-weight="700" font-size="41" transform="matrix(1 0 0 1 5126.69 4944)">%</text></g><g><text fill="#FFCB37" font-family="Calibri,Calibri_MSFontService,sans-serif" font-weight="700" font-size="41" transform="matrix(1 0 0 1 4498.78 4128)">11%</text></g><g><text fill="#FFCB37" font-family="Calibri,Calibri_MSFontService,sans-serif" font-weight="700" font-size="64" transform="matrix(1 0 0 1 4707.21 4477)">Short</text></g><g><text fill="#E5E7EB" font-family="Calibri,Calibri_MSFontService,sans-serif" font-weight="700" font-size="64" transform="matrix(1 0 0 1 4866.02 4477)">&amp;</text></g><g><text fill="#4ADE80" font-family="Calibri,Calibri_MSFontService,sans-serif" font-weight="700" font-size="64" transform="matrix(1 0 0 1 4925.74 4477)">Long</text></g><rect x="4332.5" y="3907.5" width="1073" height="1084" stroke="#D9D9D9" stroke-width="3.4375" stroke-linejoin="round" stroke-miterlimit="10" fill="none"/></g></svg>