<svg width="1927" height="1144" xmlns="http://www.w3.org/2000/svg" xmlns:xlink="http://www.w3.org/1999/xlink" xml:space="preserve" overflow="hidden"><defs><clipPath id="clip0"><rect x="3107" y="6998" width="1927" height="1144"/></clipPath></defs><g clip-path="url(#clip0)" transform="translate(-3107 -6998)"><g><path d="M3346.5 8089.5 4961.5 8089.5M3346.5 7957.76 4961.5 7957.76M3346.5 7694.75 4961.5 7694.75M3346.5 7563.75 4961.5 7563.75M3346.5 7431.74 4961.5 7431.74M3346.5 7300.74 4961.5 7300.74M3346.5 7168.5 4961.5 7168.5" stroke="#D9D9D9" stroke-width="3.4375" stroke-linejoin="round" stroke-miterlimit="10" fill="none"/></g><g><path d="M3669.62 7168.5 3669.62 8089.5M3992.63 7168.5 3992.63 8089.5M4315.64 7168.5 4315.64 8089.5M4638.65 7168.5 4638.65 8089.5M4961.5 7168.5 4961.5 8089.5" stroke="#D9D9D9" stroke-width="3.4375" stroke-linejoin="round" stroke-miterlimit="10" fill="none"/></g><g><path d="M0 0 0.000360892 921" stroke="#BFBFBF" stroke-width="3.4375" stroke-linejoin="round" stroke-miterlimit="10" fill="none" fill-rule="evenodd" transform="matrix(1 0 0 -1 3346.5 8089.5)"/></g><g><path d="M3346.5 7826.5 4961.5 7826.5" stroke="#BFBFBF" stroke-width="3.4375" stroke-linejoin="round" stroke-miterlimit="10" fill="none" fill-rule="evenodd"/></g><g><path d="M3411.5 7762.75 3475.61 7864.76 3540.62 7932.76 3604.62 7997.5 3669.62 7837.76 3733.62 7784.76 3798.62 7723.75 3863.63 7609.75 3927.63 7522.75 3992.63 7615.75 4056.63 7677.75 4121.64 7561.75 4185.64 7475.75 4250.64 7432.74 4315.64 7345.74 4379.64 7310.74 4444.65 7281.74 4509.5 7233.5" stroke="#FFCB37" stroke-width="6.875" stroke-linecap="round" stroke-linejoin="round" stroke-miterlimit="10" fill="none"/></g><g><path d="M3422.76 7762.25C3422.76 7768.32 3417.84 7773.25 3411.76 7773.25 3405.69 7773.25 3400.76 7768.32 3400.76 7762.25 3400.76 7756.17 3405.69 7751.25 3411.76 7751.25 3417.84 7751.25 3422.76 7756.17 3422.76 7762.25Z" stroke="#FFCB37" stroke-width="3.4375" stroke-linejoin="round" stroke-miterlimit="10" fill="#FFCB37"/><path d="M3486.76 7865.25C3486.76 7871.32 3481.84 7876.25 3475.76 7876.25 3469.69 7876.25 3464.76 7871.32 3464.76 7865.25 3464.76 7859.17 3469.69 7854.25 3475.76 7854.25 3481.84 7854.25 3486.76 7859.17 3486.76 7865.25Z" stroke="#FFCB37" stroke-width="3.4375" stroke-linejoin="round" stroke-miterlimit="10" fill="#FFCB37"/><path d="M3551.76 7932.25C3551.76 7938.32 3546.84 7943.25 3540.76 7943.25 3534.69 7943.25 3529.76 7938.32 3529.76 7932.25 3529.76 7926.17 3534.69 7921.25 3540.76 7921.25 3546.84 7921.25 3551.76 7926.17 3551.76 7932.25Z" stroke="#FFCB37" stroke-width="3.4375" stroke-linejoin="round" stroke-miterlimit="10" fill="#FFCB37"/><path d="M3615.76 7997.25C3615.76 8003.32 3610.84 8008.25 3604.76 8008.25 3598.69 8008.25 3593.76 8003.32 3593.76 7997.25 3593.76 7991.17 3598.69 7986.25 3604.76 7986.25 3610.84 7986.25 3615.76 7991.17 3615.76 7997.25Z" stroke="#FFCB37" stroke-width="3.4375" stroke-linejoin="round" stroke-miterlimit="10" fill="#FFCB37"/><path d="M3680.76 7837.25C3680.76 7843.32 3675.84 7848.25 3669.76 7848.25 3663.69 7848.25 3658.76 7843.32 3658.76 7837.25 3658.76 7831.17 3663.69 7826.25 3669.76 7826.25 3675.84 7826.25 3680.76 7831.17 3680.76 7837.25Z" stroke="#FFCB37" stroke-width="3.4375" stroke-linejoin="round" stroke-miterlimit="10" fill="#FFCB37"/><path d="M3745.76 7784.25C3745.76 7790.32 3740.84 7795.25 3734.76 7795.25 3728.69 7795.25 3723.76 7790.32 3723.76 7784.25 3723.76 7778.17 3728.69 7773.25 3734.76 7773.25 3740.84 7773.25 3745.76 7778.17 3745.76 7784.25Z" stroke="#FFCB37" stroke-width="3.4375" stroke-linejoin="round" stroke-miterlimit="10" fill="#FFCB37"/><path d="M3809.76 7723.25C3809.76 7729.32 3804.84 7734.25 3798.76 7734.25 3792.69 7734.25 3787.76 7729.32 3787.76 7723.25 3787.76 7717.17 3792.69 7712.25 3798.76 7712.25 3804.84 7712.25 3809.76 7717.17 3809.76 7723.25Z" stroke="#FFCB37" stroke-width="3.4375" stroke-linejoin="round" stroke-miterlimit="10" fill="#FFCB37"/><path d="M3874.76 7610.25C3874.76 7616.32 3869.84 7621.25 3863.76 7621.25 3857.69 7621.25 3852.76 7616.32 3852.76 7610.25 3852.76 7604.17 3857.69 7599.25 3863.76 7599.25 3869.84 7599.25 3874.76 7604.17 3874.76 7610.25Z" stroke="#FFCB37" stroke-width="3.4375" stroke-linejoin="round" stroke-miterlimit="10" fill="#FFCB37"/><path d="M3938.76 7523.25C3938.76 7529.32 3933.84 7534.25 3927.76 7534.25 3921.69 7534.25 3916.76 7529.32 3916.76 7523.25 3916.76 7517.17 3921.69 7512.25 3927.76 7512.25 3933.84 7512.25 3938.76 7517.17 3938.76 7523.25Z" stroke="#FFCB37" stroke-width="3.4375" stroke-linejoin="round" stroke-miterlimit="10" fill="#FFCB37"/><path d="M4003.76 7616.25C4003.76 7622.32 3998.84 7627.25 3992.76 7627.25 3986.69 7627.25 3981.76 7622.32 3981.76 7616.25 3981.76 7610.17 3986.69 7605.25 3992.76 7605.25 3998.84 7605.25 4003.76 7610.17 4003.76 7616.25Z" stroke="#FFCB37" stroke-width="3.4375" stroke-linejoin="round" stroke-miterlimit="10" fill="#FFCB37"/><path d="M4067.76 7677.25C4067.76 7683.32 4062.84 7688.25 4056.76 7688.25 4050.69 7688.25 4045.76 7683.32 4045.76 7677.25 4045.76 7671.17 4050.69 7666.25 4056.76 7666.25 4062.84 7666.25 4067.76 7671.17 4067.76 7677.25Z" stroke="#FFCB37" stroke-width="3.4375" stroke-linejoin="round" stroke-miterlimit="10" fill="#FFCB37"/><path d="M4132.76 7562.25C4132.76 7568.32 4127.84 7573.25 4121.76 7573.25 4115.69 7573.25 4110.76 7568.32 4110.76 7562.25 4110.76 7556.17 4115.69 7551.25 4121.76 7551.25 4127.84 7551.25 4132.76 7556.17 4132.76 7562.25Z" stroke="#FFCB37" stroke-width="3.4375" stroke-linejoin="round" stroke-miterlimit="10" fill="#FFCB37"/><path d="M4197.76 7475.25C4197.76 7481.32 4192.84 7486.25 4186.76 7486.25 4180.69 7486.25 4175.76 7481.32 4175.76 7475.25 4175.76 7469.17 4180.69 7464.25 4186.76 7464.25 4192.84 7464.25 4197.76 7469.17 4197.76 7475.25Z" stroke="#FFCB37" stroke-width="3.4375" stroke-linejoin="round" stroke-miterlimit="10" fill="#FFCB37"/><path d="M4261.76 7432.25C4261.76 7438.32 4256.84 7443.25 4250.76 7443.25 4244.69 7443.25 4239.76 7438.32 4239.76 7432.25 4239.76 7426.17 4244.69 7421.25 4250.76 7421.25 4256.84 7421.25 4261.76 7426.17 4261.76 7432.25Z" stroke="#FFCB37" stroke-width="3.4375" stroke-linejoin="round" stroke-miterlimit="10" fill="#FFCB37"/><path d="M4326.76 7345.25C4326.76 7351.32 4321.84 7356.25 4315.76 7356.25 4309.69 7356.25 4304.76 7351.32 4304.76 7345.25 4304.76 7339.17 4309.69 7334.25 4315.76 7334.25 4321.84 7334.25 4326.76 7339.17 4326.76 7345.25Z" stroke="#FFCB37" stroke-width="3.4375" stroke-linejoin="round" stroke-miterlimit="10" fill="#FFCB37"/><path d="M4390.76 7310.25C4390.76 7316.32 4385.84 7321.25 4379.76 7321.25 4373.69 7321.25 4368.76 7316.32 4368.76 7310.25 4368.76 7304.17 4373.69 7299.25 4379.76 7299.25 4385.84 7299.25 4390.76 7304.17 4390.76 7310.25Z" stroke="#FFCB37" stroke-width="3.4375" stroke-linejoin="round" stroke-miterlimit="10" fill="#FFCB37"/><path d="M4455.76 7282.25C4455.76 7288.32 4450.84 7293.25 4444.76 7293.25 4438.69 7293.25 4433.76 7288.32 4433.76 7282.25 4433.76 7276.17 4438.69 7271.25 4444.76 7271.25 4450.84 7271.25 4455.76 7276.17 4455.76 7282.25Z" stroke="#FFCB37" stroke-width="3.4375" stroke-linejoin="round" stroke-miterlimit="10" fill="#FFCB37"/><path d="M4520.76 7233.25C4520.76 7239.32 4515.84 7244.25 4509.76 7244.25 4503.69 7244.25 4498.76 7239.32 4498.76 7233.25 4498.76 7227.17 4503.69 7222.25 4509.76 7222.25 4515.84 7222.25 4520.76 7227.17 4520.76 7233.25Z" stroke="#FFCB37" stroke-width="3.4375" stroke-linejoin="round" stroke-miterlimit="10" fill="#FFCB37"/></g><g><text fill="#E5E7EB" font-family="Calibri,Calibri_MSFontService,sans-serif" font-weight="400" font-size="41" transform="matrix(1 0 0 1 3138.05 8101)"> $(100.00)</text></g><g><text fill="#E5E7EB" font-family="Calibri,Calibri_MSFontService,sans-serif" font-weight="400" font-size="41" transform="matrix(1 0 0 1 3158.95 7970)"> $(50.00)</text></g><g><text fill="#E5E7EB" font-family="Calibri,Calibri_MSFontService,sans-serif" font-weight="400" font-size="41" transform="matrix(1 0 0 1 3237.37 7838)"> $-</text></g><g><text fill="#E5E7EB" font-family="Calibri,Calibri_MSFontService,sans-serif" font-weight="400" font-size="41" transform="matrix(1 0 0 1 3174.65 7706)"> $50.00</text></g><g><text fill="#E5E7EB" font-family="Calibri,Calibri_MSFontService,sans-serif" font-weight="400" font-size="41" transform="matrix(1 0 0 1 3153.75 7575)"> $100.00</text></g><g><text fill="#E5E7EB" font-family="Calibri,Calibri_MSFontService,sans-serif" font-weight="400" font-size="41" transform="matrix(1 0 0 1 3153.75 7443)"> $150.00</text></g><g><text fill="#E5E7EB" font-family="Calibri,Calibri_MSFontService,sans-serif" font-weight="400" font-size="41" transform="matrix(1 0 0 1 3153.75 7312)"> $200.00</text></g><g><text fill="#E5E7EB" font-family="Calibri,Calibri_MSFontService,sans-serif" font-weight="400" font-size="41" transform="matrix(1 0 0 1 3153.75 7180)"> $250.00</text></g><g><text fill="#E5E7EB" font-family="Calibri,Calibri_MSFontService,sans-serif" font-weight="400" font-size="41" transform="matrix(1 0 0 1 3336.03 7892)">0</text></g><g><text fill="#E5E7EB" font-family="Calibri,Calibri_MSFontService,sans-serif" font-weight="400" font-size="41" transform="matrix(1 0 0 1 3658.97 7892)">5</text></g><g><text fill="#E5E7EB" font-family="Calibri,Calibri_MSFontService,sans-serif" font-weight="400" font-size="41" transform="matrix(1 0 0 1 3971.46 7892)">10</text></g><g><text fill="#E5E7EB" font-family="Calibri,Calibri_MSFontService,sans-serif" font-weight="400" font-size="41" transform="matrix(1 0 0 1 4294.4 7892)">15</text></g><g><text fill="#E5E7EB" font-family="Calibri,Calibri_MSFontService,sans-serif" font-weight="400" font-size="41" transform="matrix(1 0 0 1 4617.34 7892)">20</text></g><g><text fill="#E5E7EB" font-family="Calibri,Calibri_MSFontService,sans-serif" font-weight="400" font-size="41" transform="matrix(1 0 0 1 4940.28 7892)">25</text></g><g><text fill="#E5E7EB" font-family="Calibri,Calibri_MSFontService,sans-serif" font-weight="400" font-size="64" transform="matrix(1 0 0 1 3512.49 7094)">Profit with Max 5% Engaged on Each Signal</text></g><rect x="3108.5" y="6999.5" width="1924" height="1141" stroke="#D9D9D9" stroke-width="3.4375" stroke-linejoin="round" stroke-miterlimit="10" fill="none"/></g></svg>