<svg width="993" height="1075" xmlns="http://www.w3.org/2000/svg" xmlns:xlink="http://www.w3.org/1999/xlink" xml:space="preserve" overflow="hidden"><defs><clipPath id="clip0"><rect x="3292" y="4847" width="993" height="1075"/></clipPath></defs><g clip-path="url(#clip0)" transform="translate(-3292 -4847)"><g><path d="M3787.96 5071.33C3964.89 5071.33 4108.31 5214.75 4108.31 5391.68 4108.31 5568.6 3964.89 5712.02 3787.96 5712.02 3697.17 5712.02 3610.65 5673.5 3549.9 5606.03L3609.41 5552.44C3698.2 5651.05 3850.12 5659.01 3948.73 5570.22 4047.34 5481.44 4055.3 5329.52 3966.51 5230.91 3920.95 5180.31 3856.06 5151.42 3787.96 5151.42Z" stroke="#FFFFFF" stroke-width="6.875" stroke-linejoin="round" stroke-miterlimit="10" fill="#4ADE80" fill-rule="evenodd"/></g><g><path d="M3549.9 5606.03C3431.51 5474.55 3442.13 5272 3573.61 5153.61 3632.44 5100.64 3708.8 5071.33 3787.96 5071.33L3787.96 5151.42C3655.27 5151.42 3547.7 5258.98 3547.7 5391.68 3547.7 5451.05 3569.69 5508.32 3609.41 5552.44Z" stroke="#FFFFFF" stroke-width="6.875" stroke-linejoin="round" stroke-miterlimit="10" fill="#FFCB37" fill-rule="evenodd"/></g><g><path d="M4044.5 5505.5 4096.63 5564.5 4117.5 5564.5" stroke="#A6A6A6" stroke-width="3.4375" stroke-linejoin="round" stroke-miterlimit="10" fill="none"/></g><g><path d="M3531.5 5277.5 3513.62 5223.5 3493.5 5223.5" stroke="#A6A6A6" stroke-width="3.4375" stroke-linejoin="round" stroke-miterlimit="10" fill="none"/></g><g><text fill="#4ADE80" font-family="Calibri,Calibri_MSFontService,sans-serif" font-weight="400" font-size="41" transform="matrix(1 0 0 1 4130.89 5578)">63%</text></g><g><text fill="#FFCB37" font-family="Calibri,Calibri_MSFontService,sans-serif" font-weight="400" font-size="41" transform="matrix(1 0 0 1 3408.17 5237)">37%</text></g><g><text fill="#E5E7EB" font-family="Calibri,Calibri_MSFontService,sans-serif" font-weight="400" font-size="64" transform="matrix(1 0 0 1 3655.61 5403)">WIN RATE</text></g><g><rect x="3646.5" y="5842.5" width="22" height="23" stroke="#FFFFFF" stroke-width="6.875" stroke-linejoin="round" stroke-miterlimit="10" fill="#4ADE80"/></g><g><text fill="#E5E7EB" font-family="Calibri,Calibri_MSFontService,sans-serif" font-weight="400" font-size="41" transform="matrix(1 0 0 1 3678.37 5866)">PROFIT</text></g><g><rect x="3831.5" y="5842.5" width="23" height="23" stroke="#FFFFFF" stroke-width="6.875" stroke-linejoin="round" stroke-miterlimit="10" fill="#FFCB37"/></g><g><text fill="#E5E7EB" font-family="Calibri,Calibri_MSFontService,sans-serif" font-weight="400" font-size="41" transform="matrix(1 0 0 1 3863.74 5866)">LOSS</text></g><rect x="3293.5" y="4848.5" width="990" height="1072" stroke="#D9D9D9" stroke-width="3.4375" stroke-linejoin="round" stroke-miterlimit="10" fill="none"/></g></svg>