<svg width="964" height="1041" xmlns="http://www.w3.org/2000/svg" xmlns:xlink="http://www.w3.org/1999/xlink" xml:space="preserve" overflow="hidden"><defs><clipPath id="clip0"><rect x="4381" y="4863" width="964" height="1041"/></clipPath></defs><g clip-path="url(#clip0)" transform="translate(-4381 -4863)"><g><path d="M4872.23 5080.73C5044.98 5080.73 5185.02 5220.77 5185.02 5393.52 5185.02 5566.26 5044.98 5706.3 4872.23 5706.3 4847.01 5706.3 4821.87 5703.25 4797.38 5697.21L4816.09 5621.29C4941.89 5652.29 5069 5575.45 5100.01 5449.66 5131.01 5323.86 5054.17 5196.75 4928.38 5165.74 4910.01 5161.22 4891.16 5158.93 4872.24 5158.93Z" stroke="#FFFFFF" stroke-width="6.875" stroke-linejoin="round" stroke-miterlimit="10" fill="#4ADE80" fill-rule="evenodd"/></g><g><path d="M4797.38 5697.21C4629.66 5655.87 4527.2 5486.39 4568.54 5318.66 4602.98 5178.93 4728.32 5080.73 4872.23 5080.73L4872.23 5158.93C4742.68 5158.93 4637.65 5263.96 4637.65 5393.52 4637.65 5501.45 4711.3 5595.46 4816.09 5621.29Z" stroke="#FFFFFF" stroke-width="6.875" stroke-linejoin="round" stroke-miterlimit="10" fill="#FFCB37" fill-rule="evenodd"/></g><g><path d="M5143.5 5426.5 5196.67 5601.5 5216.5 5601.5" stroke="#A6A6A6" stroke-width="3.4375" stroke-linejoin="round" stroke-miterlimit="10" fill="none"/></g><g><path d="M4600.5 5360.5 4541.65 5340.5 4520.5 5340.5" stroke="#A6A6A6" stroke-width="3.4375" stroke-linejoin="round" stroke-miterlimit="10" fill="none"/></g><g><text fill="#4ADE80" font-family="Calibri,Calibri_MSFontService,sans-serif" font-weight="700" font-size="41" transform="matrix(1 0 0 1 5230.69 5615)">54%</text></g><g><text fill="#ED7D31" font-family="Calibri,Calibri_MSFontService,sans-serif" font-weight="700" font-size="41" transform="matrix(1 0 0 1 4435.25 5355)">46%</text></g><g><text fill="#FFCB37" font-family="Calibri,Calibri_MSFontService,sans-serif" font-weight="700" font-size="64" transform="matrix(1 0 0 1 4719.26 5413)">Short</text></g><g><text fill="#E5E7EB" font-family="Calibri,Calibri_MSFontService,sans-serif" font-weight="700" font-size="64" transform="matrix(1 0 0 1 4878.07 5413)">&amp;</text></g><g><text fill="#4ADE80" font-family="Calibri,Calibri_MSFontService,sans-serif" font-weight="700" font-size="64" transform="matrix(1 0 0 1 4937.79 5413)">Long</text></g><rect x="4382.5" y="4864.5" width="961" height="1038" stroke="#D9D9D9" stroke-width="3.4375" stroke-linejoin="round" stroke-miterlimit="10" fill="none"/></g></svg>