<svg width="2057" height="1402" xmlns="http://www.w3.org/2000/svg" xmlns:xlink="http://www.w3.org/1999/xlink" xml:space="preserve" overflow="hidden"><g transform="translate(-2951 -6145)"><rect x="2951.5" y="6145.5" width="2055" height="1400" fill="#000000" fill-opacity="0"/><rect x="2951.5" y="6145.5" width="2055" height="1400" stroke="#D9D9D9" stroke-width="3.4375" stroke-miterlimit="2" fill="none"/><g><path d="M3098.5 7270.5 4976.5 7270.5" stroke="#D9D9D9" stroke-width="3.4375" stroke-miterlimit="2" fill="none"/><path d="M3098.5 7100.5 4976.5 7100.5" stroke="#D9D9D9" stroke-width="3.4375" stroke-miterlimit="2" fill="none"/><path d="M3098.5 6931.5 4976.5 6931.5" stroke="#D9D9D9" stroke-width="3.4375" stroke-miterlimit="2" fill="none"/><path d="M3098.5 6761.5 4976.5 6761.5" stroke="#D9D9D9" stroke-width="3.4375" stroke-miterlimit="2" fill="none"/><path d="M3098.5 6592.5 4976.5 6592.5" stroke="#D9D9D9" stroke-width="3.4375" stroke-miterlimit="2" fill="none"/><path d="M3098.5 6422.5 4976.5 6422.5" stroke="#D9D9D9" stroke-width="3.4375" stroke-miterlimit="2" fill="none"/><rect x="3111" y="7200" width="47" height="70" fill="#4ADE80"/><rect x="3183" y="7200" width="47" height="85" fill="#FFCB37"/><rect x="3256" y="7286" width="47" height="98" fill="#FFCB37"/><rect x="3328" y="7300" width="47" height="84" fill="#4ADE80"/><rect x="3400" y="7182" width="47" height="117" fill="#4ADE80"/><rect x="3472" y="7101" width="47" height="80" fill="#4ADE80"/><rect x="3544" y="7035" width="48" height="65" fill="#4ADE80"/><rect x="3617" y="6902" width="47" height="132" fill="#4ADE80"/><rect x="3689" y="6823" width="47" height="78" fill="#4ADE80"/><rect x="3761" y="6728" width="47" height="94" fill="#4ADE80"/><rect x="3833" y="6623" width="47" height="104" fill="#4ADE80"/><rect x="3906" y="6623" width="47" height="83" fill="#FFCB37"/><rect x="3978" y="6707" width="47" height="59" fill="#FFCB37"/><rect x="4050" y="6663" width="47" height="103" fill="#4ADE80"/><rect x="4122" y="6663" width="47" height="70" fill="#FFCB37"/><rect x="4194" y="6608" width="48" height="125" fill="#4ADE80"/><rect x="4267" y="6543" width="47" height="64" fill="#4ADE80"/><rect x="4339" y="6543" width="47" height="80" fill="#FFCB37"/><rect x="4411" y="6488" width="47" height="135" fill="#4ADE80"/><rect x="4483" y="6488" width="47" height="65" fill="#FFCB37"/><rect x="4556" y="6481" width="47" height="72" fill="#4ADE80"/><rect x="4628" y="6481" width="47" height="64" fill="#FFCB37"/><rect x="4700" y="6546" width="47" height="54" fill="#FFCB37"/><rect x="4772" y="6494" width="47" height="106" fill="#4ADE80"/><rect x="4844" y="6494" width="48" height="54" fill="#FFCB37"/><rect x="4917" y="6508" width="47" height="40" fill="#4ADE80"/><path d="M3158.5 7199.5 3182.5 7199.5" stroke="#D9D9D9" stroke-width="3.4375" stroke-miterlimit="2" fill="none"/><path d="M3230.5 7285.5 3255.5 7285.5" stroke="#D9D9D9" stroke-width="3.4375" stroke-miterlimit="2" fill="none"/><path d="M3303.5 7384.5 3327.5 7384.5" stroke="#D9D9D9" stroke-width="3.4375" stroke-miterlimit="2" fill="none"/><path d="M3375.5 7299.5 3399.5 7299.5" stroke="#D9D9D9" stroke-width="3.4375" stroke-miterlimit="2" fill="none"/><path d="M3447.5 7181.5 3471.5 7181.5" stroke="#D9D9D9" stroke-width="3.4375" stroke-miterlimit="2" fill="none"/><path d="M3519.5 7100.5 3543.5 7100.5" stroke="#D9D9D9" stroke-width="3.4375" stroke-miterlimit="2" fill="none"/><path d="M3592.5 7034.5 3616.5 7034.5" stroke="#D9D9D9" stroke-width="3.4375" stroke-miterlimit="2" fill="none"/><path d="M3664.5 6901.5 3688.5 6901.5" stroke="#D9D9D9" stroke-width="3.4375" stroke-miterlimit="2" fill="none"/><path d="M3736.5 6822.5 3760.5 6822.5" stroke="#D9D9D9" stroke-width="3.4375" stroke-miterlimit="2" fill="none"/><path d="M3808.5 6727.5 3832.5 6727.5" stroke="#D9D9D9" stroke-width="3.4375" stroke-miterlimit="2" fill="none"/><path d="M3880.5 6622.5 3905.5 6622.5" stroke="#D9D9D9" stroke-width="3.4375" stroke-miterlimit="2" fill="none"/><path d="M3953.5 6706.5 3977.5 6706.5" stroke="#D9D9D9" stroke-width="3.4375" stroke-miterlimit="2" fill="none"/><path d="M4025.5 6766.5 4049.5 6766.5" stroke="#D9D9D9" stroke-width="3.4375" stroke-miterlimit="2" fill="none"/><path d="M4097.5 6662.5 4121.5 6662.5" stroke="#D9D9D9" stroke-width="3.4375" stroke-miterlimit="2" fill="none"/><path d="M4169.5 6733.5 4193.5 6733.5" stroke="#D9D9D9" stroke-width="3.4375" stroke-miterlimit="2" fill="none"/><path d="M4242.5 6607.5 4266.5 6607.5" stroke="#D9D9D9" stroke-width="3.4375" stroke-miterlimit="2" fill="none"/><path d="M4314.5 6542.5 4338.5 6542.5" stroke="#D9D9D9" stroke-width="3.4375" stroke-miterlimit="2" fill="none"/><path d="M4386.5 6623.5 4410.5 6623.5" stroke="#D9D9D9" stroke-width="3.4375" stroke-miterlimit="2" fill="none"/><path d="M4458.5 6487.5 4482.5 6487.5" stroke="#D9D9D9" stroke-width="3.4375" stroke-miterlimit="2" fill="none"/><path d="M4530.5 6553.5 4555.5 6553.5" stroke="#D9D9D9" stroke-width="3.4375" stroke-miterlimit="2" fill="none"/><path d="M4603.5 6480.5 4627.5 6480.5" stroke="#D9D9D9" stroke-width="3.4375" stroke-miterlimit="2" fill="none"/><path d="M4675.5 6545.5 4699.5 6545.5" stroke="#D9D9D9" stroke-width="3.4375" stroke-miterlimit="2" fill="none"/><path d="M4747.5 6600.5 4771.5 6600.5" stroke="#D9D9D9" stroke-width="3.4375" stroke-miterlimit="2" fill="none"/><path d="M4819.5 6493.5 4843.5 6493.5" stroke="#D9D9D9" stroke-width="3.4375" stroke-miterlimit="2" fill="none"/><path d="M4892.5 6548.5 4916.5 6548.5" stroke="#D9D9D9" stroke-width="3.4375" stroke-miterlimit="2" fill="none"/></g><path d="M3098.5 7439.5 4976.5 7439.5" stroke="#D9D9D9" stroke-width="3.4375" stroke-linejoin="round" stroke-miterlimit="10" fill="none"/><g><text fill="#E5E7EB" font-family="Calibri,Calibri_MSFontService,sans-serif" font-weight="400" font-size="41" transform="translate(3124.23 7509)">1</text></g><g><text fill="#E5E7EB" font-family="Calibri,Calibri_MSFontService,sans-serif" font-weight="400" font-size="41" transform="translate(3196.45 7509)">2</text></g><g><text fill="#E5E7EB" font-family="Calibri,Calibri_MSFontService,sans-serif" font-weight="400" font-size="41" transform="translate(3268.67 7509)">3</text></g><g><text fill="#E5E7EB" font-family="Calibri,Calibri_MSFontService,sans-serif" font-weight="400" font-size="41" transform="translate(3340.89 7509)">4</text></g><g><text fill="#E5E7EB" font-family="Calibri,Calibri_MSFontService,sans-serif" font-weight="400" font-size="41" transform="translate(3413.11 7509)">5</text></g><g><text fill="#E5E7EB" font-family="Calibri,Calibri_MSFontService,sans-serif" font-weight="400" font-size="41" transform="translate(3485.33 7509)">6</text></g><g><text fill="#E5E7EB" font-family="Calibri,Calibri_MSFontService,sans-serif" font-weight="400" font-size="41" transform="translate(3557.55 7509)">7</text></g><g><text fill="#E5E7EB" font-family="Calibri,Calibri_MSFontService,sans-serif" font-weight="400" font-size="41" transform="translate(3629.77 7509)">8</text></g><g><text fill="#E5E7EB" font-family="Calibri,Calibri_MSFontService,sans-serif" font-weight="400" font-size="41" transform="translate(3701.99 7509)">9</text></g><g><text fill="#E5E7EB" font-family="Calibri,Calibri_MSFontService,sans-serif" font-weight="400" font-size="41" transform="translate(3763.76 7509)">10</text></g><g><text fill="#E5E7EB" font-family="Calibri,Calibri_MSFontService,sans-serif" font-weight="400" font-size="41" transform="translate(3835.98 7509)">11</text></g><g><text fill="#E5E7EB" font-family="Calibri,Calibri_MSFontService,sans-serif" font-weight="400" font-size="41" transform="translate(3908.2 7509)">12</text></g><g><text fill="#E5E7EB" font-family="Calibri,Calibri_MSFontService,sans-serif" font-weight="400" font-size="41" transform="translate(3980.42 7509)">13</text></g><g><text fill="#E5E7EB" font-family="Calibri,Calibri_MSFontService,sans-serif" font-weight="400" font-size="41" transform="translate(4052.64 7509)">14</text></g><g><text fill="#E5E7EB" font-family="Calibri,Calibri_MSFontService,sans-serif" font-weight="400" font-size="41" transform="translate(4124.86 7509)">15</text></g><g><text fill="#E5E7EB" font-family="Calibri,Calibri_MSFontService,sans-serif" font-weight="400" font-size="41" transform="translate(4197.08 7509)">16</text></g><g><text fill="#E5E7EB" font-family="Calibri,Calibri_MSFontService,sans-serif" font-weight="400" font-size="41" transform="translate(4269.3 7509)">17</text></g><g><text fill="#E5E7EB" font-family="Calibri,Calibri_MSFontService,sans-serif" font-weight="400" font-size="41" transform="translate(4341.52 7509)">18</text></g><g><text fill="#E5E7EB" font-family="Calibri,Calibri_MSFontService,sans-serif" font-weight="400" font-size="41" transform="translate(4413.74 7509)">19</text></g><g><text fill="#E5E7EB" font-family="Calibri,Calibri_MSFontService,sans-serif" font-weight="400" font-size="41" transform="translate(4485.96 7509)">20</text></g><g><text fill="#E5E7EB" font-family="Calibri,Calibri_MSFontService,sans-serif" font-weight="400" font-size="41" transform="translate(4558.18 7509)">21</text></g><g><text fill="#E5E7EB" font-family="Calibri,Calibri_MSFontService,sans-serif" font-weight="400" font-size="41" transform="translate(4630.4 7509)">22</text></g><g><text fill="#E5E7EB" font-family="Calibri,Calibri_MSFontService,sans-serif" font-weight="400" font-size="41" transform="translate(4702.62 7509)">23</text></g><g><text fill="#E5E7EB" font-family="Calibri,Calibri_MSFontService,sans-serif" font-weight="400" font-size="41" transform="translate(4774.84 7509)">24</text></g><g><text fill="#E5E7EB" font-family="Calibri,Calibri_MSFontService,sans-serif" font-weight="400" font-size="41" transform="translate(4847.06 7509)">25</text></g><g><text fill="#E5E7EB" font-family="Calibri,Calibri_MSFontService,sans-serif" font-weight="400" font-size="41" transform="translate(4919.28 7509)">26</text></g><path d="M3098.5 7439.5 3098.5 6422.5" stroke="#D9D9D9" stroke-width="3.4375" stroke-linejoin="round" stroke-miterlimit="10" fill="none"/><g><text fill="#E5E7EB" font-family="Calibri,Calibri_MSFontService,sans-serif" font-weight="400" font-size="41" transform="translate(2984.53 7454)">-</text></g><g><text fill="#E5E7EB" font-family="Calibri,Calibri_MSFontService,sans-serif" font-weight="400" font-size="41" transform="translate(2997.15 7454)">50%</text></g><g><text fill="#E5E7EB" font-family="Calibri,Calibri_MSFontService,sans-serif" font-weight="400" font-size="41" transform="translate(3018.22 7284)">0%</text></g><g><text fill="#E5E7EB" font-family="Calibri,Calibri_MSFontService,sans-serif" font-weight="400" font-size="41" transform="translate(2997.22 7115)">50%</text></g><g><text fill="#E5E7EB" font-family="Calibri,Calibri_MSFontService,sans-serif" font-weight="400" font-size="41" transform="translate(2976.21 6945)">100%</text></g><g><text fill="#E5E7EB" font-family="Calibri,Calibri_MSFontService,sans-serif" font-weight="400" font-size="41" transform="translate(2976.21 6776)">150%</text></g><g><text fill="#E5E7EB" font-family="Calibri,Calibri_MSFontService,sans-serif" font-weight="400" font-size="41" transform="translate(2976.21 6606)">200%</text></g><g><text fill="#E5E7EB" font-family="Calibri,Calibri_MSFontService,sans-serif" font-weight="400" font-size="41" transform="translate(2976.21 6437)">250%</text></g><g><text fill="#E5E7EB" font-family="Calibri,Calibri_MSFontService,sans-serif" font-weight="400" font-size="64" transform="translate(3671.46 6231)">SIGNALS GROSS PROFIT </text></g><rect x="3688" y="6307" width="32" height="32" fill="#4ADE80"/><g><text fill="#E5E7EB" font-family="Calibri,Calibri_MSFontService,sans-serif" font-weight="400" font-size="41" transform="translate(3737.68 6337)">Increase</text></g><rect x="3913" y="6307" width="32" height="32" fill="#FFCB37"/><g><text fill="#E5E7EB" font-family="Calibri,Calibri_MSFontService,sans-serif" font-weight="400" font-size="41" transform="translate(3962.53 6337)">Decrease</text></g><rect x="4151" y="6307" width="32" height="32" fill="#A5A5A5"/><g><text fill="#E5E7EB" font-family="Calibri,Calibri_MSFontService,sans-serif" font-weight="400" font-size="41" transform="translate(4200.91 6337)">Total</text></g><path d="M2952 6146 5007.19 6146 5007.19 7546.23 2952 7546.23Z" fill="#000000" fill-rule="evenodd" fill-opacity="0"/></g></svg>