<svg width="2015" height="1144" xmlns="http://www.w3.org/2000/svg" xmlns:xlink="http://www.w3.org/1999/xlink" xml:space="preserve" overflow="hidden"><defs><clipPath id="clip0"><rect x="2953" y="7757" width="2015" height="1144"/></clipPath></defs><g clip-path="url(#clip0)" transform="translate(-2953 -7757)"><g><path d="M3085.5 8696.79 4894.5 8696.79M3085.5 8600.78 4894.5 8600.78M3085.5 8504.78 4894.5 8504.78M3085.5 8407.78 4894.5 8407.78M3085.5 8311.77 4894.5 8311.77M3085.5 8215.77 4894.5 8215.77M3085.5 8119.77 4894.5 8119.77M3085.5 8023.76 4894.5 8023.76M3085.5 7927.5 4894.5 7927.5" stroke="#D9D9D9" stroke-width="3.4375" stroke-linejoin="round" stroke-miterlimit="10" fill="none"/></g><g><path d="M3343.61 7927.5 3343.61 8792.5M3601.62 7927.5 3601.62 8792.5M3860.63 7927.5 3860.63 8792.5M4118.64 7927.5 4118.64 8792.5M4377.64 7927.5 4377.64 8792.5M4635.65 7927.5 4635.65 8792.5M4894.5 7927.5 4894.5 8792.5" stroke="#D9D9D9" stroke-width="3.4375" stroke-linejoin="round" stroke-miterlimit="10" fill="none"/></g><g><path d="M0 0 0.000360892 865" stroke="#BFBFBF" stroke-width="3.4375" stroke-linejoin="round" stroke-miterlimit="10" fill="none" fill-rule="evenodd" transform="matrix(1 0 0 -1 3085.5 8792.5)"/></g><g><path d="M3085.5 8792.5 4894.5 8792.5" stroke="#BFBFBF" stroke-width="3.4375" stroke-linejoin="round" stroke-miterlimit="10" fill="none" fill-rule="evenodd"/></g><g><path d="M3136.5 8792.5 3188.6 8545.78 3239.61 8516.78 3291.61 8533.78 3343.61 8569.78 3395.61 8519.78 3446.61 8580.78 3498.61 8650.78 3550.62 8590.78 3601.62 8506.78 3653.62 8449.78 3705.62 8402.78 3756.62 8308.77 3808.62 8252.77 3860.63 8184.77 3911.63 8110.77 3963.63 8169.77 4015.63 8212.77 4067.63 8138.77 4118.64 8189.77 4170.64 8099.77 4222.64 8053.76 4273.64 8111.77 4325.64 8015.76 4377.64 8061.76 4428.65 8010.5 4480.65 8055.76 4532.65 8094.77 4583.65 8019.76 4635.65 8058.76 4687.5 8029.76" stroke="#FFCB37" stroke-width="6.875" stroke-linecap="round" stroke-linejoin="round" stroke-miterlimit="10" fill="none"/></g><g><path d="M3147.77 8792.02C3147.77 8798.1 3142.84 8803.02 3136.77 8803.02 3130.69 8803.02 3125.77 8798.1 3125.77 8792.02 3125.77 8785.95 3130.69 8781.02 3136.77 8781.02 3142.84 8781.02 3147.77 8785.95 3147.77 8792.02Z" stroke="#FFCB37" stroke-width="3.4375" stroke-linejoin="round" stroke-miterlimit="10" fill="#FFCB37"/><path d="M3199.77 8546.02C3199.77 8552.1 3194.84 8557.02 3188.77 8557.02 3182.69 8557.02 3177.77 8552.1 3177.77 8546.02 3177.77 8539.95 3182.69 8535.02 3188.77 8535.02 3194.84 8535.02 3199.77 8539.95 3199.77 8546.02Z" stroke="#FFCB37" stroke-width="3.4375" stroke-linejoin="round" stroke-miterlimit="10" fill="#FFCB37"/><path d="M3251.77 8517.02C3251.77 8523.1 3246.84 8528.02 3240.77 8528.02 3234.69 8528.02 3229.77 8523.1 3229.77 8517.02 3229.77 8510.95 3234.69 8506.02 3240.77 8506.02 3246.84 8506.02 3251.77 8510.95 3251.77 8517.02Z" stroke="#FFCB37" stroke-width="3.4375" stroke-linejoin="round" stroke-miterlimit="10" fill="#FFCB37"/><path d="M3302.77 8533.02C3302.77 8539.1 3297.84 8544.02 3291.77 8544.02 3285.69 8544.02 3280.77 8539.1 3280.77 8533.02 3280.77 8526.95 3285.69 8522.02 3291.77 8522.02 3297.84 8522.02 3302.77 8526.95 3302.77 8533.02Z" stroke="#FFCB37" stroke-width="3.4375" stroke-linejoin="round" stroke-miterlimit="10" fill="#FFCB37"/><path d="M3354.77 8569.02C3354.77 8575.1 3349.84 8580.02 3343.77 8580.02 3337.69 8580.02 3332.77 8575.1 3332.77 8569.02 3332.77 8562.95 3337.69 8558.02 3343.77 8558.02 3349.84 8558.02 3354.77 8562.95 3354.77 8569.02Z" stroke="#FFCB37" stroke-width="3.4375" stroke-linejoin="round" stroke-miterlimit="10" fill="#FFCB37"/><path d="M3406.77 8519.02C3406.77 8525.1 3401.84 8530.02 3395.77 8530.02 3389.69 8530.02 3384.77 8525.1 3384.77 8519.02 3384.77 8512.95 3389.69 8508.02 3395.77 8508.02 3401.84 8508.02 3406.77 8512.95 3406.77 8519.02Z" stroke="#FFCB37" stroke-width="3.4375" stroke-linejoin="round" stroke-miterlimit="10" fill="#FFCB37"/><path d="M3457.77 8580.02C3457.77 8586.1 3452.84 8591.02 3446.77 8591.02 3440.69 8591.02 3435.77 8586.1 3435.77 8580.02 3435.77 8573.95 3440.69 8569.02 3446.77 8569.02 3452.84 8569.02 3457.77 8573.95 3457.77 8580.02Z" stroke="#FFCB37" stroke-width="3.4375" stroke-linejoin="round" stroke-miterlimit="10" fill="#FFCB37"/><path d="M3509.77 8650.02C3509.77 8656.1 3504.84 8661.02 3498.77 8661.02 3492.69 8661.02 3487.77 8656.1 3487.77 8650.02 3487.77 8643.95 3492.69 8639.02 3498.77 8639.02 3504.84 8639.02 3509.77 8643.95 3509.77 8650.02Z" stroke="#FFCB37" stroke-width="3.4375" stroke-linejoin="round" stroke-miterlimit="10" fill="#FFCB37"/><path d="M3561.77 8590.02C3561.77 8596.1 3556.84 8601.02 3550.77 8601.02 3544.69 8601.02 3539.77 8596.1 3539.77 8590.02 3539.77 8583.95 3544.69 8579.02 3550.77 8579.02 3556.84 8579.02 3561.77 8583.95 3561.77 8590.02Z" stroke="#FFCB37" stroke-width="3.4375" stroke-linejoin="round" stroke-miterlimit="10" fill="#FFCB37"/><path d="M3612.77 8506.02C3612.77 8512.1 3607.84 8517.02 3601.77 8517.02 3595.69 8517.02 3590.77 8512.1 3590.77 8506.02 3590.77 8499.95 3595.69 8495.02 3601.77 8495.02 3607.84 8495.02 3612.77 8499.95 3612.77 8506.02Z" stroke="#FFCB37" stroke-width="3.4375" stroke-linejoin="round" stroke-miterlimit="10" fill="#FFCB37"/><path d="M3664.77 8449.02C3664.77 8455.1 3659.84 8460.02 3653.77 8460.02 3647.69 8460.02 3642.77 8455.1 3642.77 8449.02 3642.77 8442.95 3647.69 8438.02 3653.77 8438.02 3659.84 8438.02 3664.77 8442.95 3664.77 8449.02Z" stroke="#FFCB37" stroke-width="3.4375" stroke-linejoin="round" stroke-miterlimit="10" fill="#FFCB37"/><path d="M3716.77 8402.02C3716.77 8408.1 3711.84 8413.02 3705.77 8413.02 3699.69 8413.02 3694.77 8408.1 3694.77 8402.02 3694.77 8395.95 3699.69 8391.02 3705.77 8391.02 3711.84 8391.02 3716.77 8395.95 3716.77 8402.02Z" stroke="#FFCB37" stroke-width="3.4375" stroke-linejoin="round" stroke-miterlimit="10" fill="#FFCB37"/><path d="M3768.77 8308.02C3768.77 8314.1 3763.84 8319.02 3757.77 8319.02 3751.69 8319.02 3746.77 8314.1 3746.77 8308.02 3746.77 8301.95 3751.69 8297.02 3757.77 8297.02 3763.84 8297.02 3768.77 8301.95 3768.77 8308.02Z" stroke="#FFCB37" stroke-width="3.4375" stroke-linejoin="round" stroke-miterlimit="10" fill="#FFCB37"/><path d="M3819.77 8252.02C3819.77 8258.1 3814.84 8263.02 3808.77 8263.02 3802.69 8263.02 3797.77 8258.1 3797.77 8252.02 3797.77 8245.95 3802.69 8241.02 3808.77 8241.02 3814.84 8241.02 3819.77 8245.95 3819.77 8252.02Z" stroke="#FFCB37" stroke-width="3.4375" stroke-linejoin="round" stroke-miterlimit="10" fill="#FFCB37"/><path d="M3871.77 8184.02C3871.77 8190.1 3866.84 8195.02 3860.77 8195.02 3854.69 8195.02 3849.77 8190.1 3849.77 8184.02 3849.77 8177.95 3854.69 8173.02 3860.77 8173.02 3866.84 8173.02 3871.77 8177.95 3871.77 8184.02Z" stroke="#FFCB37" stroke-width="3.4375" stroke-linejoin="round" stroke-miterlimit="10" fill="#FFCB37"/><path d="M3923.77 8110.02C3923.77 8116.1 3918.84 8121.02 3912.77 8121.02 3906.69 8121.02 3901.77 8116.1 3901.77 8110.02 3901.77 8103.95 3906.69 8099.02 3912.77 8099.02 3918.84 8099.02 3923.77 8103.95 3923.77 8110.02Z" stroke="#FFCB37" stroke-width="3.4375" stroke-linejoin="round" stroke-miterlimit="10" fill="#FFCB37"/><path d="M3974.77 8169.02C3974.77 8175.1 3969.84 8180.02 3963.77 8180.02 3957.69 8180.02 3952.77 8175.1 3952.77 8169.02 3952.77 8162.95 3957.69 8158.02 3963.77 8158.02 3969.84 8158.02 3974.77 8162.95 3974.77 8169.02Z" stroke="#FFCB37" stroke-width="3.4375" stroke-linejoin="round" stroke-miterlimit="10" fill="#FFCB37"/><path d="M4026.77 8212.02C4026.77 8218.1 4021.84 8223.02 4015.77 8223.02 4009.69 8223.02 4004.77 8218.1 4004.77 8212.02 4004.77 8205.95 4009.69 8201.02 4015.77 8201.02 4021.84 8201.02 4026.77 8205.95 4026.77 8212.02Z" stroke="#FFCB37" stroke-width="3.4375" stroke-linejoin="round" stroke-miterlimit="10" fill="#FFCB37"/><path d="M4078.77 8138.02C4078.77 8144.1 4073.84 8149.02 4067.77 8149.02 4061.69 8149.02 4056.77 8144.1 4056.77 8138.02 4056.77 8131.95 4061.69 8127.02 4067.77 8127.02 4073.84 8127.02 4078.77 8131.95 4078.77 8138.02Z" stroke="#FFCB37" stroke-width="3.4375" stroke-linejoin="round" stroke-miterlimit="10" fill="#FFCB37"/><path d="M4129.77 8189.02C4129.77 8195.1 4124.84 8200.02 4118.77 8200.02 4112.69 8200.02 4107.77 8195.1 4107.77 8189.02 4107.77 8182.95 4112.69 8178.02 4118.77 8178.02 4124.84 8178.02 4129.77 8182.95 4129.77 8189.02Z" stroke="#FFCB37" stroke-width="3.4375" stroke-linejoin="round" stroke-miterlimit="10" fill="#FFCB37"/><path d="M4181.77 8100.02C4181.77 8106.1 4176.84 8111.02 4170.77 8111.02 4164.69 8111.02 4159.77 8106.1 4159.77 8100.02 4159.77 8093.95 4164.69 8089.02 4170.77 8089.02 4176.84 8089.02 4181.77 8093.95 4181.77 8100.02Z" stroke="#FFCB37" stroke-width="3.4375" stroke-linejoin="round" stroke-miterlimit="10" fill="#FFCB37"/><path d="M4233.77 8053.02C4233.77 8059.1 4228.84 8064.02 4222.77 8064.02 4216.69 8064.02 4211.77 8059.1 4211.77 8053.02 4211.77 8046.95 4216.69 8042.02 4222.77 8042.02 4228.84 8042.02 4233.77 8046.95 4233.77 8053.02Z" stroke="#FFCB37" stroke-width="3.4375" stroke-linejoin="round" stroke-miterlimit="10" fill="#FFCB37"/><path d="M4284.77 8111.02C4284.77 8117.1 4279.84 8122.02 4273.77 8122.02 4267.69 8122.02 4262.77 8117.1 4262.77 8111.02 4262.77 8104.95 4267.69 8100.02 4273.77 8100.02 4279.84 8100.02 4284.77 8104.95 4284.77 8111.02Z" stroke="#FFCB37" stroke-width="3.4375" stroke-linejoin="round" stroke-miterlimit="10" fill="#FFCB37"/><path d="M4336.77 8015.02C4336.77 8021.1 4331.84 8026.02 4325.77 8026.02 4319.69 8026.02 4314.77 8021.1 4314.77 8015.02 4314.77 8008.95 4319.69 8004.02 4325.77 8004.02 4331.84 8004.02 4336.77 8008.95 4336.77 8015.02Z" stroke="#FFCB37" stroke-width="3.4375" stroke-linejoin="round" stroke-miterlimit="10" fill="#FFCB37"/><path d="M4388.77 8061.02C4388.77 8067.1 4383.84 8072.02 4377.77 8072.02 4371.69 8072.02 4366.77 8067.1 4366.77 8061.02 4366.77 8054.95 4371.69 8050.02 4377.77 8050.02 4383.84 8050.02 4388.77 8054.95 4388.77 8061.02Z" stroke="#FFCB37" stroke-width="3.4375" stroke-linejoin="round" stroke-miterlimit="10" fill="#FFCB37"/><path d="M4440.77 8010.02C4440.77 8016.1 4435.84 8021.02 4429.77 8021.02 4423.69 8021.02 4418.77 8016.1 4418.77 8010.02 4418.77 8003.95 4423.69 7999.02 4429.77 7999.02 4435.84 7999.02 4440.77 8003.95 4440.77 8010.02Z" stroke="#FFCB37" stroke-width="3.4375" stroke-linejoin="round" stroke-miterlimit="10" fill="#FFCB37"/><path d="M4491.77 8055.02C4491.77 8061.1 4486.84 8066.02 4480.77 8066.02 4474.69 8066.02 4469.77 8061.1 4469.77 8055.02 4469.77 8048.95 4474.69 8044.02 4480.77 8044.02 4486.84 8044.02 4491.77 8048.95 4491.77 8055.02Z" stroke="#FFCB37" stroke-width="3.4375" stroke-linejoin="round" stroke-miterlimit="10" fill="#FFCB37"/><path d="M4543.77 8094.02C4543.77 8100.1 4538.84 8105.02 4532.77 8105.02 4526.69 8105.02 4521.77 8100.1 4521.77 8094.02 4521.77 8087.95 4526.69 8083.02 4532.77 8083.02 4538.84 8083.02 4543.77 8087.95 4543.77 8094.02Z" stroke="#FFCB37" stroke-width="3.4375" stroke-linejoin="round" stroke-miterlimit="10" fill="#FFCB37"/><path d="M4595.77 8019.02C4595.77 8025.1 4590.84 8030.02 4584.77 8030.02 4578.69 8030.02 4573.77 8025.1 4573.77 8019.02 4573.77 8012.95 4578.69 8008.02 4584.77 8008.02 4590.84 8008.02 4595.77 8012.95 4595.77 8019.02Z" stroke="#FFCB37" stroke-width="3.4375" stroke-linejoin="round" stroke-miterlimit="10" fill="#FFCB37"/><path d="M4646.77 8058.02C4646.77 8064.1 4641.84 8069.02 4635.77 8069.02 4629.69 8069.02 4624.77 8064.1 4624.77 8058.02 4624.77 8051.95 4629.69 8047.02 4635.77 8047.02 4641.84 8047.02 4646.77 8051.95 4646.77 8058.02Z" stroke="#FFCB37" stroke-width="3.4375" stroke-linejoin="round" stroke-miterlimit="10" fill="#FFCB37"/><path d="M4698.77 8029.02C4698.77 8035.1 4693.84 8040.02 4687.77 8040.02 4681.69 8040.02 4676.77 8035.1 4676.77 8029.02 4676.77 8022.95 4681.69 8018.02 4687.77 8018.02 4693.84 8018.02 4698.77 8022.95 4698.77 8029.02Z" stroke="#FFCB37" stroke-width="3.4375" stroke-linejoin="round" stroke-miterlimit="10" fill="#FFCB37"/></g><g><text fill="#E5E7EB" font-family="Calibri,Calibri_MSFontService,sans-serif" font-weight="400" font-size="41" transform="matrix(1 0 0 1 3025.86 8804)">0</text></g><g><text fill="#E5E7EB" font-family="Calibri,Calibri_MSFontService,sans-serif" font-weight="400" font-size="41" transform="matrix(1 0 0 1 3004.96 8708)">20</text></g><g><text fill="#E5E7EB" font-family="Calibri,Calibri_MSFontService,sans-serif" font-weight="400" font-size="41" transform="matrix(1 0 0 1 3004.96 8612)">40</text></g><g><text fill="#E5E7EB" font-family="Calibri,Calibri_MSFontService,sans-serif" font-weight="400" font-size="41" transform="matrix(1 0 0 1 3004.96 8516)">60</text></g><g><text fill="#E5E7EB" font-family="Calibri,Calibri_MSFontService,sans-serif" font-weight="400" font-size="41" transform="matrix(1 0 0 1 3004.96 8420)">80</text></g><g><text fill="#E5E7EB" font-family="Calibri,Calibri_MSFontService,sans-serif" font-weight="400" font-size="41" transform="matrix(1 0 0 1 2984.06 8324)">100</text></g><g><text fill="#E5E7EB" font-family="Calibri,Calibri_MSFontService,sans-serif" font-weight="400" font-size="41" transform="matrix(1 0 0 1 2984.06 8228)">120</text></g><g><text fill="#E5E7EB" font-family="Calibri,Calibri_MSFontService,sans-serif" font-weight="400" font-size="41" transform="matrix(1 0 0 1 2984.06 8131)">140</text></g><g><text fill="#E5E7EB" font-family="Calibri,Calibri_MSFontService,sans-serif" font-weight="400" font-size="41" transform="matrix(1 0 0 1 2984.06 8035)">160</text></g><g><text fill="#E5E7EB" font-family="Calibri,Calibri_MSFontService,sans-serif" font-weight="400" font-size="41" transform="matrix(1 0 0 1 2984.06 7939)">180</text></g><g><text fill="#E5E7EB" font-family="Calibri,Calibri_MSFontService,sans-serif" font-weight="400" font-size="41" transform="matrix(1 0 0 1 3074.58 8858)">0</text></g><g><text fill="#E5E7EB" font-family="Calibri,Calibri_MSFontService,sans-serif" font-weight="400" font-size="41" transform="matrix(1 0 0 1 3333.04 8858)">5</text></g><g><text fill="#E5E7EB" font-family="Calibri,Calibri_MSFontService,sans-serif" font-weight="400" font-size="41" transform="matrix(1 0 0 1 3581.05 8858)">10</text></g><g><text fill="#E5E7EB" font-family="Calibri,Calibri_MSFontService,sans-serif" font-weight="400" font-size="41" transform="matrix(1 0 0 1 3839.51 8858)">15</text></g><g><text fill="#E5E7EB" font-family="Calibri,Calibri_MSFontService,sans-serif" font-weight="400" font-size="41" transform="matrix(1 0 0 1 4097.97 8858)">20</text></g><g><text fill="#E5E7EB" font-family="Calibri,Calibri_MSFontService,sans-serif" font-weight="400" font-size="41" transform="matrix(1 0 0 1 4356.43 8858)">25</text></g><g><text fill="#E5E7EB" font-family="Calibri,Calibri_MSFontService,sans-serif" font-weight="400" font-size="41" transform="matrix(1 0 0 1 4614.89 8858)">30</text></g><g><text fill="#E5E7EB" font-family="Calibri,Calibri_MSFontService,sans-serif" font-weight="400" font-size="41" transform="matrix(1 0 0 1 4873.35 8858)">35</text></g><g><text fill="#E5E7EB" font-family="Calibri,Calibri_MSFontService,sans-serif" font-weight="400" font-size="64" transform="matrix(1 0 0 1 3520.86 7853)">Profit with 50$ put on each Signal</text></g><rect x="2954.5" y="7758.5" width="2012" height="1141" stroke="#D9D9D9" stroke-width="3.4375" stroke-linejoin="round" stroke-miterlimit="10" fill="none"/></g></svg>