<svg width="1184" height="1133" xmlns="http://www.w3.org/2000/svg" xmlns:xlink="http://www.w3.org/1999/xlink" xml:space="preserve" overflow="hidden"><defs><clipPath id="clip0"><rect x="2971" y="4282" width="1184" height="1133"/></clipPath></defs><g clip-path="url(#clip0)" transform="translate(-2971 -4282)"><g><path d="M3562.73 4509.33C3753.75 4509.33 3908.59 4664.17 3908.59 4855.19 3908.59 5046.2 3753.75 5201.04 3562.73 5201.04 3371.72 5201.04 3216.87 5046.2 3216.87 4855.19 3216.87 4794.48 3232.86 4734.83 3263.21 4682.26L3338.09 4725.49C3266.46 4849.56 3308.97 5008.2 3433.04 5079.83 3557.1 5151.46 3715.75 5108.95 3787.38 4984.88 3859 4860.82 3816.5 4702.17 3692.43 4630.54 3653 4607.78 3608.27 4595.79 3562.73 4595.79Z" stroke="#FFFFFF" stroke-width="6.875" stroke-linejoin="round" stroke-miterlimit="10" fill="#4ADE80" fill-rule="evenodd"/></g><g><path d="M3263.21 4682.26C3324.99 4575.25 3439.17 4509.33 3562.73 4509.33L3562.73 4595.79C3470.06 4595.79 3384.43 4645.23 3338.09 4725.49Z" stroke="#FFFFFF" stroke-width="6.875" stroke-linejoin="round" stroke-miterlimit="10" fill="#FFCB37" fill-rule="evenodd"/></g><g><path d="M3714.5 5117.5 3789.62 5178.5 3810.5 5178.5" stroke="#A6A6A6" stroke-width="3.4375" stroke-linejoin="round" stroke-miterlimit="10" fill="none"/></g><g><path d="M3411.5 4593.5 3376.61 4535.5 3355.5 4535.5" stroke="#A6A6A6" stroke-width="3.4375" stroke-linejoin="round" stroke-miterlimit="10" fill="none"/></g><g><text fill="#4ADE80" font-family="Calibri,Calibri_MSFontService,sans-serif" font-weight="400" font-size="41" transform="matrix(1 0 0 1 3824.43 5193)">83%</text></g><g><text fill="#FFCB37" font-family="Calibri,Calibri_MSFontService,sans-serif" font-weight="400" font-size="41" transform="matrix(1 0 0 1 3270.78 4549)">17%</text></g><g><text fill="#E5E7EB" font-family="Calibri,Calibri_MSFontService,sans-serif" font-weight="400" font-size="64" transform="matrix(1 0 0 1 3405.75 4883)">WIN RATE</text></g><g><rect x="3420.5" y="5335.5" width="22.9998" height="23" stroke="#FFFFFF" stroke-width="6.875" stroke-linejoin="round" stroke-miterlimit="10" fill="#4ADE80"/></g><g><text fill="#E5E7EB" font-family="Calibri,Calibri_MSFontService,sans-serif" font-weight="400" font-size="41" transform="matrix(1 0 0 1 3453.14 5358)">PROFIT</text></g><g><rect x="3606.5" y="5335.5" width="22" height="23" stroke="#FFFFFF" stroke-width="6.875" stroke-linejoin="round" stroke-miterlimit="10" fill="#FFCB37"/></g><g><text fill="#E5E7EB" font-family="Calibri,Calibri_MSFontService,sans-serif" font-weight="400" font-size="41" transform="matrix(1 0 0 1 3638.5 5358)">LOSS</text></g><rect x="2972.5" y="4283.5" width="1181" height="1130" stroke="#D9D9D9" stroke-width="3.4375" stroke-linejoin="round" stroke-miterlimit="10" fill="none"/></g></svg>