<svg width="1130" height="1103" xmlns="http://www.w3.org/2000/svg" xmlns:xlink="http://www.w3.org/1999/xlink" xml:space="preserve" overflow="hidden"><defs><clipPath id="clip0"><rect x="4251" y="4306" width="1130" height="1103"/></clipPath></defs><g clip-path="url(#clip0)" transform="translate(-4251 -4306)"><g><path d="M4827.17 4501.26C5029.7 4501.26 5193.87 4665.44 5193.87 4867.96 5193.87 5070.49 5029.7 5234.66 4827.17 5234.66 4624.65 5234.66 4460.47 5070.49 4460.47 4867.96 4460.47 4770.71 4499.11 4677.44 4567.88 4608.67L4632.7 4673.49C4525.3 4780.9 4525.3 4955.03 4632.7 5062.44 4740.11 5169.84 4914.24 5169.84 5021.65 5062.44 5129.05 4955.03 5129.05 4780.9 5021.65 4673.49 4970.07 4621.91 4900.12 4592.94 4827.17 4592.94Z" stroke="#FFFFFF" stroke-width="6.875" stroke-linejoin="round" stroke-miterlimit="10" fill="#4ADE80" fill-rule="evenodd"/></g><g><path d="M4567.88 4608.67C4636.65 4539.9 4729.92 4501.26 4827.17 4501.26L4827.17 4592.94C4754.23 4592.94 4684.28 4621.91 4632.7 4673.49Z" stroke="#FFFFFF" stroke-width="6.875" stroke-linejoin="round" stroke-miterlimit="10" fill="#FFCB37" fill-rule="evenodd"/></g><g><path d="M4949.5 5164.5 5023.67 5349.5 5044.5 5349.5" stroke="#A6A6A6" stroke-width="3.4375" stroke-linejoin="round" stroke-miterlimit="10" fill="none"/></g><g><text fill="#4ADE80" font-family="Calibri,Calibri_MSFontService,sans-serif" font-weight="700" font-size="41" transform="matrix(1 0 0 1 5057.88 5363)">87%</text></g><g><text fill="#FFCB37" font-family="Calibri,Calibri_MSFontService,sans-serif" font-weight="700" font-size="41" transform="matrix(1 0 0 1 4516.79 4564)">13%</text></g><g><text fill="#FFCB37" font-family="Calibri,Calibri_MSFontService,sans-serif" font-weight="700" font-size="64" transform="matrix(1 0 0 1 4645.46 4884)">Short</text></g><g><text fill="#E5E7EB" font-family="Calibri,Calibri_MSFontService,sans-serif" font-weight="700" font-size="64" transform="matrix(1 0 0 1 4804.27 4884)">&amp;</text></g><g><text fill="#4ADE80" font-family="Calibri,Calibri_MSFontService,sans-serif" font-weight="700" font-size="64" transform="matrix(1 0 0 1 4863.99 4884)">Long</text></g><rect x="4252.5" y="4307.5" width="1127" height="1100" stroke="#D9D9D9" stroke-width="3.4375" stroke-linejoin="round" stroke-miterlimit="10" fill="none"/></g></svg>