<svg width="1882" height="1195" xmlns="http://www.w3.org/2000/svg" xmlns:xlink="http://www.w3.org/1999/xlink" xml:space="preserve" overflow="hidden"><defs><clipPath id="clip0"><rect x="2896" y="7405" width="1882" height="1195"/></clipPath></defs><g clip-path="url(#clip0)" transform="translate(-2896 -7405)"><g><path d="M3119.5 8339.77 4704.5 8339.77M3119.5 8186.77 4704.5 8186.77M3119.5 8033.76 4704.5 8033.76M3119.5 7881.76 4704.5 7881.76M3119.5 7728.75 4704.5 7728.75M3119.5 7575.5 4704.5 7575.5" stroke="#D9D9D9" stroke-width="3.4375" stroke-linejoin="round" stroke-miterlimit="10" fill="none"/></g><g><path d="M3436.61 7575.5 3436.61 8492.5M3753.62 7575.5 3753.62 8492.5M4070.63 7575.5 4070.63 8492.5M4387.64 7575.5 4387.64 8492.5M4704.5 7575.5 4704.5 8492.5" stroke="#D9D9D9" stroke-width="3.4375" stroke-linejoin="round" stroke-miterlimit="10" fill="none"/></g><g><path d="M0 0 0.000360892 917" stroke="#BFBFBF" stroke-width="3.4375" stroke-linejoin="round" stroke-miterlimit="10" fill="none" fill-rule="evenodd" transform="matrix(1 0 0 -1 3119.5 8492.5)"/></g><g><path d="M3119.5 8492.5 4704.5 8492.5" stroke="#BFBFBF" stroke-width="3.4375" stroke-linejoin="round" stroke-miterlimit="10" fill="none" fill-rule="evenodd"/></g><g><path d="M3182.5 8405.5 3246.61 8317.77 3309.61 8254.77 3372.61 8225.77 3436.61 8203.77 3499.61 8238.77 3563.62 8166.77 3626.62 8155.77 3689.62 8047.76 3753.62 8032.76 3816.63 8063.76 3880.63 8032.76 3943.63 8012.76 4006.63 7981.76 4070.63 8002.76 4133.64 7970.76 4197.64 7892.76 4260.64 7848.76 4323.64 7885.76 4387.64 7835.76 4450.65 7804.76 4514.65 7750.75 4577.65 7701.75 4641.5 7656.5" stroke="#FFCB37" stroke-width="6.875" stroke-linecap="round" stroke-linejoin="round" stroke-miterlimit="10" fill="none"/></g><g><path d="M3193.46 8405.4C3193.46 8411.48 3188.53 8416.4 3182.46 8416.4 3176.38 8416.4 3171.46 8411.48 3171.46 8405.4 3171.46 8399.33 3176.38 8394.4 3182.46 8394.4 3188.53 8394.4 3193.46 8399.33 3193.46 8405.4Z" stroke="#FFCB37" stroke-width="3.4375" stroke-linejoin="round" stroke-miterlimit="10" fill="#FFCB37"/><path d="M3257.46 8318.4C3257.46 8324.48 3252.53 8329.4 3246.46 8329.4 3240.38 8329.4 3235.46 8324.48 3235.46 8318.4 3235.46 8312.33 3240.38 8307.4 3246.46 8307.4 3252.53 8307.4 3257.46 8312.33 3257.46 8318.4Z" stroke="#FFCB37" stroke-width="3.4375" stroke-linejoin="round" stroke-miterlimit="10" fill="#FFCB37"/><path d="M3320.46 8255.4C3320.46 8261.48 3315.53 8266.4 3309.46 8266.4 3303.38 8266.4 3298.46 8261.48 3298.46 8255.4 3298.46 8249.33 3303.38 8244.4 3309.46 8244.4 3315.53 8244.4 3320.46 8249.33 3320.46 8255.4Z" stroke="#FFCB37" stroke-width="3.4375" stroke-linejoin="round" stroke-miterlimit="10" fill="#FFCB37"/><path d="M3384.46 8225.4C3384.46 8231.48 3379.53 8236.4 3373.46 8236.4 3367.38 8236.4 3362.46 8231.48 3362.46 8225.4 3362.46 8219.33 3367.38 8214.4 3373.46 8214.4 3379.53 8214.4 3384.46 8219.33 3384.46 8225.4Z" stroke="#FFCB37" stroke-width="3.4375" stroke-linejoin="round" stroke-miterlimit="10" fill="#FFCB37"/><path d="M3447.46 8204.4C3447.46 8210.48 3442.53 8215.4 3436.46 8215.4 3430.38 8215.4 3425.46 8210.48 3425.46 8204.4 3425.46 8198.33 3430.38 8193.4 3436.46 8193.4 3442.53 8193.4 3447.46 8198.33 3447.46 8204.4Z" stroke="#FFCB37" stroke-width="3.4375" stroke-linejoin="round" stroke-miterlimit="10" fill="#FFCB37"/><path d="M3510.46 8239.4C3510.46 8245.48 3505.53 8250.4 3499.46 8250.4 3493.38 8250.4 3488.46 8245.48 3488.46 8239.4 3488.46 8233.33 3493.38 8228.4 3499.46 8228.4 3505.53 8228.4 3510.46 8233.33 3510.46 8239.4Z" stroke="#FFCB37" stroke-width="3.4375" stroke-linejoin="round" stroke-miterlimit="10" fill="#FFCB37"/><path d="M3574.46 8166.4C3574.46 8172.48 3569.53 8177.4 3563.46 8177.4 3557.38 8177.4 3552.46 8172.48 3552.46 8166.4 3552.46 8160.33 3557.38 8155.4 3563.46 8155.4 3569.53 8155.4 3574.46 8160.33 3574.46 8166.4Z" stroke="#FFCB37" stroke-width="3.4375" stroke-linejoin="round" stroke-miterlimit="10" fill="#FFCB37"/><path d="M3637.46 8156.4C3637.46 8162.48 3632.53 8167.4 3626.46 8167.4 3620.38 8167.4 3615.46 8162.48 3615.46 8156.4 3615.46 8150.33 3620.38 8145.4 3626.46 8145.4 3632.53 8145.4 3637.46 8150.33 3637.46 8156.4Z" stroke="#FFCB37" stroke-width="3.4375" stroke-linejoin="round" stroke-miterlimit="10" fill="#FFCB37"/><path d="M3701.46 8047.4C3701.46 8053.48 3696.53 8058.4 3690.46 8058.4 3684.38 8058.4 3679.46 8053.48 3679.46 8047.4 3679.46 8041.33 3684.38 8036.4 3690.46 8036.4 3696.53 8036.4 3701.46 8041.33 3701.46 8047.4Z" stroke="#FFCB37" stroke-width="3.4375" stroke-linejoin="round" stroke-miterlimit="10" fill="#FFCB37"/><path d="M3764.46 8032.4C3764.46 8038.48 3759.53 8043.4 3753.46 8043.4 3747.38 8043.4 3742.46 8038.48 3742.46 8032.4 3742.46 8026.33 3747.38 8021.4 3753.46 8021.4 3759.53 8021.4 3764.46 8026.33 3764.46 8032.4Z" stroke="#FFCB37" stroke-width="3.4375" stroke-linejoin="round" stroke-miterlimit="10" fill="#FFCB37"/><path d="M3827.46 8064.4C3827.46 8070.48 3822.53 8075.4 3816.46 8075.4 3810.38 8075.4 3805.46 8070.48 3805.46 8064.4 3805.46 8058.33 3810.38 8053.4 3816.46 8053.4 3822.53 8053.4 3827.46 8058.33 3827.46 8064.4Z" stroke="#FFCB37" stroke-width="3.4375" stroke-linejoin="round" stroke-miterlimit="10" fill="#FFCB37"/><path d="M3891.46 8032.4C3891.46 8038.48 3886.53 8043.4 3880.46 8043.4 3874.38 8043.4 3869.46 8038.48 3869.46 8032.4 3869.46 8026.33 3874.38 8021.4 3880.46 8021.4 3886.53 8021.4 3891.46 8026.33 3891.46 8032.4Z" stroke="#FFCB37" stroke-width="3.4375" stroke-linejoin="round" stroke-miterlimit="10" fill="#FFCB37"/><path d="M3954.46 8013.4C3954.46 8019.48 3949.53 8024.4 3943.46 8024.4 3937.38 8024.4 3932.46 8019.48 3932.46 8013.4 3932.46 8007.33 3937.38 8002.4 3943.46 8002.4 3949.53 8002.4 3954.46 8007.33 3954.46 8013.4Z" stroke="#FFCB37" stroke-width="3.4375" stroke-linejoin="round" stroke-miterlimit="10" fill="#FFCB37"/><path d="M4018.46 7981.4C4018.46 7987.48 4013.53 7992.4 4007.46 7992.4 4001.38 7992.4 3996.46 7987.48 3996.46 7981.4 3996.46 7975.33 4001.38 7970.4 4007.46 7970.4 4013.53 7970.4 4018.46 7975.33 4018.46 7981.4Z" stroke="#FFCB37" stroke-width="3.4375" stroke-linejoin="round" stroke-miterlimit="10" fill="#FFCB37"/><path d="M4081.46 8002.4C4081.46 8008.48 4076.53 8013.4 4070.46 8013.4 4064.38 8013.4 4059.46 8008.48 4059.46 8002.4 4059.46 7996.33 4064.38 7991.4 4070.46 7991.4 4076.53 7991.4 4081.46 7996.33 4081.46 8002.4Z" stroke="#FFCB37" stroke-width="3.4375" stroke-linejoin="round" stroke-miterlimit="10" fill="#FFCB37"/><path d="M4144.46 7970.4C4144.46 7976.48 4139.53 7981.4 4133.46 7981.4 4127.38 7981.4 4122.46 7976.48 4122.46 7970.4 4122.46 7964.33 4127.38 7959.4 4133.46 7959.4 4139.53 7959.4 4144.46 7964.33 4144.46 7970.4Z" stroke="#FFCB37" stroke-width="3.4375" stroke-linejoin="round" stroke-miterlimit="10" fill="#FFCB37"/><path d="M4208.46 7893.4C4208.46 7899.48 4203.53 7904.4 4197.46 7904.4 4191.38 7904.4 4186.46 7899.48 4186.46 7893.4 4186.46 7887.33 4191.38 7882.4 4197.46 7882.4 4203.53 7882.4 4208.46 7887.33 4208.46 7893.4Z" stroke="#FFCB37" stroke-width="3.4375" stroke-linejoin="round" stroke-miterlimit="10" fill="#FFCB37"/><path d="M4271.46 7848.4C4271.46 7854.48 4266.53 7859.4 4260.46 7859.4 4254.38 7859.4 4249.46 7854.48 4249.46 7848.4 4249.46 7842.33 4254.38 7837.4 4260.46 7837.4 4266.53 7837.4 4271.46 7842.33 4271.46 7848.4Z" stroke="#FFCB37" stroke-width="3.4375" stroke-linejoin="round" stroke-miterlimit="10" fill="#FFCB37"/><path d="M4335.46 7885.4C4335.46 7891.48 4330.53 7896.4 4324.46 7896.4 4318.38 7896.4 4313.46 7891.48 4313.46 7885.4 4313.46 7879.33 4318.38 7874.4 4324.46 7874.4 4330.53 7874.4 4335.46 7879.33 4335.46 7885.4Z" stroke="#FFCB37" stroke-width="3.4375" stroke-linejoin="round" stroke-miterlimit="10" fill="#FFCB37"/><path d="M4398.46 7835.4C4398.46 7841.48 4393.53 7846.4 4387.46 7846.4 4381.38 7846.4 4376.46 7841.48 4376.46 7835.4 4376.46 7829.33 4381.38 7824.4 4387.46 7824.4 4393.53 7824.4 4398.46 7829.33 4398.46 7835.4Z" stroke="#FFCB37" stroke-width="3.4375" stroke-linejoin="round" stroke-miterlimit="10" fill="#FFCB37"/><path d="M4461.46 7804.4C4461.46 7810.48 4456.53 7815.4 4450.46 7815.4 4444.38 7815.4 4439.46 7810.48 4439.46 7804.4 4439.46 7798.33 4444.38 7793.4 4450.46 7793.4 4456.53 7793.4 4461.46 7798.33 4461.46 7804.4Z" stroke="#FFCB37" stroke-width="3.4375" stroke-linejoin="round" stroke-miterlimit="10" fill="#FFCB37"/><path d="M4525.46 7750.4C4525.46 7756.48 4520.53 7761.4 4514.46 7761.4 4508.38 7761.4 4503.46 7756.48 4503.46 7750.4 4503.46 7744.33 4508.38 7739.4 4514.46 7739.4 4520.53 7739.4 4525.46 7744.33 4525.46 7750.4Z" stroke="#FFCB37" stroke-width="3.4375" stroke-linejoin="round" stroke-miterlimit="10" fill="#FFCB37"/><path d="M4588.46 7701.4C4588.46 7707.48 4583.53 7712.4 4577.46 7712.4 4571.38 7712.4 4566.46 7707.48 4566.46 7701.4 4566.46 7695.33 4571.38 7690.4 4577.46 7690.4 4583.53 7690.4 4588.46 7695.33 4588.46 7701.4Z" stroke="#FFCB37" stroke-width="3.4375" stroke-linejoin="round" stroke-miterlimit="10" fill="#FFCB37"/><path d="M4652.46 7656.4C4652.46 7662.48 4647.53 7667.4 4641.46 7667.4 4635.38 7667.4 4630.46 7662.48 4630.46 7656.4 4630.46 7650.33 4635.38 7645.4 4641.46 7645.4 4647.53 7645.4 4652.46 7650.33 4652.46 7656.4Z" stroke="#FFCB37" stroke-width="3.4375" stroke-linejoin="round" stroke-miterlimit="10" fill="#FFCB37"/></g><g><text fill="#E5E7EB" font-family="Calibri,Calibri_MSFontService,sans-serif" font-weight="400" font-size="41" transform="matrix(1 0 0 1 3010.37 8504)"> $-</text></g><g><text fill="#E5E7EB" font-family="Calibri,Calibri_MSFontService,sans-serif" font-weight="400" font-size="41" transform="matrix(1 0 0 1 2947.65 8351)"> $50.00</text></g><g><text fill="#E5E7EB" font-family="Calibri,Calibri_MSFontService,sans-serif" font-weight="400" font-size="41" transform="matrix(1 0 0 1 2926.75 8198)"> $100.00</text></g><g><text fill="#E5E7EB" font-family="Calibri,Calibri_MSFontService,sans-serif" font-weight="400" font-size="41" transform="matrix(1 0 0 1 2926.75 8046)"> $150.00</text></g><g><text fill="#E5E7EB" font-family="Calibri,Calibri_MSFontService,sans-serif" font-weight="400" font-size="41" transform="matrix(1 0 0 1 2926.75 7893)"> $200.00</text></g><g><text fill="#E5E7EB" font-family="Calibri,Calibri_MSFontService,sans-serif" font-weight="400" font-size="41" transform="matrix(1 0 0 1 2926.75 7740)"> $250.00</text></g><g><text fill="#E5E7EB" font-family="Calibri,Calibri_MSFontService,sans-serif" font-weight="400" font-size="41" transform="matrix(1 0 0 1 2926.75 7587)"> $300.00</text></g><g><text fill="#E5E7EB" font-family="Calibri,Calibri_MSFontService,sans-serif" font-weight="400" font-size="41" transform="matrix(1 0 0 1 3109.03 8557)">0</text></g><g><text fill="#E5E7EB" font-family="Calibri,Calibri_MSFontService,sans-serif" font-weight="400" font-size="41" transform="matrix(1 0 0 1 3426.03 8557)">5</text></g><g><text fill="#E5E7EB" font-family="Calibri,Calibri_MSFontService,sans-serif" font-weight="400" font-size="41" transform="matrix(1 0 0 1 3732.59 8557)">10</text></g><g><text fill="#E5E7EB" font-family="Calibri,Calibri_MSFontService,sans-serif" font-weight="400" font-size="41" transform="matrix(1 0 0 1 4049.6 8557)">15</text></g><g><text fill="#E5E7EB" font-family="Calibri,Calibri_MSFontService,sans-serif" font-weight="400" font-size="41" transform="matrix(1 0 0 1 4366.61 8557)">20</text></g><g><text fill="#E5E7EB" font-family="Calibri,Calibri_MSFontService,sans-serif" font-weight="400" font-size="41" transform="matrix(1 0 0 1 4683.62 8557)">25</text></g><g><text fill="#E5E7EB" font-family="Calibri,Calibri_MSFontService,sans-serif" font-weight="400" font-size="64" transform="matrix(1 0 0 1 3331.75 7501)">Profit with 50$ Engaged on each Signal</text></g><rect x="2897.5" y="7406.5" width="1879" height="1192" stroke="#D9D9D9" stroke-width="3.4375" stroke-linejoin="round" stroke-miterlimit="10" fill="none"/></g></svg>