<svg width="1680" height="980" xmlns="http://www.w3.org/2000/svg" xmlns:xlink="http://www.w3.org/1999/xlink" xml:space="preserve" overflow="hidden"><defs><clipPath id="clip0"><rect x="2774" y="3332" width="1680" height="980"/></clipPath></defs><g clip-path="url(#clip0)" transform="translate(-2774 -3332)"><g><path d="M3051.6 3503.5 3051.6 4204.5M3197.6 3503.5 3197.6 4204.5M3343.61 3503.5 3343.61 4204.5M3489.61 3503.5 3489.61 4204.5M3635.62 3503.5 3635.62 4204.5M3781.62 3503.5 3781.62 4204.5M3927.63 3503.5 3927.63 4204.5M4073.63 3503.5 4073.63 4204.5M4219.64 3503.5 4219.64 4204.5M4365.5 3503.5 4365.5 4204.5" stroke="#D9D9D9" stroke-width="3.4375" stroke-linejoin="round" stroke-miterlimit="10" fill="none"/></g><g><path d="M3782.12 4128.14 2906 4128.14 2906 4046.13 3782.12 4046.13ZM4220.14 3895.13 2906 3895.13 2906 3812.13 4220.14 3812.13ZM3636.12 3661.12 2906 3661.12 2906 3578.12 3636.12 3578.12Z" fill="#FFCB37"/></g><g><path d="M0 0 0.000360892 701" stroke="#D9D9D9" stroke-width="3.4375" stroke-linejoin="round" stroke-miterlimit="10" fill="none" fill-rule="evenodd" transform="matrix(1 0 0 -1 2905.5 4204.5)"/></g><g><text fill="#E5E7EB" font-family="Calibri,Calibri_MSFontService,sans-serif" font-weight="400" font-size="41" transform="matrix(1 0 0 1 2880.32 4269)">0%</text></g><g><text fill="#E5E7EB" font-family="Calibri,Calibri_MSFontService,sans-serif" font-weight="400" font-size="41" transform="matrix(1 0 0 1 3026.35 4269)">5%</text></g><g><text fill="#E5E7EB" font-family="Calibri,Calibri_MSFontService,sans-serif" font-weight="400" font-size="41" transform="matrix(1 0 0 1 3161.94 4269)">10%</text></g><g><text fill="#E5E7EB" font-family="Calibri,Calibri_MSFontService,sans-serif" font-weight="400" font-size="41" transform="matrix(1 0 0 1 3307.97 4269)">15%</text></g><g><text fill="#E5E7EB" font-family="Calibri,Calibri_MSFontService,sans-serif" font-weight="400" font-size="41" transform="matrix(1 0 0 1 3454.01 4269)">20%</text></g><g><text fill="#E5E7EB" font-family="Calibri,Calibri_MSFontService,sans-serif" font-weight="400" font-size="41" transform="matrix(1 0 0 1 3600.04 4269)">25%</text></g><g><text fill="#E5E7EB" font-family="Calibri,Calibri_MSFontService,sans-serif" font-weight="400" font-size="41" transform="matrix(1 0 0 1 3746.08 4269)">30%</text></g><g><text fill="#E5E7EB" font-family="Calibri,Calibri_MSFontService,sans-serif" font-weight="400" font-size="41" transform="matrix(1 0 0 1 3892.11 4269)">35%</text></g><g><text fill="#E5E7EB" font-family="Calibri,Calibri_MSFontService,sans-serif" font-weight="400" font-size="41" transform="matrix(1 0 0 1 4038.15 4269)">40%</text></g><g><text fill="#E5E7EB" font-family="Calibri,Calibri_MSFontService,sans-serif" font-weight="400" font-size="41" transform="matrix(1 0 0 1 4184.18 4269)">45%</text></g><g><text fill="#E5E7EB" font-family="Calibri,Calibri_MSFontService,sans-serif" font-weight="400" font-size="41" transform="matrix(1 0 0 1 4330.21 4269)">50%</text></g><g><text fill="#E5E7EB" font-family="Calibri,Calibri_MSFontService,sans-serif" font-weight="400" font-size="41" transform="matrix(1 0 0 1 2804.94 4099)">TP1</text></g><g><text fill="#E5E7EB" font-family="Calibri,Calibri_MSFontService,sans-serif" font-weight="400" font-size="41" transform="matrix(1 0 0 1 2804.94 3865)">TP2</text></g><g><text fill="#E5E7EB" font-family="Calibri,Calibri_MSFontService,sans-serif" font-weight="400" font-size="41" transform="matrix(1 0 0 1 2804.94 3631)">TP3</text></g><g><text fill="#E5E7EB" font-family="Calibri,Calibri_MSFontService,sans-serif" font-weight="400" font-size="64" transform="matrix(1 0 0 1 3326.61 3428)">Number of Targets Hit</text></g><rect x="2775.5" y="3333.5" width="1677" height="977" stroke="#D9D9D9" stroke-width="3.4375" stroke-linejoin="round" stroke-miterlimit="10" fill="none"/></g></svg>