<svg width="952" height="1023" xmlns="http://www.w3.org/2000/svg" xmlns:xlink="http://www.w3.org/1999/xlink" xml:space="preserve" overflow="hidden"><defs><clipPath id="clip0"><rect x="3146" y="4412" width="952" height="1023"/></clipPath></defs><g clip-path="url(#clip0)" transform="translate(-3146 -4412)"><g><path d="M3621.68 4633.07C3785.92 4633.07 3919.06 4766.21 3919.06 4930.46 3919.06 5094.7 3785.92 5227.84 3621.68 5227.84 3457.44 5227.84 3324.29 5094.7 3324.29 4930.46 3324.29 4918.47 3325.02 4906.5 3326.46 4894.61L3400.26 4903.57C3385.42 5025.85 3472.51 5137.02 3594.79 5151.87 3717.08 5166.72 3828.24 5079.62 3843.09 4957.34 3857.94 4835.06 3770.84 4723.89 3648.56 4709.04 3639.64 4707.96 3630.66 4707.42 3621.68 4707.42Z" stroke="#FFFFFF" stroke-width="6.875" stroke-linejoin="round" stroke-miterlimit="10" fill="#4ADE80" fill-rule="evenodd"/></g><g><path d="M3326.46 4894.61C3344.59 4745.33 3471.3 4633.07 3621.68 4633.07L3621.68 4707.42C3508.89 4707.42 3413.86 4791.61 3400.26 4903.57Z" stroke="#FFFFFF" stroke-width="6.875" stroke-linejoin="round" stroke-miterlimit="10" fill="#FFCB37" fill-rule="evenodd"/></g><g><path d="M3794.5 5125.5 3841.63 5180.5 3862.5 5180.5" stroke="#A6A6A6" stroke-width="3.4375" stroke-linejoin="round" stroke-miterlimit="10" fill="none"/></g><g><path d="M3449.5 4735.5 3434.61 4683.5 3414.5 4683.5" stroke="#A6A6A6" stroke-width="3.4375" stroke-linejoin="round" stroke-miterlimit="10" fill="none"/></g><g><text fill="#4ADE80" font-family="Calibri,Calibri_MSFontService,sans-serif" font-weight="400" font-size="41" transform="matrix(1 0 0 1 3875.92 5195)">77%</text></g><g><text fill="#FFCB37" font-family="Calibri,Calibri_MSFontService,sans-serif" font-weight="400" font-size="41" transform="matrix(1 0 0 1 3329.11 4698)">23%</text></g><g><text fill="#E5E7EB" font-family="Calibri,Calibri_MSFontService,sans-serif" font-weight="400" font-size="64" transform="matrix(1 0 0 1 3496.39 4953)">WIN RATE</text></g><g><rect x="3479.5" y="5355.5" width="23" height="22" stroke="#FFFFFF" stroke-width="6.875" stroke-linejoin="round" stroke-miterlimit="10" fill="#4ADE80"/></g><g><text fill="#E5E7EB" font-family="Calibri,Calibri_MSFontService,sans-serif" font-weight="400" font-size="41" transform="matrix(1 0 0 1 3512.09 5378)">PROFIT</text></g><g><rect x="3665.5" y="5355.5" width="22" height="22" stroke="#FFFFFF" stroke-width="6.875" stroke-linejoin="round" stroke-miterlimit="10" fill="#FFCB37"/></g><g><text fill="#E5E7EB" font-family="Calibri,Calibri_MSFontService,sans-serif" font-weight="400" font-size="41" transform="matrix(1 0 0 1 3697.45 5378)">LOSS</text></g><rect x="3147.5" y="4413.5" width="949" height="1020" stroke="#D9D9D9" stroke-width="3.4375" stroke-linejoin="round" stroke-miterlimit="10" fill="none"/></g></svg>