<svg width="984" height="894" xmlns="http://www.w3.org/2000/svg" xmlns:xlink="http://www.w3.org/1999/xlink" xml:space="preserve" overflow="hidden"><defs><clipPath id="clip0"><rect x="4210" y="4447" width="984" height="894"/></clipPath></defs><g clip-path="url(#clip0)" transform="translate(-4210 -4447)"><g><path d="M4711.41 4583.33C4887.73 4583.33 5030.67 4726.26 5030.67 4902.58 5030.67 4993.96 4991.52 5080.96 4923.12 5141.55L4870.19 5081.81C4969.18 4994.12 4978.33 4842.79 4890.64 4743.8 4845.19 4692.5 4779.95 4663.14 4711.41 4663.14Z" stroke="#FFFFFF" stroke-width="6.875" stroke-linejoin="round" stroke-miterlimit="10" fill="#4ADE80" fill-rule="evenodd"/></g><g><path d="M4923.12 5141.55C4791.14 5258.47 4589.37 5246.27 4472.45 5114.29 4355.52 4982.31 4367.73 4780.54 4499.71 4663.62 4558.1 4611.89 4633.41 4583.33 4711.41 4583.33L4711.41 4663.14C4579.17 4663.14 4471.97 4770.34 4471.97 4902.58 4471.97 5034.82 4579.17 5142.03 4711.41 5142.03 4769.92 5142.03 4826.4 5120.61 4870.19 5081.81Z" stroke="#FFFFFF" stroke-width="6.875" stroke-linejoin="round" stroke-miterlimit="10" fill="#FFCB37" fill-rule="evenodd"/></g><g><path d="M4972.5 4803.5 5027.67 4953.5 5048.5 4953.5" stroke="#A6A6A6" stroke-width="3.4375" stroke-linejoin="round" stroke-miterlimit="10" fill="none"/></g><g><path d="M4450.5 5001.5 4388.64 4984.5 4367.5 4984.5" stroke="#A6A6A6" stroke-width="3.4375" stroke-linejoin="round" stroke-miterlimit="10" fill="none"/></g><g><text fill="#4ADE80" font-family="Calibri,Calibri_MSFontService,sans-serif" font-weight="700" font-size="41" transform="matrix(1 0 0 1 5061.92 4968)">38%</text></g><g><text fill="#FFCB37" font-family="Calibri,Calibri_MSFontService,sans-serif" font-weight="700" font-size="41" transform="matrix(1 0 0 1 4282.24 4998)">62%</text></g><g><text fill="#FFCB37" font-family="Calibri,Calibri_MSFontService,sans-serif" font-weight="700" font-size="64" transform="matrix(1 0 0 1 4550.33 4924)">Short</text></g><g><text fill="#E5E7EB" font-family="Calibri,Calibri_MSFontService,sans-serif" font-weight="700" font-size="64" transform="matrix(1 0 0 1 4709.14 4924)">&amp;</text></g><g><text fill="#4ADE80" font-family="Calibri,Calibri_MSFontService,sans-serif" font-weight="700" font-size="64" transform="matrix(1 0 0 1 4768.86 4924)">Long</text></g><rect x="4211.5" y="4448.5" width="981" height="891" stroke="#D9D9D9" stroke-width="3.4375" stroke-linejoin="round" stroke-miterlimit="10" fill="none"/></g></svg>