<svg width="1102" height="1104" xmlns="http://www.w3.org/2000/svg" xmlns:xlink="http://www.w3.org/1999/xlink" xml:space="preserve" overflow="hidden"><defs><clipPath id="clip0"><rect x="3917" y="11663" width="1102" height="1104"/></clipPath></defs><g clip-path="url(#clip0)" transform="translate(-3917 -11663)"><g><path d="M4467.54 11888.8C4651.54 11888.8 4800.69 12037.9 4800.69 12221.9 4800.69 12405.9 4651.54 12555.1 4467.54 12555.1 4305.19 12555.1 4166.48 12438 4139.15 12278L4221.25 12264C4244.48 12400 4373.58 12491.4 4509.61 12468.2 4645.64 12445 4737.07 12315.9 4713.84 12179.9 4693.34 12059.8 4589.31 11972.1 4467.54 11972.1Z" stroke="#FFFFFF" stroke-width="6.875" stroke-linejoin="round" stroke-miterlimit="10" fill="#4ADE80" fill-rule="evenodd"/></g><g><path d="M4139.15 12278C4108.17 12096.6 4230.09 11924.5 4411.46 11893.5 4429.98 11890.4 4448.75 11888.8 4467.54 11888.8L4467.54 11972.1C4329.55 11972.1 4217.68 12083.9 4217.68 12221.9 4217.68 12236 4218.88 12250.1 4221.25 12264Z" stroke="#FFFFFF" stroke-width="6.875" stroke-linejoin="round" stroke-miterlimit="10" fill="#FFC000" fill-rule="evenodd"/></g><g><path d="M4690.5 12409.5 4756.66 12470.5 4776.5 12470.5" stroke="#A6A6A6" stroke-width="3.4375" stroke-linejoin="round" stroke-miterlimit="10" fill="none"/></g><g><path d="M4244.5 12033.5 4216.64 11977.5 4196.5 11977.5" stroke="#A6A6A6" stroke-width="3.4375" stroke-linejoin="round" stroke-miterlimit="10" fill="none"/></g><g><text fill="#4ADE80" font-family="Calibri,Calibri_MSFontService,sans-serif" font-weight="400" font-size="41" transform="matrix(1 0 0 1 4790.6 12484)">72%</text></g><g><text fill="#FFCB37" font-family="Calibri,Calibri_MSFontService,sans-serif" font-weight="400" font-size="41" transform="matrix(1 0 0 1 4111.38 11992)">28%</text></g><g><text fill="#E5E7EB" font-family="Calibri,Calibri_MSFontService,sans-serif" font-weight="400" font-size="64" transform="matrix(1 0 0 1 4331.08 12241)">WIN RATE</text></g><g><rect x="4325.5" y="12687.5" width="23" height="23" stroke="#FFFFFF" stroke-width="6.875" stroke-linejoin="round" stroke-miterlimit="10" fill="#4ADE80"/></g><g><text fill="#E5E7EB" font-family="Calibri,Calibri_MSFontService,sans-serif" font-weight="400" font-size="41" transform="matrix(1 0 0 1 4357.95 12711)">PROFIT</text></g><g><rect x="4511.5" y="12687.5" width="22" height="23" stroke="#FFFFFF" stroke-width="6.875" stroke-linejoin="round" stroke-miterlimit="10" fill="#FFC000"/></g><g><text fill="#E5E7EB" font-family="Calibri,Calibri_MSFontService,sans-serif" font-weight="400" font-size="41" transform="matrix(1 0 0 1 4543.32 12711)">LOSS</text></g><rect x="3918.5" y="11664.5" width="1099" height="1101" stroke="#D9D9D9" stroke-width="3.4375" stroke-linejoin="round" stroke-miterlimit="10" fill="none"/></g></svg>