<svg width="1053" height="1101" xmlns="http://www.w3.org/2000/svg" xmlns:xlink="http://www.w3.org/1999/xlink" xml:space="preserve" overflow="hidden"><defs><clipPath id="clip0"><rect x="5165" y="11671" width="1053" height="1101"/></clipPath></defs><g clip-path="url(#clip0)" transform="translate(-5165 -11671)"><g><path d="M5701.32 11890.3C5890 11890.3 6042.95 12043.3 6042.95 12231.9 6042.95 12420.6 5890 12573.6 5701.32 12573.6 5657.16 12573.6 5613.41 12565 5572.5 12548.3L5604.71 12469.2C5735.76 12522.6 5885.27 12459.6 5938.63 12328.6 5991.99 12197.5 5929 12048 5797.94 11994.6 5767.26 11982.1 5734.45 11975.7 5701.32 11975.7Z" stroke="#FFFFFF" stroke-width="6.875" stroke-linejoin="round" stroke-miterlimit="10" fill="#4ADE80" fill-rule="evenodd"/></g><g><path d="M5572.5 12548.3C5397.75 12477.2 5313.77 12277.9 5384.92 12103.1 5437.31 11974.4 5562.4 11890.3 5701.32 11890.3L5701.32 11975.7C5559.82 11975.7 5445.11 12090.4 5445.11 12231.9 5445.11 12336.1 5508.2 12429.9 5604.71 12469.2Z" stroke="#FFFFFF" stroke-width="6.875" stroke-linejoin="round" stroke-miterlimit="10" fill="#FFCB37" fill-rule="evenodd"/></g><g><path d="M5994.5 12289.5 6058.7 12474.5 6079.5 12474.5" stroke="#A6A6A6" stroke-width="3.4375" stroke-linejoin="round" stroke-miterlimit="10" fill="none"/></g><g><path d="M5407.5 12174.5 5285.67 12114.5 5264.5 12114.5" stroke="#A6A6A6" stroke-width="3.4375" stroke-linejoin="round" stroke-miterlimit="10" fill="none"/></g><g><text fill="#4ADE80" font-family="Calibri,Calibri_MSFontService,sans-serif" font-weight="700" font-size="41" transform="matrix(1 0 0 1 6092.76 12488)">56%</text></g><g><text fill="#FFCB37" font-family="Calibri,Calibri_MSFontService,sans-serif" font-weight="700" font-size="41" transform="matrix(1 0 0 1 5179.34 12128)">44</text></g><g><text fill="#FFCB37" font-family="Calibri,Calibri_MSFontService,sans-serif" font-weight="700" font-size="41" transform="matrix(1 0 0 1 5221.14 12128)">%</text></g><g><text fill="#FFCB37" font-family="Calibri,Calibri_MSFontService,sans-serif" font-weight="700" font-size="64" transform="matrix(1 0 0 1 5532.98 12248)">Short</text></g><g><text fill="#E5E7EB" font-family="Calibri,Calibri_MSFontService,sans-serif" font-weight="700" font-size="64" transform="matrix(1 0 0 1 5691.79 12248)">&amp;</text></g><g><text fill="#4ADE80" font-family="Calibri,Calibri_MSFontService,sans-serif" font-weight="700" font-size="64" transform="matrix(1 0 0 1 5751.51 12248)">Long</text></g><rect x="5166.5" y="11672.5" width="1050" height="1098" stroke="#D9D9D9" stroke-width="3.4375" stroke-linejoin="round" stroke-miterlimit="10" fill="none"/></g></svg>