<svg width="1907" height="1107" xmlns="http://www.w3.org/2000/svg" xmlns:xlink="http://www.w3.org/1999/xlink" xml:space="preserve" overflow="hidden"><defs><clipPath id="clip0"><rect x="4154" y="14392" width="1907" height="1107"/></clipPath></defs><g clip-path="url(#clip0)" transform="translate(-4154 -14392)"><g><path d="M4341.5 15446.5 5977.5 15446.5M4341.5 15359 5977.5 15359M4341.5 15182 5977.5 15182M4341.5 15093 5977.5 15093M4341.5 15005 5977.5 15005M4341.5 14916 5977.5 14916M4341.5 14828 5977.5 14828M4341.5 14740 5977.5 14740M4341.5 14651 5977.5 14651M4341.5 14562.5 5977.5 14562.5" stroke="#D9D9D9" stroke-width="3.4375" stroke-linejoin="round" stroke-miterlimit="10" fill="none"/></g><g><path d="M4574.65 14562.5 4574.65 15446.5M4808.66 14562.5 4808.66 15446.5M5042.67 14562.5 5042.67 15446.5M5276.67 14562.5 5276.67 15446.5M5509.68 14562.5 5509.68 15446.5M5743.69 14562.5 5743.69 15446.5M5977.5 14562.5 5977.5 15446.5" stroke="#D9D9D9" stroke-width="3.4375" stroke-linejoin="round" stroke-miterlimit="10" fill="none"/></g><g><path d="M0 0 0.000360892 884" stroke="#BFBFBF" stroke-width="3.4375" stroke-linejoin="round" stroke-miterlimit="10" fill="none" fill-rule="evenodd" transform="matrix(1 0 0 -1 4341.5 15446.5)"/></g><g><path d="M4341.5 15270.5 5977.5 15270.5" stroke="#BFBFBF" stroke-width="3.4375" stroke-linejoin="round" stroke-miterlimit="10" fill="none" fill-rule="evenodd"/></g><g><path d="M4352.5 15283 4364.64 15296 4375.64 15309 4387.64 15322 4399.64 15336 4411.65 15333 4422.65 15338 4434.65 15341.5 4446.65 15336 4457.65 15330 4469.65 15306 4481.65 15320 4492.65 15317 4504.65 15315 4516.65 15321 4527.65 15319 4539.65 15317 4551.65 15295 4562.65 15293 4574.65 15290 4586.65 15303 4598.65 15279 4609.65 15277 4621.65 15291 4633.65 15278 4644.65 15276 4656.65 15253 4668.65 15239 4679.65 15217 4691.65 15195 4703.65 15173 4714.65 15134 4726.66 15088 4738.66 15080 4750.66 15058 4761.66 15051 4773.66 15049 4785.66 15026 4796.66 14986 4808.66 14979 4820.66 14977 4831.66 14975 4843.66 14988 4855.66 14984 4866.66 14982 4878.66 14960 4890.66 14957 4901.66 14913 4913.66 14927 4925.66 14896 4937.66 14853 4948.66 14866 4960.66 14844 4972.66 14842 4983.66 14840 4995.66 14838 5007.66 14816 5018.66 14813 5030.67 14811 5042.67 14789 5053.67 14787 5065.67 14784 5077.67 14799 5089.67 14812 5100.67 14806 5112.67 14804 5124.67 14817 5135.67 14790 5147.67 14787 5159.67 14785 5170.67 14782 5182.67 14779 5194.67 14776 5205.67 14790 5217.67 14803 5229.67 14819 5241.67 14805 5252.67 14818 5264.67 14796 5276.67 14794 5287.67 14807 5299.67 14785 5311.67 14798 5322.67 14811 5334.68 14826 5346.68 14804 5357.68 14817 5369.68 14815 5381.68 14802 5392.68 14799 5404.68 14797 5416.68 14810 5428.68 14823 5439.68 14820 5451.68 14818 5463.68 14812 5474.68 14825 5486.68 14823 5498.68 14834 5509.68 14843 5521.68 14820 5533.68 14818 5544.68 14816 5556.68 14814 5568.68 14812 5580.68 14805 5591.68 14778 5603.68 14756 5615.68 14754 5626.68 14751 5638.69 14729 5650.69 14707 5661.69 14729 5673.69 14727 5685.69 14720 5696.69 14698 5708.69 14687 5720.69 14709 5731.69 14687 5743.69 14673 5755.69 14671 5767.69 14648 5778.69 14645 5790.69 14667 5802.69 14663 5813.69 14661 5825.69 14659 5837.69 14641.5 5848.69 14655 5860.5 14668" stroke="#FFCB37" stroke-width="6.875" stroke-linecap="round" stroke-linejoin="round" stroke-miterlimit="10" fill="none"/></g><g><path d="M4363.5 15283.3C4363.5 15289.4 4358.58 15294.3 4352.5 15294.3 4346.43 15294.3 4341.5 15289.4 4341.5 15283.3 4341.5 15277.2 4346.43 15272.3 4352.5 15272.3 4358.58 15272.3 4363.5 15277.2 4363.5 15283.3Z" stroke="#FFCB37" stroke-width="3.4375" stroke-linejoin="round" stroke-miterlimit="10" fill="#FFCB37"/><path d="M4375.5 15295.3C4375.5 15301.4 4370.58 15306.3 4364.5 15306.3 4358.43 15306.3 4353.5 15301.4 4353.5 15295.3 4353.5 15289.2 4358.43 15284.3 4364.5 15284.3 4370.58 15284.3 4375.5 15289.2 4375.5 15295.3Z" stroke="#FFCB37" stroke-width="3.4375" stroke-linejoin="round" stroke-miterlimit="10" fill="#FFCB37"/><path d="M4387.5 15309.3C4387.5 15315.4 4382.58 15320.3 4376.5 15320.3 4370.43 15320.3 4365.5 15315.4 4365.5 15309.3 4365.5 15303.2 4370.43 15298.3 4376.5 15298.3 4382.58 15298.3 4387.5 15303.2 4387.5 15309.3Z" stroke="#FFCB37" stroke-width="3.4375" stroke-linejoin="round" stroke-miterlimit="10" fill="#FFCB37"/><path d="M4398.5 15322.3C4398.5 15328.4 4393.58 15333.3 4387.5 15333.3 4381.43 15333.3 4376.5 15328.4 4376.5 15322.3 4376.5 15316.2 4381.43 15311.3 4387.5 15311.3 4393.58 15311.3 4398.5 15316.2 4398.5 15322.3Z" stroke="#FFCB37" stroke-width="3.4375" stroke-linejoin="round" stroke-miterlimit="10" fill="#FFCB37"/><path d="M4410.5 15335.3C4410.5 15341.4 4405.58 15346.3 4399.5 15346.3 4393.43 15346.3 4388.5 15341.4 4388.5 15335.3 4388.5 15329.2 4393.43 15324.3 4399.5 15324.3 4405.58 15324.3 4410.5 15329.2 4410.5 15335.3Z" stroke="#FFCB37" stroke-width="3.4375" stroke-linejoin="round" stroke-miterlimit="10" fill="#FFCB37"/><path d="M4422.5 15333.3C4422.5 15339.4 4417.58 15344.3 4411.5 15344.3 4405.43 15344.3 4400.5 15339.4 4400.5 15333.3 4400.5 15327.2 4405.43 15322.3 4411.5 15322.3 4417.58 15322.3 4422.5 15327.2 4422.5 15333.3Z" stroke="#FFCB37" stroke-width="3.4375" stroke-linejoin="round" stroke-miterlimit="10" fill="#FFCB37"/><path d="M4433.5 15337.3C4433.5 15343.4 4428.58 15348.3 4422.5 15348.3 4416.43 15348.3 4411.5 15343.4 4411.5 15337.3 4411.5 15331.2 4416.43 15326.3 4422.5 15326.3 4428.58 15326.3 4433.5 15331.2 4433.5 15337.3Z" stroke="#FFCB37" stroke-width="3.4375" stroke-linejoin="round" stroke-miterlimit="10" fill="#FFCB37"/><path d="M4445.5 15341.3C4445.5 15347.4 4440.58 15352.3 4434.5 15352.3 4428.43 15352.3 4423.5 15347.4 4423.5 15341.3 4423.5 15335.2 4428.43 15330.3 4434.5 15330.3 4440.58 15330.3 4445.5 15335.2 4445.5 15341.3Z" stroke="#FFCB37" stroke-width="3.4375" stroke-linejoin="round" stroke-miterlimit="10" fill="#FFCB37"/><path d="M4457.5 15336.3C4457.5 15342.4 4452.58 15347.3 4446.5 15347.3 4440.43 15347.3 4435.5 15342.4 4435.5 15336.3 4435.5 15330.2 4440.43 15325.3 4446.5 15325.3 4452.58 15325.3 4457.5 15330.2 4457.5 15336.3Z" stroke="#FFCB37" stroke-width="3.4375" stroke-linejoin="round" stroke-miterlimit="10" fill="#FFCB37"/><path d="M4468.5 15329.3C4468.5 15335.4 4463.58 15340.3 4457.5 15340.3 4451.43 15340.3 4446.5 15335.4 4446.5 15329.3 4446.5 15323.2 4451.43 15318.3 4457.5 15318.3 4463.58 15318.3 4468.5 15323.2 4468.5 15329.3Z" stroke="#FFCB37" stroke-width="3.4375" stroke-linejoin="round" stroke-miterlimit="10" fill="#FFCB37"/><path d="M4480.5 15306.3C4480.5 15312.4 4475.58 15317.3 4469.5 15317.3 4463.43 15317.3 4458.5 15312.4 4458.5 15306.3 4458.5 15300.2 4463.43 15295.3 4469.5 15295.3 4475.58 15295.3 4480.5 15300.2 4480.5 15306.3Z" stroke="#FFCB37" stroke-width="3.4375" stroke-linejoin="round" stroke-miterlimit="10" fill="#FFCB37"/><path d="M4492.5 15319.3C4492.5 15325.4 4487.58 15330.3 4481.5 15330.3 4475.43 15330.3 4470.5 15325.4 4470.5 15319.3 4470.5 15313.2 4475.43 15308.3 4481.5 15308.3 4487.58 15308.3 4492.5 15313.2 4492.5 15319.3Z" stroke="#FFCB37" stroke-width="3.4375" stroke-linejoin="round" stroke-miterlimit="10" fill="#FFCB37"/><path d="M4503.5 15317.3C4503.5 15323.4 4498.58 15328.3 4492.5 15328.3 4486.43 15328.3 4481.5 15323.4 4481.5 15317.3 4481.5 15311.2 4486.43 15306.3 4492.5 15306.3 4498.58 15306.3 4503.5 15311.2 4503.5 15317.3Z" stroke="#FFCB37" stroke-width="3.4375" stroke-linejoin="round" stroke-miterlimit="10" fill="#FFCB37"/><path d="M4515.5 15314.3C4515.5 15320.4 4510.58 15325.3 4504.5 15325.3 4498.43 15325.3 4493.5 15320.4 4493.5 15314.3 4493.5 15308.2 4498.43 15303.3 4504.5 15303.3 4510.58 15303.3 4515.5 15308.2 4515.5 15314.3Z" stroke="#FFCB37" stroke-width="3.4375" stroke-linejoin="round" stroke-miterlimit="10" fill="#FFCB37"/><path d="M4527.5 15321.3C4527.5 15327.4 4522.58 15332.3 4516.5 15332.3 4510.43 15332.3 4505.5 15327.4 4505.5 15321.3 4505.5 15315.2 4510.43 15310.3 4516.5 15310.3 4522.58 15310.3 4527.5 15315.2 4527.5 15321.3Z" stroke="#FFCB37" stroke-width="3.4375" stroke-linejoin="round" stroke-miterlimit="10" fill="#FFCB37"/><path d="M4539.5 15319.3C4539.5 15325.4 4534.58 15330.3 4528.5 15330.3 4522.43 15330.3 4517.5 15325.4 4517.5 15319.3 4517.5 15313.2 4522.43 15308.3 4528.5 15308.3 4534.58 15308.3 4539.5 15313.2 4539.5 15319.3Z" stroke="#FFCB37" stroke-width="3.4375" stroke-linejoin="round" stroke-miterlimit="10" fill="#FFCB37"/><path d="M4550.5 15317.3C4550.5 15323.4 4545.58 15328.3 4539.5 15328.3 4533.43 15328.3 4528.5 15323.4 4528.5 15317.3 4528.5 15311.2 4533.43 15306.3 4539.5 15306.3 4545.58 15306.3 4550.5 15311.2 4550.5 15317.3Z" stroke="#FFCB37" stroke-width="3.4375" stroke-linejoin="round" stroke-miterlimit="10" fill="#FFCB37"/><path d="M4562.5 15294.3C4562.5 15300.4 4557.58 15305.3 4551.5 15305.3 4545.43 15305.3 4540.5 15300.4 4540.5 15294.3 4540.5 15288.2 4545.43 15283.3 4551.5 15283.3 4557.58 15283.3 4562.5 15288.2 4562.5 15294.3Z" stroke="#FFCB37" stroke-width="3.4375" stroke-linejoin="round" stroke-miterlimit="10" fill="#FFCB37"/><path d="M4574.5 15292.3C4574.5 15298.4 4569.58 15303.3 4563.5 15303.3 4557.43 15303.3 4552.5 15298.4 4552.5 15292.3 4552.5 15286.2 4557.43 15281.3 4563.5 15281.3 4569.58 15281.3 4574.5 15286.2 4574.5 15292.3Z" stroke="#FFCB37" stroke-width="3.4375" stroke-linejoin="round" stroke-miterlimit="10" fill="#FFCB37"/><path d="M4585.5 15290.3C4585.5 15296.4 4580.58 15301.3 4574.5 15301.3 4568.43 15301.3 4563.5 15296.4 4563.5 15290.3 4563.5 15284.2 4568.43 15279.3 4574.5 15279.3 4580.58 15279.3 4585.5 15284.2 4585.5 15290.3Z" stroke="#FFCB37" stroke-width="3.4375" stroke-linejoin="round" stroke-miterlimit="10" fill="#FFCB37"/><path d="M4597.5 15302.3C4597.5 15308.4 4592.58 15313.3 4586.5 15313.3 4580.43 15313.3 4575.5 15308.4 4575.5 15302.3 4575.5 15296.2 4580.43 15291.3 4586.5 15291.3 4592.58 15291.3 4597.5 15296.2 4597.5 15302.3Z" stroke="#FFCB37" stroke-width="3.4375" stroke-linejoin="round" stroke-miterlimit="10" fill="#FFCB37"/><path d="M4609.5 15279.3C4609.5 15285.4 4604.58 15290.3 4598.5 15290.3 4592.43 15290.3 4587.5 15285.4 4587.5 15279.3 4587.5 15273.2 4592.43 15268.3 4598.5 15268.3 4604.58 15268.3 4609.5 15273.2 4609.5 15279.3Z" stroke="#FFCB37" stroke-width="3.4375" stroke-linejoin="round" stroke-miterlimit="10" fill="#FFCB37"/><path d="M4620.5 15277.3C4620.5 15283.4 4615.58 15288.3 4609.5 15288.3 4603.43 15288.3 4598.5 15283.4 4598.5 15277.3 4598.5 15271.2 4603.43 15266.3 4609.5 15266.3 4615.58 15266.3 4620.5 15271.2 4620.5 15277.3Z" stroke="#FFCB37" stroke-width="3.4375" stroke-linejoin="round" stroke-miterlimit="10" fill="#FFCB37"/><path d="M4632.5 15290.3C4632.5 15296.4 4627.58 15301.3 4621.5 15301.3 4615.43 15301.3 4610.5 15296.4 4610.5 15290.3 4610.5 15284.2 4615.43 15279.3 4621.5 15279.3 4627.58 15279.3 4632.5 15284.2 4632.5 15290.3Z" stroke="#FFCB37" stroke-width="3.4375" stroke-linejoin="round" stroke-miterlimit="10" fill="#FFCB37"/><path d="M4644.5 15277.3C4644.5 15283.4 4639.58 15288.3 4633.5 15288.3 4627.43 15288.3 4622.5 15283.4 4622.5 15277.3 4622.5 15271.2 4627.43 15266.3 4633.5 15266.3 4639.58 15266.3 4644.5 15271.2 4644.5 15277.3Z" stroke="#FFCB37" stroke-width="3.4375" stroke-linejoin="round" stroke-miterlimit="10" fill="#FFCB37"/><path d="M4655.5 15275.3C4655.5 15281.4 4650.58 15286.3 4644.5 15286.3 4638.43 15286.3 4633.5 15281.4 4633.5 15275.3 4633.5 15269.2 4638.43 15264.3 4644.5 15264.3 4650.58 15264.3 4655.5 15269.2 4655.5 15275.3Z" stroke="#FFCB37" stroke-width="3.4375" stroke-linejoin="round" stroke-miterlimit="10" fill="#FFCB37"/><path d="M4667.5 15253.3C4667.5 15259.4 4662.58 15264.3 4656.5 15264.3 4650.43 15264.3 4645.5 15259.4 4645.5 15253.3 4645.5 15247.2 4650.43 15242.3 4656.5 15242.3 4662.58 15242.3 4667.5 15247.2 4667.5 15253.3Z" stroke="#FFCB37" stroke-width="3.4375" stroke-linejoin="round" stroke-miterlimit="10" fill="#FFCB37"/><path d="M4679.5 15239.3C4679.5 15245.4 4674.58 15250.3 4668.5 15250.3 4662.43 15250.3 4657.5 15245.4 4657.5 15239.3 4657.5 15233.2 4662.43 15228.3 4668.5 15228.3 4674.58 15228.3 4679.5 15233.2 4679.5 15239.3Z" stroke="#FFCB37" stroke-width="3.4375" stroke-linejoin="round" stroke-miterlimit="10" fill="#FFCB37"/><path d="M4691.5 15216.3C4691.5 15222.4 4686.58 15227.3 4680.5 15227.3 4674.43 15227.3 4669.5 15222.4 4669.5 15216.3 4669.5 15210.2 4674.43 15205.3 4680.5 15205.3 4686.58 15205.3 4691.5 15210.2 4691.5 15216.3Z" stroke="#FFCB37" stroke-width="3.4375" stroke-linejoin="round" stroke-miterlimit="10" fill="#FFCB37"/><path d="M4702.5 15194.3C4702.5 15200.4 4697.58 15205.3 4691.5 15205.3 4685.43 15205.3 4680.5 15200.4 4680.5 15194.3 4680.5 15188.2 4685.43 15183.3 4691.5 15183.3 4697.58 15183.3 4702.5 15188.2 4702.5 15194.3Z" stroke="#FFCB37" stroke-width="3.4375" stroke-linejoin="round" stroke-miterlimit="10" fill="#FFCB37"/><path d="M4714.5 15172.3C4714.5 15178.4 4709.58 15183.3 4703.5 15183.3 4697.43 15183.3 4692.5 15178.4 4692.5 15172.3 4692.5 15166.2 4697.43 15161.3 4703.5 15161.3 4709.58 15161.3 4714.5 15166.2 4714.5 15172.3Z" stroke="#FFCB37" stroke-width="3.4375" stroke-linejoin="round" stroke-miterlimit="10" fill="#FFCB37"/><path d="M4726.5 15134.3C4726.5 15140.4 4721.58 15145.3 4715.5 15145.3 4709.43 15145.3 4704.5 15140.4 4704.5 15134.3 4704.5 15128.2 4709.43 15123.3 4715.5 15123.3 4721.58 15123.3 4726.5 15128.2 4726.5 15134.3Z" stroke="#FFCB37" stroke-width="3.4375" stroke-linejoin="round" stroke-miterlimit="10" fill="#FFCB37"/><path d="M4737.5 15088.3C4737.5 15094.4 4732.58 15099.3 4726.5 15099.3 4720.43 15099.3 4715.5 15094.4 4715.5 15088.3 4715.5 15082.2 4720.43 15077.3 4726.5 15077.3 4732.58 15077.3 4737.5 15082.2 4737.5 15088.3Z" stroke="#FFCB37" stroke-width="3.4375" stroke-linejoin="round" stroke-miterlimit="10" fill="#FFCB37"/><path d="M4749.5 15080.3C4749.5 15086.4 4744.58 15091.3 4738.5 15091.3 4732.43 15091.3 4727.5 15086.4 4727.5 15080.3 4727.5 15074.2 4732.43 15069.3 4738.5 15069.3 4744.58 15069.3 4749.5 15074.2 4749.5 15080.3Z" stroke="#FFCB37" stroke-width="3.4375" stroke-linejoin="round" stroke-miterlimit="10" fill="#FFCB37"/><path d="M4761.5 15058.3C4761.5 15064.4 4756.58 15069.3 4750.5 15069.3 4744.43 15069.3 4739.5 15064.4 4739.5 15058.3 4739.5 15052.2 4744.43 15047.3 4750.5 15047.3 4756.58 15047.3 4761.5 15052.2 4761.5 15058.3Z" stroke="#FFCB37" stroke-width="3.4375" stroke-linejoin="round" stroke-miterlimit="10" fill="#FFCB37"/><path d="M4772.5 15050.3C4772.5 15056.4 4767.58 15061.3 4761.5 15061.3 4755.43 15061.3 4750.5 15056.4 4750.5 15050.3 4750.5 15044.2 4755.43 15039.3 4761.5 15039.3 4767.58 15039.3 4772.5 15044.2 4772.5 15050.3Z" stroke="#FFCB37" stroke-width="3.4375" stroke-linejoin="round" stroke-miterlimit="10" fill="#FFCB37"/><path d="M4784.5 15048.3C4784.5 15054.4 4779.58 15059.3 4773.5 15059.3 4767.43 15059.3 4762.5 15054.4 4762.5 15048.3 4762.5 15042.2 4767.43 15037.3 4773.5 15037.3 4779.58 15037.3 4784.5 15042.2 4784.5 15048.3Z" stroke="#FFCB37" stroke-width="3.4375" stroke-linejoin="round" stroke-miterlimit="10" fill="#FFCB37"/><path d="M4796.5 15026.3C4796.5 15032.4 4791.58 15037.3 4785.5 15037.3 4779.43 15037.3 4774.5 15032.4 4774.5 15026.3 4774.5 15020.2 4779.43 15015.3 4785.5 15015.3 4791.58 15015.3 4796.5 15020.2 4796.5 15026.3Z" stroke="#FFCB37" stroke-width="3.4375" stroke-linejoin="round" stroke-miterlimit="10" fill="#FFCB37"/><path d="M4807.5 14986.3C4807.5 14992.4 4802.58 14997.3 4796.5 14997.3 4790.43 14997.3 4785.5 14992.4 4785.5 14986.3 4785.5 14980.2 4790.43 14975.3 4796.5 14975.3 4802.58 14975.3 4807.5 14980.2 4807.5 14986.3Z" stroke="#FFCB37" stroke-width="3.4375" stroke-linejoin="round" stroke-miterlimit="10" fill="#FFCB37"/><path d="M4819.5 14979.3C4819.5 14985.4 4814.58 14990.3 4808.5 14990.3 4802.43 14990.3 4797.5 14985.4 4797.5 14979.3 4797.5 14973.2 4802.43 14968.3 4808.5 14968.3 4814.58 14968.3 4819.5 14973.2 4819.5 14979.3Z" stroke="#FFCB37" stroke-width="3.4375" stroke-linejoin="round" stroke-miterlimit="10" fill="#FFCB37"/><path d="M4831.5 14977.3C4831.5 14983.4 4826.58 14988.3 4820.5 14988.3 4814.43 14988.3 4809.5 14983.4 4809.5 14977.3 4809.5 14971.2 4814.43 14966.3 4820.5 14966.3 4826.58 14966.3 4831.5 14971.2 4831.5 14977.3Z" stroke="#FFCB37" stroke-width="3.4375" stroke-linejoin="round" stroke-miterlimit="10" fill="#FFCB37"/><path d="M4843.5 14974.3C4843.5 14980.4 4838.58 14985.3 4832.5 14985.3 4826.43 14985.3 4821.5 14980.4 4821.5 14974.3 4821.5 14968.2 4826.43 14963.3 4832.5 14963.3 4838.58 14963.3 4843.5 14968.2 4843.5 14974.3Z" stroke="#FFCB37" stroke-width="3.4375" stroke-linejoin="round" stroke-miterlimit="10" fill="#FFCB37"/><path d="M4854.5 14988.3C4854.5 14994.4 4849.58 14999.3 4843.5 14999.3 4837.43 14999.3 4832.5 14994.4 4832.5 14988.3 4832.5 14982.2 4837.43 14977.3 4843.5 14977.3 4849.58 14977.3 4854.5 14982.2 4854.5 14988.3Z" stroke="#FFCB37" stroke-width="3.4375" stroke-linejoin="round" stroke-miterlimit="10" fill="#FFCB37"/><path d="M4866.5 14983.3C4866.5 14989.4 4861.58 14994.3 4855.5 14994.3 4849.43 14994.3 4844.5 14989.4 4844.5 14983.3 4844.5 14977.2 4849.43 14972.3 4855.5 14972.3 4861.58 14972.3 4866.5 14977.2 4866.5 14983.3Z" stroke="#FFCB37" stroke-width="3.4375" stroke-linejoin="round" stroke-miterlimit="10" fill="#FFCB37"/><path d="M4878.5 14981.3C4878.5 14987.4 4873.58 14992.3 4867.5 14992.3 4861.43 14992.3 4856.5 14987.4 4856.5 14981.3 4856.5 14975.2 4861.43 14970.3 4867.5 14970.3 4873.58 14970.3 4878.5 14975.2 4878.5 14981.3Z" stroke="#FFCB37" stroke-width="3.4375" stroke-linejoin="round" stroke-miterlimit="10" fill="#FFCB37"/><path d="M4889.5 14959.3C4889.5 14965.4 4884.58 14970.3 4878.5 14970.3 4872.43 14970.3 4867.5 14965.4 4867.5 14959.3 4867.5 14953.2 4872.43 14948.3 4878.5 14948.3 4884.58 14948.3 4889.5 14953.2 4889.5 14959.3Z" stroke="#FFCB37" stroke-width="3.4375" stroke-linejoin="round" stroke-miterlimit="10" fill="#FFCB37"/><path d="M4901.5 14957.3C4901.5 14963.4 4896.58 14968.3 4890.5 14968.3 4884.43 14968.3 4879.5 14963.4 4879.5 14957.3 4879.5 14951.2 4884.43 14946.3 4890.5 14946.3 4896.58 14946.3 4901.5 14951.2 4901.5 14957.3Z" stroke="#FFCB37" stroke-width="3.4375" stroke-linejoin="round" stroke-miterlimit="10" fill="#FFCB37"/><path d="M4913.5 14913.3C4913.5 14919.4 4908.58 14924.3 4902.5 14924.3 4896.43 14924.3 4891.5 14919.4 4891.5 14913.3 4891.5 14907.2 4896.43 14902.3 4902.5 14902.3 4908.58 14902.3 4913.5 14907.2 4913.5 14913.3Z" stroke="#FFCB37" stroke-width="3.4375" stroke-linejoin="round" stroke-miterlimit="10" fill="#FFCB37"/><path d="M4924.5 14926.3C4924.5 14932.4 4919.58 14937.3 4913.5 14937.3 4907.43 14937.3 4902.5 14932.4 4902.5 14926.3 4902.5 14920.2 4907.43 14915.3 4913.5 14915.3 4919.58 14915.3 4924.5 14920.2 4924.5 14926.3Z" stroke="#FFCB37" stroke-width="3.4375" stroke-linejoin="round" stroke-miterlimit="10" fill="#FFCB37"/><path d="M4936.5 14895.3C4936.5 14901.4 4931.58 14906.3 4925.5 14906.3 4919.43 14906.3 4914.5 14901.4 4914.5 14895.3 4914.5 14889.2 4919.43 14884.3 4925.5 14884.3 4931.58 14884.3 4936.5 14889.2 4936.5 14895.3Z" stroke="#FFCB37" stroke-width="3.4375" stroke-linejoin="round" stroke-miterlimit="10" fill="#FFCB37"/><path d="M4948.5 14853.3C4948.5 14859.4 4943.58 14864.3 4937.5 14864.3 4931.43 14864.3 4926.5 14859.4 4926.5 14853.3 4926.5 14847.2 4931.43 14842.3 4937.5 14842.3 4943.58 14842.3 4948.5 14847.2 4948.5 14853.3Z" stroke="#FFCB37" stroke-width="3.4375" stroke-linejoin="round" stroke-miterlimit="10" fill="#FFCB37"/><path d="M4959.5 14866.3C4959.5 14872.4 4954.58 14877.3 4948.5 14877.3 4942.43 14877.3 4937.5 14872.4 4937.5 14866.3 4937.5 14860.2 4942.43 14855.3 4948.5 14855.3 4954.58 14855.3 4959.5 14860.2 4959.5 14866.3Z" stroke="#FFCB37" stroke-width="3.4375" stroke-linejoin="round" stroke-miterlimit="10" fill="#FFCB37"/><path d="M4971.5 14844.3C4971.5 14850.4 4966.58 14855.3 4960.5 14855.3 4954.43 14855.3 4949.5 14850.4 4949.5 14844.3 4949.5 14838.2 4954.43 14833.3 4960.5 14833.3 4966.58 14833.3 4971.5 14838.2 4971.5 14844.3Z" stroke="#FFCB37" stroke-width="3.4375" stroke-linejoin="round" stroke-miterlimit="10" fill="#FFCB37"/><path d="M4983.5 14842.3C4983.5 14848.4 4978.58 14853.3 4972.5 14853.3 4966.43 14853.3 4961.5 14848.4 4961.5 14842.3 4961.5 14836.2 4966.43 14831.3 4972.5 14831.3 4978.58 14831.3 4983.5 14836.2 4983.5 14842.3Z" stroke="#FFCB37" stroke-width="3.4375" stroke-linejoin="round" stroke-miterlimit="10" fill="#FFCB37"/><path d="M4994.5 14839.3C4994.5 14845.4 4989.58 14850.3 4983.5 14850.3 4977.43 14850.3 4972.5 14845.4 4972.5 14839.3 4972.5 14833.2 4977.43 14828.3 4983.5 14828.3 4989.58 14828.3 4994.5 14833.2 4994.5 14839.3Z" stroke="#FFCB37" stroke-width="3.4375" stroke-linejoin="round" stroke-miterlimit="10" fill="#FFCB37"/><path d="M5006.5 14837.3C5006.5 14843.4 5001.58 14848.3 4995.5 14848.3 4989.43 14848.3 4984.5 14843.4 4984.5 14837.3 4984.5 14831.2 4989.43 14826.3 4995.5 14826.3 5001.58 14826.3 5006.5 14831.2 5006.5 14837.3Z" stroke="#FFCB37" stroke-width="3.4375" stroke-linejoin="round" stroke-miterlimit="10" fill="#FFCB37"/><path d="M5018.5 14815.3C5018.5 14821.4 5013.58 14826.3 5007.5 14826.3 5001.43 14826.3 4996.5 14821.4 4996.5 14815.3 4996.5 14809.2 5001.43 14804.3 5007.5 14804.3 5013.58 14804.3 5018.5 14809.2 5018.5 14815.3Z" stroke="#FFCB37" stroke-width="3.4375" stroke-linejoin="round" stroke-miterlimit="10" fill="#FFCB37"/><path d="M5030.5 14813.3C5030.5 14819.4 5025.58 14824.3 5019.5 14824.3 5013.43 14824.3 5008.5 14819.4 5008.5 14813.3 5008.5 14807.2 5013.43 14802.3 5019.5 14802.3 5025.58 14802.3 5030.5 14807.2 5030.5 14813.3Z" stroke="#FFCB37" stroke-width="3.4375" stroke-linejoin="round" stroke-miterlimit="10" fill="#FFCB37"/><path d="M5041.5 14811.3C5041.5 14817.4 5036.58 14822.3 5030.5 14822.3 5024.43 14822.3 5019.5 14817.4 5019.5 14811.3 5019.5 14805.2 5024.43 14800.3 5030.5 14800.3 5036.58 14800.3 5041.5 14805.2 5041.5 14811.3Z" stroke="#FFCB37" stroke-width="3.4375" stroke-linejoin="round" stroke-miterlimit="10" fill="#FFCB37"/><path d="M5053.5 14789.3C5053.5 14795.4 5048.58 14800.3 5042.5 14800.3 5036.43 14800.3 5031.5 14795.4 5031.5 14789.3 5031.5 14783.2 5036.43 14778.3 5042.5 14778.3 5048.58 14778.3 5053.5 14783.2 5053.5 14789.3Z" stroke="#FFCB37" stroke-width="3.4375" stroke-linejoin="round" stroke-miterlimit="10" fill="#FFCB37"/><path d="M5065.5 14786.3C5065.5 14792.4 5060.58 14797.3 5054.5 14797.3 5048.43 14797.3 5043.5 14792.4 5043.5 14786.3 5043.5 14780.2 5048.43 14775.3 5054.5 14775.3 5060.58 14775.3 5065.5 14780.2 5065.5 14786.3Z" stroke="#FFCB37" stroke-width="3.4375" stroke-linejoin="round" stroke-miterlimit="10" fill="#FFCB37"/><path d="M5076.5 14784.3C5076.5 14790.4 5071.58 14795.3 5065.5 14795.3 5059.43 14795.3 5054.5 14790.4 5054.5 14784.3 5054.5 14778.2 5059.43 14773.3 5065.5 14773.3 5071.58 14773.3 5076.5 14778.2 5076.5 14784.3Z" stroke="#FFCB37" stroke-width="3.4375" stroke-linejoin="round" stroke-miterlimit="10" fill="#FFCB37"/><path d="M5088.5 14798.3C5088.5 14804.4 5083.58 14809.3 5077.5 14809.3 5071.43 14809.3 5066.5 14804.4 5066.5 14798.3 5066.5 14792.2 5071.43 14787.3 5077.5 14787.3 5083.58 14787.3 5088.5 14792.2 5088.5 14798.3Z" stroke="#FFCB37" stroke-width="3.4375" stroke-linejoin="round" stroke-miterlimit="10" fill="#FFCB37"/><path d="M5100.5 14812.3C5100.5 14818.4 5095.58 14823.3 5089.5 14823.3 5083.43 14823.3 5078.5 14818.4 5078.5 14812.3 5078.5 14806.2 5083.43 14801.3 5089.5 14801.3 5095.58 14801.3 5100.5 14806.2 5100.5 14812.3Z" stroke="#FFCB37" stroke-width="3.4375" stroke-linejoin="round" stroke-miterlimit="10" fill="#FFCB37"/><path d="M5111.5 14805.3C5111.5 14811.4 5106.58 14816.3 5100.5 14816.3 5094.43 14816.3 5089.5 14811.4 5089.5 14805.3 5089.5 14799.2 5094.43 14794.3 5100.5 14794.3 5106.58 14794.3 5111.5 14799.2 5111.5 14805.3Z" stroke="#FFCB37" stroke-width="3.4375" stroke-linejoin="round" stroke-miterlimit="10" fill="#FFCB37"/><path d="M5123.5 14803.3C5123.5 14809.4 5118.58 14814.3 5112.5 14814.3 5106.43 14814.3 5101.5 14809.4 5101.5 14803.3 5101.5 14797.2 5106.43 14792.3 5112.5 14792.3 5118.58 14792.3 5123.5 14797.2 5123.5 14803.3Z" stroke="#FFCB37" stroke-width="3.4375" stroke-linejoin="round" stroke-miterlimit="10" fill="#FFCB37"/><path d="M5135.5 14816.3C5135.5 14822.4 5130.58 14827.3 5124.5 14827.3 5118.43 14827.3 5113.5 14822.4 5113.5 14816.3 5113.5 14810.2 5118.43 14805.3 5124.5 14805.3 5130.58 14805.3 5135.5 14810.2 5135.5 14816.3Z" stroke="#FFCB37" stroke-width="3.4375" stroke-linejoin="round" stroke-miterlimit="10" fill="#FFCB37"/><path d="M5146.5 14789.3C5146.5 14795.4 5141.58 14800.3 5135.5 14800.3 5129.43 14800.3 5124.5 14795.4 5124.5 14789.3 5124.5 14783.2 5129.43 14778.3 5135.5 14778.3 5141.58 14778.3 5146.5 14783.2 5146.5 14789.3Z" stroke="#FFCB37" stroke-width="3.4375" stroke-linejoin="round" stroke-miterlimit="10" fill="#FFCB37"/><path d="M5158.5 14786.3C5158.5 14792.4 5153.58 14797.3 5147.5 14797.3 5141.43 14797.3 5136.5 14792.4 5136.5 14786.3 5136.5 14780.2 5141.43 14775.3 5147.5 14775.3 5153.58 14775.3 5158.5 14780.2 5158.5 14786.3Z" stroke="#FFCB37" stroke-width="3.4375" stroke-linejoin="round" stroke-miterlimit="10" fill="#FFCB37"/><path d="M5170.5 14784.3C5170.5 14790.4 5165.58 14795.3 5159.5 14795.3 5153.43 14795.3 5148.5 14790.4 5148.5 14784.3 5148.5 14778.2 5153.43 14773.3 5159.5 14773.3 5165.58 14773.3 5170.5 14778.2 5170.5 14784.3Z" stroke="#FFCB37" stroke-width="3.4375" stroke-linejoin="round" stroke-miterlimit="10" fill="#FFCB37"/><path d="M5182.5 14781.3C5182.5 14787.4 5177.58 14792.3 5171.5 14792.3 5165.43 14792.3 5160.5 14787.4 5160.5 14781.3 5160.5 14775.2 5165.43 14770.3 5171.5 14770.3 5177.58 14770.3 5182.5 14775.2 5182.5 14781.3Z" stroke="#FFCB37" stroke-width="3.4375" stroke-linejoin="round" stroke-miterlimit="10" fill="#FFCB37"/><path d="M5193.5 14778.3C5193.5 14784.4 5188.58 14789.3 5182.5 14789.3 5176.43 14789.3 5171.5 14784.4 5171.5 14778.3 5171.5 14772.2 5176.43 14767.3 5182.5 14767.3 5188.58 14767.3 5193.5 14772.2 5193.5 14778.3Z" stroke="#FFCB37" stroke-width="3.4375" stroke-linejoin="round" stroke-miterlimit="10" fill="#FFCB37"/><path d="M5205.5 14776.3C5205.5 14782.4 5200.58 14787.3 5194.5 14787.3 5188.43 14787.3 5183.5 14782.4 5183.5 14776.3 5183.5 14770.2 5188.43 14765.3 5194.5 14765.3 5200.58 14765.3 5205.5 14770.2 5205.5 14776.3Z" stroke="#FFCB37" stroke-width="3.4375" stroke-linejoin="round" stroke-miterlimit="10" fill="#FFCB37"/><path d="M5217.5 14789.3C5217.5 14795.4 5212.58 14800.3 5206.5 14800.3 5200.43 14800.3 5195.5 14795.4 5195.5 14789.3 5195.5 14783.2 5200.43 14778.3 5206.5 14778.3 5212.58 14778.3 5217.5 14783.2 5217.5 14789.3Z" stroke="#FFCB37" stroke-width="3.4375" stroke-linejoin="round" stroke-miterlimit="10" fill="#FFCB37"/><path d="M5228.5 14802.3C5228.5 14808.4 5223.58 14813.3 5217.5 14813.3 5211.43 14813.3 5206.5 14808.4 5206.5 14802.3 5206.5 14796.2 5211.43 14791.3 5217.5 14791.3 5223.58 14791.3 5228.5 14796.2 5228.5 14802.3Z" stroke="#FFCB37" stroke-width="3.4375" stroke-linejoin="round" stroke-miterlimit="10" fill="#FFCB37"/><path d="M5240.5 14818.3C5240.5 14824.4 5235.58 14829.3 5229.5 14829.3 5223.43 14829.3 5218.5 14824.4 5218.5 14818.3 5218.5 14812.2 5223.43 14807.3 5229.5 14807.3 5235.58 14807.3 5240.5 14812.2 5240.5 14818.3Z" stroke="#FFCB37" stroke-width="3.4375" stroke-linejoin="round" stroke-miterlimit="10" fill="#FFCB37"/><path d="M5252.5 14804.3C5252.5 14810.4 5247.58 14815.3 5241.5 14815.3 5235.43 14815.3 5230.5 14810.4 5230.5 14804.3 5230.5 14798.2 5235.43 14793.3 5241.5 14793.3 5247.58 14793.3 5252.5 14798.2 5252.5 14804.3Z" stroke="#FFCB37" stroke-width="3.4375" stroke-linejoin="round" stroke-miterlimit="10" fill="#FFCB37"/><path d="M5263.5 14818.3C5263.5 14824.4 5258.58 14829.3 5252.5 14829.3 5246.43 14829.3 5241.5 14824.4 5241.5 14818.3 5241.5 14812.2 5246.43 14807.3 5252.5 14807.3 5258.58 14807.3 5263.5 14812.2 5263.5 14818.3Z" stroke="#FFCB37" stroke-width="3.4375" stroke-linejoin="round" stroke-miterlimit="10" fill="#FFCB37"/><path d="M5275.5 14796.3C5275.5 14802.4 5270.58 14807.3 5264.5 14807.3 5258.43 14807.3 5253.5 14802.4 5253.5 14796.3 5253.5 14790.2 5258.43 14785.3 5264.5 14785.3 5270.58 14785.3 5275.5 14790.2 5275.5 14796.3Z" stroke="#FFCB37" stroke-width="3.4375" stroke-linejoin="round" stroke-miterlimit="10" fill="#FFCB37"/><path d="M5287.5 14793.3C5287.5 14799.4 5282.58 14804.3 5276.5 14804.3 5270.43 14804.3 5265.5 14799.4 5265.5 14793.3 5265.5 14787.2 5270.43 14782.3 5276.5 14782.3 5282.58 14782.3 5287.5 14787.2 5287.5 14793.3Z" stroke="#FFCB37" stroke-width="3.4375" stroke-linejoin="round" stroke-miterlimit="10" fill="#FFCB37"/><path d="M5298.5 14807.3C5298.5 14813.4 5293.58 14818.3 5287.5 14818.3 5281.43 14818.3 5276.5 14813.4 5276.5 14807.3 5276.5 14801.2 5281.43 14796.3 5287.5 14796.3 5293.58 14796.3 5298.5 14801.2 5298.5 14807.3Z" stroke="#FFCB37" stroke-width="3.4375" stroke-linejoin="round" stroke-miterlimit="10" fill="#FFCB37"/><path d="M5310.5 14784.3C5310.5 14790.4 5305.58 14795.3 5299.5 14795.3 5293.43 14795.3 5288.5 14790.4 5288.5 14784.3 5288.5 14778.2 5293.43 14773.3 5299.5 14773.3 5305.58 14773.3 5310.5 14778.2 5310.5 14784.3Z" stroke="#FFCB37" stroke-width="3.4375" stroke-linejoin="round" stroke-miterlimit="10" fill="#FFCB37"/><path d="M5322.5 14798.3C5322.5 14804.4 5317.58 14809.3 5311.5 14809.3 5305.43 14809.3 5300.5 14804.4 5300.5 14798.3 5300.5 14792.2 5305.43 14787.3 5311.5 14787.3 5317.58 14787.3 5322.5 14792.2 5322.5 14798.3Z" stroke="#FFCB37" stroke-width="3.4375" stroke-linejoin="round" stroke-miterlimit="10" fill="#FFCB37"/><path d="M5334.5 14811.3C5334.5 14817.4 5329.58 14822.3 5323.5 14822.3 5317.43 14822.3 5312.5 14817.4 5312.5 14811.3 5312.5 14805.2 5317.43 14800.3 5323.5 14800.3 5329.58 14800.3 5334.5 14805.2 5334.5 14811.3Z" stroke="#FFCB37" stroke-width="3.4375" stroke-linejoin="round" stroke-miterlimit="10" fill="#FFCB37"/><path d="M5345.5 14825.3C5345.5 14831.4 5340.58 14836.3 5334.5 14836.3 5328.43 14836.3 5323.5 14831.4 5323.5 14825.3 5323.5 14819.2 5328.43 14814.3 5334.5 14814.3 5340.58 14814.3 5345.5 14819.2 5345.5 14825.3Z" stroke="#FFCB37" stroke-width="3.4375" stroke-linejoin="round" stroke-miterlimit="10" fill="#FFCB37"/><path d="M5357.5 14803.3C5357.5 14809.4 5352.58 14814.3 5346.5 14814.3 5340.43 14814.3 5335.5 14809.4 5335.5 14803.3 5335.5 14797.2 5340.43 14792.3 5346.5 14792.3 5352.58 14792.3 5357.5 14797.2 5357.5 14803.3Z" stroke="#FFCB37" stroke-width="3.4375" stroke-linejoin="round" stroke-miterlimit="10" fill="#FFCB37"/><path d="M5369.5 14816.3C5369.5 14822.4 5364.58 14827.3 5358.5 14827.3 5352.43 14827.3 5347.5 14822.4 5347.5 14816.3 5347.5 14810.2 5352.43 14805.3 5358.5 14805.3 5364.58 14805.3 5369.5 14810.2 5369.5 14816.3Z" stroke="#FFCB37" stroke-width="3.4375" stroke-linejoin="round" stroke-miterlimit="10" fill="#FFCB37"/><path d="M5380.5 14814.3C5380.5 14820.4 5375.58 14825.3 5369.5 14825.3 5363.43 14825.3 5358.5 14820.4 5358.5 14814.3 5358.5 14808.2 5363.43 14803.3 5369.5 14803.3 5375.58 14803.3 5380.5 14808.2 5380.5 14814.3Z" stroke="#FFCB37" stroke-width="3.4375" stroke-linejoin="round" stroke-miterlimit="10" fill="#FFCB37"/><path d="M5392.5 14801.3C5392.5 14807.4 5387.58 14812.3 5381.5 14812.3 5375.43 14812.3 5370.5 14807.4 5370.5 14801.3 5370.5 14795.2 5375.43 14790.3 5381.5 14790.3 5387.58 14790.3 5392.5 14795.2 5392.5 14801.3Z" stroke="#FFCB37" stroke-width="3.4375" stroke-linejoin="round" stroke-miterlimit="10" fill="#FFCB37"/><path d="M5404.5 14799.3C5404.5 14805.4 5399.58 14810.3 5393.5 14810.3 5387.43 14810.3 5382.5 14805.4 5382.5 14799.3 5382.5 14793.2 5387.43 14788.3 5393.5 14788.3 5399.58 14788.3 5404.5 14793.2 5404.5 14799.3Z" stroke="#FFCB37" stroke-width="3.4375" stroke-linejoin="round" stroke-miterlimit="10" fill="#FFCB37"/><path d="M5415.5 14796.3C5415.5 14802.4 5410.58 14807.3 5404.5 14807.3 5398.43 14807.3 5393.5 14802.4 5393.5 14796.3 5393.5 14790.2 5398.43 14785.3 5404.5 14785.3 5410.58 14785.3 5415.5 14790.2 5415.5 14796.3Z" stroke="#FFCB37" stroke-width="3.4375" stroke-linejoin="round" stroke-miterlimit="10" fill="#FFCB37"/><path d="M5427.5 14809.3C5427.5 14815.4 5422.58 14820.3 5416.5 14820.3 5410.43 14820.3 5405.5 14815.4 5405.5 14809.3 5405.5 14803.2 5410.43 14798.3 5416.5 14798.3 5422.58 14798.3 5427.5 14803.2 5427.5 14809.3Z" stroke="#FFCB37" stroke-width="3.4375" stroke-linejoin="round" stroke-miterlimit="10" fill="#FFCB37"/><path d="M5439.5 14822.3C5439.5 14828.4 5434.58 14833.3 5428.5 14833.3 5422.43 14833.3 5417.5 14828.4 5417.5 14822.3 5417.5 14816.2 5422.43 14811.3 5428.5 14811.3 5434.58 14811.3 5439.5 14816.2 5439.5 14822.3Z" stroke="#FFCB37" stroke-width="3.4375" stroke-linejoin="round" stroke-miterlimit="10" fill="#FFCB37"/><path d="M5450.5 14820.3C5450.5 14826.4 5445.58 14831.3 5439.5 14831.3 5433.43 14831.3 5428.5 14826.4 5428.5 14820.3 5428.5 14814.2 5433.43 14809.3 5439.5 14809.3 5445.58 14809.3 5450.5 14814.2 5450.5 14820.3Z" stroke="#FFCB37" stroke-width="3.4375" stroke-linejoin="round" stroke-miterlimit="10" fill="#FFCB37"/><path d="M5462.5 14818.3C5462.5 14824.4 5457.58 14829.3 5451.5 14829.3 5445.43 14829.3 5440.5 14824.4 5440.5 14818.3 5440.5 14812.2 5445.43 14807.3 5451.5 14807.3 5457.58 14807.3 5462.5 14812.2 5462.5 14818.3Z" stroke="#FFCB37" stroke-width="3.4375" stroke-linejoin="round" stroke-miterlimit="10" fill="#FFCB37"/><path d="M5474.5 14811.3C5474.5 14817.4 5469.58 14822.3 5463.5 14822.3 5457.43 14822.3 5452.5 14817.4 5452.5 14811.3 5452.5 14805.2 5457.43 14800.3 5463.5 14800.3 5469.58 14800.3 5474.5 14805.2 5474.5 14811.3Z" stroke="#FFCB37" stroke-width="3.4375" stroke-linejoin="round" stroke-miterlimit="10" fill="#FFCB37"/><path d="M5485.5 14824.3C5485.5 14830.4 5480.58 14835.3 5474.5 14835.3 5468.43 14835.3 5463.5 14830.4 5463.5 14824.3 5463.5 14818.2 5468.43 14813.3 5474.5 14813.3 5480.58 14813.3 5485.5 14818.2 5485.5 14824.3Z" stroke="#FFCB37" stroke-width="3.4375" stroke-linejoin="round" stroke-miterlimit="10" fill="#FFCB37"/><path d="M5497.5 14822.3C5497.5 14828.4 5492.58 14833.3 5486.5 14833.3 5480.43 14833.3 5475.5 14828.4 5475.5 14822.3 5475.5 14816.2 5480.43 14811.3 5486.5 14811.3 5492.58 14811.3 5497.5 14816.2 5497.5 14822.3Z" stroke="#FFCB37" stroke-width="3.4375" stroke-linejoin="round" stroke-miterlimit="10" fill="#FFCB37"/><path d="M5509.5 14833.3C5509.5 14839.4 5504.58 14844.3 5498.5 14844.3 5492.43 14844.3 5487.5 14839.4 5487.5 14833.3 5487.5 14827.2 5492.43 14822.3 5498.5 14822.3 5504.58 14822.3 5509.5 14827.2 5509.5 14833.3Z" stroke="#FFCB37" stroke-width="3.4375" stroke-linejoin="round" stroke-miterlimit="10" fill="#FFCB37"/><path d="M5521.5 14842.3C5521.5 14848.4 5516.58 14853.3 5510.5 14853.3 5504.43 14853.3 5499.5 14848.4 5499.5 14842.3 5499.5 14836.2 5504.43 14831.3 5510.5 14831.3 5516.58 14831.3 5521.5 14836.2 5521.5 14842.3Z" stroke="#FFCB37" stroke-width="3.4375" stroke-linejoin="round" stroke-miterlimit="10" fill="#FFCB37"/><path d="M5532.5 14820.3C5532.5 14826.4 5527.58 14831.3 5521.5 14831.3 5515.43 14831.3 5510.5 14826.4 5510.5 14820.3 5510.5 14814.2 5515.43 14809.3 5521.5 14809.3 5527.58 14809.3 5532.5 14814.2 5532.5 14820.3Z" stroke="#FFCB37" stroke-width="3.4375" stroke-linejoin="round" stroke-miterlimit="10" fill="#FFCB37"/><path d="M5544.5 14818.3C5544.5 14824.4 5539.58 14829.3 5533.5 14829.3 5527.43 14829.3 5522.5 14824.4 5522.5 14818.3 5522.5 14812.2 5527.43 14807.3 5533.5 14807.3 5539.58 14807.3 5544.5 14812.2 5544.5 14818.3Z" stroke="#FFCB37" stroke-width="3.4375" stroke-linejoin="round" stroke-miterlimit="10" fill="#FFCB37"/><path d="M5556.5 14815.3C5556.5 14821.4 5551.58 14826.3 5545.5 14826.3 5539.43 14826.3 5534.5 14821.4 5534.5 14815.3 5534.5 14809.2 5539.43 14804.3 5545.5 14804.3 5551.58 14804.3 5556.5 14809.2 5556.5 14815.3Z" stroke="#FFCB37" stroke-width="3.4375" stroke-linejoin="round" stroke-miterlimit="10" fill="#FFCB37"/><path d="M5567.5 14813.3C5567.5 14819.4 5562.58 14824.3 5556.5 14824.3 5550.43 14824.3 5545.5 14819.4 5545.5 14813.3 5545.5 14807.2 5550.43 14802.3 5556.5 14802.3 5562.58 14802.3 5567.5 14807.2 5567.5 14813.3Z" stroke="#FFCB37" stroke-width="3.4375" stroke-linejoin="round" stroke-miterlimit="10" fill="#FFCB37"/><path d="M5579.5 14811.3C5579.5 14817.4 5574.58 14822.3 5568.5 14822.3 5562.43 14822.3 5557.5 14817.4 5557.5 14811.3 5557.5 14805.2 5562.43 14800.3 5568.5 14800.3 5574.58 14800.3 5579.5 14805.2 5579.5 14811.3Z" stroke="#FFCB37" stroke-width="3.4375" stroke-linejoin="round" stroke-miterlimit="10" fill="#FFCB37"/><path d="M5591.5 14804.3C5591.5 14810.4 5586.58 14815.3 5580.5 14815.3 5574.43 14815.3 5569.5 14810.4 5569.5 14804.3 5569.5 14798.2 5574.43 14793.3 5580.5 14793.3 5586.58 14793.3 5591.5 14798.2 5591.5 14804.3Z" stroke="#FFCB37" stroke-width="3.4375" stroke-linejoin="round" stroke-miterlimit="10" fill="#FFCB37"/><path d="M5602.5 14778.3C5602.5 14784.4 5597.58 14789.3 5591.5 14789.3 5585.43 14789.3 5580.5 14784.4 5580.5 14778.3 5580.5 14772.2 5585.43 14767.3 5591.5 14767.3 5597.58 14767.3 5602.5 14772.2 5602.5 14778.3Z" stroke="#FFCB37" stroke-width="3.4375" stroke-linejoin="round" stroke-miterlimit="10" fill="#FFCB37"/><path d="M5614.5 14755.3C5614.5 14761.4 5609.58 14766.3 5603.5 14766.3 5597.43 14766.3 5592.5 14761.4 5592.5 14755.3 5592.5 14749.2 5597.43 14744.3 5603.5 14744.3 5609.58 14744.3 5614.5 14749.2 5614.5 14755.3Z" stroke="#FFCB37" stroke-width="3.4375" stroke-linejoin="round" stroke-miterlimit="10" fill="#FFCB37"/><path d="M5626.5 14753.3C5626.5 14759.4 5621.58 14764.3 5615.5 14764.3 5609.43 14764.3 5604.5 14759.4 5604.5 14753.3 5604.5 14747.2 5609.43 14742.3 5615.5 14742.3 5621.58 14742.3 5626.5 14747.2 5626.5 14753.3Z" stroke="#FFCB37" stroke-width="3.4375" stroke-linejoin="round" stroke-miterlimit="10" fill="#FFCB37"/><path d="M5637.5 14751.3C5637.5 14757.4 5632.58 14762.3 5626.5 14762.3 5620.43 14762.3 5615.5 14757.4 5615.5 14751.3 5615.5 14745.2 5620.43 14740.3 5626.5 14740.3 5632.58 14740.3 5637.5 14745.2 5637.5 14751.3Z" stroke="#FFCB37" stroke-width="3.4375" stroke-linejoin="round" stroke-miterlimit="10" fill="#FFCB37"/><path d="M5649.5 14729.3C5649.5 14735.4 5644.58 14740.3 5638.5 14740.3 5632.43 14740.3 5627.5 14735.4 5627.5 14729.3 5627.5 14723.2 5632.43 14718.3 5638.5 14718.3 5644.58 14718.3 5649.5 14723.2 5649.5 14729.3Z" stroke="#FFCB37" stroke-width="3.4375" stroke-linejoin="round" stroke-miterlimit="10" fill="#FFCB37"/><path d="M5661.5 14706.3C5661.5 14712.4 5656.58 14717.3 5650.5 14717.3 5644.43 14717.3 5639.5 14712.4 5639.5 14706.3 5639.5 14700.2 5644.43 14695.3 5650.5 14695.3 5656.58 14695.3 5661.5 14700.2 5661.5 14706.3Z" stroke="#FFCB37" stroke-width="3.4375" stroke-linejoin="round" stroke-miterlimit="10" fill="#FFCB37"/><path d="M5673.5 14728.3C5673.5 14734.4 5668.58 14739.3 5662.5 14739.3 5656.43 14739.3 5651.5 14734.4 5651.5 14728.3 5651.5 14722.2 5656.43 14717.3 5662.5 14717.3 5668.58 14717.3 5673.5 14722.2 5673.5 14728.3Z" stroke="#FFCB37" stroke-width="3.4375" stroke-linejoin="round" stroke-miterlimit="10" fill="#FFCB37"/><path d="M5684.5 14726.3C5684.5 14732.4 5679.58 14737.3 5673.5 14737.3 5667.43 14737.3 5662.5 14732.4 5662.5 14726.3 5662.5 14720.2 5667.43 14715.3 5673.5 14715.3 5679.58 14715.3 5684.5 14720.2 5684.5 14726.3Z" stroke="#FFCB37" stroke-width="3.4375" stroke-linejoin="round" stroke-miterlimit="10" fill="#FFCB37"/><path d="M5696.5 14720.3C5696.5 14726.4 5691.58 14731.3 5685.5 14731.3 5679.43 14731.3 5674.5 14726.4 5674.5 14720.3 5674.5 14714.2 5679.43 14709.3 5685.5 14709.3 5691.58 14709.3 5696.5 14714.2 5696.5 14720.3Z" stroke="#FFCB37" stroke-width="3.4375" stroke-linejoin="round" stroke-miterlimit="10" fill="#FFCB37"/><path d="M5708.5 14697.3C5708.5 14703.4 5703.58 14708.3 5697.5 14708.3 5691.43 14708.3 5686.5 14703.4 5686.5 14697.3 5686.5 14691.2 5691.43 14686.3 5697.5 14686.3 5703.58 14686.3 5708.5 14691.2 5708.5 14697.3Z" stroke="#FFCB37" stroke-width="3.4375" stroke-linejoin="round" stroke-miterlimit="10" fill="#FFCB37"/><path d="M5719.5 14686.3C5719.5 14692.4 5714.58 14697.3 5708.5 14697.3 5702.43 14697.3 5697.5 14692.4 5697.5 14686.3 5697.5 14680.2 5702.43 14675.3 5708.5 14675.3 5714.58 14675.3 5719.5 14680.2 5719.5 14686.3Z" stroke="#FFCB37" stroke-width="3.4375" stroke-linejoin="round" stroke-miterlimit="10" fill="#FFCB37"/><path d="M5731.5 14708.3C5731.5 14714.4 5726.58 14719.3 5720.5 14719.3 5714.43 14719.3 5709.5 14714.4 5709.5 14708.3 5709.5 14702.2 5714.43 14697.3 5720.5 14697.3 5726.58 14697.3 5731.5 14702.2 5731.5 14708.3Z" stroke="#FFCB37" stroke-width="3.4375" stroke-linejoin="round" stroke-miterlimit="10" fill="#FFCB37"/><path d="M5743.5 14686.3C5743.5 14692.4 5738.58 14697.3 5732.5 14697.3 5726.43 14697.3 5721.5 14692.4 5721.5 14686.3 5721.5 14680.2 5726.43 14675.3 5732.5 14675.3 5738.58 14675.3 5743.5 14680.2 5743.5 14686.3Z" stroke="#FFCB37" stroke-width="3.4375" stroke-linejoin="round" stroke-miterlimit="10" fill="#FFCB37"/><path d="M5754.5 14672.3C5754.5 14678.4 5749.58 14683.3 5743.5 14683.3 5737.43 14683.3 5732.5 14678.4 5732.5 14672.3 5732.5 14666.2 5737.43 14661.3 5743.5 14661.3 5749.58 14661.3 5754.5 14666.2 5754.5 14672.3Z" stroke="#FFCB37" stroke-width="3.4375" stroke-linejoin="round" stroke-miterlimit="10" fill="#FFCB37"/><path d="M5766.5 14670.3C5766.5 14676.4 5761.58 14681.3 5755.5 14681.3 5749.43 14681.3 5744.5 14676.4 5744.5 14670.3 5744.5 14664.2 5749.43 14659.3 5755.5 14659.3 5761.58 14659.3 5766.5 14664.2 5766.5 14670.3Z" stroke="#FFCB37" stroke-width="3.4375" stroke-linejoin="round" stroke-miterlimit="10" fill="#FFCB37"/><path d="M5778.5 14648.3C5778.5 14654.4 5773.58 14659.3 5767.5 14659.3 5761.43 14659.3 5756.5 14654.4 5756.5 14648.3 5756.5 14642.2 5761.43 14637.3 5767.5 14637.3 5773.58 14637.3 5778.5 14642.2 5778.5 14648.3Z" stroke="#FFCB37" stroke-width="3.4375" stroke-linejoin="round" stroke-miterlimit="10" fill="#FFCB37"/><path d="M5789.5 14645.3C5789.5 14651.4 5784.58 14656.3 5778.5 14656.3 5772.43 14656.3 5767.5 14651.4 5767.5 14645.3 5767.5 14639.2 5772.43 14634.3 5778.5 14634.3 5784.58 14634.3 5789.5 14639.2 5789.5 14645.3Z" stroke="#FFCB37" stroke-width="3.4375" stroke-linejoin="round" stroke-miterlimit="10" fill="#FFCB37"/><path d="M5801.5 14667.3C5801.5 14673.4 5796.58 14678.3 5790.5 14678.3 5784.43 14678.3 5779.5 14673.4 5779.5 14667.3 5779.5 14661.2 5784.43 14656.3 5790.5 14656.3 5796.58 14656.3 5801.5 14661.2 5801.5 14667.3Z" stroke="#FFCB37" stroke-width="3.4375" stroke-linejoin="round" stroke-miterlimit="10" fill="#FFCB37"/><path d="M5813.5 14663.3C5813.5 14669.4 5808.58 14674.3 5802.5 14674.3 5796.43 14674.3 5791.5 14669.4 5791.5 14663.3 5791.5 14657.2 5796.43 14652.3 5802.5 14652.3 5808.58 14652.3 5813.5 14657.2 5813.5 14663.3Z" stroke="#FFCB37" stroke-width="3.4375" stroke-linejoin="round" stroke-miterlimit="10" fill="#FFCB37"/><path d="M5825.5 14661.3C5825.5 14667.4 5820.58 14672.3 5814.5 14672.3 5808.43 14672.3 5803.5 14667.4 5803.5 14661.3 5803.5 14655.2 5808.43 14650.3 5814.5 14650.3 5820.58 14650.3 5825.5 14655.2 5825.5 14661.3Z" stroke="#FFCB37" stroke-width="3.4375" stroke-linejoin="round" stroke-miterlimit="10" fill="#FFCB37"/><path d="M5836.5 14659.3C5836.5 14665.4 5831.58 14670.3 5825.5 14670.3 5819.43 14670.3 5814.5 14665.4 5814.5 14659.3 5814.5 14653.2 5819.43 14648.3 5825.5 14648.3 5831.58 14648.3 5836.5 14653.2 5836.5 14659.3Z" stroke="#FFCB37" stroke-width="3.4375" stroke-linejoin="round" stroke-miterlimit="10" fill="#FFCB37"/><path d="M5848.5 14641.3C5848.5 14647.4 5843.58 14652.3 5837.5 14652.3 5831.43 14652.3 5826.5 14647.4 5826.5 14641.3 5826.5 14635.2 5831.43 14630.3 5837.5 14630.3 5843.58 14630.3 5848.5 14635.2 5848.5 14641.3Z" stroke="#FFCB37" stroke-width="3.4375" stroke-linejoin="round" stroke-miterlimit="10" fill="#FFCB37"/><path d="M5860.5 14654.3C5860.5 14660.4 5855.58 14665.3 5849.5 14665.3 5843.43 14665.3 5838.5 14660.4 5838.5 14654.3 5838.5 14648.2 5843.43 14643.3 5849.5 14643.3 5855.58 14643.3 5860.5 14648.2 5860.5 14654.3Z" stroke="#FFCB37" stroke-width="3.4375" stroke-linejoin="round" stroke-miterlimit="10" fill="#FFCB37"/><path d="M5871.5 14668.3C5871.5 14674.4 5866.58 14679.3 5860.5 14679.3 5854.43 14679.3 5849.5 14674.4 5849.5 14668.3 5849.5 14662.2 5854.43 14657.3 5860.5 14657.3 5866.58 14657.3 5871.5 14662.2 5871.5 14668.3Z" stroke="#FFCB37" stroke-width="3.4375" stroke-linejoin="round" stroke-miterlimit="10" fill="#FFCB37"/></g><g><text fill="#E5E7EB" font-family="Calibri,Calibri_MSFontService,sans-serif" font-weight="400" font-size="41" transform="matrix(1 0 0 1 4184.79 15459)"> $(200)</text></g><g><text fill="#E5E7EB" font-family="Calibri,Calibri_MSFontService,sans-serif" font-weight="400" font-size="41" transform="matrix(1 0 0 1 4184.79 15370)"> $(100)</text></g><g><text fill="#E5E7EB" font-family="Calibri,Calibri_MSFontService,sans-serif" font-weight="400" font-size="41" transform="matrix(1 0 0 1 4250.56 15282)"> $-</text></g><g><text fill="#E5E7EB" font-family="Calibri,Calibri_MSFontService,sans-serif" font-weight="400" font-size="41" transform="matrix(1 0 0 1 4200.49 15193)"> $100</text></g><g><text fill="#E5E7EB" font-family="Calibri,Calibri_MSFontService,sans-serif" font-weight="400" font-size="41" transform="matrix(1 0 0 1 4200.49 15105)"> $200</text></g><g><text fill="#E5E7EB" font-family="Calibri,Calibri_MSFontService,sans-serif" font-weight="400" font-size="41" transform="matrix(1 0 0 1 4200.49 15016)"> $300</text></g><g><text fill="#E5E7EB" font-family="Calibri,Calibri_MSFontService,sans-serif" font-weight="400" font-size="41" transform="matrix(1 0 0 1 4200.49 14928)"> $400</text></g><g><text fill="#E5E7EB" font-family="Calibri,Calibri_MSFontService,sans-serif" font-weight="400" font-size="41" transform="matrix(1 0 0 1 4200.49 14840)"> $500</text></g><g><text fill="#E5E7EB" font-family="Calibri,Calibri_MSFontService,sans-serif" font-weight="400" font-size="41" transform="matrix(1 0 0 1 4200.49 14751)"> $600</text></g><g><text fill="#E5E7EB" font-family="Calibri,Calibri_MSFontService,sans-serif" font-weight="400" font-size="41" transform="matrix(1 0 0 1 4200.49 14663)"> $700</text></g><g><text fill="#E5E7EB" font-family="Calibri,Calibri_MSFontService,sans-serif" font-weight="400" font-size="41" transform="matrix(1 0 0 1 4200.49 14574)"> $800</text></g><g><text fill="#E5E7EB" font-family="Calibri,Calibri_MSFontService,sans-serif" font-weight="400" font-size="41" transform="matrix(1 0 0 1 4330.56 15335)">0</text></g><g><text fill="#E5E7EB" font-family="Calibri,Calibri_MSFontService,sans-serif" font-weight="400" font-size="41" transform="matrix(1 0 0 1 4553.92 15335)">20</text></g><g><text fill="#E5E7EB" font-family="Calibri,Calibri_MSFontService,sans-serif" font-weight="400" font-size="41" transform="matrix(1 0 0 1 4787.73 15335)">40</text></g><g><text fill="#E5E7EB" font-family="Calibri,Calibri_MSFontService,sans-serif" font-weight="400" font-size="41" transform="matrix(1 0 0 1 5021.54 15335)">60</text></g><g><text fill="#E5E7EB" font-family="Calibri,Calibri_MSFontService,sans-serif" font-weight="400" font-size="41" transform="matrix(1 0 0 1 5255.35 15335)">80</text></g><g><text fill="#E5E7EB" font-family="Calibri,Calibri_MSFontService,sans-serif" font-weight="400" font-size="41" transform="matrix(1 0 0 1 5478.71 15335)">100</text></g><g><text fill="#E5E7EB" font-family="Calibri,Calibri_MSFontService,sans-serif" font-weight="400" font-size="41" transform="matrix(1 0 0 1 5712.52 15335)">120</text></g><g><text fill="#E5E7EB" font-family="Calibri,Calibri_MSFontService,sans-serif" font-weight="400" font-size="41" transform="matrix(1 0 0 1 5946.33 15335)">140</text></g><g><text fill="#E5E7EB" font-family="Calibri,Calibri_MSFontService,sans-serif" font-weight="400" font-size="64" transform="matrix(1 0 0 1 4611.38 14488)">Profit with 50$ Engaged on Each Entry</text></g><rect x="4155.5" y="14393.5" width="1904" height="1104" stroke="#D9D9D9" stroke-width="3.4375" stroke-linejoin="round" stroke-miterlimit="10" fill="none"/></g></svg>