<svg width="1081" height="1104" xmlns="http://www.w3.org/2000/svg" xmlns:xlink="http://www.w3.org/1999/xlink" xml:space="preserve" overflow="hidden"><defs><clipPath id="clip0"><rect x="3913" y="4032" width="1081" height="1104"/></clipPath></defs><g clip-path="url(#clip0)" transform="translate(-3913 -4032)"><g><path d="M4453.18 4257.52C4637.17 4257.52 4786.33 4406.67 4786.33 4590.67 4786.33 4774.66 4637.17 4923.82 4453.18 4923.82 4269.19 4923.82 4120.03 4774.66 4120.03 4590.67 4120.03 4487.9 4167.46 4390.89 4248.56 4327.76L4299.71 4393.49C4190.81 4478.25 4171.24 4635.24 4256 4744.14 4340.76 4853.03 4497.75 4872.6 4606.65 4787.84 4715.55 4703.08 4735.11 4546.1 4650.36 4437.2 4603.02 4376.38 4530.25 4340.8 4453.18 4340.8Z" stroke="#FFFFFF" stroke-width="6.875" stroke-linejoin="round" stroke-miterlimit="10" fill="#FFCB37" fill-rule="evenodd"/></g><g><path d="M4248.56 4327.76C4307.05 4282.24 4379.06 4257.52 4453.18 4257.52L4453.18 4340.8C4397.59 4340.8 4343.58 4359.34 4299.71 4393.49Z" stroke="#FFFFFF" stroke-width="6.875" stroke-linejoin="round" stroke-miterlimit="10" fill="#4ADE80" fill-rule="evenodd"/></g><g><path d="M4547.5 4866.5 4610.65 4926.5 4631.5 4926.5" stroke="#A6A6A6" stroke-width="3.4375" stroke-linejoin="round" stroke-miterlimit="10" fill="none"/></g><g><path d="M4358.5 4314.5 4355.64 4240.5 4335.5 4240.5" stroke="#A6A6A6" stroke-width="3.4375" stroke-linejoin="round" stroke-miterlimit="10" fill="none"/></g><g><text fill="#FFCB37" font-family="Calibri,Calibri_MSFontService,sans-serif" font-weight="400" font-size="41" transform="matrix(1 0 0 1 4645.4 4940)">89%</text></g><g><text fill="#4ADE80" font-family="Calibri,Calibri_MSFontService,sans-serif" font-weight="400" font-size="41" transform="matrix(1 0 0 1 4250.02 4254)">11%</text></g><g><text fill="#E5E7EB" font-family="Calibri,Calibri_MSFontService,sans-serif" font-weight="400" font-size="64" transform="matrix(1 0 0 1 4320.35 4633)">WIN RATE</text></g><g><rect x="4311.5" y="5056.5" width="22" height="23" stroke="#FFFFFF" stroke-width="6.875" stroke-linejoin="round" stroke-miterlimit="10" fill="#FFCB37"/></g><g><text fill="#E5E7EB" font-family="Calibri,Calibri_MSFontService,sans-serif" font-weight="400" font-size="41" transform="matrix(1 0 0 1 4343.59 5079)">PROFIT</text></g><g><rect x="4496.5" y="5056.5" width="23" height="23" stroke="#FFFFFF" stroke-width="6.875" stroke-linejoin="round" stroke-miterlimit="10" fill="#4ADE80"/></g><g><text fill="#E5E7EB" font-family="Calibri,Calibri_MSFontService,sans-serif" font-weight="400" font-size="41" transform="matrix(1 0 0 1 4528.95 5079)">LOSS</text></g><rect x="3914.5" y="4033.5" width="1078" height="1101" stroke="#D9D9D9" stroke-width="3.4375" stroke-linejoin="round" stroke-miterlimit="10" fill="none"/></g></svg>