<svg width="1045" height="1100" xmlns="http://www.w3.org/2000/svg" xmlns:xlink="http://www.w3.org/1999/xlink" xml:space="preserve" overflow="hidden"><defs><clipPath id="clip0"><rect x="5137" y="4040" width="1045" height="1100"/></clipPath></defs><g clip-path="url(#clip0)" transform="translate(-5137 -4040)"><g><path d="M5669.72 4261.79C5856.89 4261.79 6008.62 4413.52 6008.62 4600.69 6008.62 4787.86 5856.89 4939.59 5669.72 4939.59 5482.55 4939.59 5330.82 4787.86 5330.82 4600.69 5330.82 4534.85 5350 4470.44 5386.01 4415.33L5456.94 4461.67C5380.16 4579.19 5413.18 4736.69 5530.7 4813.47 5648.22 4890.25 5805.73 4857.23 5882.51 4739.71 5959.29 4622.19 5926.26 4464.68 5808.74 4387.9 5767.41 4360.89 5719.1 4346.51 5669.72 4346.51Z" stroke="#FFFFFF" stroke-width="6.875" stroke-linejoin="round" stroke-miterlimit="10" fill="#4ADE80" fill-rule="evenodd"/></g><g><path d="M5386.01 4415.32C5448.59 4319.53 5555.29 4261.78 5669.72 4261.78L5669.72 4346.51C5583.9 4346.51 5503.87 4389.82 5456.94 4461.67Z" stroke="#FFFFFF" stroke-width="6.875" stroke-linejoin="round" stroke-miterlimit="10" fill="#FFCB37" fill-rule="evenodd"/></g><g><path d="M5810.5 4861.5 5873.69 5046.5 5894.5 5046.5" stroke="#A6A6A6" stroke-width="3.4375" stroke-linejoin="round" stroke-miterlimit="10" fill="none"/></g><g><path d="M5528.5 4339.5 5365.68 4279.5 5344.5 4279.5" stroke="#A6A6A6" stroke-width="3.4375" stroke-linejoin="round" stroke-miterlimit="10" fill="none"/></g><g><text fill="#4ADE80" font-family="Calibri,Calibri_MSFontService,sans-serif" font-weight="700" font-size="41" transform="matrix(1 0 0 1 5907.87 5060)">84%</text></g><g><text fill="#FFCB37" font-family="Calibri,Calibri_MSFontService,sans-serif" font-weight="700" font-size="41" transform="matrix(1 0 0 1 5259.27 4294)">16%</text></g><g><text fill="#FFCB37" font-family="Calibri,Calibri_MSFontService,sans-serif" font-weight="700" font-size="64" transform="matrix(1 0 0 1 5502.83 4617)">Short</text></g><g><text fill="#E5E7EB" font-family="Calibri,Calibri_MSFontService,sans-serif" font-weight="700" font-size="64" transform="matrix(1 0 0 1 5661.64 4617)">&amp;</text></g><g><text fill="#4ADE80" font-family="Calibri,Calibri_MSFontService,sans-serif" font-weight="700" font-size="64" transform="matrix(1 0 0 1 5721.36 4617)">Long</text></g><rect x="5138.5" y="4041.5" width="1042" height="1097" stroke="#D9D9D9" stroke-width="3.4375" stroke-linejoin="round" stroke-miterlimit="10" fill="none"/></g></svg>