<svg width="2059" height="1352" xmlns="http://www.w3.org/2000/svg" xmlns:xlink="http://www.w3.org/1999/xlink" xml:space="preserve" overflow="hidden"><defs><clipPath id="clip0"><rect x="3910" y="6482" width="353" height="52"/></clipPath><clipPath id="clip1"><rect x="3742" y="6361" width="646" height="52"/></clipPath></defs><g transform="translate(-3994 -5262)"><rect x="3994.5" y="5262.5" width="2058" height="1350" fill="#000000" fill-opacity="0"/><rect x="3994.5" y="5262.5" width="2058" height="1350" stroke="#D9D9D9" stroke-width="3.4375" stroke-miterlimit="2" fill="none"/><g><path d="M4141.5 6386.5 6022.5 6386.5" stroke="#D9D9D9" stroke-width="3.4375" stroke-miterlimit="2" fill="none"/><path d="M4141.5 6265.5 6022.5 6265.5" stroke="#D9D9D9" stroke-width="3.4375" stroke-miterlimit="2" fill="none"/><path d="M4141.5 6144.5 6022.5 6144.5" stroke="#D9D9D9" stroke-width="3.4375" stroke-miterlimit="2" fill="none"/><path d="M4141.5 6023.5 6022.5 6023.5" stroke="#D9D9D9" stroke-width="3.4375" stroke-miterlimit="2" fill="none"/><path d="M4141.5 5902.5 6022.5 5902.5" stroke="#D9D9D9" stroke-width="3.4375" stroke-miterlimit="2" fill="none"/><path d="M4141.5 5781.5 6022.5 5781.5" stroke="#D9D9D9" stroke-width="3.4375" stroke-miterlimit="2" fill="none"/><path d="M4141.5 5660.5 6022.5 5660.5" stroke="#D9D9D9" stroke-width="3.4375" stroke-miterlimit="2" fill="none"/><path d="M4141.5 5539.5 6022.5 5539.5" stroke="#D9D9D9" stroke-width="3.4375" stroke-miterlimit="2" fill="none"/><rect x="4159" y="6413" width="65" height="94" fill="#4ADE80"/><rect x="4258" y="6413" width="65" height="53" fill="#FFCB37"/><rect x="4357" y="6402" width="65" height="64" fill="#4ADE80"/><rect x="4456" y="6330" width="65" height="71" fill="#4ADE80"/><rect x="4555" y="6239" width="65" height="90" fill="#4ADE80"/><rect x="4654" y="6133" width="65" height="105" fill="#4ADE80"/><rect x="4753" y="6107" width="65" height="25" fill="#4ADE80"/><rect x="4852" y="6094" width="65" height="12" fill="#4ADE80"/><rect x="4951" y="5958" width="65" height="135" fill="#4ADE80"/><rect x="5050" y="5933" width="65" height="24" fill="#4ADE80"/><rect x="5149" y="5915" width="65" height="17" fill="#4ADE80"/><rect x="5248" y="5847" width="65" height="67" fill="#4ADE80"/><rect x="5347" y="5713" width="65" height="133" fill="#4ADE80"/><rect x="5446" y="5692" width="65" height="20" fill="#4ADE80"/><rect x="5545" y="5631" width="65" height="60" fill="#4ADE80"/><rect x="5644" y="5619" width="65" height="11" fill="#4ADE80"/><rect x="5743" y="5619" width="65" height="49" fill="#FFCB37"/><rect x="5842" y="5609" width="65" height="59" fill="#4ADE80"/><rect x="5941" y="5590" width="65" height="18" fill="#4ADE80"/><path d="M4224.5 6412.5 4257.5 6412.5" stroke="#D9D9D9" stroke-width="3.4375" stroke-miterlimit="2" fill="none"/><path d="M4323.5 6466.5 4356.5 6466.5" stroke="#D9D9D9" stroke-width="3.4375" stroke-miterlimit="2" fill="none"/><path d="M4422.5 6401.5 4455.5 6401.5" stroke="#D9D9D9" stroke-width="3.4375" stroke-miterlimit="2" fill="none"/><path d="M4521.5 6329.5 4554.5 6329.5" stroke="#D9D9D9" stroke-width="3.4375" stroke-miterlimit="2" fill="none"/><path d="M4620.5 6238.5 4653.5 6238.5" stroke="#D9D9D9" stroke-width="3.4375" stroke-miterlimit="2" fill="none"/><path d="M4719.5 6132.5 4752.5 6132.5" stroke="#D9D9D9" stroke-width="3.4375" stroke-miterlimit="2" fill="none"/><path d="M4818.5 6106.5 4851.5 6106.5" stroke="#D9D9D9" stroke-width="3.4375" stroke-miterlimit="2" fill="none"/><path d="M4917.5 6093.5 4950.5 6093.5" stroke="#D9D9D9" stroke-width="3.4375" stroke-miterlimit="2" fill="none"/><path d="M5016.5 5957.5 5049.5 5957.5" stroke="#D9D9D9" stroke-width="3.4375" stroke-miterlimit="2" fill="none"/><path d="M5115.5 5932.5 5148.5 5932.5" stroke="#D9D9D9" stroke-width="3.4375" stroke-miterlimit="2" fill="none"/><path d="M5214.5 5914.5 5247.5 5914.5" stroke="#D9D9D9" stroke-width="3.4375" stroke-miterlimit="2" fill="none"/><path d="M5313.5 5846.5 5346.5 5846.5" stroke="#D9D9D9" stroke-width="3.4375" stroke-miterlimit="2" fill="none"/><path d="M5412.5 5712.5 5445.5 5712.5" stroke="#D9D9D9" stroke-width="3.4375" stroke-miterlimit="2" fill="none"/><path d="M5511.5 5691.5 5544.5 5691.5" stroke="#D9D9D9" stroke-width="3.4375" stroke-miterlimit="2" fill="none"/><path d="M5610.5 5630.5 5643.5 5630.5" stroke="#D9D9D9" stroke-width="3.4375" stroke-miterlimit="2" fill="none"/><path d="M5709.5 5618.5 5742.5 5618.5" stroke="#D9D9D9" stroke-width="3.4375" stroke-miterlimit="2" fill="none"/><path d="M5808.5 5668.5 5841.5 5668.5" stroke="#D9D9D9" stroke-width="3.4375" stroke-miterlimit="2" fill="none"/><path d="M5907.5 5608.5 5940.5 5608.5" stroke="#D9D9D9" stroke-width="3.4375" stroke-miterlimit="2" fill="none"/></g><path d="M4141.5 6507.5 6022.5 6507.5" stroke="#D9D9D9" stroke-width="3.4375" stroke-linejoin="round" stroke-miterlimit="10" fill="none"/><g><text fill="#E5E7EB" font-family="Calibri,Calibri_MSFontService,sans-serif" font-weight="400" font-size="41" transform="translate(4180.62 6577)">1</text></g><g><text fill="#E5E7EB" font-family="Calibri,Calibri_MSFontService,sans-serif" font-weight="400" font-size="41" transform="translate(4279.62 6577)">2</text></g><g><text fill="#E5E7EB" font-family="Calibri,Calibri_MSFontService,sans-serif" font-weight="400" font-size="41" transform="translate(4378.63 6577)">3</text></g><g><text fill="#E5E7EB" font-family="Calibri,Calibri_MSFontService,sans-serif" font-weight="400" font-size="41" transform="translate(4477.63 6577)">4</text></g><g><text fill="#E5E7EB" font-family="Calibri,Calibri_MSFontService,sans-serif" font-weight="400" font-size="41" transform="translate(4576.64 6577)">5</text></g><g><text fill="#E5E7EB" font-family="Calibri,Calibri_MSFontService,sans-serif" font-weight="400" font-size="41" transform="translate(4675.64 6577)">6</text></g><g><text fill="#E5E7EB" font-family="Calibri,Calibri_MSFontService,sans-serif" font-weight="400" font-size="41" transform="translate(4774.65 6577)">7</text></g><g><text fill="#E5E7EB" font-family="Calibri,Calibri_MSFontService,sans-serif" font-weight="400" font-size="41" transform="translate(4873.65 6577)">8</text></g><g><text fill="#E5E7EB" font-family="Calibri,Calibri_MSFontService,sans-serif" font-weight="400" font-size="41" transform="translate(4972.65 6577)">9</text></g><g><text fill="#E5E7EB" font-family="Calibri,Calibri_MSFontService,sans-serif" font-weight="400" font-size="41" transform="translate(5061.21 6577)">10</text></g><g><text fill="#E5E7EB" font-family="Calibri,Calibri_MSFontService,sans-serif" font-weight="400" font-size="41" transform="translate(5160.21 6577)">11</text></g><g><text fill="#E5E7EB" font-family="Calibri,Calibri_MSFontService,sans-serif" font-weight="400" font-size="41" transform="translate(5259.22 6577)">12</text></g><g><text fill="#E5E7EB" font-family="Calibri,Calibri_MSFontService,sans-serif" font-weight="400" font-size="41" transform="translate(5358.22 6577)">13</text></g><g><text fill="#E5E7EB" font-family="Calibri,Calibri_MSFontService,sans-serif" font-weight="400" font-size="41" transform="translate(5457.23 6577)">14</text></g><g><text fill="#E5E7EB" font-family="Calibri,Calibri_MSFontService,sans-serif" font-weight="400" font-size="41" transform="translate(5556.23 6577)">15</text></g><g><text fill="#E5E7EB" font-family="Calibri,Calibri_MSFontService,sans-serif" font-weight="400" font-size="41" transform="translate(5655.24 6577)">16</text></g><g><text fill="#E5E7EB" font-family="Calibri,Calibri_MSFontService,sans-serif" font-weight="400" font-size="41" transform="translate(5754.24 6577)">17</text></g><g><text fill="#E5E7EB" font-family="Calibri,Calibri_MSFontService,sans-serif" font-weight="400" font-size="41" transform="translate(5853.24 6577)">18</text></g><g><text fill="#E5E7EB" font-family="Calibri,Calibri_MSFontService,sans-serif" font-weight="400" font-size="41" transform="translate(5952.25 6577)">19</text></g><path d="M4141.5 6507.5 4141.5 5539.5" stroke="#D9D9D9" stroke-width="3.4375" stroke-miterlimit="2" fill="none"/><g clip-path="url(#clip0)"><text fill="#E5E7EB" font-family="Calibri,Calibri_MSFontService,sans-serif" font-weight="400" font-size="41" transform="translate(4061.22 6521)">0%</text></g><g clip-path="url(#clip1)"><text fill="#E5E7EB" font-family="Calibri,Calibri_MSFontService,sans-serif" font-weight="400" font-size="41" transform="translate(4019.21 6400)">100%</text></g><g><text fill="#E5E7EB" font-family="Calibri,Calibri_MSFontService,sans-serif" font-weight="400" font-size="41" transform="translate(4019.21 6280)">200%</text></g><g><text fill="#E5E7EB" font-family="Calibri,Calibri_MSFontService,sans-serif" font-weight="400" font-size="41" transform="translate(4019.21 6159)">300%</text></g><g><text fill="#E5E7EB" font-family="Calibri,Calibri_MSFontService,sans-serif" font-weight="400" font-size="41" transform="translate(4019.21 6038)">400%</text></g><g><text fill="#E5E7EB" font-family="Calibri,Calibri_MSFontService,sans-serif" font-weight="400" font-size="41" transform="translate(4019.21 5917)">500%</text></g><g><text fill="#E5E7EB" font-family="Calibri,Calibri_MSFontService,sans-serif" font-weight="400" font-size="41" transform="translate(4019.21 5796)">600%</text></g><g><text fill="#E5E7EB" font-family="Calibri,Calibri_MSFontService,sans-serif" font-weight="400" font-size="41" transform="translate(4019.21 5675)">700%</text></g><g><text fill="#E5E7EB" font-family="Calibri,Calibri_MSFontService,sans-serif" font-weight="400" font-size="41" transform="translate(4019.21 5554)">800%</text></g><g><text fill="#E5E7EB" font-family="Calibri,Calibri_MSFontService,sans-serif" font-weight="400" font-size="64" transform="translate(4716.14 5348)">SIGNALS GROSS PROFIT </text></g><rect x="4733" y="5424" width="32" height="32" fill="#4ADE80"/><g><text fill="#E5E7EB" font-family="Calibri,Calibri_MSFontService,sans-serif" font-weight="400" font-size="41" transform="translate(4782.36 5454)">Increase</text></g><rect x="4957" y="5424" width="32" height="32" fill="#FFCB37"/><g><text fill="#E5E7EB" font-family="Calibri,Calibri_MSFontService,sans-serif" font-weight="400" font-size="41" transform="translate(5007.21 5454)">Decrease</text></g><rect x="5196" y="5424" width="32" height="32" fill="#A5A5A5"/><g><text fill="#E5E7EB" font-family="Calibri,Calibri_MSFontService,sans-serif" font-weight="400" font-size="41" transform="translate(5245.59 5454)">Total</text></g><path d="M3994 5263 6052.56 5263 6052.56 6613.94 3994 6613.94Z" fill="#000000" fill-rule="evenodd" fill-opacity="0"/></g></svg>