<svg width="1875" height="1107" xmlns="http://www.w3.org/2000/svg" xmlns:xlink="http://www.w3.org/1999/xlink" xml:space="preserve" overflow="hidden"><defs><clipPath id="clip0"><rect x="4151" y="6761" width="1875" height="1107"/></clipPath></defs><g clip-path="url(#clip0)" transform="translate(-4151 -6761)"><g><path d="M4322.5 7815.5 5952.5 7815.5M4322.5 7668.75 5952.5 7668.75M4322.5 7520.75 5952.5 7520.75M4322.5 7373.74 5952.5 7373.74M4322.5 7226.74 5952.5 7226.74M4322.5 7078.73 5952.5 7078.73M4322.5 6931.5 5952.5 6931.5" stroke="#D9D9D9" stroke-width="3.4375" stroke-linejoin="round" stroke-miterlimit="10" fill="none"/></g><g><path d="M4485.65 6931.5 4485.65 7815.5M4648.65 6931.5 4648.65 7815.5M4811.66 6931.5 4811.66 7815.5M4974.66 6931.5 4974.66 7815.5M5137.67 6931.5 5137.67 7815.5M5300.67 6931.5 5300.67 7815.5M5463.68 6931.5 5463.68 7815.5M5626.68 6931.5 5626.68 7815.5M5789.69 6931.5 5789.69 7815.5M5952.5 6931.5 5952.5 7815.5" stroke="#D9D9D9" stroke-width="3.4375" stroke-linejoin="round" stroke-miterlimit="10" fill="none"/></g><g><path d="M0 0 0.000360892 884" stroke="#BFBFBF" stroke-width="3.4375" stroke-linejoin="round" stroke-miterlimit="10" fill="none" fill-rule="evenodd" transform="matrix(1 0 0 -1 4322.5 7815.5)"/></g><g><path d="M4322.5 7742.5 5952.5 7742.5" stroke="#BFBFBF" stroke-width="3.4375" stroke-linejoin="round" stroke-miterlimit="10" fill="none" fill-rule="evenodd"/></g><g><path d="M4404.5 7683.75 4485.65 7749.5 4566.65 7670.75 4648.65 7583.75 4729.66 7527.75 4811.66 7462.75 4892.66 7446.74 4974.66 7439.74 5055.67 7273.74 5137.67 7258.74 5218.67 7247.74 5300.67 7205.74 5381.68 7124.73 5463.68 7111.73 5544.68 7074.73 5626.68 7067.73 5707.69 7127.73 5789.69 7055.73 5870.5 7043.5" stroke="#FFCB37" stroke-width="6.875" stroke-linecap="round" stroke-linejoin="round" stroke-miterlimit="10" fill="none"/></g><g><path d="M4415.85 7683.06C4415.85 7689.14 4410.93 7694.06 4404.85 7694.06 4398.78 7694.06 4393.85 7689.14 4393.85 7683.06 4393.85 7676.99 4398.78 7672.06 4404.85 7672.06 4410.93 7672.06 4415.85 7676.99 4415.85 7683.06Z" stroke="#FFCB37" stroke-width="3.4375" stroke-linejoin="round" stroke-miterlimit="10" fill="#FFCB37"/><path d="M4496.85 7749.06C4496.85 7755.14 4491.93 7760.06 4485.85 7760.06 4479.78 7760.06 4474.85 7755.14 4474.85 7749.06 4474.85 7742.99 4479.78 7738.06 4485.85 7738.06 4491.93 7738.06 4496.85 7742.99 4496.85 7749.06Z" stroke="#FFCB37" stroke-width="3.4375" stroke-linejoin="round" stroke-miterlimit="10" fill="#FFCB37"/><path d="M4578.85 7671.06C4578.85 7677.14 4573.93 7682.06 4567.85 7682.06 4561.78 7682.06 4556.85 7677.14 4556.85 7671.06 4556.85 7664.99 4561.78 7660.06 4567.85 7660.06 4573.93 7660.06 4578.85 7664.99 4578.85 7671.06Z" stroke="#FFCB37" stroke-width="3.4375" stroke-linejoin="round" stroke-miterlimit="10" fill="#FFCB37"/><path d="M4659.85 7583.06C4659.85 7589.14 4654.93 7594.06 4648.85 7594.06 4642.78 7594.06 4637.85 7589.14 4637.85 7583.06 4637.85 7576.99 4642.78 7572.06 4648.85 7572.06 4654.93 7572.06 4659.85 7576.99 4659.85 7583.06Z" stroke="#FFCB37" stroke-width="3.4375" stroke-linejoin="round" stroke-miterlimit="10" fill="#FFCB37"/><path d="M4741.85 7527.06C4741.85 7533.14 4736.93 7538.06 4730.85 7538.06 4724.78 7538.06 4719.85 7533.14 4719.85 7527.06 4719.85 7520.99 4724.78 7516.06 4730.85 7516.06 4736.93 7516.06 4741.85 7520.99 4741.85 7527.06Z" stroke="#FFCB37" stroke-width="3.4375" stroke-linejoin="round" stroke-miterlimit="10" fill="#FFCB37"/><path d="M4822.85 7463.06C4822.85 7469.14 4817.93 7474.06 4811.85 7474.06 4805.78 7474.06 4800.85 7469.14 4800.85 7463.06 4800.85 7456.99 4805.78 7452.06 4811.85 7452.06 4817.93 7452.06 4822.85 7456.99 4822.85 7463.06Z" stroke="#FFCB37" stroke-width="3.4375" stroke-linejoin="round" stroke-miterlimit="10" fill="#FFCB37"/><path d="M4904.85 7447.06C4904.85 7453.14 4899.93 7458.06 4893.85 7458.06 4887.78 7458.06 4882.85 7453.14 4882.85 7447.06 4882.85 7440.99 4887.78 7436.06 4893.85 7436.06 4899.93 7436.06 4904.85 7440.99 4904.85 7447.06Z" stroke="#FFCB37" stroke-width="3.4375" stroke-linejoin="round" stroke-miterlimit="10" fill="#FFCB37"/><path d="M4985.85 7439.06C4985.85 7445.14 4980.93 7450.06 4974.85 7450.06 4968.78 7450.06 4963.85 7445.14 4963.85 7439.06 4963.85 7432.99 4968.78 7428.06 4974.85 7428.06 4980.93 7428.06 4985.85 7432.99 4985.85 7439.06Z" stroke="#FFCB37" stroke-width="3.4375" stroke-linejoin="round" stroke-miterlimit="10" fill="#FFCB37"/><path d="M5067.85 7273.06C5067.85 7279.14 5062.93 7284.06 5056.85 7284.06 5050.78 7284.06 5045.85 7279.14 5045.85 7273.06 5045.85 7266.99 5050.78 7262.06 5056.85 7262.06 5062.93 7262.06 5067.85 7266.99 5067.85 7273.06Z" stroke="#FFCB37" stroke-width="3.4375" stroke-linejoin="round" stroke-miterlimit="10" fill="#FFCB37"/><path d="M5148.85 7258.06C5148.85 7264.14 5143.93 7269.06 5137.85 7269.06 5131.78 7269.06 5126.85 7264.14 5126.85 7258.06 5126.85 7251.99 5131.78 7247.06 5137.85 7247.06 5143.93 7247.06 5148.85 7251.99 5148.85 7258.06Z" stroke="#FFCB37" stroke-width="3.4375" stroke-linejoin="round" stroke-miterlimit="10" fill="#FFCB37"/><path d="M5230.85 7247.06C5230.85 7253.14 5225.93 7258.06 5219.85 7258.06 5213.78 7258.06 5208.85 7253.14 5208.85 7247.06 5208.85 7240.99 5213.78 7236.06 5219.85 7236.06 5225.93 7236.06 5230.85 7240.99 5230.85 7247.06Z" stroke="#FFCB37" stroke-width="3.4375" stroke-linejoin="round" stroke-miterlimit="10" fill="#FFCB37"/><path d="M5311.85 7206.06C5311.85 7212.14 5306.93 7217.06 5300.85 7217.06 5294.78 7217.06 5289.85 7212.14 5289.85 7206.06 5289.85 7199.99 5294.78 7195.06 5300.85 7195.06 5306.93 7195.06 5311.85 7199.99 5311.85 7206.06Z" stroke="#FFCB37" stroke-width="3.4375" stroke-linejoin="round" stroke-miterlimit="10" fill="#FFCB37"/><path d="M5393.85 7124.06C5393.85 7130.14 5388.93 7135.06 5382.85 7135.06 5376.78 7135.06 5371.85 7130.14 5371.85 7124.06 5371.85 7117.99 5376.78 7113.06 5382.85 7113.06 5388.93 7113.06 5393.85 7117.99 5393.85 7124.06Z" stroke="#FFCB37" stroke-width="3.4375" stroke-linejoin="round" stroke-miterlimit="10" fill="#FFCB37"/><path d="M5474.85 7111.06C5474.85 7117.14 5469.93 7122.06 5463.85 7122.06 5457.78 7122.06 5452.85 7117.14 5452.85 7111.06 5452.85 7104.99 5457.78 7100.06 5463.85 7100.06 5469.93 7100.06 5474.85 7104.99 5474.85 7111.06Z" stroke="#FFCB37" stroke-width="3.4375" stroke-linejoin="round" stroke-miterlimit="10" fill="#FFCB37"/><path d="M5555.85 7074.06C5555.85 7080.14 5550.93 7085.06 5544.85 7085.06 5538.78 7085.06 5533.85 7080.14 5533.85 7074.06 5533.85 7067.99 5538.78 7063.06 5544.85 7063.06 5550.93 7063.06 5555.85 7067.99 5555.85 7074.06Z" stroke="#FFCB37" stroke-width="3.4375" stroke-linejoin="round" stroke-miterlimit="10" fill="#FFCB37"/><path d="M5637.85 7067.06C5637.85 7073.14 5632.93 7078.06 5626.85 7078.06 5620.78 7078.06 5615.85 7073.14 5615.85 7067.06 5615.85 7060.99 5620.78 7056.06 5626.85 7056.06 5632.93 7056.06 5637.85 7060.99 5637.85 7067.06Z" stroke="#FFCB37" stroke-width="3.4375" stroke-linejoin="round" stroke-miterlimit="10" fill="#FFCB37"/><path d="M5718.85 7127.06C5718.85 7133.14 5713.93 7138.06 5707.85 7138.06 5701.78 7138.06 5696.85 7133.14 5696.85 7127.06 5696.85 7120.99 5701.78 7116.06 5707.85 7116.06 5713.93 7116.06 5718.85 7120.99 5718.85 7127.06Z" stroke="#FFCB37" stroke-width="3.4375" stroke-linejoin="round" stroke-miterlimit="10" fill="#FFCB37"/><path d="M5800.85 7055.06C5800.85 7061.14 5795.93 7066.06 5789.85 7066.06 5783.78 7066.06 5778.85 7061.14 5778.85 7055.06 5778.85 7048.99 5783.78 7044.06 5789.85 7044.06 5795.93 7044.06 5800.85 7048.99 5800.85 7055.06Z" stroke="#FFCB37" stroke-width="3.4375" stroke-linejoin="round" stroke-miterlimit="10" fill="#FFCB37"/><path d="M5881.85 7043.06C5881.85 7049.14 5876.93 7054.06 5870.85 7054.06 5864.78 7054.06 5859.85 7049.14 5859.85 7043.06 5859.85 7036.99 5864.78 7032.06 5870.85 7032.06 5876.93 7032.06 5881.85 7036.99 5881.85 7043.06Z" stroke="#FFCB37" stroke-width="3.4375" stroke-linejoin="round" stroke-miterlimit="10" fill="#FFCB37"/></g><g><text fill="#E5E7EB" font-family="Calibri,Calibri_MSFontService,sans-serif" font-weight="400" font-size="41" transform="matrix(1 0 0 1 4187.35 7827)"> $(50)</text></g><g><text fill="#E5E7EB" font-family="Calibri,Calibri_MSFontService,sans-serif" font-weight="400" font-size="41" transform="matrix(1 0 0 1 4203.04 7680)"> $50</text></g><g><text fill="#E5E7EB" font-family="Calibri,Calibri_MSFontService,sans-serif" font-weight="400" font-size="41" transform="matrix(1 0 0 1 4182.15 7533)"> $150</text></g><g><text fill="#E5E7EB" font-family="Calibri,Calibri_MSFontService,sans-serif" font-weight="400" font-size="41" transform="matrix(1 0 0 1 4182.15 7385)"> $250</text></g><g><text fill="#E5E7EB" font-family="Calibri,Calibri_MSFontService,sans-serif" font-weight="400" font-size="41" transform="matrix(1 0 0 1 4182.15 7238)"> $350</text></g><g><text fill="#E5E7EB" font-family="Calibri,Calibri_MSFontService,sans-serif" font-weight="400" font-size="41" transform="matrix(1 0 0 1 4182.15 7090)"> $450</text></g><g><text fill="#E5E7EB" font-family="Calibri,Calibri_MSFontService,sans-serif" font-weight="400" font-size="41" transform="matrix(1 0 0 1 4182.15 6943)"> $550</text></g><g><text fill="#E5E7EB" font-family="Calibri,Calibri_MSFontService,sans-serif" font-weight="400" font-size="41" transform="matrix(1 0 0 1 4312.22 7807)">0</text></g><g><text fill="#E5E7EB" font-family="Calibri,Calibri_MSFontService,sans-serif" font-weight="400" font-size="41" transform="matrix(1 0 0 1 4475.19 7807)">2</text></g><g><text fill="#E5E7EB" font-family="Calibri,Calibri_MSFontService,sans-serif" font-weight="400" font-size="41" transform="matrix(1 0 0 1 4638.17 7807)">4</text></g><g><text fill="#E5E7EB" font-family="Calibri,Calibri_MSFontService,sans-serif" font-weight="400" font-size="41" transform="matrix(1 0 0 1 4801.15 7807)">6</text></g><g><text fill="#E5E7EB" font-family="Calibri,Calibri_MSFontService,sans-serif" font-weight="400" font-size="41" transform="matrix(1 0 0 1 4964.12 7807)">8</text></g><g><text fill="#E5E7EB" font-family="Calibri,Calibri_MSFontService,sans-serif" font-weight="400" font-size="41" transform="matrix(1 0 0 1 5116.65 7807)">10</text></g><g><text fill="#E5E7EB" font-family="Calibri,Calibri_MSFontService,sans-serif" font-weight="400" font-size="41" transform="matrix(1 0 0 1 5279.62 7807)">12</text></g><g><text fill="#E5E7EB" font-family="Calibri,Calibri_MSFontService,sans-serif" font-weight="400" font-size="41" transform="matrix(1 0 0 1 5442.6 7807)">14</text></g><g><text fill="#E5E7EB" font-family="Calibri,Calibri_MSFontService,sans-serif" font-weight="400" font-size="41" transform="matrix(1 0 0 1 5605.58 7807)">16</text></g><g><text fill="#E5E7EB" font-family="Calibri,Calibri_MSFontService,sans-serif" font-weight="400" font-size="41" transform="matrix(1 0 0 1 5768.55 7807)">18</text></g><g><text fill="#E5E7EB" font-family="Calibri,Calibri_MSFontService,sans-serif" font-weight="400" font-size="41" transform="matrix(1 0 0 1 5931.53 7807)">20</text></g><g><text fill="#E5E7EB" font-family="Calibri,Calibri_MSFontService,sans-serif" font-weight="400" font-size="64" transform="matrix(1 0 0 1 4591.08 6857)">Profit with 50$ Engaged on each entry</text></g><rect x="4152.5" y="6762.5" width="1872" height="1104" stroke="#D9D9D9" stroke-width="3.4375" stroke-linejoin="round" stroke-miterlimit="10" fill="none"/></g></svg>