<svg width="1085" height="1104" xmlns="http://www.w3.org/2000/svg" xmlns:xlink="http://www.w3.org/1999/xlink" xml:space="preserve" overflow="hidden"><defs><clipPath id="clip0"><rect x="4223" y="4788" width="1085" height="1104"/></clipPath></defs><g clip-path="url(#clip0)" transform="translate(-4223 -4788)"><g><path d="M4765.18 5013.77C4949.18 5013.77 5098.33 5162.92 5098.33 5346.92 5098.33 5530.91 4949.18 5680.07 4765.18 5680.07 4581.19 5680.07 4432.03 5530.91 4432.03 5346.92 4432.03 5311.96 4437.54 5277.22 4448.34 5243.97L4527.55 5269.71C4484.91 5400.95 4556.73 5541.91 4687.97 5584.55 4819.21 5627.19 4960.17 5555.37 5002.82 5424.13 5045.46 5292.89 4973.64 5151.93 4842.4 5109.28 4817.46 5101.18 4791.4 5097.05 4765.18 5097.05Z" stroke="#FFFFFF" stroke-width="6.875" stroke-linejoin="round" stroke-miterlimit="10" fill="#4ADE80" fill-rule="evenodd"/></g><g><path d="M4448.34 5243.97C4492.94 5106.7 4620.85 5013.77 4765.18 5013.77L4765.18 5097.05C4656.94 5097.05 4561 5166.76 4527.55 5269.71Z" stroke="#FFFFFF" stroke-width="6.875" stroke-linejoin="round" stroke-miterlimit="10" fill="#FFCB37" fill-rule="evenodd"/></g><g><path d="M4936.5 5582.5 5000.66 5642.5 5020.5 5642.5" stroke="#A6A6A6" stroke-width="3.4375" stroke-linejoin="round" stroke-miterlimit="10" fill="none"/></g><g><path d="M4593.5 5111.5 4567.65 5055.5 4547.5 5055.5" stroke="#A6A6A6" stroke-width="3.4375" stroke-linejoin="round" stroke-miterlimit="10" fill="none"/></g><g><text fill="#4ADE80" font-family="Calibri,Calibri_MSFontService,sans-serif" font-weight="400" font-size="41" transform="matrix(1 0 0 1 5034.64 5657)">80%</text></g><g><text fill="#FFCB37" font-family="Calibri,Calibri_MSFontService,sans-serif" font-weight="400" font-size="41" transform="matrix(1 0 0 1 4462.02 5069)">20%</text></g><g><text fill="#E5E7EB" font-family="Calibri,Calibri_MSFontService,sans-serif" font-weight="400" font-size="64" transform="matrix(1 0 0 1 4640.78 5380)">WIN RATE</text></g><g><rect x="4623.5" y="5812.5" width="22" height="23" stroke="#FFFFFF" stroke-width="6.875" stroke-linejoin="round" stroke-miterlimit="10" fill="#4ADE80"/></g><g><text fill="#E5E7EB" font-family="Calibri,Calibri_MSFontService,sans-serif" font-weight="400" font-size="41" transform="matrix(1 0 0 1 4655.59 5836)">PROFIT</text></g><g><rect x="4808.5" y="5812.5" width="23" height="23" stroke="#FFFFFF" stroke-width="6.875" stroke-linejoin="round" stroke-miterlimit="10" fill="#FFCB37"/></g><g><text fill="#E5E7EB" font-family="Calibri,Calibri_MSFontService,sans-serif" font-weight="400" font-size="41" transform="matrix(1 0 0 1 4840.96 5836)">LOSS</text></g><rect x="4224.5" y="4789.5" width="1082" height="1101" stroke="#D9D9D9" stroke-width="3.4375" stroke-linejoin="round" stroke-miterlimit="10" fill="none"/></g></svg>