<svg width="1051" height="1101" xmlns="http://www.w3.org/2000/svg" xmlns:xlink="http://www.w3.org/1999/xlink" xml:space="preserve" overflow="hidden"><defs><clipPath id="clip0"><rect x="5453" y="4796" width="1051" height="1101"/></clipPath></defs><g clip-path="url(#clip0)" transform="translate(-5453 -4796)"><g><path d="M5988.87 5015.93C6177.2 5015.93 6329.88 5168.6 6329.88 5356.94 6329.88 5545.27 6177.2 5697.94 5988.87 5697.94 5841.14 5697.94 5710.2 5602.82 5664.55 5462.31L5745.63 5435.97C5789.28 5570.31 5933.57 5643.82 6067.9 5600.17 6202.24 5556.52 6275.75 5412.24 6232.11 5277.9 6197.87 5172.53 6099.67 5101.18 5988.87 5101.18Z" stroke="#FFFFFF" stroke-width="6.875" stroke-linejoin="round" stroke-miterlimit="10" fill="#4ADE80" fill-rule="evenodd"/></g><g><path d="M5664.55 5462.31C5606.35 5283.2 5704.38 5090.82 5883.49 5032.62 5917.52 5021.56 5953.09 5015.93 5988.87 5015.93L5988.87 5101.18C5847.62 5101.18 5733.11 5215.69 5733.11 5356.94 5733.11 5383.77 5737.34 5410.44 5745.63 5435.97Z" stroke="#FFFFFF" stroke-width="6.875" stroke-linejoin="round" stroke-miterlimit="10" fill="#FFCB37" fill-rule="evenodd"/></g><g><path d="M6230.5 5532.5 6293.71 5717.5 6314.5 5717.5" stroke="#A6A6A6" stroke-width="3.4375" stroke-linejoin="round" stroke-miterlimit="10" fill="none"/></g><g><path d="M5747.5 5181.5 5582.68 5121.5 5562.5 5121.5" stroke="#A6A6A6" stroke-width="3.4375" stroke-linejoin="round" stroke-miterlimit="10" fill="none"/></g><g><text fill="#4472C4" font-family="Calibri,Calibri_MSFontService,sans-serif" font-weight="700" font-size="41" transform="matrix(1 0 0 1 6328.1 5731)">70%</text></g><g><text fill="#ED7D31" font-family="Calibri,Calibri_MSFontService,sans-serif" font-weight="700" font-size="41" transform="matrix(1 0 0 1 5476.71 5135)">30%</text></g><g><text fill="#FFCB37" font-family="Calibri,Calibri_MSFontService,sans-serif" font-weight="700" font-size="64" transform="matrix(1 0 0 1 5820.85 5373)">Short</text></g><g><text fill="#E5E7EB" font-family="Calibri,Calibri_MSFontService,sans-serif" font-weight="700" font-size="64" transform="matrix(1 0 0 1 5979.66 5373)">&amp;</text></g><g><text fill="#4ADE80" font-family="Calibri,Calibri_MSFontService,sans-serif" font-weight="700" font-size="64" transform="matrix(1 0 0 1 6039.38 5373)">Long</text></g><rect x="5454.5" y="4797.5" width="1048" height="1098" stroke="#D9D9D9" stroke-width="3.4375" stroke-linejoin="round" stroke-miterlimit="10" fill="none"/></g></svg>