<svg width="2072" height="1352" xmlns="http://www.w3.org/2000/svg" xmlns:xlink="http://www.w3.org/1999/xlink" xml:space="preserve" overflow="hidden"><defs><clipPath id="clip0"><rect x="4220" y="7238" width="353" height="52"/></clipPath><clipPath id="clip1"><rect x="4052" y="6685" width="646" height="52"/></clipPath></defs><g transform="translate(-4304 -6018)"><rect x="4304.5" y="6018.5" width="2071" height="1350" fill="#000000" fill-opacity="0"/><rect x="4304.5" y="6018.5" width="2071" height="1350" stroke="#D9D9D9" stroke-width="3.4375" stroke-miterlimit="2" fill="none"/><g><path d="M4451.5 7125.5 6345.5 7125.5" stroke="#D9D9D9" stroke-width="3.4375" stroke-miterlimit="2" fill="none"/><path d="M4451.5 6987.5 6345.5 6987.5" stroke="#D9D9D9" stroke-width="3.4375" stroke-miterlimit="2" fill="none"/><path d="M4451.5 6848.5 6345.5 6848.5" stroke="#D9D9D9" stroke-width="3.4375" stroke-miterlimit="2" fill="none"/><path d="M4451.5 6710.5 6345.5 6710.5" stroke="#D9D9D9" stroke-width="3.4375" stroke-miterlimit="2" fill="none"/><path d="M4451.5 6572.5 6345.5 6572.5" stroke="#D9D9D9" stroke-width="3.4375" stroke-miterlimit="2" fill="none"/><path d="M4451.5 6434.5 6345.5 6434.5" stroke="#D9D9D9" stroke-width="3.4375" stroke-miterlimit="2" fill="none"/><path d="M4451.5 6295.5 6345.5 6295.5" stroke="#D9D9D9" stroke-width="3.4375" stroke-miterlimit="2" fill="none"/><rect x="4463" y="7201" width="41" height="62" fill="#4ADE80"/><rect x="4526" y="7151" width="41" height="49" fill="#4ADE80"/><rect x="4589" y="7118" width="41" height="32" fill="#4ADE80"/><rect x="4652" y="7059" width="41" height="58" fill="#4ADE80"/><rect x="4715" y="7059" width="41" height="54" fill="#FFCB37"/><rect x="4778" y="7114" width="41" height="57" fill="#FFCB37"/><rect x="4841" y="7103" width="41" height="68" fill="#4ADE80"/><rect x="4904" y="7045" width="42" height="57" fill="#4ADE80"/><rect x="4968" y="7007" width="41" height="37" fill="#4ADE80"/><rect x="5031" y="6973" width="41" height="33" fill="#4ADE80"/><rect x="5094" y="6837" width="41" height="135" fill="#4ADE80"/><rect x="5157" y="6803" width="41" height="33" fill="#4ADE80"/><rect x="5220" y="6803" width="41" height="56" fill="#FFCB37"/><rect x="5283" y="6814" width="41" height="45" fill="#4ADE80"/><rect x="5346" y="6730" width="41" height="83" fill="#4ADE80"/><rect x="5409" y="6691" width="41" height="38" fill="#4ADE80"/><rect x="5473" y="6691" width="41" height="35" fill="#FFCB37"/><rect x="5536" y="6684" width="41" height="42" fill="#4ADE80"/><rect x="5599" y="6657" width="41" height="26" fill="#4ADE80"/><rect x="5662" y="6612" width="41" height="44" fill="#4ADE80"/><rect x="5725" y="6569" width="41" height="42" fill="#4ADE80"/><rect x="5788" y="6558" width="41" height="10" fill="#4ADE80"/><rect x="5851" y="6499" width="41" height="58" fill="#4ADE80"/><rect x="5914" y="6465" width="41" height="33" fill="#4ADE80"/><rect x="5977" y="6465" width="42" height="58" fill="#FFCB37"/><rect x="6041" y="6524" width="41" height="30" fill="#FFCB37"/><rect x="6104" y="6500" width="41" height="54" fill="#4ADE80"/><rect x="6167" y="6447" width="41" height="52" fill="#4ADE80"/><rect x="6230" y="6420" width="41" height="26" fill="#4ADE80"/><rect x="6293" y="6391" width="41" height="28" fill="#4ADE80"/><path d="M4504.5 7200.5 4525.5 7200.5" stroke="#D9D9D9" stroke-width="3.4375" stroke-miterlimit="2" fill="none"/><path d="M4567.5 7150.5 4588.5 7150.5" stroke="#D9D9D9" stroke-width="3.4375" stroke-miterlimit="2" fill="none"/><path d="M4630.5 7117.5 4651.5 7117.5" stroke="#D9D9D9" stroke-width="3.4375" stroke-miterlimit="2" fill="none"/><path d="M4693.5 7058.5 4714.5 7058.5" stroke="#D9D9D9" stroke-width="3.4375" stroke-miterlimit="2" fill="none"/><path d="M4756.5 7113.5 4777.5 7113.5" stroke="#D9D9D9" stroke-width="3.4375" stroke-miterlimit="2" fill="none"/><path d="M4819.5 7171.5 4840.5 7171.5" stroke="#D9D9D9" stroke-width="3.4375" stroke-miterlimit="2" fill="none"/><path d="M4882.5 7102.5 4903.5 7102.5" stroke="#D9D9D9" stroke-width="3.4375" stroke-miterlimit="2" fill="none"/><path d="M4946.5 7044.5 4967.5 7044.5" stroke="#D9D9D9" stroke-width="3.4375" stroke-miterlimit="2" fill="none"/><path d="M5009.5 7006.5 5030.5 7006.5" stroke="#D9D9D9" stroke-width="3.4375" stroke-miterlimit="2" fill="none"/><path d="M5072.5 6972.5 5093.5 6972.5" stroke="#D9D9D9" stroke-width="3.4375" stroke-miterlimit="2" fill="none"/><path d="M5135.5 6836.5 5156.5 6836.5" stroke="#D9D9D9" stroke-width="3.4375" stroke-miterlimit="2" fill="none"/><path d="M5198.5 6802.5 5219.5 6802.5" stroke="#D9D9D9" stroke-width="3.4375" stroke-miterlimit="2" fill="none"/><path d="M5261.5 6859.5 5282.5 6859.5" stroke="#D9D9D9" stroke-width="3.4375" stroke-miterlimit="2" fill="none"/><path d="M5324.5 6813.5 5345.5 6813.5" stroke="#D9D9D9" stroke-width="3.4375" stroke-miterlimit="2" fill="none"/><path d="M5387.5 6729.5 5408.5 6729.5" stroke="#D9D9D9" stroke-width="3.4375" stroke-miterlimit="2" fill="none"/><path d="M5450.5 6690.5 5472.5 6690.5" stroke="#D9D9D9" stroke-width="3.4375" stroke-miterlimit="2" fill="none"/><path d="M5514.5 6726.5 5535.5 6726.5" stroke="#D9D9D9" stroke-width="3.4375" stroke-miterlimit="2" fill="none"/><path d="M5577.5 6683.5 5598.5 6683.5" stroke="#D9D9D9" stroke-width="3.4375" stroke-miterlimit="2" fill="none"/><path d="M5640.5 6656.5 5661.5 6656.5" stroke="#D9D9D9" stroke-width="3.4375" stroke-miterlimit="2" fill="none"/><path d="M5703.5 6611.5 5724.5 6611.5" stroke="#D9D9D9" stroke-width="3.4375" stroke-miterlimit="2" fill="none"/><path d="M5766.5 6568.5 5787.5 6568.5" stroke="#D9D9D9" stroke-width="3.4375" stroke-miterlimit="2" fill="none"/><path d="M5829.5 6557.5 5850.5 6557.5" stroke="#D9D9D9" stroke-width="3.4375" stroke-miterlimit="2" fill="none"/><path d="M5892.5 6498.5 5913.5 6498.5" stroke="#D9D9D9" stroke-width="3.4375" stroke-miterlimit="2" fill="none"/><path d="M5955.5 6464.5 5976.5 6464.5" stroke="#D9D9D9" stroke-width="3.4375" stroke-miterlimit="2" fill="none"/><path d="M6019.5 6523.5 6040.5 6523.5" stroke="#D9D9D9" stroke-width="3.4375" stroke-miterlimit="2" fill="none"/><path d="M6082.5 6554.5 6103.5 6554.5" stroke="#D9D9D9" stroke-width="3.4375" stroke-miterlimit="2" fill="none"/><path d="M6145.5 6499.5 6166.5 6499.5" stroke="#D9D9D9" stroke-width="3.4375" stroke-miterlimit="2" fill="none"/><path d="M6208.5 6446.5 6229.5 6446.5" stroke="#D9D9D9" stroke-width="3.4375" stroke-miterlimit="2" fill="none"/><path d="M6271.5 6419.5 6292.5 6419.5" stroke="#D9D9D9" stroke-width="3.4375" stroke-miterlimit="2" fill="none"/></g><path d="M4451.5 7263.5 6345.5 7263.5" stroke="#D9D9D9" stroke-width="3.4375" stroke-miterlimit="2" fill="none"/><g><text fill="#E5E7EB" font-family="Calibri,Calibri_MSFontService,sans-serif" font-weight="400" font-size="41" transform="translate(4472.68 7333)">1</text></g><g><text fill="#E5E7EB" font-family="Calibri,Calibri_MSFontService,sans-serif" font-weight="400" font-size="41" transform="translate(4535.8 7333)">2</text></g><g><text fill="#E5E7EB" font-family="Calibri,Calibri_MSFontService,sans-serif" font-weight="400" font-size="41" transform="translate(4598.92 7333)">3</text></g><g><text fill="#E5E7EB" font-family="Calibri,Calibri_MSFontService,sans-serif" font-weight="400" font-size="41" transform="translate(4662.04 7333)">4</text></g><g><text fill="#E5E7EB" font-family="Calibri,Calibri_MSFontService,sans-serif" font-weight="400" font-size="41" transform="translate(4725.16 7333)">5</text></g><g><text fill="#E5E7EB" font-family="Calibri,Calibri_MSFontService,sans-serif" font-weight="400" font-size="41" transform="translate(4788.28 7333)">6</text></g><g><text fill="#E5E7EB" font-family="Calibri,Calibri_MSFontService,sans-serif" font-weight="400" font-size="41" transform="translate(4851.4 7333)">7</text></g><g><text fill="#E5E7EB" font-family="Calibri,Calibri_MSFontService,sans-serif" font-weight="400" font-size="41" transform="translate(4914.52 7333)">8</text></g><g><text fill="#E5E7EB" font-family="Calibri,Calibri_MSFontService,sans-serif" font-weight="400" font-size="41" transform="translate(4977.64 7333)">9</text></g><g><text fill="#E5E7EB" font-family="Calibri,Calibri_MSFontService,sans-serif" font-weight="400" font-size="41" transform="translate(5030.31 7333)">10</text></g><g><text fill="#E5E7EB" font-family="Calibri,Calibri_MSFontService,sans-serif" font-weight="400" font-size="41" transform="translate(5093.43 7333)">11</text></g><g><text fill="#E5E7EB" font-family="Calibri,Calibri_MSFontService,sans-serif" font-weight="400" font-size="41" transform="translate(5156.55 7333)">12</text></g><g><text fill="#E5E7EB" font-family="Calibri,Calibri_MSFontService,sans-serif" font-weight="400" font-size="41" transform="translate(5219.67 7333)">13</text></g><g><text fill="#E5E7EB" font-family="Calibri,Calibri_MSFontService,sans-serif" font-weight="400" font-size="41" transform="translate(5282.8 7333)">14</text></g><g><text fill="#E5E7EB" font-family="Calibri,Calibri_MSFontService,sans-serif" font-weight="400" font-size="41" transform="translate(5345.92 7333)">15</text></g><g><text fill="#E5E7EB" font-family="Calibri,Calibri_MSFontService,sans-serif" font-weight="400" font-size="41" transform="translate(5409.04 7333)">16</text></g><g><text fill="#E5E7EB" font-family="Calibri,Calibri_MSFontService,sans-serif" font-weight="400" font-size="41" transform="translate(5472.16 7333)">17</text></g><g><text fill="#E5E7EB" font-family="Calibri,Calibri_MSFontService,sans-serif" font-weight="400" font-size="41" transform="translate(5535.28 7333)">18</text></g><g><text fill="#E5E7EB" font-family="Calibri,Calibri_MSFontService,sans-serif" font-weight="400" font-size="41" transform="translate(5598.4 7333)">19</text></g><g><text fill="#E5E7EB" font-family="Calibri,Calibri_MSFontService,sans-serif" font-weight="400" font-size="41" transform="translate(5661.52 7333)">20</text></g><g><text fill="#E5E7EB" font-family="Calibri,Calibri_MSFontService,sans-serif" font-weight="400" font-size="41" transform="translate(5724.64 7333)">21</text></g><g><text fill="#E5E7EB" font-family="Calibri,Calibri_MSFontService,sans-serif" font-weight="400" font-size="41" transform="translate(5787.76 7333)">22</text></g><g><text fill="#E5E7EB" font-family="Calibri,Calibri_MSFontService,sans-serif" font-weight="400" font-size="41" transform="translate(5850.88 7333)">23</text></g><g><text fill="#E5E7EB" font-family="Calibri,Calibri_MSFontService,sans-serif" font-weight="400" font-size="41" transform="translate(5914 7333)">24</text></g><g><text fill="#E5E7EB" font-family="Calibri,Calibri_MSFontService,sans-serif" font-weight="400" font-size="41" transform="translate(5977.12 7333)">25</text></g><g><text fill="#E5E7EB" font-family="Calibri,Calibri_MSFontService,sans-serif" font-weight="400" font-size="41" transform="translate(6040.24 7333)">26</text></g><g><text fill="#E5E7EB" font-family="Calibri,Calibri_MSFontService,sans-serif" font-weight="400" font-size="41" transform="translate(6103.37 7333)">27</text></g><g><text fill="#E5E7EB" font-family="Calibri,Calibri_MSFontService,sans-serif" font-weight="400" font-size="41" transform="translate(6166.49 7333)">28</text></g><g><text fill="#E5E7EB" font-family="Calibri,Calibri_MSFontService,sans-serif" font-weight="400" font-size="41" transform="translate(6229.61 7333)">29</text></g><g><text fill="#E5E7EB" font-family="Calibri,Calibri_MSFontService,sans-serif" font-weight="400" font-size="41" transform="translate(6292.73 7333)">30</text></g><path d="M4451.5 7263.5 4451.5 6295.5" stroke="#D9D9D9" stroke-width="3.4375" stroke-miterlimit="2" fill="none"/><g clip-path="url(#clip0)"><text fill="#E5E7EB" font-family="Calibri,Calibri_MSFontService,sans-serif" font-weight="400" font-size="41" transform="translate(4371.22 7277)">0%</text></g><g><text fill="#E5E7EB" font-family="Calibri,Calibri_MSFontService,sans-serif" font-weight="400" font-size="41" transform="translate(4329.21 7139)">100%</text></g><g><text fill="#E5E7EB" font-family="Calibri,Calibri_MSFontService,sans-serif" font-weight="400" font-size="41" transform="translate(4329.21 7001)">200%</text></g><g><text fill="#E5E7EB" font-family="Calibri,Calibri_MSFontService,sans-serif" font-weight="400" font-size="41" transform="translate(4329.21 6863)">300%</text></g><g clip-path="url(#clip1)"><text fill="#E5E7EB" font-family="Calibri,Calibri_MSFontService,sans-serif" font-weight="400" font-size="41" transform="translate(4329.21 6724)">400%</text></g><g><text fill="#E5E7EB" font-family="Calibri,Calibri_MSFontService,sans-serif" font-weight="400" font-size="41" transform="translate(4329.21 6586)">500%</text></g><g><text fill="#E5E7EB" font-family="Calibri,Calibri_MSFontService,sans-serif" font-weight="400" font-size="41" transform="translate(4329.21 6448)">600%</text></g><g><text fill="#E5E7EB" font-family="Calibri,Calibri_MSFontService,sans-serif" font-weight="400" font-size="41" transform="translate(4329.21 6310)">700%</text></g><g><text fill="#E5E7EB" font-family="Calibri,Calibri_MSFontService,sans-serif" font-weight="400" font-size="64" transform="translate(5032.41 6104)">SIGNALS GROSS PROFIT </text></g><rect x="5008" y="6139" width="663" height="114" fill="#000000" fill-opacity="0"/><rect x="5049" y="6180" width="32" height="32" fill="#4ADE80"/><g><text fill="#E5E7EB" font-family="Calibri,Calibri_MSFontService,sans-serif" font-weight="400" font-size="41" transform="translate(5098.63 6210)">Increase</text></g><rect x="5274" y="6180" width="32" height="32" fill="#FFCB37"/><g><text fill="#E5E7EB" font-family="Calibri,Calibri_MSFontService,sans-serif" font-weight="400" font-size="41" transform="translate(5323.48 6210)">Decrease</text></g><rect x="5512" y="6180" width="32" height="32" fill="#A5A5A5"/><g><text fill="#E5E7EB" font-family="Calibri,Calibri_MSFontService,sans-serif" font-weight="400" font-size="41" transform="translate(5561.86 6210)">Total</text></g><path d="M4304 6019 6375.09 6019 6375.09 7369.94 4304 7369.94Z" fill="#000000" fill-rule="evenodd" fill-opacity="0"/></g></svg>