<svg width="1889" height="1107" xmlns="http://www.w3.org/2000/svg" xmlns:xlink="http://www.w3.org/1999/xlink" xml:space="preserve" overflow="hidden"><defs><clipPath id="clip0"><rect x="4459" y="7517" width="1889" height="1107"/></clipPath></defs><g clip-path="url(#clip0)" transform="translate(-4459 -7517)"><g><path d="M4630.5 8397.78 6274.5 8397.78M4630.5 8279.77 6274.5 8279.77M4630.5 8160.77 6274.5 8160.77M4630.5 8042.76 6274.5 8042.76M4630.5 7924.76 6274.5 7924.76M4630.5 7805.76 6274.5 7805.76M4630.5 7687.5 6274.5 7687.5" stroke="#D9D9D9" stroke-width="3.4375" stroke-linejoin="round" stroke-miterlimit="10" fill="none"/></g><g><path d="M4865.66 7687.5 4865.66 8516.5M5100.67 7687.5 5100.67 8516.5M5334.67 7687.5 5334.67 8516.5M5569.68 7687.5 5569.68 8516.5M5804.69 7687.5 5804.69 8516.5M6039.7 7687.5 6039.7 8516.5M6274.5 7687.5 6274.5 8516.5" stroke="#D9D9D9" stroke-width="3.4375" stroke-linejoin="round" stroke-miterlimit="10" fill="none"/></g><g><path d="M0 0 0.000360892 829" stroke="#BFBFBF" stroke-width="3.4375" stroke-linejoin="round" stroke-miterlimit="10" fill="none" fill-rule="evenodd" transform="matrix(1 0 0 -1 4630.5 8516.5)"/></g><g><path d="M4630.5 8516.5 6274.5 8516.5" stroke="#BFBFBF" stroke-width="3.4375" stroke-linejoin="round" stroke-miterlimit="10" fill="none" fill-rule="evenodd"/></g><g><path d="M4677.5 8406.78 4724.66 8364.77 4771.66 8335.77 4818.66 8235.77 4865.66 8330.77 4912.66 8428.5 4959.66 8369.77 5006.66 8320.77 5053.67 8287.77 5100.67 8258.77 5147.67 8141.77 5194.67 8112.77 5241.67 8211.77 5287.67 8171.77 5334.68 8099.77 5381.68 8066.76 5428.68 8127.77 5475.68 8090.77 5522.68 8067.76 5569.68 8028.76 5616.68 7956.76 5663.69 7946.76 5710.69 7845.76 5757.69 7816.76 5804.69 7917.76 5851.69 7970.76 5898.69 7923.76 5945.7 7878.76 5992.7 7832.76 6039.5 7807.5" stroke="#FFCB37" stroke-width="6.875" stroke-linecap="round" stroke-linejoin="round" stroke-miterlimit="10" fill="none"/></g><g><path d="M4688.61 8407.31C4688.61 8413.39 4683.69 8418.31 4677.61 8418.31 4671.54 8418.31 4666.61 8413.39 4666.61 8407.31 4666.61 8401.24 4671.54 8396.31 4677.61 8396.31 4683.69 8396.31 4688.61 8401.24 4688.61 8407.31Z" stroke="#FFCB37" stroke-width="3.4375" stroke-linejoin="round" stroke-miterlimit="10" fill="#FFCB37"/><path d="M4735.61 8364.31C4735.61 8370.39 4730.69 8375.31 4724.61 8375.31 4718.54 8375.31 4713.61 8370.39 4713.61 8364.31 4713.61 8358.24 4718.54 8353.31 4724.61 8353.31 4730.69 8353.31 4735.61 8358.24 4735.61 8364.31Z" stroke="#FFCB37" stroke-width="3.4375" stroke-linejoin="round" stroke-miterlimit="10" fill="#FFCB37"/><path d="M4782.61 8336.31C4782.61 8342.39 4777.69 8347.31 4771.61 8347.31 4765.54 8347.31 4760.61 8342.39 4760.61 8336.31 4760.61 8330.24 4765.54 8325.31 4771.61 8325.31 4777.69 8325.31 4782.61 8330.24 4782.61 8336.31Z" stroke="#FFCB37" stroke-width="3.4375" stroke-linejoin="round" stroke-miterlimit="10" fill="#FFCB37"/><path d="M4829.61 8235.31C4829.61 8241.39 4824.69 8246.31 4818.61 8246.31 4812.54 8246.31 4807.61 8241.39 4807.61 8235.31 4807.61 8229.24 4812.54 8224.31 4818.61 8224.31 4824.69 8224.31 4829.61 8229.24 4829.61 8235.31Z" stroke="#FFCB37" stroke-width="3.4375" stroke-linejoin="round" stroke-miterlimit="10" fill="#FFCB37"/><path d="M4876.61 8330.31C4876.61 8336.39 4871.69 8341.31 4865.61 8341.31 4859.54 8341.31 4854.61 8336.39 4854.61 8330.31 4854.61 8324.24 4859.54 8319.31 4865.61 8319.31 4871.69 8319.31 4876.61 8324.24 4876.61 8330.31Z" stroke="#FFCB37" stroke-width="3.4375" stroke-linejoin="round" stroke-miterlimit="10" fill="#FFCB37"/><path d="M4923.61 8428.31C4923.61 8434.39 4918.69 8439.31 4912.61 8439.31 4906.54 8439.31 4901.61 8434.39 4901.61 8428.31 4901.61 8422.24 4906.54 8417.31 4912.61 8417.31 4918.69 8417.31 4923.61 8422.24 4923.61 8428.31Z" stroke="#FFCB37" stroke-width="3.4375" stroke-linejoin="round" stroke-miterlimit="10" fill="#FFCB37"/><path d="M4970.61 8370.31C4970.61 8376.39 4965.69 8381.31 4959.61 8381.31 4953.54 8381.31 4948.61 8376.39 4948.61 8370.31 4948.61 8364.24 4953.54 8359.31 4959.61 8359.31 4965.69 8359.31 4970.61 8364.24 4970.61 8370.31Z" stroke="#FFCB37" stroke-width="3.4375" stroke-linejoin="round" stroke-miterlimit="10" fill="#FFCB37"/><path d="M5017.61 8320.31C5017.61 8326.39 5012.69 8331.31 5006.61 8331.31 5000.54 8331.31 4995.61 8326.39 4995.61 8320.31 4995.61 8314.24 5000.54 8309.31 5006.61 8309.31 5012.69 8309.31 5017.61 8314.24 5017.61 8320.31Z" stroke="#FFCB37" stroke-width="3.4375" stroke-linejoin="round" stroke-miterlimit="10" fill="#FFCB37"/><path d="M5064.61 8287.31C5064.61 8293.39 5059.69 8298.31 5053.61 8298.31 5047.54 8298.31 5042.61 8293.39 5042.61 8287.31 5042.61 8281.24 5047.54 8276.31 5053.61 8276.31 5059.69 8276.31 5064.61 8281.24 5064.61 8287.31Z" stroke="#FFCB37" stroke-width="3.4375" stroke-linejoin="round" stroke-miterlimit="10" fill="#FFCB37"/><path d="M5111.61 8258.31C5111.61 8264.39 5106.69 8269.31 5100.61 8269.31 5094.54 8269.31 5089.61 8264.39 5089.61 8258.31 5089.61 8252.24 5094.54 8247.31 5100.61 8247.31 5106.69 8247.31 5111.61 8252.24 5111.61 8258.31Z" stroke="#FFCB37" stroke-width="3.4375" stroke-linejoin="round" stroke-miterlimit="10" fill="#FFCB37"/><path d="M5158.61 8142.31C5158.61 8148.39 5153.69 8153.31 5147.61 8153.31 5141.54 8153.31 5136.61 8148.39 5136.61 8142.31 5136.61 8136.24 5141.54 8131.31 5147.61 8131.31 5153.69 8131.31 5158.61 8136.24 5158.61 8142.31Z" stroke="#FFCB37" stroke-width="3.4375" stroke-linejoin="round" stroke-miterlimit="10" fill="#FFCB37"/><path d="M5205.61 8112.31C5205.61 8118.39 5200.69 8123.31 5194.61 8123.31 5188.54 8123.31 5183.61 8118.39 5183.61 8112.31 5183.61 8106.24 5188.54 8101.31 5194.61 8101.31 5200.69 8101.31 5205.61 8106.24 5205.61 8112.31Z" stroke="#FFCB37" stroke-width="3.4375" stroke-linejoin="round" stroke-miterlimit="10" fill="#FFCB37"/><path d="M5252.61 8211.31C5252.61 8217.39 5247.69 8222.31 5241.61 8222.31 5235.54 8222.31 5230.61 8217.39 5230.61 8211.31 5230.61 8205.24 5235.54 8200.31 5241.61 8200.31 5247.69 8200.31 5252.61 8205.24 5252.61 8211.31Z" stroke="#FFCB37" stroke-width="3.4375" stroke-linejoin="round" stroke-miterlimit="10" fill="#FFCB37"/><path d="M5299.61 8171.31C5299.61 8177.39 5294.69 8182.31 5288.61 8182.31 5282.54 8182.31 5277.61 8177.39 5277.61 8171.31 5277.61 8165.24 5282.54 8160.31 5288.61 8160.31 5294.69 8160.31 5299.61 8165.24 5299.61 8171.31Z" stroke="#FFCB37" stroke-width="3.4375" stroke-linejoin="round" stroke-miterlimit="10" fill="#FFCB37"/><path d="M5346.61 8100.31C5346.61 8106.39 5341.69 8111.31 5335.61 8111.31 5329.54 8111.31 5324.61 8106.39 5324.61 8100.31 5324.61 8094.24 5329.54 8089.31 5335.61 8089.31 5341.69 8089.31 5346.61 8094.24 5346.61 8100.31Z" stroke="#FFCB37" stroke-width="3.4375" stroke-linejoin="round" stroke-miterlimit="10" fill="#FFCB37"/><path d="M5393.61 8066.31C5393.61 8072.39 5388.69 8077.31 5382.61 8077.31 5376.54 8077.31 5371.61 8072.39 5371.61 8066.31 5371.61 8060.24 5376.54 8055.31 5382.61 8055.31 5388.69 8055.31 5393.61 8060.24 5393.61 8066.31Z" stroke="#FFCB37" stroke-width="3.4375" stroke-linejoin="round" stroke-miterlimit="10" fill="#FFCB37"/><path d="M5440.61 8127.31C5440.61 8133.39 5435.69 8138.31 5429.61 8138.31 5423.54 8138.31 5418.61 8133.39 5418.61 8127.31 5418.61 8121.24 5423.54 8116.31 5429.61 8116.31 5435.69 8116.31 5440.61 8121.24 5440.61 8127.31Z" stroke="#FFCB37" stroke-width="3.4375" stroke-linejoin="round" stroke-miterlimit="10" fill="#FFCB37"/><path d="M5487.61 8090.31C5487.61 8096.39 5482.69 8101.31 5476.61 8101.31 5470.54 8101.31 5465.61 8096.39 5465.61 8090.31 5465.61 8084.24 5470.54 8079.31 5476.61 8079.31 5482.69 8079.31 5487.61 8084.24 5487.61 8090.31Z" stroke="#FFCB37" stroke-width="3.4375" stroke-linejoin="round" stroke-miterlimit="10" fill="#FFCB37"/><path d="M5534.61 8067.31C5534.61 8073.39 5529.69 8078.31 5523.61 8078.31 5517.54 8078.31 5512.61 8073.39 5512.61 8067.31 5512.61 8061.24 5517.54 8056.31 5523.61 8056.31 5529.69 8056.31 5534.61 8061.24 5534.61 8067.31Z" stroke="#FFCB37" stroke-width="3.4375" stroke-linejoin="round" stroke-miterlimit="10" fill="#FFCB37"/><path d="M5581.61 8028.31C5581.61 8034.39 5576.69 8039.31 5570.61 8039.31 5564.54 8039.31 5559.61 8034.39 5559.61 8028.31 5559.61 8022.24 5564.54 8017.31 5570.61 8017.31 5576.69 8017.31 5581.61 8022.24 5581.61 8028.31Z" stroke="#FFCB37" stroke-width="3.4375" stroke-linejoin="round" stroke-miterlimit="10" fill="#FFCB37"/><path d="M5628.61 7956.31C5628.61 7962.39 5623.69 7967.31 5617.61 7967.31 5611.54 7967.31 5606.61 7962.39 5606.61 7956.31 5606.61 7950.24 5611.54 7945.31 5617.61 7945.31 5623.69 7945.31 5628.61 7950.24 5628.61 7956.31Z" stroke="#FFCB37" stroke-width="3.4375" stroke-linejoin="round" stroke-miterlimit="10" fill="#FFCB37"/><path d="M5674.61 7947.31C5674.61 7953.39 5669.69 7958.31 5663.61 7958.31 5657.54 7958.31 5652.61 7953.39 5652.61 7947.31 5652.61 7941.24 5657.54 7936.31 5663.61 7936.31 5669.69 7936.31 5674.61 7941.24 5674.61 7947.31Z" stroke="#FFCB37" stroke-width="3.4375" stroke-linejoin="round" stroke-miterlimit="10" fill="#FFCB37"/><path d="M5721.61 7845.31C5721.61 7851.39 5716.69 7856.31 5710.61 7856.31 5704.54 7856.31 5699.61 7851.39 5699.61 7845.31 5699.61 7839.24 5704.54 7834.31 5710.61 7834.31 5716.69 7834.31 5721.61 7839.24 5721.61 7845.31Z" stroke="#FFCB37" stroke-width="3.4375" stroke-linejoin="round" stroke-miterlimit="10" fill="#FFCB37"/><path d="M5768.61 7816.31C5768.61 7822.39 5763.69 7827.31 5757.61 7827.31 5751.54 7827.31 5746.61 7822.39 5746.61 7816.31 5746.61 7810.24 5751.54 7805.31 5757.61 7805.31 5763.69 7805.31 5768.61 7810.24 5768.61 7816.31Z" stroke="#FFCB37" stroke-width="3.4375" stroke-linejoin="round" stroke-miterlimit="10" fill="#FFCB37"/><path d="M5815.61 7917.31C5815.61 7923.39 5810.69 7928.31 5804.61 7928.31 5798.54 7928.31 5793.61 7923.39 5793.61 7917.31 5793.61 7911.24 5798.54 7906.31 5804.61 7906.31 5810.69 7906.31 5815.61 7911.24 5815.61 7917.31Z" stroke="#FFCB37" stroke-width="3.4375" stroke-linejoin="round" stroke-miterlimit="10" fill="#FFCB37"/><path d="M5862.61 7970.31C5862.61 7976.39 5857.69 7981.31 5851.61 7981.31 5845.54 7981.31 5840.61 7976.39 5840.61 7970.31 5840.61 7964.24 5845.54 7959.31 5851.61 7959.31 5857.69 7959.31 5862.61 7964.24 5862.61 7970.31Z" stroke="#FFCB37" stroke-width="3.4375" stroke-linejoin="round" stroke-miterlimit="10" fill="#FFCB37"/><path d="M5909.61 7923.31C5909.61 7929.39 5904.69 7934.31 5898.61 7934.31 5892.54 7934.31 5887.61 7929.39 5887.61 7923.31 5887.61 7917.24 5892.54 7912.31 5898.61 7912.31 5904.69 7912.31 5909.61 7917.24 5909.61 7923.31Z" stroke="#FFCB37" stroke-width="3.4375" stroke-linejoin="round" stroke-miterlimit="10" fill="#FFCB37"/><path d="M5956.61 7878.31C5956.61 7884.39 5951.69 7889.31 5945.61 7889.31 5939.54 7889.31 5934.61 7884.39 5934.61 7878.31 5934.61 7872.24 5939.54 7867.31 5945.61 7867.31 5951.69 7867.31 5956.61 7872.24 5956.61 7878.31Z" stroke="#FFCB37" stroke-width="3.4375" stroke-linejoin="round" stroke-miterlimit="10" fill="#FFCB37"/><path d="M6003.61 7832.31C6003.61 7838.39 5998.69 7843.31 5992.61 7843.31 5986.54 7843.31 5981.61 7838.39 5981.61 7832.31 5981.61 7826.24 5986.54 7821.31 5992.61 7821.31 5998.69 7821.31 6003.61 7826.24 6003.61 7832.31Z" stroke="#FFCB37" stroke-width="3.4375" stroke-linejoin="round" stroke-miterlimit="10" fill="#FFCB37"/><path d="M6050.61 7807.31C6050.61 7813.39 6045.69 7818.31 6039.61 7818.31 6033.54 7818.31 6028.61 7813.39 6028.61 7807.31 6028.61 7801.24 6033.54 7796.31 6039.61 7796.31 6045.69 7796.31 6050.61 7801.24 6050.61 7807.31Z" stroke="#FFCB37" stroke-width="3.4375" stroke-linejoin="round" stroke-miterlimit="10" fill="#FFCB37"/></g><g><text fill="#E5E7EB" font-family="Calibri,Calibri_MSFontService,sans-serif" font-weight="400" font-size="41" transform="matrix(1 0 0 1 4539.98 8528)"> $-</text></g><g><text fill="#E5E7EB" font-family="Calibri,Calibri_MSFontService,sans-serif" font-weight="400" font-size="41" transform="matrix(1 0 0 1 4510.8 8409)"> $50</text></g><g><text fill="#E5E7EB" font-family="Calibri,Calibri_MSFontService,sans-serif" font-weight="400" font-size="41" transform="matrix(1 0 0 1 4489.9 8291)"> $100</text></g><g><text fill="#E5E7EB" font-family="Calibri,Calibri_MSFontService,sans-serif" font-weight="400" font-size="41" transform="matrix(1 0 0 1 4489.9 8173)"> $150</text></g><g><text fill="#E5E7EB" font-family="Calibri,Calibri_MSFontService,sans-serif" font-weight="400" font-size="41" transform="matrix(1 0 0 1 4489.9 8054)"> $200</text></g><g><text fill="#E5E7EB" font-family="Calibri,Calibri_MSFontService,sans-serif" font-weight="400" font-size="41" transform="matrix(1 0 0 1 4489.9 7936)"> $250</text></g><g><text fill="#E5E7EB" font-family="Calibri,Calibri_MSFontService,sans-serif" font-weight="400" font-size="41" transform="matrix(1 0 0 1 4489.9 7818)"> $300</text></g><g><text fill="#E5E7EB" font-family="Calibri,Calibri_MSFontService,sans-serif" font-weight="400" font-size="41" transform="matrix(1 0 0 1 4489.9 7699)"> $350</text></g><g><text fill="#E5E7EB" font-family="Calibri,Calibri_MSFontService,sans-serif" font-weight="400" font-size="41" transform="matrix(1 0 0 1 4619.97 8581)">0</text></g><g><text fill="#E5E7EB" font-family="Calibri,Calibri_MSFontService,sans-serif" font-weight="400" font-size="41" transform="matrix(1 0 0 1 4854.88 8581)">5</text></g><g><text fill="#E5E7EB" font-family="Calibri,Calibri_MSFontService,sans-serif" font-weight="400" font-size="41" transform="matrix(1 0 0 1 5079.33 8581)">10</text></g><g><text fill="#E5E7EB" font-family="Calibri,Calibri_MSFontService,sans-serif" font-weight="400" font-size="41" transform="matrix(1 0 0 1 5314.23 8581)">15</text></g><g><text fill="#E5E7EB" font-family="Calibri,Calibri_MSFontService,sans-serif" font-weight="400" font-size="41" transform="matrix(1 0 0 1 5549.14 8581)">20</text></g><g><text fill="#E5E7EB" font-family="Calibri,Calibri_MSFontService,sans-serif" font-weight="400" font-size="41" transform="matrix(1 0 0 1 5784.04 8581)">25</text></g><g><text fill="#E5E7EB" font-family="Calibri,Calibri_MSFontService,sans-serif" font-weight="400" font-size="41" transform="matrix(1 0 0 1 6018.94 8581)">30</text></g><g><text fill="#E5E7EB" font-family="Calibri,Calibri_MSFontService,sans-serif" font-weight="400" font-size="41" transform="matrix(1 0 0 1 6253.85 8581)">35</text></g><g><text fill="#E5E7EB" font-family="Calibri,Calibri_MSFontService,sans-serif" font-weight="400" font-size="64" transform="matrix(1 0 0 1 4907.24 7613)">Profit with 50$ Engaged on Each Entry</text></g><rect x="4460.5" y="7518.5" width="1886" height="1104" stroke="#D9D9D9" stroke-width="3.4375" stroke-linejoin="round" stroke-miterlimit="10" fill="none"/></g></svg>