<svg width="1080" height="1104" xmlns="http://www.w3.org/2000/svg" xmlns:xlink="http://www.w3.org/1999/xlink" xml:space="preserve" overflow="hidden"><defs><clipPath id="clip0"><rect x="3345" y="4380" width="1080" height="1104"/></clipPath></defs><g clip-path="url(#clip0)" transform="translate(-3345 -4380)"><g><path d="M3884.38 4605.31C4068.37 4605.31 4217.52 4754.47 4217.52 4938.46 4217.52 5122.45 4068.37 5271.61 3884.38 5271.61 3785.08 5271.61 3690.97 5227.32 3627.68 5150.82L3691.85 5097.73C3779.81 5204.06 3937.32 5218.94 4043.64 5130.98 4149.97 5043.02 4164.86 4885.52 4076.9 4779.19 4029.43 4721.81 3958.84 4688.6 3884.38 4688.6Z" stroke="#FFFFFF" stroke-width="6.875" stroke-linejoin="round" stroke-miterlimit="10" fill="#4ADE80" fill-rule="evenodd"/></g><g><path d="M3627.68 5150.82C3510.4 5009.05 3530.25 4799.05 3672.02 4681.76 3731.75 4632.35 3806.85 4605.31 3884.38 4605.31L3884.38 4688.6C3746.38 4688.6 3634.51 4800.47 3634.51 4938.46 3634.51 4996.6 3654.79 5052.93 3691.85 5097.73Z" stroke="#FFFFFF" stroke-width="6.875" stroke-linejoin="round" stroke-miterlimit="10" fill="#FFCB37" fill-rule="evenodd"/></g><g><path d="M4148.5 5062.5 4211.64 5122.5 4231.5 5122.5" stroke="#A6A6A6" stroke-width="3.4375" stroke-linejoin="round" stroke-miterlimit="10" fill="none"/></g><g><path d="M3620.5 4814.5 3594.62 4758.5 3574.5 4758.5" stroke="#A6A6A6" stroke-width="3.4375" stroke-linejoin="round" stroke-miterlimit="10" fill="none"/></g><g><text fill="#4ADE80" font-family="Calibri,Calibri_MSFontService,sans-serif" font-weight="400" font-size="41" transform="matrix(1 0 0 1 4245.65 5137)">64%</text></g><g><text fill="#FFCB37" font-family="Calibri,Calibri_MSFontService,sans-serif" font-weight="400" font-size="41" transform="matrix(1 0 0 1 3489.23 4772)">36%</text></g><g><text fill="#E5E7EB" font-family="Calibri,Calibri_MSFontService,sans-serif" font-weight="400" font-size="64" transform="matrix(1 0 0 1 3747.03 4967)">WIN RATE</text></g><g><rect x="3742.5" y="5404.5" width="23" height="22" stroke="#FFFFFF" stroke-width="6.875" stroke-linejoin="round" stroke-miterlimit="10" fill="#4ADE80"/></g><g><text fill="#E5E7EB" font-family="Calibri,Calibri_MSFontService,sans-serif" font-weight="400" font-size="41" transform="matrix(1 0 0 1 3774.78 5427)">PROFIT</text></g><g><rect x="3927.5" y="5404.5" width="23" height="22" stroke="#FFFFFF" stroke-width="6.875" stroke-linejoin="round" stroke-miterlimit="10" fill="#FFCB37"/></g><g><text fill="#E5E7EB" font-family="Calibri,Calibri_MSFontService,sans-serif" font-weight="400" font-size="41" transform="matrix(1 0 0 1 3960.15 5427)">LOSS</text></g><rect x="3346.5" y="4381.5" width="1077" height="1101" stroke="#D9D9D9" stroke-width="3.4375" stroke-linejoin="round" stroke-miterlimit="10" fill="none"/></g></svg>