<svg width="976" height="906" xmlns="http://www.w3.org/2000/svg" xmlns:xlink="http://www.w3.org/1999/xlink" xml:space="preserve" overflow="hidden"><defs><clipPath id="clip0"><rect x="4910" y="4498" width="976" height="906"/></clipPath></defs><g clip-path="url(#clip0)" transform="translate(-4910 -4498)"><g><path d="M5407.35 4642.68C5582.21 4642.68 5723.96 4784.43 5723.96 4959.29 5723.96 5134.15 5582.21 5275.9 5407.35 5275.9 5232.49 5275.9 5090.74 5134.15 5090.74 4959.29 5090.74 4871.87 5126.89 4788.34 5190.62 4728.49L5244.8 4786.19C5149.2 4875.97 5144.48 5026.24 5234.25 5121.84 5324.03 5217.44 5474.3 5222.17 5569.9 5132.39 5665.5 5042.62 5670.22 4892.34 5580.45 4796.74 5535.56 4748.95 5472.92 4721.84 5407.35 4721.84Z" stroke="#FFFFFF" stroke-width="6.875" stroke-linejoin="round" stroke-miterlimit="10" fill="#4ADE80" fill-rule="evenodd"/></g><g><path d="M5190.62 4728.5C5249.32 4673.37 5326.82 4642.68 5407.35 4642.68L5407.35 4721.84C5346.95 4721.84 5288.83 4744.85 5244.8 4786.19Z" stroke="#FFFFFF" stroke-width="6.875" stroke-linejoin="round" stroke-miterlimit="10" fill="#FFCB37" fill-rule="evenodd"/></g><g><path d="M5509.5 5216.5 5563.68 5369.5 5583.5 5369.5" stroke="#A6A6A6" stroke-width="3.4375" stroke-linejoin="round" stroke-miterlimit="10" fill="none"/></g><g><path d="M5305.5 4701.5 5157.67 4652.5 5137.5 4652.5" stroke="#A6A6A6" stroke-width="3.4375" stroke-linejoin="round" stroke-miterlimit="10" fill="none"/></g><g><text fill="#4ADE80" font-family="Calibri,Calibri_MSFontService,sans-serif" font-weight="700" font-size="41" transform="matrix(1 0 0 1 5597.6 5383)">88%</text></g><g><text fill="#FFCB37" font-family="Calibri,Calibri_MSFontService,sans-serif" font-weight="700" font-size="41" transform="matrix(1 0 0 1 5051.4 4666)">12%</text></g><g><text fill="#FFCB37" font-family="Calibri,Calibri_MSFontService,sans-serif" font-weight="700" font-size="64" transform="matrix(1 0 0 1 5252.34 4985)">Short</text></g><g><text fill="#E5E7EB" font-family="Calibri,Calibri_MSFontService,sans-serif" font-weight="700" font-size="64" transform="matrix(1 0 0 1 5411.15 4985)">&amp;</text></g><g><text fill="#4ADE80" font-family="Calibri,Calibri_MSFontService,sans-serif" font-weight="700" font-size="64" transform="matrix(1 0 0 1 5470.87 4985)">Long</text></g><rect x="4911.5" y="4499.5" width="973" height="903" stroke="#D9D9D9" stroke-width="3.4375" stroke-linejoin="round" stroke-miterlimit="10" fill="none"/></g></svg>