<svg width="1921" height="1108" xmlns="http://www.w3.org/2000/svg" xmlns:xlink="http://www.w3.org/1999/xlink" xml:space="preserve" overflow="hidden"><defs><clipPath id="clip0"><rect x="3197" y="7192" width="1921" height="1108"/></clipPath></defs><g clip-path="url(#clip0)" transform="translate(-3197 -7192)"><g><path d="M3367.5 8247.5 5044.5 8247.5M3367.5 8025.76 5044.5 8025.76M3367.5 7915.76 5044.5 7915.76M3367.5 7804.76 5044.5 7804.76M3367.5 7694.75 5044.5 7694.75M3367.5 7583.75 5044.5 7583.75M3367.5 7473.75 5044.5 7473.75M3367.5 7362.5 5044.5 7362.5" stroke="#D9D9D9" stroke-width="3.4375" stroke-linejoin="round" stroke-miterlimit="10" fill="none"/></g><g><path d="M3703.62 7362.5 3703.62 8247.5M4038.63 7362.5 4038.63 8247.5M4373.64 7362.5 4373.64 8247.5M4709.65 7362.5 4709.65 8247.5M5044.5 7362.5 5044.5 8247.5" stroke="#D9D9D9" stroke-width="3.4375" stroke-linejoin="round" stroke-miterlimit="10" fill="none"/></g><g><path d="M0 0 0.000360892 885" stroke="#BFBFBF" stroke-width="3.4375" stroke-linejoin="round" stroke-miterlimit="10" fill="none" fill-rule="evenodd" transform="matrix(1 0 0 -1 3367.5 8247.5)"/></g><g><path d="M3367.5 8136.5 5044.5 8136.5" stroke="#BFBFBF" stroke-width="3.4375" stroke-linejoin="round" stroke-miterlimit="10" fill="none" fill-rule="evenodd"/></g><g><path d="M3435.5 8182.5 3501.62 8030.76 3569.62 7957.76 3636.62 7698.75 3703.62 7689.75 3770.62 7655.75 3837.63 7617.75 3904.63 7674.75 3971.63 7625.75 4038.63 7576.75 4105.63 7502.75 4172.64 7442.74 4239.64 7509.75 4306.64 7485.75 4373.64 7525.75 4441.65 7502.75 4508.65 7468.75 4575.65 7491.75 4642.65 7427.74 4709.65 7444.74 4776.66 7415.5 4843.66 7442.74 4910.66 7469.75 4977.66 7506.75 5044.5 7444.74" stroke="#FFCB37" stroke-width="6.875" stroke-linecap="round" stroke-linejoin="round" stroke-miterlimit="10" fill="none"/></g><g><path d="M3446.14 8182.47C3446.14 8188.54 3441.21 8193.47 3435.14 8193.47 3429.06 8193.47 3424.14 8188.54 3424.14 8182.47 3424.14 8176.39 3429.06 8171.47 3435.14 8171.47 3441.21 8171.47 3446.14 8176.39 3446.14 8182.47Z" stroke="#FFCB37" stroke-width="3.4375" stroke-linejoin="round" stroke-miterlimit="10" fill="#FFCB37"/><path d="M3513.14 8030.47C3513.14 8036.54 3508.21 8041.47 3502.14 8041.47 3496.06 8041.47 3491.14 8036.54 3491.14 8030.47 3491.14 8024.39 3496.06 8019.47 3502.14 8019.47 3508.21 8019.47 3513.14 8024.39 3513.14 8030.47Z" stroke="#FFCB37" stroke-width="3.4375" stroke-linejoin="round" stroke-miterlimit="10" fill="#FFCB37"/><path d="M3580.14 7957.47C3580.14 7963.54 3575.21 7968.47 3569.14 7968.47 3563.06 7968.47 3558.14 7963.54 3558.14 7957.47 3558.14 7951.39 3563.06 7946.47 3569.14 7946.47 3575.21 7946.47 3580.14 7951.39 3580.14 7957.47Z" stroke="#FFCB37" stroke-width="3.4375" stroke-linejoin="round" stroke-miterlimit="10" fill="#FFCB37"/><path d="M3647.14 7699.47C3647.14 7705.54 3642.21 7710.47 3636.14 7710.47 3630.06 7710.47 3625.14 7705.54 3625.14 7699.47 3625.14 7693.39 3630.06 7688.47 3636.14 7688.47 3642.21 7688.47 3647.14 7693.39 3647.14 7699.47Z" stroke="#FFCB37" stroke-width="3.4375" stroke-linejoin="round" stroke-miterlimit="10" fill="#FFCB37"/><path d="M3714.14 7689.47C3714.14 7695.54 3709.21 7700.47 3703.14 7700.47 3697.06 7700.47 3692.14 7695.54 3692.14 7689.47 3692.14 7683.39 3697.06 7678.47 3703.14 7678.47 3709.21 7678.47 3714.14 7683.39 3714.14 7689.47Z" stroke="#FFCB37" stroke-width="3.4375" stroke-linejoin="round" stroke-miterlimit="10" fill="#FFCB37"/><path d="M3781.14 7655.47C3781.14 7661.54 3776.21 7666.47 3770.14 7666.47 3764.06 7666.47 3759.14 7661.54 3759.14 7655.47 3759.14 7649.39 3764.06 7644.47 3770.14 7644.47 3776.21 7644.47 3781.14 7649.39 3781.14 7655.47Z" stroke="#FFCB37" stroke-width="3.4375" stroke-linejoin="round" stroke-miterlimit="10" fill="#FFCB37"/><path d="M3848.14 7617.47C3848.14 7623.54 3843.21 7628.47 3837.14 7628.47 3831.06 7628.47 3826.14 7623.54 3826.14 7617.47 3826.14 7611.39 3831.06 7606.47 3837.14 7606.47 3843.21 7606.47 3848.14 7611.39 3848.14 7617.47Z" stroke="#FFCB37" stroke-width="3.4375" stroke-linejoin="round" stroke-miterlimit="10" fill="#FFCB37"/><path d="M3915.14 7675.47C3915.14 7681.54 3910.21 7686.47 3904.14 7686.47 3898.06 7686.47 3893.14 7681.54 3893.14 7675.47 3893.14 7669.39 3898.06 7664.47 3904.14 7664.47 3910.21 7664.47 3915.14 7669.39 3915.14 7675.47Z" stroke="#FFCB37" stroke-width="3.4375" stroke-linejoin="round" stroke-miterlimit="10" fill="#FFCB37"/><path d="M3982.14 7625.47C3982.14 7631.54 3977.21 7636.47 3971.14 7636.47 3965.06 7636.47 3960.14 7631.54 3960.14 7625.47 3960.14 7619.39 3965.06 7614.47 3971.14 7614.47 3977.21 7614.47 3982.14 7619.39 3982.14 7625.47Z" stroke="#FFCB37" stroke-width="3.4375" stroke-linejoin="round" stroke-miterlimit="10" fill="#FFCB37"/><path d="M4049.14 7576.47C4049.14 7582.54 4044.21 7587.47 4038.14 7587.47 4032.06 7587.47 4027.14 7582.54 4027.14 7576.47 4027.14 7570.39 4032.06 7565.47 4038.14 7565.47 4044.21 7565.47 4049.14 7570.39 4049.14 7576.47Z" stroke="#FFCB37" stroke-width="3.4375" stroke-linejoin="round" stroke-miterlimit="10" fill="#FFCB37"/><path d="M4116.14 7503.47C4116.14 7509.54 4111.21 7514.47 4105.14 7514.47 4099.06 7514.47 4094.14 7509.54 4094.14 7503.47 4094.14 7497.39 4099.06 7492.47 4105.14 7492.47 4111.21 7492.47 4116.14 7497.39 4116.14 7503.47Z" stroke="#FFCB37" stroke-width="3.4375" stroke-linejoin="round" stroke-miterlimit="10" fill="#FFCB37"/><path d="M4183.14 7442.47C4183.14 7448.54 4178.21 7453.47 4172.14 7453.47 4166.06 7453.47 4161.14 7448.54 4161.14 7442.47 4161.14 7436.39 4166.06 7431.47 4172.14 7431.47 4178.21 7431.47 4183.14 7436.39 4183.14 7442.47Z" stroke="#FFCB37" stroke-width="3.4375" stroke-linejoin="round" stroke-miterlimit="10" fill="#FFCB37"/><path d="M4250.14 7509.47C4250.14 7515.54 4245.21 7520.47 4239.14 7520.47 4233.06 7520.47 4228.14 7515.54 4228.14 7509.47 4228.14 7503.39 4233.06 7498.47 4239.14 7498.47 4245.21 7498.47 4250.14 7503.39 4250.14 7509.47Z" stroke="#FFCB37" stroke-width="3.4375" stroke-linejoin="round" stroke-miterlimit="10" fill="#FFCB37"/><path d="M4318.14 7485.47C4318.14 7491.54 4313.21 7496.47 4307.14 7496.47 4301.06 7496.47 4296.14 7491.54 4296.14 7485.47 4296.14 7479.39 4301.06 7474.47 4307.14 7474.47 4313.21 7474.47 4318.14 7479.39 4318.14 7485.47Z" stroke="#FFCB37" stroke-width="3.4375" stroke-linejoin="round" stroke-miterlimit="10" fill="#FFCB37"/><path d="M4385.14 7525.47C4385.14 7531.54 4380.21 7536.47 4374.14 7536.47 4368.06 7536.47 4363.14 7531.54 4363.14 7525.47 4363.14 7519.39 4368.06 7514.47 4374.14 7514.47 4380.21 7514.47 4385.14 7519.39 4385.14 7525.47Z" stroke="#FFCB37" stroke-width="3.4375" stroke-linejoin="round" stroke-miterlimit="10" fill="#FFCB37"/><path d="M4452.14 7502.47C4452.14 7508.54 4447.21 7513.47 4441.14 7513.47 4435.06 7513.47 4430.14 7508.54 4430.14 7502.47 4430.14 7496.39 4435.06 7491.47 4441.14 7491.47 4447.21 7491.47 4452.14 7496.39 4452.14 7502.47Z" stroke="#FFCB37" stroke-width="3.4375" stroke-linejoin="round" stroke-miterlimit="10" fill="#FFCB37"/><path d="M4519.14 7468.47C4519.14 7474.54 4514.21 7479.47 4508.14 7479.47 4502.06 7479.47 4497.14 7474.54 4497.14 7468.47 4497.14 7462.39 4502.06 7457.47 4508.14 7457.47 4514.21 7457.47 4519.14 7462.39 4519.14 7468.47Z" stroke="#FFCB37" stroke-width="3.4375" stroke-linejoin="round" stroke-miterlimit="10" fill="#FFCB37"/><path d="M4586.14 7491.47C4586.14 7497.54 4581.21 7502.47 4575.14 7502.47 4569.06 7502.47 4564.14 7497.54 4564.14 7491.47 4564.14 7485.39 4569.06 7480.47 4575.14 7480.47 4581.21 7480.47 4586.14 7485.39 4586.14 7491.47Z" stroke="#FFCB37" stroke-width="3.4375" stroke-linejoin="round" stroke-miterlimit="10" fill="#FFCB37"/><path d="M4653.14 7427.47C4653.14 7433.54 4648.21 7438.47 4642.14 7438.47 4636.06 7438.47 4631.14 7433.54 4631.14 7427.47 4631.14 7421.39 4636.06 7416.47 4642.14 7416.47 4648.21 7416.47 4653.14 7421.39 4653.14 7427.47Z" stroke="#FFCB37" stroke-width="3.4375" stroke-linejoin="round" stroke-miterlimit="10" fill="#FFCB37"/><path d="M4720.14 7445.47C4720.14 7451.54 4715.21 7456.47 4709.14 7456.47 4703.06 7456.47 4698.14 7451.54 4698.14 7445.47 4698.14 7439.39 4703.06 7434.47 4709.14 7434.47 4715.21 7434.47 4720.14 7439.39 4720.14 7445.47Z" stroke="#FFCB37" stroke-width="3.4375" stroke-linejoin="round" stroke-miterlimit="10" fill="#FFCB37"/><path d="M4787.14 7415.47C4787.14 7421.54 4782.21 7426.47 4776.14 7426.47 4770.06 7426.47 4765.14 7421.54 4765.14 7415.47 4765.14 7409.39 4770.06 7404.47 4776.14 7404.47 4782.21 7404.47 4787.14 7409.39 4787.14 7415.47Z" stroke="#FFCB37" stroke-width="3.4375" stroke-linejoin="round" stroke-miterlimit="10" fill="#FFCB37"/><path d="M4854.14 7442.47C4854.14 7448.54 4849.21 7453.47 4843.14 7453.47 4837.06 7453.47 4832.14 7448.54 4832.14 7442.47 4832.14 7436.39 4837.06 7431.47 4843.14 7431.47 4849.21 7431.47 4854.14 7436.39 4854.14 7442.47Z" stroke="#FFCB37" stroke-width="3.4375" stroke-linejoin="round" stroke-miterlimit="10" fill="#FFCB37"/><path d="M4921.14 7470.47C4921.14 7476.54 4916.21 7481.47 4910.14 7481.47 4904.06 7481.47 4899.14 7476.54 4899.14 7470.47 4899.14 7464.39 4904.06 7459.47 4910.14 7459.47 4916.21 7459.47 4921.14 7464.39 4921.14 7470.47Z" stroke="#FFCB37" stroke-width="3.4375" stroke-linejoin="round" stroke-miterlimit="10" fill="#FFCB37"/><path d="M4988.14 7506.47C4988.14 7512.54 4983.21 7517.47 4977.14 7517.47 4971.06 7517.47 4966.14 7512.54 4966.14 7506.47 4966.14 7500.39 4971.06 7495.47 4977.14 7495.47 4983.21 7495.47 4988.14 7500.39 4988.14 7506.47Z" stroke="#FFCB37" stroke-width="3.4375" stroke-linejoin="round" stroke-miterlimit="10" fill="#FFCB37"/><path d="M5055.14 7445.47C5055.14 7451.54 5050.21 7456.47 5044.14 7456.47 5038.06 7456.47 5033.14 7451.54 5033.14 7445.47 5033.14 7439.39 5038.06 7434.47 5044.14 7434.47 5050.21 7434.47 5055.14 7439.39 5055.14 7445.47Z" stroke="#FFCB37" stroke-width="3.4375" stroke-linejoin="round" stroke-miterlimit="10" fill="#FFCB37"/></g><g><text fill="#E5E7EB" font-family="Calibri,Calibri_MSFontService,sans-serif" font-weight="400" font-size="41" transform="matrix(1 0 0 1 3232.63 8259)"> $(50)</text></g><g><text fill="#E5E7EB" font-family="Calibri,Calibri_MSFontService,sans-serif" font-weight="400" font-size="41" transform="matrix(1 0 0 1 3277.5 8148)"> $-</text></g><g><text fill="#E5E7EB" font-family="Calibri,Calibri_MSFontService,sans-serif" font-weight="400" font-size="41" transform="matrix(1 0 0 1 3248.33 8038)"> $50</text></g><g><text fill="#E5E7EB" font-family="Calibri,Calibri_MSFontService,sans-serif" font-weight="400" font-size="41" transform="matrix(1 0 0 1 3227.43 7927)"> $100</text></g><g><text fill="#E5E7EB" font-family="Calibri,Calibri_MSFontService,sans-serif" font-weight="400" font-size="41" transform="matrix(1 0 0 1 3227.43 7817)"> $150</text></g><g><text fill="#E5E7EB" font-family="Calibri,Calibri_MSFontService,sans-serif" font-weight="400" font-size="41" transform="matrix(1 0 0 1 3227.43 7706)"> $200</text></g><g><text fill="#E5E7EB" font-family="Calibri,Calibri_MSFontService,sans-serif" font-weight="400" font-size="41" transform="matrix(1 0 0 1 3227.43 7596)"> $250</text></g><g><text fill="#E5E7EB" font-family="Calibri,Calibri_MSFontService,sans-serif" font-weight="400" font-size="41" transform="matrix(1 0 0 1 3227.43 7485)"> $300</text></g><g><text fill="#E5E7EB" font-family="Calibri,Calibri_MSFontService,sans-serif" font-weight="400" font-size="41" transform="matrix(1 0 0 1 3227.43 7375)"> $350</text></g><g><text fill="#E5E7EB" font-family="Calibri,Calibri_MSFontService,sans-serif" font-weight="400" font-size="41" transform="matrix(1 0 0 1 3357.5 8202)">0</text></g><g><text fill="#E5E7EB" font-family="Calibri,Calibri_MSFontService,sans-serif" font-weight="400" font-size="41" transform="matrix(1 0 0 1 3692.88 8202)">5</text></g><g><text fill="#E5E7EB" font-family="Calibri,Calibri_MSFontService,sans-serif" font-weight="400" font-size="41" transform="matrix(1 0 0 1 4017.8 8202)">10</text></g><g><text fill="#E5E7EB" font-family="Calibri,Calibri_MSFontService,sans-serif" font-weight="400" font-size="41" transform="matrix(1 0 0 1 4353.18 8202)">15</text></g><g><text fill="#E5E7EB" font-family="Calibri,Calibri_MSFontService,sans-serif" font-weight="400" font-size="41" transform="matrix(1 0 0 1 4688.55 8202)">20</text></g><g><text fill="#E5E7EB" font-family="Calibri,Calibri_MSFontService,sans-serif" font-weight="400" font-size="41" transform="matrix(1 0 0 1 5023.93 8202)">25</text></g><g><text fill="#E5E7EB" font-family="Calibri,Calibri_MSFontService,sans-serif" font-weight="400" font-size="64" transform="matrix(1 0 0 1 3652.24 7288)">Profit with 50$ Engaged on each Signal</text></g><rect x="3198.5" y="7193.5" width="1918" height="1105" stroke="#D9D9D9" stroke-width="3.4375" stroke-linejoin="round" stroke-miterlimit="10" fill="none"/></g></svg>