<svg width="1081" height="1104" xmlns="http://www.w3.org/2000/svg" xmlns:xlink="http://www.w3.org/1999/xlink" xml:space="preserve" overflow="hidden"><defs><clipPath id="clip0"><rect x="3905" y="4582" width="1081" height="1104"/></clipPath></defs><g clip-path="url(#clip0)" transform="translate(-3905 -4582)"><g><path d="M4445.09 4807.52C4629.09 4807.52 4778.24 4956.67 4778.24 5140.67 4778.24 5324.66 4629.09 5473.82 4445.09 5473.82 4261.1 5473.82 4111.94 5324.66 4111.94 5140.67 4111.94 5121.27 4113.64 5101.92 4117 5082.82L4199.03 5097.28C4175.06 5233.18 4265.8 5362.77 4401.7 5386.73 4537.6 5410.7 4667.2 5319.95 4691.16 5184.05 4715.12 5048.16 4624.38 4918.56 4488.48 4894.6 4474.16 4892.07 4459.64 4890.8 4445.09 4890.8Z" stroke="#FFFFFF" stroke-width="6.875" stroke-linejoin="round" stroke-miterlimit="10" fill="#4ADE80" fill-rule="evenodd"/></g><g><path d="M4117 5082.82C4145.08 4923.6 4283.42 4807.52 4445.09 4807.52L4445.09 4890.8C4323.84 4890.8 4220.08 4977.86 4199.03 5097.28Z" stroke="#FFFFFF" stroke-width="6.875" stroke-linejoin="round" stroke-miterlimit="10" fill="#FFCB37" fill-rule="evenodd"/></g><g><path d="M4632.5 5363.5 4695.65 5424.5 4716.5 5424.5" stroke="#A6A6A6" stroke-width="3.4375" stroke-linejoin="round" stroke-miterlimit="10" fill="none"/></g><g><path d="M4257.5 4917.5 4231.64 4861.5 4211.5 4861.5" stroke="#A6A6A6" stroke-width="3.4375" stroke-linejoin="round" stroke-miterlimit="10" fill="none"/></g><g><text fill="#4ADE80" font-family="Calibri,Calibri_MSFontService,sans-serif" font-weight="400" font-size="41" transform="matrix(1 0 0 1 4730.03 5438)">78%</text></g><g><text fill="#FFCB37" font-family="Calibri,Calibri_MSFontService,sans-serif" font-weight="400" font-size="41" transform="matrix(1 0 0 1 4126.29 4875)">22%</text></g><g><text fill="#E5E7EB" font-family="Calibri,Calibri_MSFontService,sans-serif" font-weight="400" font-size="64" transform="matrix(1 0 0 1 4316.85 5174)">WIN RATE</text></g><g><rect x="4303.5" y="5606.5" width="22" height="23" stroke="#FFFFFF" stroke-width="6.875" stroke-linejoin="round" stroke-miterlimit="10" fill="#4ADE80"/></g><g><text fill="#E5E7EB" font-family="Calibri,Calibri_MSFontService,sans-serif" font-weight="400" font-size="41" transform="matrix(1 0 0 1 4335.5 5629)">PROFIT</text></g><g><rect x="4488.5" y="5606.5" width="23" height="23" stroke="#FFFFFF" stroke-width="6.875" stroke-linejoin="round" stroke-miterlimit="10" fill="#FFCB37"/></g><g><text fill="#E5E7EB" font-family="Calibri,Calibri_MSFontService,sans-serif" font-weight="400" font-size="41" transform="matrix(1 0 0 1 4520.86 5629)">LOSS</text></g><rect x="3906.5" y="4583.5" width="1078" height="1101" stroke="#D9D9D9" stroke-width="3.4375" stroke-linejoin="round" stroke-miterlimit="10" fill="none"/></g></svg>