<svg width="1045" height="1100" xmlns="http://www.w3.org/2000/svg" xmlns:xlink="http://www.w3.org/1999/xlink" xml:space="preserve" overflow="hidden"><defs><clipPath id="clip0"><rect x="5129" y="4590" width="1045" height="1100"/></clipPath></defs><g clip-path="url(#clip0)" transform="translate(-5129 -4590)"><g><path d="M5661.63 4811.79C5848.8 4811.79 6000.54 4963.52 6000.54 5150.69 6000.54 5337.86 5848.8 5489.59 5661.63 5489.59 5648.49 5489.59 5635.35 5488.82 5622.29 5487.3L5632.13 5403.14C5771.55 5419.44 5897.79 5319.62 5914.09 5180.19 5930.39 5040.77 5830.57 4914.53 5691.14 4898.23 5681.35 4897.08 5671.5 4896.51 5661.63 4896.51Z" stroke="#FFFFFF" stroke-width="6.875" stroke-linejoin="round" stroke-miterlimit="10" fill="#4ADE80" fill-rule="evenodd"/></g><g><path d="M5622.29 5487.3C5436.39 5465.57 5303.29 5297.25 5325.02 5111.34 5344.99 4940.56 5489.68 4811.79 5661.63 4811.79L5661.63 4896.51C5521.26 4896.51 5407.46 5010.31 5407.46 5150.69 5407.46 5279.65 5504.04 5388.17 5632.13 5403.14Z" stroke="#FFFFFF" stroke-width="6.875" stroke-linejoin="round" stroke-miterlimit="10" fill="#FFCB37" fill-rule="evenodd"/></g><g><path d="M5957.5 5167.5 6020.7 5352.5 6040.5 5352.5" stroke="#A6A6A6" stroke-width="3.4375" stroke-linejoin="round" stroke-miterlimit="10" fill="none"/></g><g><path d="M5365.5 5133.5 5249.67 5073.5 5229.5 5073.5" stroke="#A6A6A6" stroke-width="3.4375" stroke-linejoin="round" stroke-miterlimit="10" fill="none"/></g><g><text fill="#4ADE80" font-family="Calibri,Calibri_MSFontService,sans-serif" font-weight="700" font-size="41" transform="matrix(1 0 0 1 6054.68 5367)">52%</text></g><g><text fill="#FFCB37" font-family="Calibri,Calibri_MSFontService,sans-serif" font-weight="700" font-size="41" transform="matrix(1 0 0 1 5143.92 5087)">48%</text></g><g><text fill="#FFCB37" font-family="Calibri,Calibri_MSFontService,sans-serif" font-weight="700" font-size="64" transform="matrix(1 0 0 1 5494.74 5167)">Short</text></g><g><text fill="#E5E7EB" font-family="Calibri,Calibri_MSFontService,sans-serif" font-weight="700" font-size="64" transform="matrix(1 0 0 1 5653.55 5167)">&amp;</text></g><g><text fill="#4ADE80" font-family="Calibri,Calibri_MSFontService,sans-serif" font-weight="700" font-size="64" transform="matrix(1 0 0 1 5713.27 5167)">Long</text></g><rect x="5130.5" y="4591.5" width="1042" height="1097" stroke="#D9D9D9" stroke-width="3.4375" stroke-linejoin="round" stroke-miterlimit="10" fill="none"/></g></svg>