<svg width="1875" height="1107" xmlns="http://www.w3.org/2000/svg" xmlns:xlink="http://www.w3.org/1999/xlink" xml:space="preserve" overflow="hidden"><defs><clipPath id="clip0"><rect x="4143" y="7311" width="1875" height="1107"/></clipPath><clipPath id="clip1"><rect x="4314" y="7481" width="1633" height="888"/></clipPath></defs><g clip-path="url(#clip0)" transform="translate(-4143 -7311)"><g><path d="M4314.5 8365.5 5944.5 8365.5M4314.5 8267.77 5944.5 8267.77M4314.5 8070.77 5944.5 8070.77M4314.5 7972.76 5944.5 7972.76M4314.5 7874.76 5944.5 7874.76M4314.5 7776.76 5944.5 7776.76M4314.5 7677.75 5944.5 7677.75M4314.5 7579.75 5944.5 7579.75M4314.5 7481.5 5944.5 7481.5" stroke="#D9D9D9" stroke-width="3.4375" stroke-linejoin="round" stroke-miterlimit="10" fill="none"/></g><g><path d="M4640.65 7481.5 4640.65 8365.5M4966.66 7481.5 4966.66 8365.5M5292.67 7481.5 5292.67 8365.5M5618.68 7481.5 5618.68 8365.5M5944.5 7481.5 5944.5 8365.5" stroke="#D9D9D9" stroke-width="3.4375" stroke-linejoin="round" stroke-miterlimit="10" fill="none"/></g><g><path d="M0 0 0.000360892 884" stroke="#BFBFBF" stroke-width="3.4375" stroke-linejoin="round" stroke-miterlimit="10" fill="none" fill-rule="evenodd" transform="matrix(1 0 0 -1 4314.5 8365.5)"/></g><g><path d="M4314.5 8169.5 5944.5 8169.5" stroke="#BFBFBF" stroke-width="3.4375" stroke-linejoin="round" stroke-miterlimit="10" fill="none" fill-rule="evenodd"/></g><g clip-path="url(#clip1)"><path d="M4379.5 8145.77 4444.65 8128.77 4510.65 8292.5 4575.65 8269.77 4640.65 7792.76 4705.65 7986.76 4770.66 7900.76 4835.66 7873.76 4901.66 7855.76 4966.66 8074.77 5031.67 7975.76 5096.67 7877.76 5161.67 7663.75 5227.67 7612.75 5292.67 7736.75 5357.68 7681.75 5422.68 7651.75 5487.68 7629.75 5553.68 7749.75 5618.68 7735.75 5683.69 7716.75 5748.69 7700.75 5813.69 7681.75 5878.69 7660.75 5944.7 7645.75 6009.7 7611.5 6074.5 7722.75" stroke="#FFCB37" stroke-width="6.875" stroke-linecap="round" stroke-linejoin="round" stroke-miterlimit="10" fill="none"/></g><g><path d="M4390.76 8145.06C4390.76 8151.14 4385.84 8156.06 4379.77 8156.06 4373.69 8156.06 4368.77 8151.14 4368.77 8145.06 4368.77 8138.99 4373.69 8134.06 4379.77 8134.06 4385.84 8134.06 4390.76 8138.99 4390.76 8145.06Z" stroke="#FFCB37" stroke-width="3.4375" stroke-linejoin="round" stroke-miterlimit="10" fill="#FFCB37"/><path d="M4455.77 8128.06C4455.77 8134.14 4450.84 8139.06 4444.77 8139.06 4438.69 8139.06 4433.77 8134.14 4433.77 8128.06 4433.77 8121.99 4438.69 8117.06 4444.77 8117.06 4450.84 8117.06 4455.77 8121.99 4455.77 8128.06Z" stroke="#FFCB37" stroke-width="3.4375" stroke-linejoin="round" stroke-miterlimit="10" fill="#FFCB37"/><path d="M4521.77 8292.06C4521.77 8298.14 4516.84 8303.06 4510.77 8303.06 4504.69 8303.06 4499.77 8298.14 4499.77 8292.06 4499.77 8285.99 4504.69 8281.06 4510.77 8281.06 4516.84 8281.06 4521.77 8285.99 4521.77 8292.06Z" stroke="#FFCB37" stroke-width="3.4375" stroke-linejoin="round" stroke-miterlimit="10" fill="#FFCB37"/><path d="M4586.77 8270.06C4586.77 8276.14 4581.84 8281.06 4575.77 8281.06 4569.69 8281.06 4564.77 8276.14 4564.77 8270.06 4564.77 8263.99 4569.69 8259.06 4575.77 8259.06 4581.84 8259.06 4586.77 8263.99 4586.77 8270.06Z" stroke="#FFCB37" stroke-width="3.4375" stroke-linejoin="round" stroke-miterlimit="10" fill="#FFCB37"/><path d="M4651.77 7792.06C4651.77 7798.14 4646.84 7803.06 4640.77 7803.06 4634.69 7803.06 4629.77 7798.14 4629.77 7792.06 4629.77 7785.99 4634.69 7781.06 4640.77 7781.06 4646.84 7781.06 4651.77 7785.99 4651.77 7792.06Z" stroke="#FFCB37" stroke-width="3.4375" stroke-linejoin="round" stroke-miterlimit="10" fill="#FFCB37"/><path d="M4716.77 7986.06C4716.77 7992.14 4711.84 7997.06 4705.77 7997.06 4699.69 7997.06 4694.77 7992.14 4694.77 7986.06 4694.77 7979.99 4699.69 7975.06 4705.77 7975.06 4711.84 7975.06 4716.77 7979.99 4716.77 7986.06Z" stroke="#FFCB37" stroke-width="3.4375" stroke-linejoin="round" stroke-miterlimit="10" fill="#FFCB37"/><path d="M4781.77 7900.06C4781.77 7906.14 4776.84 7911.06 4770.77 7911.06 4764.69 7911.06 4759.77 7906.14 4759.77 7900.06 4759.77 7893.99 4764.69 7889.06 4770.77 7889.06 4776.84 7889.06 4781.77 7893.99 4781.77 7900.06Z" stroke="#FFCB37" stroke-width="3.4375" stroke-linejoin="round" stroke-miterlimit="10" fill="#FFCB37"/><path d="M4847.77 7874.06C4847.77 7880.14 4842.84 7885.06 4836.77 7885.06 4830.69 7885.06 4825.77 7880.14 4825.77 7874.06 4825.77 7867.99 4830.69 7863.06 4836.77 7863.06 4842.84 7863.06 4847.77 7867.99 4847.77 7874.06Z" stroke="#FFCB37" stroke-width="3.4375" stroke-linejoin="round" stroke-miterlimit="10" fill="#FFCB37"/><path d="M4912.77 7855.06C4912.77 7861.14 4907.84 7866.06 4901.77 7866.06 4895.69 7866.06 4890.77 7861.14 4890.77 7855.06 4890.77 7848.99 4895.69 7844.06 4901.77 7844.06 4907.84 7844.06 4912.77 7848.99 4912.77 7855.06Z" stroke="#FFCB37" stroke-width="3.4375" stroke-linejoin="round" stroke-miterlimit="10" fill="#FFCB37"/><path d="M4977.77 8074.06C4977.77 8080.14 4972.84 8085.06 4966.77 8085.06 4960.69 8085.06 4955.77 8080.14 4955.77 8074.06 4955.77 8067.99 4960.69 8063.06 4966.77 8063.06 4972.84 8063.06 4977.77 8067.99 4977.77 8074.06Z" stroke="#FFCB37" stroke-width="3.4375" stroke-linejoin="round" stroke-miterlimit="10" fill="#FFCB37"/><path d="M5042.77 7975.06C5042.77 7981.14 5037.84 7986.06 5031.77 7986.06 5025.69 7986.06 5020.77 7981.14 5020.77 7975.06 5020.77 7968.99 5025.69 7964.06 5031.77 7964.06 5037.84 7964.06 5042.77 7968.99 5042.77 7975.06Z" stroke="#FFCB37" stroke-width="3.4375" stroke-linejoin="round" stroke-miterlimit="10" fill="#FFCB37"/><path d="M5107.76 7877.06C5107.76 7883.14 5102.84 7888.06 5096.77 7888.06 5090.69 7888.06 5085.77 7883.14 5085.77 7877.06 5085.77 7870.99 5090.69 7866.06 5096.77 7866.06 5102.84 7866.06 5107.76 7870.99 5107.76 7877.06Z" stroke="#FFCB37" stroke-width="3.4375" stroke-linejoin="round" stroke-miterlimit="10" fill="#FFCB37"/><path d="M5173.76 7663.06C5173.76 7669.14 5168.84 7674.06 5162.77 7674.06 5156.69 7674.06 5151.77 7669.14 5151.77 7663.06 5151.77 7656.99 5156.69 7652.06 5162.77 7652.06 5168.84 7652.06 5173.76 7656.99 5173.76 7663.06Z" stroke="#FFCB37" stroke-width="3.4375" stroke-linejoin="round" stroke-miterlimit="10" fill="#FFCB37"/><path d="M5238.76 7612.06C5238.76 7618.14 5233.84 7623.06 5227.77 7623.06 5221.69 7623.06 5216.77 7618.14 5216.77 7612.06 5216.77 7605.99 5221.69 7601.06 5227.77 7601.06 5233.84 7601.06 5238.76 7605.99 5238.76 7612.06Z" stroke="#FFCB37" stroke-width="3.4375" stroke-linejoin="round" stroke-miterlimit="10" fill="#FFCB37"/><path d="M5303.76 7736.06C5303.76 7742.14 5298.84 7747.06 5292.77 7747.06 5286.69 7747.06 5281.77 7742.14 5281.77 7736.06 5281.77 7729.99 5286.69 7725.06 5292.77 7725.06 5298.84 7725.06 5303.76 7729.99 5303.76 7736.06Z" stroke="#FFCB37" stroke-width="3.4375" stroke-linejoin="round" stroke-miterlimit="10" fill="#FFCB37"/><path d="M5368.77 7682.06C5368.77 7688.14 5363.84 7693.06 5357.77 7693.06 5351.69 7693.06 5346.77 7688.14 5346.77 7682.06 5346.77 7675.99 5351.69 7671.06 5357.77 7671.06 5363.84 7671.06 5368.77 7675.99 5368.77 7682.06Z" stroke="#FFCB37" stroke-width="3.4375" stroke-linejoin="round" stroke-miterlimit="10" fill="#FFCB37"/><path d="M5433.77 7651.06C5433.77 7657.14 5428.84 7662.06 5422.77 7662.06 5416.69 7662.06 5411.77 7657.14 5411.77 7651.06 5411.77 7644.99 5416.69 7640.06 5422.77 7640.06 5428.84 7640.06 5433.77 7644.99 5433.77 7651.06Z" stroke="#FFCB37" stroke-width="3.4375" stroke-linejoin="round" stroke-miterlimit="10" fill="#FFCB37"/><path d="M5499.77 7629.06C5499.77 7635.14 5494.84 7640.06 5488.77 7640.06 5482.69 7640.06 5477.77 7635.14 5477.77 7629.06 5477.77 7622.99 5482.69 7618.06 5488.77 7618.06 5494.84 7618.06 5499.77 7622.99 5499.77 7629.06Z" stroke="#FFCB37" stroke-width="3.4375" stroke-linejoin="round" stroke-miterlimit="10" fill="#FFCB37"/><path d="M5564.77 7749.06C5564.77 7755.14 5559.84 7760.06 5553.77 7760.06 5547.69 7760.06 5542.77 7755.14 5542.77 7749.06 5542.77 7742.99 5547.69 7738.06 5553.77 7738.06 5559.84 7738.06 5564.77 7742.99 5564.77 7749.06Z" stroke="#FFCB37" stroke-width="3.4375" stroke-linejoin="round" stroke-miterlimit="10" fill="#FFCB37"/><path d="M5629.77 7736.06C5629.77 7742.14 5624.84 7747.06 5618.77 7747.06 5612.69 7747.06 5607.77 7742.14 5607.77 7736.06 5607.77 7729.99 5612.69 7725.06 5618.77 7725.06 5624.84 7725.06 5629.77 7729.99 5629.77 7736.06Z" stroke="#FFCB37" stroke-width="3.4375" stroke-linejoin="round" stroke-miterlimit="10" fill="#FFCB37"/><path d="M5694.77 7716.06C5694.77 7722.14 5689.84 7727.06 5683.77 7727.06 5677.69 7727.06 5672.77 7722.14 5672.77 7716.06 5672.77 7709.99 5677.69 7705.06 5683.77 7705.06 5689.84 7705.06 5694.77 7709.99 5694.77 7716.06Z" stroke="#FFCB37" stroke-width="3.4375" stroke-linejoin="round" stroke-miterlimit="10" fill="#FFCB37"/><path d="M5759.77 7700.06C5759.77 7706.14 5754.84 7711.06 5748.77 7711.06 5742.69 7711.06 5737.77 7706.14 5737.77 7700.06 5737.77 7693.99 5742.69 7689.06 5748.77 7689.06 5754.84 7689.06 5759.77 7693.99 5759.77 7700.06Z" stroke="#FFCB37" stroke-width="3.4375" stroke-linejoin="round" stroke-miterlimit="10" fill="#FFCB37"/><path d="M5824.77 7681.06C5824.77 7687.14 5819.84 7692.06 5813.77 7692.06 5807.69 7692.06 5802.77 7687.14 5802.77 7681.06 5802.77 7674.99 5807.69 7670.06 5813.77 7670.06 5819.84 7670.06 5824.77 7674.99 5824.77 7681.06Z" stroke="#FFCB37" stroke-width="3.4375" stroke-linejoin="round" stroke-miterlimit="10" fill="#FFCB37"/><path d="M5890.77 7660.06C5890.77 7666.14 5885.84 7671.06 5879.77 7671.06 5873.69 7671.06 5868.77 7666.14 5868.77 7660.06 5868.77 7653.99 5873.69 7649.06 5879.77 7649.06 5885.84 7649.06 5890.77 7653.99 5890.77 7660.06Z" stroke="#FFCB37" stroke-width="3.4375" stroke-linejoin="round" stroke-miterlimit="10" fill="#FFCB37"/><path d="M5955.77 7646.06C5955.77 7652.14 5950.84 7657.06 5944.77 7657.06 5938.69 7657.06 5933.77 7652.14 5933.77 7646.06 5933.77 7639.99 5938.69 7635.06 5944.77 7635.06 5950.84 7635.06 5955.77 7639.99 5955.77 7646.06Z" stroke="#FFCB37" stroke-width="3.4375" stroke-linejoin="round" stroke-miterlimit="10" fill="#FFCB37"/></g><g><text fill="#E5E7EB" font-family="Calibri,Calibri_MSFontService,sans-serif" font-weight="400" font-size="41" transform="matrix(1 0 0 1 4179.26 8377)"> $(40)</text></g><g><text fill="#E5E7EB" font-family="Calibri,Calibri_MSFontService,sans-serif" font-weight="400" font-size="41" transform="matrix(1 0 0 1 4179.26 8279)"> $(20)</text></g><g><text fill="#E5E7EB" font-family="Calibri,Calibri_MSFontService,sans-serif" font-weight="400" font-size="41" transform="matrix(1 0 0 1 4224.13 8181)"> $-</text></g><g><text fill="#E5E7EB" font-family="Calibri,Calibri_MSFontService,sans-serif" font-weight="400" font-size="41" transform="matrix(1 0 0 1 4194.96 8083)"> $20</text></g><g><text fill="#E5E7EB" font-family="Calibri,Calibri_MSFontService,sans-serif" font-weight="400" font-size="41" transform="matrix(1 0 0 1 4194.96 7984)"> $40</text></g><g><text fill="#E5E7EB" font-family="Calibri,Calibri_MSFontService,sans-serif" font-weight="400" font-size="41" transform="matrix(1 0 0 1 4194.96 7886)"> $60</text></g><g><text fill="#E5E7EB" font-family="Calibri,Calibri_MSFontService,sans-serif" font-weight="400" font-size="41" transform="matrix(1 0 0 1 4194.96 7788)"> $80</text></g><g><text fill="#E5E7EB" font-family="Calibri,Calibri_MSFontService,sans-serif" font-weight="400" font-size="41" transform="matrix(1 0 0 1 4174.06 7690)"> $100</text></g><g><text fill="#E5E7EB" font-family="Calibri,Calibri_MSFontService,sans-serif" font-weight="400" font-size="41" transform="matrix(1 0 0 1 4174.06 7591)"> $120</text></g><g><text fill="#E5E7EB" font-family="Calibri,Calibri_MSFontService,sans-serif" font-weight="400" font-size="41" transform="matrix(1 0 0 1 4174.06 7493)"> $140</text></g><g><text fill="#E5E7EB" font-family="Calibri,Calibri_MSFontService,sans-serif" font-weight="400" font-size="41" transform="matrix(1 0 0 1 4304.13 8234)">0</text></g><g><text fill="#E5E7EB" font-family="Calibri,Calibri_MSFontService,sans-serif" font-weight="400" font-size="41" transform="matrix(1 0 0 1 4630.08 8234)">5</text></g><g><text fill="#E5E7EB" font-family="Calibri,Calibri_MSFontService,sans-serif" font-weight="400" font-size="41" transform="matrix(1 0 0 1 4945.58 8234)">10</text></g><g><text fill="#E5E7EB" font-family="Calibri,Calibri_MSFontService,sans-serif" font-weight="400" font-size="41" transform="matrix(1 0 0 1 5271.54 8234)">15</text></g><g><text fill="#E5E7EB" font-family="Calibri,Calibri_MSFontService,sans-serif" font-weight="400" font-size="41" transform="matrix(1 0 0 1 5597.49 8234)">20</text></g><g><text fill="#E5E7EB" font-family="Calibri,Calibri_MSFontService,sans-serif" font-weight="400" font-size="41" transform="matrix(1 0 0 1 5923.44 8234)">25</text></g><g><text fill="#E5E7EB" font-family="Calibri,Calibri_MSFontService,sans-serif" font-weight="400" font-size="64" transform="matrix(1 0 0 1 4582.99 7407)">Profit with 50$ Engaged on each entry</text></g><rect x="4144.5" y="7312.5" width="1872" height="1104" stroke="#D9D9D9" stroke-width="3.4375" stroke-linejoin="round" stroke-miterlimit="10" fill="none"/></g></svg>