<svg width="735" height="610" xmlns="http://www.w3.org/2000/svg" xmlns:xlink="http://www.w3.org/1999/xlink" xml:space="preserve" overflow="hidden"><defs><clipPath id="clip0"><rect x="3775" y="3891" width="735" height="610"/></clipPath></defs><g clip-path="url(#clip0)" transform="translate(-3775 -3891)"><g><path d="M4144.1 3998.84C4254.16 3998.84 4343.38 4088.07 4343.38 4198.13 4343.38 4308.19 4254.16 4397.42 4144.1 4397.42 4034.03 4397.42 3944.81 4308.19 3944.81 4198.13 3944.81 4134.34 3975.35 4074.4 4026.96 4036.9L4056.24 4077.21C3989.46 4125.73 3974.66 4219.2 4023.18 4285.98 4071.7 4352.77 4165.17 4367.57 4231.95 4319.05 4298.73 4270.53 4313.54 4177.06 4265.02 4110.28 4236.89 4071.57 4191.94 4048.67 4144.1 4048.67Z" stroke="#FFFFFF" stroke-width="6.875" stroke-linejoin="round" stroke-miterlimit="10" fill="#4ADE80" fill-rule="evenodd"/></g><g><path d="M4025.11 4031.22C4059.16 4006.48 4100.17 3993.16 4142.25 3993.16L4142.25 4042.98C4110.69 4042.98 4079.93 4052.97 4054.4 4071.52Z" stroke="#FFFFFF" stroke-width="6.875" stroke-linejoin="round" stroke-miterlimit="10" fill="#FFCB37" fill-rule="evenodd"/></g><g><path d="M4197.5 4363.5 4230.64 4397.5 4251.5 4397.5" stroke="#A6A6A6" stroke-width="3.4375" stroke-linejoin="round" stroke-miterlimit="10" fill="none"/></g><g><text fill="#4ADE80" font-family="Calibri,Calibri_MSFontService,sans-serif" font-weight="400" font-size="28" transform="matrix(1 0 0 1 4264.75 4406)">90%</text></g><g><text fill="#FFCB37" font-family="Calibri,Calibri_MSFontService,sans-serif" font-weight="400" font-size="28" transform="matrix(1 0 0 1 3999.51 4005)">10%</text></g><g><text fill="#E5E7EB" font-family="Calibri,Calibri_MSFontService,sans-serif" font-weight="400" font-size="33" transform="matrix(1 0 0 1 4071.1 4208)">WIN RATE</text></g><g><rect x="4048.5" y="4434.5" width="15.0002" height="15" stroke="#FFFFFF" stroke-width="6.875" stroke-linejoin="round" stroke-miterlimit="10" fill="#4ADE80"/></g><g><text fill="#E5E7EB" font-family="Calibri,Calibri_MSFontService,sans-serif" font-weight="400" font-size="28" transform="matrix(1 0 0 1 4069.77 4449)">PROFIT</text></g><g><rect x="4172.5" y="4434.5" width="15" height="15" stroke="#FFFFFF" stroke-width="6.875" stroke-linejoin="round" stroke-miterlimit="10" fill="#FFCB37"/></g><g><text fill="#E5E7EB" font-family="Calibri,Calibri_MSFontService,sans-serif" font-weight="400" font-size="28" transform="matrix(1 0 0 1 4193.36 4449)">LOSS</text></g><rect x="3776.5" y="3892.5" width="732" height="607" stroke="#D9D9D9" stroke-width="3.4375" stroke-linejoin="round" stroke-miterlimit="10" fill="none"/></g></svg>