<svg width="597" height="614" xmlns="http://www.w3.org/2000/svg" xmlns:xlink="http://www.w3.org/1999/xlink" xml:space="preserve" overflow="hidden"><defs><clipPath id="clip0"><rect x="4586" y="3893" width="597" height="614"/></clipPath></defs><g clip-path="url(#clip0)" transform="translate(-4586 -3893)"><g><path d="M4889.88 4012.32C4996.6 4012.32 5083.11 4098.84 5083.11 4205.56 5083.11 4298.59 5016.83 4378.42 4925.38 4395.51L4916.51 4348.02C4995.19 4333.32 5047.04 4257.61 5032.34 4178.93 5019.52 4110.35 4959.65 4060.63 4889.88 4060.63Z" stroke="#FFFFFF" stroke-width="6.875" stroke-linejoin="round" stroke-miterlimit="10" fill="#4ADE80" fill-rule="evenodd"/></g><g><path d="M4925.38 4395.51C4820.48 4415.12 4719.54 4345.98 4699.93 4241.07 4680.32 4136.16 4749.46 4035.22 4854.37 4015.61 4866.08 4013.43 4877.96 4012.32 4889.88 4012.32L4889.88 4060.63C4809.83 4060.63 4744.95 4125.52 4744.95 4205.56 4744.95 4285.6 4809.83 4350.49 4889.88 4350.49 4898.81 4350.49 4907.72 4349.67 4916.51 4348.02Z" stroke="#FFFFFF" stroke-width="6.875" stroke-linejoin="round" stroke-miterlimit="10" fill="#FFCB37" fill-rule="evenodd"/></g><g><path d="M5058.5 4189.5 5075.67 4292.5 5096.5 4292.5" stroke="#A6A6A6" stroke-width="3.4375" stroke-linejoin="round" stroke-miterlimit="10" fill="none"/></g><g><path d="M4721.5 4221.5 4699.65 4209.5 4679.5 4209.5" stroke="#A6A6A6" stroke-width="3.4375" stroke-linejoin="round" stroke-miterlimit="10" fill="none"/></g><g><text fill="#4ADE80" font-family="Calibri,Calibri_MSFontService,sans-serif" font-weight="700" font-size="28" transform="matrix(1 0 0 1 5110.08 4302)">47%</text></g><g><text fill="#FFCB37" font-family="Calibri,Calibri_MSFontService,sans-serif" font-weight="700" font-size="28" transform="matrix(1 0 0 1 4617.63 4219)">53%</text></g><g><text fill="#FFCB37" font-family="Calibri,Calibri_MSFontService,sans-serif" font-weight="400" font-size="33" transform="matrix(1 0 0 1 4800.62 4215)">Short</text></g><g><text fill="#E5E7EB" font-family="Calibri,Calibri_MSFontService,sans-serif" font-weight="400" font-size="33" transform="matrix(1 0 0 1 4880.56 4215)">&amp;</text></g><g><text fill="#4ADE80" font-family="Calibri,Calibri_MSFontService,sans-serif" font-weight="400" font-size="33" transform="matrix(1 0 0 1 4910.53 4215)">Long</text></g><rect x="4587.5" y="3894.5" width="594" height="611" stroke="#D9D9D9" stroke-width="3.4375" stroke-linejoin="round" stroke-miterlimit="10" fill="none"/></g></svg>