<svg width="2220" height="1350" xmlns="http://www.w3.org/2000/svg" xmlns:xlink="http://www.w3.org/1999/xlink" xml:space="preserve" overflow="hidden"><defs><clipPath id="clip0"><rect x="3470" y="6223" width="2220" height="1350"/></clipPath></defs><g clip-path="url(#clip0)" transform="translate(-3470 -6223)"><g><path d="M3693.5 7521.5 5617.5 7521.5M3693.5 7295.74 5617.5 7295.74M3693.5 7069.73 5617.5 7069.73M3693.5 6844.72 5617.5 6844.72M3693.5 6619.72 5617.5 6619.72M3693.5 6393.5 5617.5 6393.5" stroke="#D9D9D9" stroke-width="3.4375" stroke-linejoin="round" stroke-miterlimit="10" fill="none"/></g><g><path d="M4078.63 6393.5 4078.63 7521.5M4462.65 6393.5 4462.65 7521.5M4847.66 6393.5 4847.66 7521.5M5232.67 6393.5 5232.67 7521.5M5617.5 6393.5 5617.5 7521.5" stroke="#D9D9D9" stroke-width="3.4375" stroke-linejoin="round" stroke-miterlimit="10" fill="none"/></g><g><path d="M0 0 0.000360892 1128" stroke="#BFBFBF" stroke-width="3.4375" stroke-linejoin="round" stroke-miterlimit="10" fill="none" fill-rule="evenodd" transform="matrix(1 0 0 -1 3693.5 7521.5)"/></g><g><path d="M3693.5 7430.5 5617.5 7430.5" stroke="#BFBFBF" stroke-width="3.4375" stroke-linejoin="round" stroke-miterlimit="10" fill="none" fill-rule="evenodd"/></g><g><path d="M3770.5 7359.74 3847.63 7404.5 3924.63 7336.74 4001.63 7280.74 4078.63 7239.74 4155.64 7196.74 4231.64 7250.74 4308.64 7101.73 4385.64 7062.73 4462.65 7005.73 4539.65 6960.73 4616.65 7007.73 4693.65 6956.73 4770.66 6933.73 4847.66 6891.73 4924.66 6788.72 5001.66 6723.72 5078.67 6679.72 5155.67 6608.72 5232.5 6548.5" stroke="#FFCB37" stroke-width="6.875" stroke-linecap="round" stroke-linejoin="round" stroke-miterlimit="10" fill="none"/></g><g><path d="M3781.44 7359.5C3781.44 7365.57 3776.52 7370.5 3770.45 7370.5 3764.37 7370.5 3759.45 7365.57 3759.45 7359.5 3759.45 7353.42 3764.37 7348.5 3770.45 7348.5 3776.52 7348.5 3781.44 7353.42 3781.44 7359.5Z" stroke="#FFCB37" stroke-width="3.4375" stroke-linejoin="round" stroke-miterlimit="10" fill="#FFCB37"/><path d="M3858.44 7404.5C3858.44 7410.57 3853.52 7415.5 3847.45 7415.5 3841.37 7415.5 3836.45 7410.57 3836.45 7404.5 3836.45 7398.42 3841.37 7393.5 3847.45 7393.5 3853.52 7393.5 3858.44 7398.42 3858.44 7404.5Z" stroke="#FFCB37" stroke-width="3.4375" stroke-linejoin="round" stroke-miterlimit="10" fill="#FFCB37"/><path d="M3935.44 7337.5C3935.44 7343.57 3930.52 7348.5 3924.45 7348.5 3918.37 7348.5 3913.45 7343.57 3913.45 7337.5 3913.45 7331.42 3918.37 7326.5 3924.45 7326.5 3930.52 7326.5 3935.44 7331.42 3935.44 7337.5Z" stroke="#FFCB37" stroke-width="3.4375" stroke-linejoin="round" stroke-miterlimit="10" fill="#FFCB37"/><path d="M4012.44 7280.5C4012.44 7286.57 4007.52 7291.5 4001.45 7291.5 3995.37 7291.5 3990.45 7286.57 3990.45 7280.5 3990.45 7274.42 3995.37 7269.5 4001.45 7269.5 4007.52 7269.5 4012.44 7274.42 4012.44 7280.5Z" stroke="#FFCB37" stroke-width="3.4375" stroke-linejoin="round" stroke-miterlimit="10" fill="#FFCB37"/><path d="M4089.44 7239.5C4089.44 7245.57 4084.52 7250.5 4078.45 7250.5 4072.37 7250.5 4067.45 7245.57 4067.45 7239.5 4067.45 7233.42 4072.37 7228.5 4078.45 7228.5 4084.52 7228.5 4089.44 7233.42 4089.44 7239.5Z" stroke="#FFCB37" stroke-width="3.4375" stroke-linejoin="round" stroke-miterlimit="10" fill="#FFCB37"/><path d="M4166.44 7197.5C4166.44 7203.57 4161.52 7208.5 4155.45 7208.5 4149.37 7208.5 4144.45 7203.57 4144.45 7197.5 4144.45 7191.42 4149.37 7186.5 4155.45 7186.5 4161.52 7186.5 4166.44 7191.42 4166.44 7197.5Z" stroke="#FFCB37" stroke-width="3.4375" stroke-linejoin="round" stroke-miterlimit="10" fill="#FFCB37"/><path d="M4243.44 7250.5C4243.44 7256.57 4238.52 7261.5 4232.45 7261.5 4226.37 7261.5 4221.45 7256.57 4221.45 7250.5 4221.45 7244.42 4226.37 7239.5 4232.45 7239.5 4238.52 7239.5 4243.44 7244.42 4243.44 7250.5Z" stroke="#FFCB37" stroke-width="3.4375" stroke-linejoin="round" stroke-miterlimit="10" fill="#FFCB37"/><path d="M4320.44 7101.5C4320.44 7107.57 4315.52 7112.5 4309.45 7112.5 4303.37 7112.5 4298.45 7107.57 4298.45 7101.5 4298.45 7095.42 4303.37 7090.5 4309.45 7090.5 4315.52 7090.5 4320.44 7095.42 4320.44 7101.5Z" stroke="#FFCB37" stroke-width="3.4375" stroke-linejoin="round" stroke-miterlimit="10" fill="#FFCB37"/><path d="M4396.44 7062.5C4396.44 7068.57 4391.52 7073.5 4385.45 7073.5 4379.37 7073.5 4374.45 7068.57 4374.45 7062.5 4374.45 7056.42 4379.37 7051.5 4385.45 7051.5 4391.52 7051.5 4396.44 7056.42 4396.44 7062.5Z" stroke="#FFCB37" stroke-width="3.4375" stroke-linejoin="round" stroke-miterlimit="10" fill="#FFCB37"/><path d="M4473.44 7005.5C4473.44 7011.57 4468.52 7016.5 4462.45 7016.5 4456.37 7016.5 4451.45 7011.57 4451.45 7005.5 4451.45 6999.42 4456.37 6994.5 4462.45 6994.5 4468.52 6994.5 4473.44 6999.42 4473.44 7005.5Z" stroke="#FFCB37" stroke-width="3.4375" stroke-linejoin="round" stroke-miterlimit="10" fill="#FFCB37"/><path d="M4550.44 6960.5C4550.44 6966.57 4545.52 6971.5 4539.45 6971.5 4533.37 6971.5 4528.45 6966.57 4528.45 6960.5 4528.45 6954.42 4533.37 6949.5 4539.45 6949.5 4545.52 6949.5 4550.44 6954.42 4550.44 6960.5Z" stroke="#FFCB37" stroke-width="3.4375" stroke-linejoin="round" stroke-miterlimit="10" fill="#FFCB37"/><path d="M4627.44 7007.5C4627.44 7013.57 4622.52 7018.5 4616.45 7018.5 4610.37 7018.5 4605.45 7013.57 4605.45 7007.5 4605.45 7001.42 4610.37 6996.5 4616.45 6996.5 4622.52 6996.5 4627.44 7001.42 4627.44 7007.5Z" stroke="#FFCB37" stroke-width="3.4375" stroke-linejoin="round" stroke-miterlimit="10" fill="#FFCB37"/><path d="M4704.44 6956.5C4704.44 6962.57 4699.52 6967.5 4693.45 6967.5 4687.37 6967.5 4682.45 6962.57 4682.45 6956.5 4682.45 6950.42 4687.37 6945.5 4693.45 6945.5 4699.52 6945.5 4704.44 6950.42 4704.44 6956.5Z" stroke="#FFCB37" stroke-width="3.4375" stroke-linejoin="round" stroke-miterlimit="10" fill="#FFCB37"/><path d="M4781.44 6933.5C4781.44 6939.57 4776.52 6944.5 4770.45 6944.5 4764.37 6944.5 4759.45 6939.57 4759.45 6933.5 4759.45 6927.42 4764.37 6922.5 4770.45 6922.5 4776.52 6922.5 4781.44 6927.42 4781.44 6933.5Z" stroke="#FFCB37" stroke-width="3.4375" stroke-linejoin="round" stroke-miterlimit="10" fill="#FFCB37"/><path d="M4858.44 6891.5C4858.44 6897.57 4853.52 6902.5 4847.45 6902.5 4841.37 6902.5 4836.45 6897.57 4836.45 6891.5 4836.45 6885.42 4841.37 6880.5 4847.45 6880.5 4853.52 6880.5 4858.44 6885.42 4858.44 6891.5Z" stroke="#FFCB37" stroke-width="3.4375" stroke-linejoin="round" stroke-miterlimit="10" fill="#FFCB37"/><path d="M4935.44 6788.5C4935.44 6794.57 4930.52 6799.5 4924.45 6799.5 4918.37 6799.5 4913.45 6794.57 4913.45 6788.5 4913.45 6782.42 4918.37 6777.5 4924.45 6777.5 4930.52 6777.5 4935.44 6782.42 4935.44 6788.5Z" stroke="#FFCB37" stroke-width="3.4375" stroke-linejoin="round" stroke-miterlimit="10" fill="#FFCB37"/><path d="M5012.44 6723.5C5012.44 6729.57 5007.52 6734.5 5001.45 6734.5 4995.37 6734.5 4990.45 6729.57 4990.45 6723.5 4990.45 6717.42 4995.37 6712.5 5001.45 6712.5 5007.52 6712.5 5012.44 6717.42 5012.44 6723.5Z" stroke="#FFCB37" stroke-width="3.4375" stroke-linejoin="round" stroke-miterlimit="10" fill="#FFCB37"/><path d="M5089.44 6680.5C5089.44 6686.57 5084.52 6691.5 5078.45 6691.5 5072.37 6691.5 5067.45 6686.57 5067.45 6680.5 5067.45 6674.42 5072.37 6669.5 5078.45 6669.5 5084.52 6669.5 5089.44 6674.42 5089.44 6680.5Z" stroke="#FFCB37" stroke-width="3.4375" stroke-linejoin="round" stroke-miterlimit="10" fill="#FFCB37"/><path d="M5166.44 6608.5C5166.44 6614.57 5161.52 6619.5 5155.45 6619.5 5149.37 6619.5 5144.45 6614.57 5144.45 6608.5 5144.45 6602.42 5149.37 6597.5 5155.45 6597.5 5161.52 6597.5 5166.44 6602.42 5166.44 6608.5Z" stroke="#FFCB37" stroke-width="3.4375" stroke-linejoin="round" stroke-miterlimit="10" fill="#FFCB37"/><path d="M5243.44 6548.5C5243.44 6554.57 5238.52 6559.5 5232.45 6559.5 5226.37 6559.5 5221.45 6554.57 5221.45 6548.5 5221.45 6542.42 5226.37 6537.5 5232.45 6537.5 5238.52 6537.5 5243.44 6542.42 5243.44 6548.5Z" stroke="#FFCB37" stroke-width="3.4375" stroke-linejoin="round" stroke-miterlimit="10" fill="#FFCB37"/></g><g><text fill="#E5E7EB" font-family="Calibri,Calibri_MSFontService,sans-serif" font-weight="400" font-size="41" transform="matrix(1 0 0 1 3505.94 7533)"> $(20.00)</text></g><g><text fill="#E5E7EB" font-family="Calibri,Calibri_MSFontService,sans-serif" font-weight="400" font-size="41" transform="matrix(1 0 0 1 3521.64 7307)"> $30.00</text></g><g><text fill="#E5E7EB" font-family="Calibri,Calibri_MSFontService,sans-serif" font-weight="400" font-size="41" transform="matrix(1 0 0 1 3521.64 7082)"> $80.00</text></g><g><text fill="#E5E7EB" font-family="Calibri,Calibri_MSFontService,sans-serif" font-weight="400" font-size="41" transform="matrix(1 0 0 1 3500.74 6856)"> $130.00</text></g><g><text fill="#E5E7EB" font-family="Calibri,Calibri_MSFontService,sans-serif" font-weight="400" font-size="41" transform="matrix(1 0 0 1 3500.74 6631)"> $180.00</text></g><g><text fill="#E5E7EB" font-family="Calibri,Calibri_MSFontService,sans-serif" font-weight="400" font-size="41" transform="matrix(1 0 0 1 3500.74 6406)"> $230.00</text></g><g><text fill="#E5E7EB" font-family="Calibri,Calibri_MSFontService,sans-serif" font-weight="400" font-size="41" transform="matrix(1 0 0 1 3683.01 7496)">0</text></g><g><text fill="#E5E7EB" font-family="Calibri,Calibri_MSFontService,sans-serif" font-weight="400" font-size="41" transform="matrix(1 0 0 1 4067.75 7496)">5</text></g><g><text fill="#E5E7EB" font-family="Calibri,Calibri_MSFontService,sans-serif" font-weight="400" font-size="41" transform="matrix(1 0 0 1 4442.05 7496)">10</text></g><g><text fill="#E5E7EB" font-family="Calibri,Calibri_MSFontService,sans-serif" font-weight="400" font-size="41" transform="matrix(1 0 0 1 4826.79 7496)">15</text></g><g><text fill="#E5E7EB" font-family="Calibri,Calibri_MSFontService,sans-serif" font-weight="400" font-size="41" transform="matrix(1 0 0 1 5211.53 7496)">20</text></g><g><text fill="#E5E7EB" font-family="Calibri,Calibri_MSFontService,sans-serif" font-weight="400" font-size="41" transform="matrix(1 0 0 1 5596.27 7496)">25</text></g><g><text fill="#E5E7EB" font-family="Calibri,Calibri_MSFontService,sans-serif" font-weight="400" font-size="64" transform="matrix(1 0 0 1 4140.66 6319)">Profit with 50$ put on each Signal</text></g><rect x="3471.5" y="6224.5" width="2217" height="1347" stroke="#D9D9D9" stroke-width="3.4375" stroke-linejoin="round" stroke-miterlimit="10" fill="none"/></g></svg>