<svg width="1185" height="1228" xmlns="http://www.w3.org/2000/svg" xmlns:xlink="http://www.w3.org/1999/xlink" xml:space="preserve" overflow="hidden"><defs><clipPath id="clip0"><rect x="2950" y="5617" width="1185" height="1228"/></clipPath></defs><g clip-path="url(#clip0)" transform="translate(-2950 -5617)"><g><path d="M3541.87 5850.55C3755.77 5850.55 3929.17 6023.94 3929.17 6237.84 3929.17 6451.73 3755.77 6625.13 3541.87 6625.13 3416.9 6625.13 3299.61 6564.82 3226.9 6463.18L3305.64 6406.85C3398.98 6537.31 3580.42 6567.41 3710.89 6474.07 3841.35 6380.73 3871.45 6199.29 3778.11 6068.82 3723.57 5992.6 3635.6 5947.37 3541.87 5947.37Z" stroke="#FFFFFF" stroke-width="6.875" stroke-linejoin="round" stroke-miterlimit="10" fill="#4ADE80" fill-rule="evenodd"/></g><g><path d="M3226.9 6463.18C3102.44 6289.23 3142.57 6047.31 3316.53 5922.86 3382.26 5875.83 3461.05 5850.55 3541.87 5850.55L3541.87 5947.37C3381.45 5947.37 3251.41 6077.41 3251.41 6237.84 3251.41 6298.45 3270.37 6357.55 3305.64 6406.85Z" stroke="#FFFFFF" stroke-width="6.875" stroke-linejoin="round" stroke-miterlimit="10" fill="#FFCB37" fill-rule="evenodd"/></g><g><path d="M3843.5 6392.5 3919.63 6459.5 3940.5 6459.5" stroke="#A6A6A6" stroke-width="3.4375" stroke-linejoin="round" stroke-miterlimit="10" fill="none"/></g><g><path d="M3240.5 6082.5 3205.61 6020.5 3184.5 6020.5" stroke="#A6A6A6" stroke-width="3.4375" stroke-linejoin="round" stroke-miterlimit="10" fill="none"/></g><g><text fill="#4ADE80" font-family="Calibri,Calibri_MSFontService,sans-serif" font-weight="400" font-size="41" transform="matrix(1 0 0 1 3953.75 6473)">65%</text></g><g><text fill="#FFCB37" font-family="Calibri,Calibri_MSFontService,sans-serif" font-weight="400" font-size="41" transform="matrix(1 0 0 1 3099.77 6034)">35%</text></g><g><text fill="#E5E7EB" font-family="Calibri,Calibri_MSFontService,sans-serif" font-weight="400" font-size="64" transform="matrix(1 0 0 1 3391.57 6266)">WIN RATE</text></g><g><rect x="3400.5" y="6765.5" width="22" height="23" stroke="#FFFFFF" stroke-width="6.875" stroke-linejoin="round" stroke-miterlimit="10" fill="#4ADE80"/></g><g><text fill="#E5E7EB" font-family="Calibri,Calibri_MSFontService,sans-serif" font-weight="400" font-size="41" transform="matrix(1 0 0 1 3432.28 6788)">PROFIT</text></g><g><rect x="3585.5" y="6765.5" width="22.9998" height="23" stroke="#FFFFFF" stroke-width="6.875" stroke-linejoin="round" stroke-miterlimit="10" fill="#FFCB37"/></g><g><text fill="#E5E7EB" font-family="Calibri,Calibri_MSFontService,sans-serif" font-weight="400" font-size="41" transform="matrix(1 0 0 1 3617.65 6788)">LOSS</text></g><rect x="2951.5" y="5618.5" width="1182" height="1225" stroke="#D9D9D9" stroke-width="3.4375" stroke-linejoin="round" stroke-miterlimit="10" fill="none"/></g></svg>