<svg width="1251" height="1270" xmlns="http://www.w3.org/2000/svg" xmlns:xlink="http://www.w3.org/1999/xlink" xml:space="preserve" overflow="hidden"><defs><clipPath id="clip0"><rect x="4245" y="5607" width="1251" height="1270"/></clipPath></defs><g clip-path="url(#clip0)" transform="translate(-4245 -5607)"><g><path d="M4882.62 5848.22C5106.8 5848.22 5288.54 6029.96 5288.54 6254.14 5288.54 6478.33 5106.8 6660.06 4882.62 6660.06 4658.43 6660.06 4476.7 6478.33 4476.7 6254.14 4476.7 6239.31 4477.51 6224.49 4479.13 6209.75L4580 6220.85C4561.61 6387.98 4682.19 6538.37 4849.32 6556.76 5016.45 6575.15 5166.84 6454.57 5185.23 6287.44 5203.62 6120.31 5083.04 5969.92 4915.92 5951.53 4904.86 5950.31 4893.74 5949.7 4882.62 5949.7Z" stroke="#FFFFFF" stroke-width="6.875" stroke-linejoin="round" stroke-miterlimit="10" fill="#4ADE80" fill-rule="evenodd"/></g><g><path d="M4479.13 6209.75C4501.77 6003.99 4675.62 5848.22 4882.62 5848.22L4882.62 5949.7C4727.37 5949.7 4596.98 6066.53 4580 6220.85Z" stroke="#FFFFFF" stroke-width="6.875" stroke-linejoin="round" stroke-miterlimit="10" fill="#FFCB37" fill-rule="evenodd"/></g><g><path d="M5119.5 6518.5 5208.67 6732.5 5229.5 6732.5" stroke="#A6A6A6" stroke-width="3.4375" stroke-linejoin="round" stroke-miterlimit="10" fill="none"/></g><g><path d="M4645.5 5989.5 4547.65 5965.5 4527.5 5965.5" stroke="#A6A6A6" stroke-width="3.4375" stroke-linejoin="round" stroke-miterlimit="10" fill="none"/></g><g><text fill="#4ADE80" font-family="Calibri,Calibri_MSFontService,sans-serif" font-weight="700" font-size="41" transform="matrix(1 0 0 1 5242.94 6746)">77%</text></g><g><text fill="#FFCB37" font-family="Calibri,Calibri_MSFontService,sans-serif" font-weight="700" font-size="41" transform="matrix(1 0 0 1 4441.78 5979)">23%</text></g><g><text fill="#FFCB37" font-family="Calibri,Calibri_MSFontService,sans-serif" font-weight="700" font-size="64" transform="matrix(1 0 0 1 4711.52 6281)">Short</text></g><g><text fill="#E5E7EB" font-family="Calibri,Calibri_MSFontService,sans-serif" font-weight="700" font-size="64" transform="matrix(1 0 0 1 4870.34 6281)">&amp;</text></g><g><text fill="#4ADE80" font-family="Calibri,Calibri_MSFontService,sans-serif" font-weight="700" font-size="64" transform="matrix(1 0 0 1 4930.06 6281)">Long</text></g><rect x="4246.5" y="5608.5" width="1248" height="1267" stroke="#D9D9D9" stroke-width="3.4375" stroke-linejoin="round" stroke-miterlimit="10" fill="none"/></g></svg>