<svg width="2063" height="1063" xmlns="http://www.w3.org/2000/svg" xmlns:xlink="http://www.w3.org/1999/xlink" xml:space="preserve" overflow="hidden"><defs><clipPath id="clip0"><rect x="2845" y="8520" width="2063" height="1063"/></clipPath></defs><g clip-path="url(#clip0)" transform="translate(-2845 -8520)"><g><path d="M3068.5 9530.5 4834.5 9530.5M3068.5 9320.81 4834.5 9320.81M3068.5 9215.8 4834.5 9215.8M3068.5 9110.8 4834.5 9110.8M3068.5 9005.8 4834.5 9005.8M3068.5 8900.79 4834.5 8900.79M3068.5 8795.79 4834.5 8795.79M3068.5 8691.5 4834.5 8691.5" stroke="#D9D9D9" stroke-width="3.4375" stroke-linejoin="round" stroke-miterlimit="10" fill="none"/></g><g><path d="M3244.61 8691.5 3244.61 9530.5M3421.61 8691.5 3421.61 9530.5M3598.62 8691.5 3598.62 9530.5M3774.62 8691.5 3774.62 9530.5M3951.63 8691.5 3951.63 9530.5M4128.64 8691.5 4128.64 9530.5M4304.64 8691.5 4304.64 9530.5M4481.65 8691.5 4481.65 9530.5M4658.65 8691.5 4658.65 9530.5M4834.5 8691.5 4834.5 9530.5" stroke="#D9D9D9" stroke-width="3.4375" stroke-linejoin="round" stroke-miterlimit="10" fill="none"/></g><g><path d="M0 0 0.000360892 839" stroke="#BFBFBF" stroke-width="3.4375" stroke-linejoin="round" stroke-miterlimit="10" fill="none" fill-rule="evenodd" transform="matrix(1 0 0 -1 3068.5 9530.5)"/></g><g><path d="M3068.5 9425.5 4834.5 9425.5" stroke="#BFBFBF" stroke-width="3.4375" stroke-linejoin="round" stroke-miterlimit="10" fill="none" fill-rule="evenodd"/></g><g><path d="M3103.5 9473.5 3138.6 9377.81 3174.6 9331.81 3209.61 9376.81 3244.61 9296.8 3280.61 9340.81 3315.61 9277.8 3350.61 9317.81 3386.61 9283.8 3421.61 9239.8 3456.61 9318.81 3492.61 9289.8 3527.62 9182.8 3562.62 9227.8 3598.62 9184.8 3633.62 9235.8 3668.62 9177.8 3704.62 9236.8 3739.62 9193.8 3774.62 9157.8 3810.62 9202.8 3845.63 9161.8 3880.63 9211.8 3916.63 9170.8 3951.63 9215.8 3986.63 9176.8 4022.63 9251.8 4057.63 9206.8 4092.63 9256.8 4128.64 9207.8 4163.64 9168.8 4198.64 9122.8 4234.64 9105.8 4269.64 9054.8 4304.64 8986.79 4340.64 8926.79 4375.64 8885.79 4410.64 8833.79 4446.65 8787.5 4481.65 8837.79 4516.65 8831.79 4552.65 8875.79 4587.5 8823.79" stroke="#FFCB37" stroke-width="6.875" stroke-linecap="round" stroke-linejoin="round" stroke-miterlimit="10" fill="none"/></g><g><path d="M3114.16 9473.82C3114.16 9479.89 3109.23 9484.82 3103.16 9484.82 3097.08 9484.82 3092.16 9479.89 3092.16 9473.82 3092.16 9467.74 3097.08 9462.82 3103.16 9462.82 3109.23 9462.82 3114.16 9467.74 3114.16 9473.82Z" stroke="#FFCB37" stroke-width="3.4375" stroke-linejoin="round" stroke-miterlimit="10" fill="#FFCB37"/><path d="M3149.16 9377.82C3149.16 9383.9 3144.23 9388.82 3138.16 9388.82 3132.08 9388.82 3127.16 9383.9 3127.16 9377.82 3127.16 9371.75 3132.08 9366.82 3138.16 9366.82 3144.23 9366.82 3149.16 9371.75 3149.16 9377.82Z" stroke="#FFCB37" stroke-width="3.4375" stroke-linejoin="round" stroke-miterlimit="10" fill="#FFCB37"/><path d="M3185.16 9331.82C3185.16 9337.9 3180.23 9342.82 3174.16 9342.82 3168.08 9342.82 3163.16 9337.9 3163.16 9331.82 3163.16 9325.75 3168.08 9320.82 3174.16 9320.82 3180.23 9320.82 3185.16 9325.75 3185.16 9331.82Z" stroke="#FFCB37" stroke-width="3.4375" stroke-linejoin="round" stroke-miterlimit="10" fill="#FFCB37"/><path d="M3220.16 9376.82C3220.16 9382.9 3215.23 9387.82 3209.16 9387.82 3203.08 9387.82 3198.16 9382.9 3198.16 9376.82 3198.16 9370.75 3203.08 9365.82 3209.16 9365.82 3215.23 9365.82 3220.16 9370.75 3220.16 9376.82Z" stroke="#FFCB37" stroke-width="3.4375" stroke-linejoin="round" stroke-miterlimit="10" fill="#FFCB37"/><path d="M3255.16 9297.82C3255.16 9303.89 3250.23 9308.82 3244.16 9308.82 3238.08 9308.82 3233.16 9303.89 3233.16 9297.82 3233.16 9291.74 3238.08 9286.82 3244.16 9286.82 3250.23 9286.82 3255.16 9291.74 3255.16 9297.82Z" stroke="#FFCB37" stroke-width="3.4375" stroke-linejoin="round" stroke-miterlimit="10" fill="#FFCB37"/><path d="M3291.16 9340.82C3291.16 9346.89 3286.23 9351.82 3280.16 9351.82 3274.08 9351.82 3269.16 9346.89 3269.16 9340.82 3269.16 9334.74 3274.08 9329.82 3280.16 9329.82 3286.23 9329.82 3291.16 9334.74 3291.16 9340.82Z" stroke="#FFCB37" stroke-width="3.4375" stroke-linejoin="round" stroke-miterlimit="10" fill="#FFCB37"/><path d="M3326.16 9277.82C3326.16 9283.9 3321.23 9288.82 3315.16 9288.82 3309.08 9288.82 3304.16 9283.9 3304.16 9277.82 3304.16 9271.75 3309.08 9266.82 3315.16 9266.82 3321.23 9266.82 3326.16 9271.75 3326.16 9277.82Z" stroke="#FFCB37" stroke-width="3.4375" stroke-linejoin="round" stroke-miterlimit="10" fill="#FFCB37"/><path d="M3361.16 9318.82C3361.16 9324.89 3356.23 9329.82 3350.16 9329.82 3344.08 9329.82 3339.16 9324.89 3339.16 9318.82 3339.16 9312.74 3344.08 9307.82 3350.16 9307.82 3356.23 9307.82 3361.16 9312.74 3361.16 9318.82Z" stroke="#FFCB37" stroke-width="3.4375" stroke-linejoin="round" stroke-miterlimit="10" fill="#FFCB37"/><path d="M3397.16 9283.82C3397.16 9289.9 3392.23 9294.82 3386.16 9294.82 3380.08 9294.82 3375.16 9289.9 3375.16 9283.82 3375.16 9277.75 3380.08 9272.82 3386.16 9272.82 3392.23 9272.82 3397.16 9277.75 3397.16 9283.82Z" stroke="#FFCB37" stroke-width="3.4375" stroke-linejoin="round" stroke-miterlimit="10" fill="#FFCB37"/><path d="M3432.16 9239.82C3432.16 9245.9 3427.23 9250.82 3421.16 9250.82 3415.08 9250.82 3410.16 9245.9 3410.16 9239.82 3410.16 9233.75 3415.08 9228.82 3421.16 9228.82 3427.23 9228.82 3432.16 9233.75 3432.16 9239.82Z" stroke="#FFCB37" stroke-width="3.4375" stroke-linejoin="round" stroke-miterlimit="10" fill="#FFCB37"/><path d="M3467.16 9318.82C3467.16 9324.89 3462.23 9329.82 3456.16 9329.82 3450.08 9329.82 3445.16 9324.89 3445.16 9318.82 3445.16 9312.74 3450.08 9307.82 3456.16 9307.82 3462.23 9307.82 3467.16 9312.74 3467.16 9318.82Z" stroke="#FFCB37" stroke-width="3.4375" stroke-linejoin="round" stroke-miterlimit="10" fill="#FFCB37"/><path d="M3503.16 9290.82C3503.16 9296.9 3498.23 9301.82 3492.16 9301.82 3486.08 9301.82 3481.16 9296.9 3481.16 9290.82 3481.16 9284.75 3486.08 9279.82 3492.16 9279.82 3498.23 9279.82 3503.16 9284.75 3503.16 9290.82Z" stroke="#FFCB37" stroke-width="3.4375" stroke-linejoin="round" stroke-miterlimit="10" fill="#FFCB37"/><path d="M3538.16 9183.82C3538.16 9189.9 3533.23 9194.82 3527.16 9194.82 3521.08 9194.82 3516.16 9189.9 3516.16 9183.82 3516.16 9177.75 3521.08 9172.82 3527.16 9172.82 3533.23 9172.82 3538.16 9177.75 3538.16 9183.82Z" stroke="#FFCB37" stroke-width="3.4375" stroke-linejoin="round" stroke-miterlimit="10" fill="#FFCB37"/><path d="M3573.16 9227.82C3573.16 9233.9 3568.23 9238.82 3562.16 9238.82 3556.08 9238.82 3551.16 9233.9 3551.16 9227.82 3551.16 9221.75 3556.08 9216.82 3562.16 9216.82 3568.23 9216.82 3573.16 9221.75 3573.16 9227.82Z" stroke="#FFCB37" stroke-width="3.4375" stroke-linejoin="round" stroke-miterlimit="10" fill="#FFCB37"/><path d="M3609.16 9184.82C3609.16 9190.9 3604.23 9195.82 3598.16 9195.82 3592.08 9195.82 3587.16 9190.9 3587.16 9184.82 3587.16 9178.75 3592.08 9173.82 3598.16 9173.82 3604.23 9173.82 3609.16 9178.75 3609.16 9184.82Z" stroke="#FFCB37" stroke-width="3.4375" stroke-linejoin="round" stroke-miterlimit="10" fill="#FFCB37"/><path d="M3644.16 9235.82C3644.16 9241.9 3639.23 9246.82 3633.16 9246.82 3627.08 9246.82 3622.16 9241.9 3622.16 9235.82 3622.16 9229.75 3627.08 9224.82 3633.16 9224.82 3639.23 9224.82 3644.16 9229.75 3644.16 9235.82Z" stroke="#FFCB37" stroke-width="3.4375" stroke-linejoin="round" stroke-miterlimit="10" fill="#FFCB37"/><path d="M3679.16 9177.82C3679.16 9183.9 3674.23 9188.82 3668.16 9188.82 3662.08 9188.82 3657.16 9183.9 3657.16 9177.82 3657.16 9171.75 3662.08 9166.82 3668.16 9166.82 3674.23 9166.82 3679.16 9171.75 3679.16 9177.82Z" stroke="#FFCB37" stroke-width="3.4375" stroke-linejoin="round" stroke-miterlimit="10" fill="#FFCB37"/><path d="M3715.16 9236.82C3715.16 9242.9 3710.23 9247.82 3704.16 9247.82 3698.08 9247.82 3693.16 9242.9 3693.16 9236.82 3693.16 9230.75 3698.08 9225.82 3704.16 9225.82 3710.23 9225.82 3715.16 9230.75 3715.16 9236.82Z" stroke="#FFCB37" stroke-width="3.4375" stroke-linejoin="round" stroke-miterlimit="10" fill="#FFCB37"/><path d="M3750.16 9193.82C3750.16 9199.9 3745.23 9204.82 3739.16 9204.82 3733.08 9204.82 3728.16 9199.9 3728.16 9193.82 3728.16 9187.75 3733.08 9182.82 3739.16 9182.82 3745.23 9182.82 3750.16 9187.75 3750.16 9193.82Z" stroke="#FFCB37" stroke-width="3.4375" stroke-linejoin="round" stroke-miterlimit="10" fill="#FFCB37"/><path d="M3785.16 9158.82C3785.16 9164.9 3780.23 9169.82 3774.16 9169.82 3768.08 9169.82 3763.16 9164.9 3763.16 9158.82 3763.16 9152.75 3768.08 9147.82 3774.16 9147.82 3780.23 9147.82 3785.16 9152.75 3785.16 9158.82Z" stroke="#FFCB37" stroke-width="3.4375" stroke-linejoin="round" stroke-miterlimit="10" fill="#FFCB37"/><path d="M3821.16 9203.82C3821.16 9209.9 3816.23 9214.82 3810.16 9214.82 3804.08 9214.82 3799.16 9209.9 3799.16 9203.82 3799.16 9197.75 3804.08 9192.82 3810.16 9192.82 3816.23 9192.82 3821.16 9197.75 3821.16 9203.82Z" stroke="#FFCB37" stroke-width="3.4375" stroke-linejoin="round" stroke-miterlimit="10" fill="#FFCB37"/><path d="M3856.16 9161.82C3856.16 9167.9 3851.23 9172.82 3845.16 9172.82 3839.08 9172.82 3834.16 9167.9 3834.16 9161.82 3834.16 9155.75 3839.08 9150.82 3845.16 9150.82 3851.23 9150.82 3856.16 9155.75 3856.16 9161.82Z" stroke="#FFCB37" stroke-width="3.4375" stroke-linejoin="round" stroke-miterlimit="10" fill="#FFCB37"/><path d="M3891.16 9212.82C3891.16 9218.9 3886.23 9223.82 3880.16 9223.82 3874.08 9223.82 3869.16 9218.9 3869.16 9212.82 3869.16 9206.75 3874.08 9201.82 3880.16 9201.82 3886.23 9201.82 3891.16 9206.75 3891.16 9212.82Z" stroke="#FFCB37" stroke-width="3.4375" stroke-linejoin="round" stroke-miterlimit="10" fill="#FFCB37"/><path d="M3927.16 9170.82C3927.16 9176.9 3922.23 9181.82 3916.16 9181.82 3910.08 9181.82 3905.16 9176.9 3905.16 9170.82 3905.16 9164.75 3910.08 9159.82 3916.16 9159.82 3922.23 9159.82 3927.16 9164.75 3927.16 9170.82Z" stroke="#FFCB37" stroke-width="3.4375" stroke-linejoin="round" stroke-miterlimit="10" fill="#FFCB37"/><path d="M3962.16 9215.82C3962.16 9221.9 3957.23 9226.82 3951.16 9226.82 3945.08 9226.82 3940.16 9221.9 3940.16 9215.82 3940.16 9209.75 3945.08 9204.82 3951.16 9204.82 3957.23 9204.82 3962.16 9209.75 3962.16 9215.82Z" stroke="#FFCB37" stroke-width="3.4375" stroke-linejoin="round" stroke-miterlimit="10" fill="#FFCB37"/><path d="M3997.16 9177.82C3997.16 9183.9 3992.23 9188.82 3986.16 9188.82 3980.08 9188.82 3975.16 9183.9 3975.16 9177.82 3975.16 9171.75 3980.08 9166.82 3986.16 9166.82 3992.23 9166.82 3997.16 9171.75 3997.16 9177.82Z" stroke="#FFCB37" stroke-width="3.4375" stroke-linejoin="round" stroke-miterlimit="10" fill="#FFCB37"/><path d="M4033.16 9251.82C4033.16 9257.9 4028.23 9262.82 4022.16 9262.82 4016.08 9262.82 4011.16 9257.9 4011.16 9251.82 4011.16 9245.75 4016.08 9240.82 4022.16 9240.82 4028.23 9240.82 4033.16 9245.75 4033.16 9251.82Z" stroke="#FFCB37" stroke-width="3.4375" stroke-linejoin="round" stroke-miterlimit="10" fill="#FFCB37"/><path d="M4068.16 9206.82C4068.16 9212.9 4063.23 9217.82 4057.16 9217.82 4051.08 9217.82 4046.16 9212.9 4046.16 9206.82 4046.16 9200.75 4051.08 9195.82 4057.16 9195.82 4063.23 9195.82 4068.16 9200.75 4068.16 9206.82Z" stroke="#FFCB37" stroke-width="3.4375" stroke-linejoin="round" stroke-miterlimit="10" fill="#FFCB37"/><path d="M4103.16 9256.82C4103.16 9262.9 4098.23 9267.82 4092.16 9267.82 4086.08 9267.82 4081.16 9262.9 4081.16 9256.82 4081.16 9250.75 4086.08 9245.82 4092.16 9245.82 4098.23 9245.82 4103.16 9250.75 4103.16 9256.82Z" stroke="#FFCB37" stroke-width="3.4375" stroke-linejoin="round" stroke-miterlimit="10" fill="#FFCB37"/><path d="M4139.16 9207.82C4139.16 9213.9 4134.23 9218.82 4128.16 9218.82 4122.08 9218.82 4117.16 9213.9 4117.16 9207.82 4117.16 9201.75 4122.08 9196.82 4128.16 9196.82 4134.23 9196.82 4139.16 9201.75 4139.16 9207.82Z" stroke="#FFCB37" stroke-width="3.4375" stroke-linejoin="round" stroke-miterlimit="10" fill="#FFCB37"/><path d="M4174.16 9168.82C4174.16 9174.9 4169.23 9179.82 4163.16 9179.82 4157.08 9179.82 4152.16 9174.9 4152.16 9168.82 4152.16 9162.75 4157.08 9157.82 4163.16 9157.82 4169.23 9157.82 4174.16 9162.75 4174.16 9168.82Z" stroke="#FFCB37" stroke-width="3.4375" stroke-linejoin="round" stroke-miterlimit="10" fill="#FFCB37"/><path d="M4209.16 9122.82C4209.16 9128.9 4204.23 9133.82 4198.16 9133.82 4192.08 9133.82 4187.16 9128.9 4187.16 9122.82 4187.16 9116.75 4192.08 9111.82 4198.16 9111.82 4204.23 9111.82 4209.16 9116.75 4209.16 9122.82Z" stroke="#FFCB37" stroke-width="3.4375" stroke-linejoin="round" stroke-miterlimit="10" fill="#FFCB37"/><path d="M4245.16 9105.82C4245.16 9111.9 4240.23 9116.82 4234.16 9116.82 4228.08 9116.82 4223.16 9111.9 4223.16 9105.82 4223.16 9099.75 4228.08 9094.82 4234.16 9094.82 4240.23 9094.82 4245.16 9099.75 4245.16 9105.82Z" stroke="#FFCB37" stroke-width="3.4375" stroke-linejoin="round" stroke-miterlimit="10" fill="#FFCB37"/><path d="M4280.16 9054.82C4280.16 9060.89 4275.23 9065.82 4269.16 9065.82 4263.08 9065.82 4258.16 9060.89 4258.16 9054.82 4258.16 9048.74 4263.08 9043.82 4269.16 9043.82 4275.23 9043.82 4280.16 9048.74 4280.16 9054.82Z" stroke="#FFCB37" stroke-width="3.4375" stroke-linejoin="round" stroke-miterlimit="10" fill="#FFCB37"/><path d="M4315.16 8986.82C4315.16 8992.9 4310.23 8997.82 4304.16 8997.82 4298.08 8997.82 4293.16 8992.9 4293.16 8986.82 4293.16 8980.75 4298.08 8975.82 4304.16 8975.82 4310.23 8975.82 4315.16 8980.75 4315.16 8986.82Z" stroke="#FFCB37" stroke-width="3.4375" stroke-linejoin="round" stroke-miterlimit="10" fill="#FFCB37"/><path d="M4351.16 8927.82C4351.16 8933.9 4346.23 8938.82 4340.16 8938.82 4334.08 8938.82 4329.16 8933.9 4329.16 8927.82 4329.16 8921.75 4334.08 8916.82 4340.16 8916.82 4346.23 8916.82 4351.16 8921.75 4351.16 8927.82Z" stroke="#FFCB37" stroke-width="3.4375" stroke-linejoin="round" stroke-miterlimit="10" fill="#FFCB37"/><path d="M4386.16 8885.82C4386.16 8891.9 4381.23 8896.82 4375.16 8896.82 4369.08 8896.82 4364.16 8891.9 4364.16 8885.82 4364.16 8879.75 4369.08 8874.82 4375.16 8874.82 4381.23 8874.82 4386.16 8879.75 4386.16 8885.82Z" stroke="#FFCB37" stroke-width="3.4375" stroke-linejoin="round" stroke-miterlimit="10" fill="#FFCB37"/><path d="M4421.16 8834.82C4421.16 8840.89 4416.23 8845.82 4410.16 8845.82 4404.08 8845.82 4399.16 8840.89 4399.16 8834.82 4399.16 8828.74 4404.08 8823.82 4410.16 8823.82 4416.23 8823.82 4421.16 8828.74 4421.16 8834.82Z" stroke="#FFCB37" stroke-width="3.4375" stroke-linejoin="round" stroke-miterlimit="10" fill="#FFCB37"/><path d="M4457.16 8787.82C4457.16 8793.9 4452.23 8798.82 4446.16 8798.82 4440.08 8798.82 4435.16 8793.9 4435.16 8787.82 4435.16 8781.75 4440.08 8776.82 4446.16 8776.82 4452.23 8776.82 4457.16 8781.75 4457.16 8787.82Z" stroke="#FFCB37" stroke-width="3.4375" stroke-linejoin="round" stroke-miterlimit="10" fill="#FFCB37"/><path d="M4492.16 8837.82C4492.16 8843.9 4487.23 8848.82 4481.16 8848.82 4475.08 8848.82 4470.16 8843.9 4470.16 8837.82 4470.16 8831.75 4475.08 8826.82 4481.16 8826.82 4487.23 8826.82 4492.16 8831.75 4492.16 8837.82Z" stroke="#FFCB37" stroke-width="3.4375" stroke-linejoin="round" stroke-miterlimit="10" fill="#FFCB37"/><path d="M4527.16 8831.82C4527.16 8837.9 4522.23 8842.82 4516.16 8842.82 4510.08 8842.82 4505.16 8837.9 4505.16 8831.82 4505.16 8825.75 4510.08 8820.82 4516.16 8820.82 4522.23 8820.82 4527.16 8825.75 4527.16 8831.82Z" stroke="#FFCB37" stroke-width="3.4375" stroke-linejoin="round" stroke-miterlimit="10" fill="#FFCB37"/><path d="M4563.16 8875.82C4563.16 8881.9 4558.23 8886.82 4552.16 8886.82 4546.08 8886.82 4541.16 8881.9 4541.16 8875.82 4541.16 8869.75 4546.08 8864.82 4552.16 8864.82 4558.23 8864.82 4563.16 8869.75 4563.16 8875.82Z" stroke="#FFCB37" stroke-width="3.4375" stroke-linejoin="round" stroke-miterlimit="10" fill="#FFCB37"/><path d="M4598.16 8823.82C4598.16 8829.89 4593.23 8834.82 4587.16 8834.82 4581.08 8834.82 4576.16 8829.89 4576.16 8823.82 4576.16 8817.74 4581.08 8812.82 4587.16 8812.82 4593.23 8812.82 4598.16 8817.74 4598.16 8823.82Z" stroke="#FFCB37" stroke-width="3.4375" stroke-linejoin="round" stroke-miterlimit="10" fill="#FFCB37"/></g><g><text fill="#E5E7EB" font-family="Calibri,Calibri_MSFontService,sans-serif" font-weight="400" font-size="41" transform="matrix(1 0 0 1 2880.65 9542)"> $(50.00)</text></g><g><text fill="#E5E7EB" font-family="Calibri,Calibri_MSFontService,sans-serif" font-weight="400" font-size="41" transform="matrix(1 0 0 1 2959.07 9437)"> $-</text></g><g><text fill="#E5E7EB" font-family="Calibri,Calibri_MSFontService,sans-serif" font-weight="400" font-size="41" transform="matrix(1 0 0 1 2896.35 9333)"> $50.00</text></g><g><text fill="#E5E7EB" font-family="Calibri,Calibri_MSFontService,sans-serif" font-weight="400" font-size="41" transform="matrix(1 0 0 1 2875.45 9228)"> $100.00</text></g><g><text fill="#E5E7EB" font-family="Calibri,Calibri_MSFontService,sans-serif" font-weight="400" font-size="41" transform="matrix(1 0 0 1 2875.45 9123)"> $150.00</text></g><g><text fill="#E5E7EB" font-family="Calibri,Calibri_MSFontService,sans-serif" font-weight="400" font-size="41" transform="matrix(1 0 0 1 2875.45 9018)"> $200.00</text></g><g><text fill="#E5E7EB" font-family="Calibri,Calibri_MSFontService,sans-serif" font-weight="400" font-size="41" transform="matrix(1 0 0 1 2875.45 8913)"> $250.00</text></g><g><text fill="#E5E7EB" font-family="Calibri,Calibri_MSFontService,sans-serif" font-weight="400" font-size="41" transform="matrix(1 0 0 1 2875.45 8808)"> $300.00</text></g><g><text fill="#E5E7EB" font-family="Calibri,Calibri_MSFontService,sans-serif" font-weight="400" font-size="41" transform="matrix(1 0 0 1 2875.45 8703)"> $350.00</text></g><g><text fill="#E5E7EB" font-family="Calibri,Calibri_MSFontService,sans-serif" font-weight="400" font-size="41" transform="matrix(1 0 0 1 3057.73 9491)">0</text></g><g><text fill="#E5E7EB" font-family="Calibri,Calibri_MSFontService,sans-serif" font-weight="400" font-size="41" transform="matrix(1 0 0 1 3234.4 9491)">5</text></g><g><text fill="#E5E7EB" font-family="Calibri,Calibri_MSFontService,sans-serif" font-weight="400" font-size="41" transform="matrix(1 0 0 1 3400.63 9491)">10</text></g><g><text fill="#E5E7EB" font-family="Calibri,Calibri_MSFontService,sans-serif" font-weight="400" font-size="41" transform="matrix(1 0 0 1 3577.3 9491)">15</text></g><g><text fill="#E5E7EB" font-family="Calibri,Calibri_MSFontService,sans-serif" font-weight="400" font-size="41" transform="matrix(1 0 0 1 3753.98 9491)">20</text></g><g><text fill="#E5E7EB" font-family="Calibri,Calibri_MSFontService,sans-serif" font-weight="400" font-size="41" transform="matrix(1 0 0 1 3930.65 9491)">25</text></g><g><text fill="#E5E7EB" font-family="Calibri,Calibri_MSFontService,sans-serif" font-weight="400" font-size="41" transform="matrix(1 0 0 1 4107.33 9491)">30</text></g><g><text fill="#E5E7EB" font-family="Calibri,Calibri_MSFontService,sans-serif" font-weight="400" font-size="41" transform="matrix(1 0 0 1 4284.01 9491)">35</text></g><g><text fill="#E5E7EB" font-family="Calibri,Calibri_MSFontService,sans-serif" font-weight="400" font-size="41" transform="matrix(1 0 0 1 4460.68 9491)">40</text></g><g><text fill="#E5E7EB" font-family="Calibri,Calibri_MSFontService,sans-serif" font-weight="400" font-size="41" transform="matrix(1 0 0 1 4637.36 9491)">45</text></g><g><text fill="#E5E7EB" font-family="Calibri,Calibri_MSFontService,sans-serif" font-weight="400" font-size="41" transform="matrix(1 0 0 1 4814.03 9491)">50</text></g><g><text fill="#E5E7EB" font-family="Calibri,Calibri_MSFontService,sans-serif" font-weight="400" font-size="64" transform="matrix(1 0 0 1 3318.06 8617)">Profit with Max 5% Engaged on Each Signal</text></g><rect x="2846.5" y="8521.5" width="2060" height="1060" stroke="#D9D9D9" stroke-width="3.4375" stroke-linejoin="round" stroke-miterlimit="10" fill="none"/></g></svg>