<svg width="757" height="646" xmlns="http://www.w3.org/2000/svg" xmlns:xlink="http://www.w3.org/1999/xlink" xml:space="preserve" overflow="hidden"><defs><clipPath id="clip0"><rect x="3391" y="4048" width="757" height="646"/></clipPath></defs><g clip-path="url(#clip0)" transform="translate(-3391 -4048)"><g><path d="M3772.96 4148.04C3879.93 4148.04 3966.64 4234.75 3966.64 4341.72 3966.64 4448.69 3879.93 4535.4 3772.96 4535.4 3665.99 4535.4 3579.28 4448.69 3579.28 4341.72 3579.28 4336.89 3579.46 4332.06 3579.82 4327.25L3628.11 4330.87C3622.11 4410.87 3682.11 4480.58 3762.11 4486.58 3842.11 4492.57 3911.82 4432.58 3917.82 4352.58 3923.81 4272.57 3863.82 4202.86 3783.82 4196.87 3780.21 4196.59 3776.58 4196.46 3772.96 4196.46Z" stroke="#FFFFFF" stroke-width="6.875" stroke-linejoin="round" stroke-miterlimit="10" fill="#4ADE80" fill-rule="evenodd"/></g><g><path d="M3579.82 4327.25C3587.4 4226.18 3671.61 4148.04 3772.96 4148.04L3772.96 4196.46C3696.95 4196.46 3633.79 4255.06 3628.11 4330.87Z" stroke="#FFFFFF" stroke-width="6.875" stroke-linejoin="round" stroke-miterlimit="10" fill="#FFCB37" fill-rule="evenodd"/></g><g><path d="M3888.5 4465.5 3923.63 4501.5 3943.5 4501.5" stroke="#A6A6A6" stroke-width="3.4375" stroke-linejoin="round" stroke-miterlimit="10" fill="none"/></g><g><path d="M3657.5 4217.5 3648.62 4184.5 3628.5 4184.5" stroke="#A6A6A6" stroke-width="3.4375" stroke-linejoin="round" stroke-miterlimit="10" fill="none"/></g><g><text fill="#4ADE80" font-family="Calibri,Calibri_MSFontService,sans-serif" font-weight="400" font-size="28" transform="matrix(1 0 0 1 3957.69 4510)">76%</text></g><g><text fill="#FFCB37" font-family="Calibri,Calibri_MSFontService,sans-serif" font-weight="400" font-size="28" transform="matrix(1 0 0 1 3566.9 4194)">24%</text></g><g><text fill="#E5E7EB" font-family="Calibri,Calibri_MSFontService,sans-serif" font-weight="400" font-size="33" transform="matrix(1 0 0 1 3701.57 4350)">WIN RATE</text></g><g><rect x="3675.5" y="4626.5" width="15.0002" height="15" stroke="#FFFFFF" stroke-width="6.875" stroke-linejoin="round" stroke-miterlimit="10" fill="#4ADE80"/></g><g><text fill="#E5E7EB" font-family="Calibri,Calibri_MSFontService,sans-serif" font-weight="400" font-size="28" transform="matrix(1 0 0 1 3696.74 4642)">PROFIT</text></g><g><rect x="3799.5" y="4626.5" width="15.0002" height="15" stroke="#FFFFFF" stroke-width="6.875" stroke-linejoin="round" stroke-miterlimit="10" fill="#FFCB37"/></g><g><text fill="#E5E7EB" font-family="Calibri,Calibri_MSFontService,sans-serif" font-weight="400" font-size="28" transform="matrix(1 0 0 1 3820.33 4642)">LOSS</text></g><rect x="3392.5" y="4049.5" width="754" height="643" stroke="#D9D9D9" stroke-width="3.4375" stroke-linejoin="round" stroke-miterlimit="10" fill="none"/></g></svg>