<svg width="659" height="660" xmlns="http://www.w3.org/2000/svg" xmlns:xlink="http://www.w3.org/1999/xlink" xml:space="preserve" overflow="hidden"><defs><clipPath id="clip0"><rect x="4285" y="4044" width="659" height="660"/></clipPath></defs><g clip-path="url(#clip0)" transform="translate(-4285 -4044)"><g><path d="M4620.76 4166.73C4738.72 4166.73 4834.34 4262.35 4834.34 4380.31 4834.34 4498.26 4738.72 4593.89 4620.76 4593.89 4521.12 4593.89 4434.71 4524.98 4412.54 4427.83L4464.59 4415.95C4484.28 4502.2 4570.16 4556.16 4656.41 4536.48 4742.66 4516.79 4796.62 4430.91 4776.93 4344.66 4760.3 4271.8 4695.5 4220.12 4620.76 4220.12Z" stroke="#FFFFFF" stroke-width="6.875" stroke-linejoin="round" stroke-miterlimit="10" fill="#4ADE80" fill-rule="evenodd"/></g><g><path d="M4412.54 4427.83C4386.29 4312.83 4458.24 4198.33 4573.24 4172.08 4588.83 4168.52 4604.77 4166.73 4620.76 4166.73L4620.76 4220.12C4532.29 4220.12 4460.58 4291.84 4460.58 4380.31 4460.58 4392.3 4461.92 4404.26 4464.59 4415.95Z" stroke="#FFFFFF" stroke-width="6.875" stroke-linejoin="round" stroke-miterlimit="10" fill="#FFCB37" fill-rule="evenodd"/></g><g><path d="M4766.5 4496.5 4792.66 4607.5 4812.5 4607.5" stroke="#A6A6A6" stroke-width="3.4375" stroke-linejoin="round" stroke-miterlimit="10" fill="none"/></g><g><path d="M4474.5 4263.5 4444.65 4251.5 4424.5 4251.5" stroke="#A6A6A6" stroke-width="3.4375" stroke-linejoin="round" stroke-miterlimit="10" fill="none"/></g><g><text fill="#4ADE80" font-family="Calibri,Calibri_MSFontService,sans-serif" font-weight="700" font-size="28" transform="matrix(1 0 0 1 4826.7 4617)">71%</text></g><g><text fill="#FFCB37" font-family="Calibri,Calibri_MSFontService,sans-serif" font-weight="700" font-size="28" transform="matrix(1 0 0 1 4362.36 4260)">29%</text></g><g><text fill="#FFCB37" font-family="Calibri,Calibri_MSFontService,sans-serif" font-weight="700" font-size="33" transform="matrix(1 0 0 1 4534.32 4392)">Short</text></g><g><text fill="#E5E7EB" font-family="Calibri,Calibri_MSFontService,sans-serif" font-weight="400" font-size="33" transform="matrix(1 0 0 1 4616.01 4392)">&amp;</text></g><g><text fill="#4ADE80" font-family="Calibri,Calibri_MSFontService,sans-serif" font-weight="700" font-size="33" transform="matrix(1 0 0 1 4645.99 4392)">Long</text></g><rect x="4286.5" y="4045.5" width="656" height="657" stroke="#D9D9D9" stroke-width="3.4375" stroke-linejoin="round" stroke-miterlimit="10" fill="none"/></g></svg>