<svg width="2194" height="1388" xmlns="http://www.w3.org/2000/svg" xmlns:xlink="http://www.w3.org/1999/xlink" xml:space="preserve" overflow="hidden"><defs><clipPath id="clip0"><rect x="3393" y="6493" width="2194" height="1388"/></clipPath></defs><g clip-path="url(#clip0)" transform="translate(-3393 -6493)"><g><path d="M3616.5 7828.5 5513.5 7828.5M3616.5 7595.75 5513.5 7595.75M3616.5 7362.74 5513.5 7362.74M3616.5 7129.73 5513.5 7129.73M3616.5 6896.73 5513.5 6896.73M3616.5 6663.5 5513.5 6663.5" stroke="#D9D9D9" stroke-width="3.4375" stroke-linejoin="round" stroke-miterlimit="10" fill="none"/></g><g><path d="M3995.63 6663.5 3995.63 7828.5M4375.64 6663.5 4375.64 7828.5M4754.66 6663.5 4754.66 7828.5M5134.67 6663.5 5134.67 7828.5M5513.5 6663.5 5513.5 7828.5" stroke="#D9D9D9" stroke-width="3.4375" stroke-linejoin="round" stroke-miterlimit="10" fill="none"/></g><g><path d="M0 0 0.000360892 1165" stroke="#BFBFBF" stroke-width="3.4375" stroke-linejoin="round" stroke-miterlimit="10" fill="none" fill-rule="evenodd" transform="matrix(1 0 0 -1 3616.5 7828.5)"/></g><g><path d="M3616.5 7735.5 5513.5 7735.5" stroke="#BFBFBF" stroke-width="3.4375" stroke-linejoin="round" stroke-miterlimit="10" fill="none" fill-rule="evenodd"/></g><g><path d="M3692.5 7781.5 3768.62 7731.75 3844.63 7666.75 3920.63 7573.75 3995.63 7469.75 4071.63 7396.74 4147.64 7328.74 4223.64 7249.74 4299.64 7161.74 4375.64 7221.74 4451.65 7139.73 4527.65 7165.74 4603.65 7117.73 4678.65 7174.74 4754.66 7113.73 4830.66 7050.73 4906.66 6994.73 4982.66 6890.73 5058.67 6815.72 5134.67 6765.5 5210.5 6810.72" stroke="#FFCB37" stroke-width="6.875" stroke-linecap="round" stroke-linejoin="round" stroke-miterlimit="10" fill="none"/></g><g><path d="M3703.61 7781.32C3703.61 7787.39 3698.69 7792.32 3692.61 7792.32 3686.54 7792.32 3681.62 7787.39 3681.62 7781.32 3681.62 7775.24 3686.54 7770.32 3692.61 7770.32 3698.69 7770.32 3703.61 7775.24 3703.61 7781.32Z" stroke="#FFCB37" stroke-width="3.4375" stroke-linejoin="round" stroke-miterlimit="10" fill="#FFCB37"/><path d="M3779.61 7731.32C3779.61 7737.39 3774.69 7742.32 3768.61 7742.32 3762.54 7742.32 3757.62 7737.39 3757.62 7731.32 3757.62 7725.24 3762.54 7720.32 3768.61 7720.32 3774.69 7720.32 3779.61 7725.24 3779.61 7731.32Z" stroke="#FFCB37" stroke-width="3.4375" stroke-linejoin="round" stroke-miterlimit="10" fill="#FFCB37"/><path d="M3855.61 7666.32C3855.61 7672.39 3850.69 7677.32 3844.61 7677.32 3838.54 7677.32 3833.62 7672.39 3833.62 7666.32 3833.62 7660.24 3838.54 7655.32 3844.61 7655.32 3850.69 7655.32 3855.61 7660.24 3855.61 7666.32Z" stroke="#FFCB37" stroke-width="3.4375" stroke-linejoin="round" stroke-miterlimit="10" fill="#FFCB37"/><path d="M3931.61 7574.32C3931.61 7580.39 3926.69 7585.32 3920.61 7585.32 3914.54 7585.32 3909.62 7580.39 3909.62 7574.32 3909.62 7568.24 3914.54 7563.32 3920.61 7563.32 3926.69 7563.32 3931.61 7568.24 3931.61 7574.32Z" stroke="#FFCB37" stroke-width="3.4375" stroke-linejoin="round" stroke-miterlimit="10" fill="#FFCB37"/><path d="M4007.61 7470.32C4007.61 7476.39 4002.69 7481.32 3996.61 7481.32 3990.54 7481.32 3985.61 7476.39 3985.61 7470.32 3985.61 7464.24 3990.54 7459.32 3996.61 7459.32 4002.69 7459.32 4007.61 7464.24 4007.61 7470.32Z" stroke="#FFCB37" stroke-width="3.4375" stroke-linejoin="round" stroke-miterlimit="10" fill="#FFCB37"/><path d="M4082.61 7396.32C4082.61 7402.39 4077.69 7407.32 4071.61 7407.32 4065.54 7407.32 4060.61 7402.39 4060.61 7396.32 4060.61 7390.24 4065.54 7385.32 4071.61 7385.32 4077.69 7385.32 4082.61 7390.24 4082.61 7396.32Z" stroke="#FFCB37" stroke-width="3.4375" stroke-linejoin="round" stroke-miterlimit="10" fill="#FFCB37"/><path d="M4158.61 7328.32C4158.61 7334.39 4153.69 7339.32 4147.62 7339.32 4141.54 7339.32 4136.62 7334.39 4136.62 7328.32 4136.62 7322.24 4141.54 7317.32 4147.62 7317.32 4153.69 7317.32 4158.61 7322.24 4158.61 7328.32Z" stroke="#FFCB37" stroke-width="3.4375" stroke-linejoin="round" stroke-miterlimit="10" fill="#FFCB37"/><path d="M4234.61 7249.32C4234.61 7255.39 4229.69 7260.32 4223.62 7260.32 4217.54 7260.32 4212.62 7255.39 4212.62 7249.32 4212.62 7243.24 4217.54 7238.32 4223.62 7238.32 4229.69 7238.32 4234.61 7243.24 4234.61 7249.32Z" stroke="#FFCB37" stroke-width="3.4375" stroke-linejoin="round" stroke-miterlimit="10" fill="#FFCB37"/><path d="M4310.61 7161.32C4310.61 7167.39 4305.69 7172.32 4299.62 7172.32 4293.54 7172.32 4288.62 7167.39 4288.62 7161.32 4288.62 7155.24 4293.54 7150.32 4299.62 7150.32 4305.69 7150.32 4310.61 7155.24 4310.61 7161.32Z" stroke="#FFCB37" stroke-width="3.4375" stroke-linejoin="round" stroke-miterlimit="10" fill="#FFCB37"/><path d="M4386.61 7221.32C4386.61 7227.39 4381.69 7232.32 4375.62 7232.32 4369.54 7232.32 4364.62 7227.39 4364.62 7221.32 4364.62 7215.24 4369.54 7210.32 4375.62 7210.32 4381.69 7210.32 4386.61 7215.24 4386.61 7221.32Z" stroke="#FFCB37" stroke-width="3.4375" stroke-linejoin="round" stroke-miterlimit="10" fill="#FFCB37"/><path d="M4462.61 7140.32C4462.61 7146.39 4457.69 7151.32 4451.62 7151.32 4445.54 7151.32 4440.62 7146.39 4440.62 7140.32 4440.62 7134.24 4445.54 7129.32 4451.62 7129.32 4457.69 7129.32 4462.61 7134.24 4462.61 7140.32Z" stroke="#FFCB37" stroke-width="3.4375" stroke-linejoin="round" stroke-miterlimit="10" fill="#FFCB37"/><path d="M4538.61 7165.32C4538.61 7171.39 4533.69 7176.32 4527.61 7176.32 4521.54 7176.32 4516.61 7171.39 4516.61 7165.32 4516.61 7159.24 4521.54 7154.32 4527.61 7154.32 4533.69 7154.32 4538.61 7159.24 4538.61 7165.32Z" stroke="#FFCB37" stroke-width="3.4375" stroke-linejoin="round" stroke-miterlimit="10" fill="#FFCB37"/><path d="M4614.61 7118.32C4614.61 7124.39 4609.69 7129.32 4603.61 7129.32 4597.54 7129.32 4592.61 7124.39 4592.61 7118.32 4592.61 7112.24 4597.54 7107.32 4603.61 7107.32 4609.69 7107.32 4614.61 7112.24 4614.61 7118.32Z" stroke="#FFCB37" stroke-width="3.4375" stroke-linejoin="round" stroke-miterlimit="10" fill="#FFCB37"/><path d="M4690.61 7174.32C4690.61 7180.39 4685.69 7185.32 4679.61 7185.32 4673.54 7185.32 4668.61 7180.39 4668.61 7174.32 4668.61 7168.24 4673.54 7163.32 4679.61 7163.32 4685.69 7163.32 4690.61 7168.24 4690.61 7174.32Z" stroke="#FFCB37" stroke-width="3.4375" stroke-linejoin="round" stroke-miterlimit="10" fill="#FFCB37"/><path d="M4765.61 7114.32C4765.61 7120.39 4760.69 7125.32 4754.61 7125.32 4748.54 7125.32 4743.61 7120.39 4743.61 7114.32 4743.61 7108.24 4748.54 7103.32 4754.61 7103.32 4760.69 7103.32 4765.61 7108.24 4765.61 7114.32Z" stroke="#FFCB37" stroke-width="3.4375" stroke-linejoin="round" stroke-miterlimit="10" fill="#FFCB37"/><path d="M4841.61 7050.32C4841.61 7056.39 4836.69 7061.32 4830.61 7061.32 4824.54 7061.32 4819.61 7056.39 4819.61 7050.32 4819.61 7044.24 4824.54 7039.32 4830.61 7039.32 4836.69 7039.32 4841.61 7044.24 4841.61 7050.32Z" stroke="#FFCB37" stroke-width="3.4375" stroke-linejoin="round" stroke-miterlimit="10" fill="#FFCB37"/><path d="M4917.61 6994.32C4917.61 7000.39 4912.69 7005.32 4906.62 7005.32 4900.54 7005.32 4895.62 7000.39 4895.62 6994.32 4895.62 6988.24 4900.54 6983.32 4906.62 6983.32 4912.69 6983.32 4917.61 6988.24 4917.61 6994.32Z" stroke="#FFCB37" stroke-width="3.4375" stroke-linejoin="round" stroke-miterlimit="10" fill="#FFCB37"/><path d="M4993.61 6891.32C4993.61 6897.39 4988.69 6902.32 4982.62 6902.32 4976.54 6902.32 4971.62 6897.39 4971.62 6891.32 4971.62 6885.24 4976.54 6880.32 4982.62 6880.32 4988.69 6880.32 4993.61 6885.24 4993.61 6891.32Z" stroke="#FFCB37" stroke-width="3.4375" stroke-linejoin="round" stroke-miterlimit="10" fill="#FFCB37"/><path d="M5069.61 6815.32C5069.61 6821.39 5064.69 6826.32 5058.62 6826.32 5052.54 6826.32 5047.62 6821.39 5047.62 6815.32 5047.62 6809.24 5052.54 6804.32 5058.62 6804.32 5064.69 6804.32 5069.61 6809.24 5069.61 6815.32Z" stroke="#FFCB37" stroke-width="3.4375" stroke-linejoin="round" stroke-miterlimit="10" fill="#FFCB37"/><path d="M5145.61 6765.32C5145.61 6771.39 5140.69 6776.32 5134.62 6776.32 5128.54 6776.32 5123.62 6771.39 5123.62 6765.32 5123.62 6759.24 5128.54 6754.32 5134.62 6754.32 5140.69 6754.32 5145.61 6759.24 5145.61 6765.32Z" stroke="#FFCB37" stroke-width="3.4375" stroke-linejoin="round" stroke-miterlimit="10" fill="#FFCB37"/><path d="M5221.61 6811.32C5221.61 6817.39 5216.69 6822.32 5210.62 6822.32 5204.54 6822.32 5199.62 6817.39 5199.62 6811.32 5199.62 6805.24 5204.54 6800.32 5210.62 6800.32 5216.69 6800.32 5221.61 6805.24 5221.61 6811.32Z" stroke="#FFCB37" stroke-width="3.4375" stroke-linejoin="round" stroke-miterlimit="10" fill="#FFCB37"/></g><g><text fill="#E5E7EB" font-family="Calibri,Calibri_MSFontService,sans-serif" font-weight="400" font-size="41" transform="matrix(1 0 0 1 3429.11 7840)"> $(20.00)</text></g><g><text fill="#E5E7EB" font-family="Calibri,Calibri_MSFontService,sans-serif" font-weight="400" font-size="41" transform="matrix(1 0 0 1 3444.81 7607)"> $30.00</text></g><g><text fill="#E5E7EB" font-family="Calibri,Calibri_MSFontService,sans-serif" font-weight="400" font-size="41" transform="matrix(1 0 0 1 3444.81 7374)"> $80.00</text></g><g><text fill="#E5E7EB" font-family="Calibri,Calibri_MSFontService,sans-serif" font-weight="400" font-size="41" transform="matrix(1 0 0 1 3423.91 7141)"> $130.00</text></g><g><text fill="#E5E7EB" font-family="Calibri,Calibri_MSFontService,sans-serif" font-weight="400" font-size="41" transform="matrix(1 0 0 1 3423.91 6908)"> $180.00</text></g><g><text fill="#E5E7EB" font-family="Calibri,Calibri_MSFontService,sans-serif" font-weight="400" font-size="41" transform="matrix(1 0 0 1 3423.91 6675)"> $230.00</text></g><g><text fill="#E5E7EB" font-family="Calibri,Calibri_MSFontService,sans-serif" font-weight="400" font-size="41" transform="matrix(1 0 0 1 3606.18 7800)">0</text></g><g><text fill="#E5E7EB" font-family="Calibri,Calibri_MSFontService,sans-serif" font-weight="400" font-size="41" transform="matrix(1 0 0 1 3985.63 7800)">5</text></g><g><text fill="#E5E7EB" font-family="Calibri,Calibri_MSFontService,sans-serif" font-weight="400" font-size="41" transform="matrix(1 0 0 1 4354.63 7800)">10</text></g><g><text fill="#E5E7EB" font-family="Calibri,Calibri_MSFontService,sans-serif" font-weight="400" font-size="41" transform="matrix(1 0 0 1 4734.07 7800)">15</text></g><g><text fill="#E5E7EB" font-family="Calibri,Calibri_MSFontService,sans-serif" font-weight="400" font-size="41" transform="matrix(1 0 0 1 5113.52 7800)">20</text></g><g><text fill="#E5E7EB" font-family="Calibri,Calibri_MSFontService,sans-serif" font-weight="400" font-size="41" transform="matrix(1 0 0 1 5492.97 7800)">25</text></g><g><text fill="#E5E7EB" font-family="Calibri,Calibri_MSFontService,sans-serif" font-weight="400" font-size="64" transform="matrix(1 0 0 1 4050.59 6589)">Profit with 50$ put on each Signal</text></g><rect x="3394.5" y="6494.5" width="2191" height="1385" stroke="#D9D9D9" stroke-width="3.4375" stroke-linejoin="round" stroke-miterlimit="10" fill="none"/></g></svg>