<svg width="1046" height="1053" xmlns="http://www.w3.org/2000/svg" xmlns:xlink="http://www.w3.org/1999/xlink" xml:space="preserve" overflow="hidden"><defs><clipPath id="clip0"><rect x="3136" y="4419" width="1046" height="1053"/></clipPath></defs><g clip-path="url(#clip0)" transform="translate(-3136 -4419)"><g><path d="M3658.55 4641.31C3830.36 4641.31 3969.64 4780.59 3969.64 4952.4 3969.64 5124.21 3830.36 5263.49 3658.55 5263.49 3547.41 5263.49 3444.71 5204.2 3389.14 5107.95L3456.49 5069.06C3520.92 5180.66 3663.61 5218.89 3775.21 5154.46 3886.8 5090.03 3925.04 4947.34 3860.61 4835.74 3818.93 4763.55 3741.91 4719.08 3658.55 4719.08Z" stroke="#FFFFFF" stroke-width="6.875" stroke-linejoin="round" stroke-miterlimit="10" fill="#4ADE80" fill-rule="evenodd"/></g><g><path d="M3389.14 5107.95C3303.23 4959.16 3354.21 4768.89 3503 4682.99 3550.3 4655.68 3603.94 4641.31 3658.55 4641.31L3658.55 4719.08C3529.69 4719.08 3425.23 4823.54 3425.23 4952.4 3425.23 4993.36 3436.01 5033.59 3456.49 5069.06Z" stroke="#FFFFFF" stroke-width="6.875" stroke-linejoin="round" stroke-miterlimit="10" fill="#FFCB37" fill-rule="evenodd"/></g><g><path d="M3894.5 5088.5 3953.63 5145.5 3973.5 5145.5" stroke="#A6A6A6" stroke-width="3.4375" stroke-linejoin="round" stroke-miterlimit="10" fill="none"/></g><g><path d="M3422.5 4816.5 3399.61 4762.5 3379.5 4762.5" stroke="#A6A6A6" stroke-width="3.4375" stroke-linejoin="round" stroke-miterlimit="10" fill="none"/></g><g><text fill="#4ADE80" font-family="Calibri,Calibri_MSFontService,sans-serif" font-weight="400" font-size="41" transform="matrix(1 0 0 1 3987.67 5160)">67%</text></g><g><text fill="#FFCB37" font-family="Calibri,Calibri_MSFontService,sans-serif" font-weight="400" font-size="41" transform="matrix(1 0 0 1 3294.4 4777)">33%</text></g><g><text fill="#E5E7EB" font-family="Calibri,Calibri_MSFontService,sans-serif" font-weight="400" font-size="64" transform="matrix(1 0 0 1 3526.77 4965)">WIN RATE</text></g><g><rect x="3516.5" y="5392.5" width="23" height="23" stroke="#FFFFFF" stroke-width="6.875" stroke-linejoin="round" stroke-miterlimit="10" fill="#4ADE80"/></g><g><text fill="#E5E7EB" font-family="Calibri,Calibri_MSFontService,sans-serif" font-weight="400" font-size="41" transform="matrix(1 0 0 1 3548.96 5416)">PROFIT</text></g><g><rect x="3702.5" y="5392.5" width="22" height="23" stroke="#FFFFFF" stroke-width="6.875" stroke-linejoin="round" stroke-miterlimit="10" fill="#FFCB37"/></g><g><text fill="#E5E7EB" font-family="Calibri,Calibri_MSFontService,sans-serif" font-weight="400" font-size="41" transform="matrix(1 0 0 1 3734.32 5416)">LOSS</text></g><rect x="3137.5" y="4420.5" width="1043" height="1050" stroke="#D9D9D9" stroke-width="3.4375" stroke-linejoin="round" stroke-miterlimit="10" fill="none"/></g></svg>