<svg width="1029" height="966" xmlns="http://www.w3.org/2000/svg" xmlns:xlink="http://www.w3.org/1999/xlink" xml:space="preserve" overflow="hidden"><defs><clipPath id="clip0"><rect x="4303" y="4451" width="1029" height="966"/></clipPath></defs><g clip-path="url(#clip0)" transform="translate(-4303 -4451)"><g><path d="M4827.44 4609.29C5011.81 4609.29 5161.27 4758.75 5161.27 4943.12 5161.27 5049.98 5110.11 5150.38 5023.66 5213.19L4974.61 5145.67C5086.48 5064.4 5111.27 4907.82 5030 4795.95 4982.89 4731.12 4907.59 4692.75 4827.44 4692.75Z" stroke="#FFFFFF" stroke-width="6.875" stroke-linejoin="round" stroke-miterlimit="10" fill="#4ADE80" fill-rule="evenodd"/></g><g><path d="M5023.66 5213.19C4874.5 5321.56 4665.74 5288.5 4557.37 5139.34 4449 4990.18 4482.07 4781.42 4631.22 4673.05 4688.26 4631.61 4756.95 4609.29 4827.44 4609.29L4827.44 4692.75C4689.17 4692.75 4577.07 4804.84 4577.07 4943.12 4577.07 5081.39 4689.17 5193.49 4827.44 5193.49 4880.32 5193.49 4931.83 5176.75 4974.61 5145.67Z" stroke="#FFFFFF" stroke-width="6.875" stroke-linejoin="round" stroke-miterlimit="10" fill="#FFCB37" fill-rule="evenodd"/></g><g><path d="M5105.5 4852.5 5165.67 5015.5 5186.5 5015.5" stroke="#A6A6A6" stroke-width="3.4375" stroke-linejoin="round" stroke-miterlimit="10" fill="none"/></g><g><path d="M4549.5 5033.5 4481.65 5015.5 4461.5 5015.5" stroke="#A6A6A6" stroke-width="3.4375" stroke-linejoin="round" stroke-miterlimit="10" fill="none"/></g><g><text fill="#4ADE80" font-family="Calibri,Calibri_MSFontService,sans-serif" font-weight="700" font-size="41" transform="matrix(1 0 0 1 5200.27 5029)">40%</text></g><g><text fill="#FFCB37" font-family="Calibri,Calibri_MSFontService,sans-serif" font-weight="700" font-size="41" transform="matrix(1 0 0 1 4375.64 5029)">60%</text></g><g><text fill="#FFCB37" font-family="Calibri,Calibri_MSFontService,sans-serif" font-weight="700" font-size="64" transform="matrix(1 0 0 1 4663.25 4966)">Short</text></g><g><text fill="#E5E7EB" font-family="Calibri,Calibri_MSFontService,sans-serif" font-weight="700" font-size="64" transform="matrix(1 0 0 1 4822.06 4966)">&amp;</text></g><g><text fill="#4ADE80" font-family="Calibri,Calibri_MSFontService,sans-serif" font-weight="700" font-size="64" transform="matrix(1 0 0 1 4881.78 4966)">Long</text></g><rect x="4304.5" y="4452.5" width="1026" height="963" stroke="#D9D9D9" stroke-width="3.4375" stroke-linejoin="round" stroke-miterlimit="10" fill="none"/></g></svg>