<svg width="2058" height="1230" xmlns="http://www.w3.org/2000/svg" xmlns:xlink="http://www.w3.org/1999/xlink" xml:space="preserve" overflow="hidden"><defs><clipPath id="clip0"><rect x="3113" y="7183" width="2058" height="1230"/></clipPath></defs><g clip-path="url(#clip0)" transform="translate(-3113 -7183)"><g><path d="M3336.5 8168.77 5097.5 8168.77M3336.5 8032.76 5097.5 8032.76M3336.5 7896.76 5097.5 7896.76M3336.5 7760.75 5097.5 7760.75M3336.5 7625.75 5097.5 7625.75M3336.5 7489.75 5097.5 7489.75M3336.5 7353.5 5097.5 7353.5" stroke="#D9D9D9" stroke-width="3.4375" stroke-linejoin="round" stroke-miterlimit="10" fill="none"/></g><g><path d="M3629.62 7353.5 3629.62 8304.5M3923.63 7353.5 3923.63 8304.5M4216.64 7353.5 4216.64 8304.5M4510.65 7353.5 4510.65 8304.5M4803.66 7353.5 4803.66 8304.5M5097.5 7353.5 5097.5 8304.5" stroke="#D9D9D9" stroke-width="3.4375" stroke-linejoin="round" stroke-miterlimit="10" fill="none"/></g><g><path d="M0 0 0.000360892 951" stroke="#BFBFBF" stroke-width="3.4375" stroke-linejoin="round" stroke-miterlimit="10" fill="none" fill-rule="evenodd" transform="matrix(1 0 0 -1 3336.5 8304.5)"/></g><g><path d="M3336.5 8304.5 5097.5 8304.5" stroke="#BFBFBF" stroke-width="3.4375" stroke-linejoin="round" stroke-miterlimit="10" fill="none" fill-rule="evenodd"/></g><g><path d="M3395.5 8213.5 3453.61 8029.76 3512.62 7982.76 3571.62 7926.76 3629.62 7977.76 3688.62 7901.76 3747.62 7965.76 3805.62 7894.76 3864.63 7927.76 3923.63 7872.76 3982.63 7916.76 4040.63 7872.76 4099.63 7748.75 4158.64 7691.75 4216.64 7714.75 4275.64 7660.75 4334.64 7578.75 4392.64 7468.75 4451.65 7529.75 4510.65 7574.75 4569.65 7517.75 4627.65 7498.75 4686.65 7435.74 4745.66 7447.74 4803.66 7491.75 4862.66 7474.75 4921.66 7431.74 4980.5 7426.5" stroke="#FFCB37" stroke-width="6.875" stroke-linecap="round" stroke-linejoin="round" stroke-miterlimit="10" fill="none"/></g><g><path d="M3406.3 8213.17C3406.3 8219.25 3401.38 8224.17 3395.3 8224.17 3389.23 8224.17 3384.3 8219.25 3384.3 8213.17 3384.3 8207.1 3389.23 8202.17 3395.3 8202.17 3401.38 8202.17 3406.3 8207.1 3406.3 8213.17Z" stroke="#FFCB37" stroke-width="3.4375" stroke-linejoin="round" stroke-miterlimit="10" fill="#FFCB37"/><path d="M3464.3 8029.18C3464.3 8035.25 3459.38 8040.17 3453.3 8040.17 3447.23 8040.17 3442.3 8035.25 3442.3 8029.18 3442.3 8023.1 3447.23 8018.18 3453.3 8018.18 3459.38 8018.18 3464.3 8023.1 3464.3 8029.18Z" stroke="#FFCB37" stroke-width="3.4375" stroke-linejoin="round" stroke-miterlimit="10" fill="#FFCB37"/><path d="M3523.3 7982.18C3523.3 7988.25 3518.38 7993.17 3512.3 7993.17 3506.23 7993.17 3501.3 7988.25 3501.3 7982.18 3501.3 7976.1 3506.23 7971.18 3512.3 7971.18 3518.38 7971.18 3523.3 7976.1 3523.3 7982.18Z" stroke="#FFCB37" stroke-width="3.4375" stroke-linejoin="round" stroke-miterlimit="10" fill="#FFCB37"/><path d="M3582.3 7926.17C3582.3 7932.25 3577.38 7937.17 3571.3 7937.17 3565.23 7937.17 3560.3 7932.25 3560.3 7926.17 3560.3 7920.1 3565.23 7915.17 3571.3 7915.17 3577.38 7915.17 3582.3 7920.1 3582.3 7926.17Z" stroke="#FFCB37" stroke-width="3.4375" stroke-linejoin="round" stroke-miterlimit="10" fill="#FFCB37"/><path d="M3640.3 7977.17C3640.3 7983.25 3635.38 7988.17 3629.3 7988.17 3623.23 7988.17 3618.3 7983.25 3618.3 7977.17 3618.3 7971.1 3623.23 7966.17 3629.3 7966.17 3635.38 7966.17 3640.3 7971.1 3640.3 7977.17Z" stroke="#FFCB37" stroke-width="3.4375" stroke-linejoin="round" stroke-miterlimit="10" fill="#FFCB37"/><path d="M3699.3 7901.17C3699.3 7907.25 3694.38 7912.17 3688.3 7912.17 3682.23 7912.17 3677.3 7907.25 3677.3 7901.17 3677.3 7895.1 3682.23 7890.17 3688.3 7890.17 3694.38 7890.17 3699.3 7895.1 3699.3 7901.17Z" stroke="#FFCB37" stroke-width="3.4375" stroke-linejoin="round" stroke-miterlimit="10" fill="#FFCB37"/><path d="M3758.3 7965.17C3758.3 7971.25 3753.38 7976.17 3747.3 7976.17 3741.23 7976.17 3736.3 7971.25 3736.3 7965.17 3736.3 7959.1 3741.23 7954.17 3747.3 7954.17 3753.38 7954.17 3758.3 7959.1 3758.3 7965.17Z" stroke="#FFCB37" stroke-width="3.4375" stroke-linejoin="round" stroke-miterlimit="10" fill="#FFCB37"/><path d="M3817.3 7894.18C3817.3 7900.25 3812.38 7905.17 3806.3 7905.17 3800.23 7905.17 3795.3 7900.25 3795.3 7894.18 3795.3 7888.1 3800.23 7883.18 3806.3 7883.18 3812.38 7883.18 3817.3 7888.1 3817.3 7894.18Z" stroke="#FFCB37" stroke-width="3.4375" stroke-linejoin="round" stroke-miterlimit="10" fill="#FFCB37"/><path d="M3875.3 7927.18C3875.3 7933.25 3870.38 7938.17 3864.3 7938.17 3858.23 7938.17 3853.3 7933.25 3853.3 7927.18 3853.3 7921.1 3858.23 7916.18 3864.3 7916.18 3870.38 7916.18 3875.3 7921.1 3875.3 7927.18Z" stroke="#FFCB37" stroke-width="3.4375" stroke-linejoin="round" stroke-miterlimit="10" fill="#FFCB37"/><path d="M3934.3 7872.18C3934.3 7878.25 3929.38 7883.17 3923.3 7883.17 3917.23 7883.17 3912.3 7878.25 3912.3 7872.18 3912.3 7866.1 3917.23 7861.18 3923.3 7861.18 3929.38 7861.18 3934.3 7866.1 3934.3 7872.18Z" stroke="#FFCB37" stroke-width="3.4375" stroke-linejoin="round" stroke-miterlimit="10" fill="#FFCB37"/><path d="M3993.3 7916.18C3993.3 7922.25 3988.38 7927.17 3982.3 7927.17 3976.23 7927.17 3971.3 7922.25 3971.3 7916.18 3971.3 7910.1 3976.23 7905.18 3982.3 7905.18 3988.38 7905.18 3993.3 7910.1 3993.3 7916.18Z" stroke="#FFCB37" stroke-width="3.4375" stroke-linejoin="round" stroke-miterlimit="10" fill="#FFCB37"/><path d="M4051.3 7872.18C4051.3 7878.25 4046.38 7883.17 4040.3 7883.17 4034.23 7883.17 4029.3 7878.25 4029.3 7872.18 4029.3 7866.1 4034.23 7861.18 4040.3 7861.18 4046.38 7861.18 4051.3 7866.1 4051.3 7872.18Z" stroke="#FFCB37" stroke-width="3.4375" stroke-linejoin="round" stroke-miterlimit="10" fill="#FFCB37"/><path d="M4110.3 7749.17C4110.3 7755.25 4105.38 7760.17 4099.3 7760.17 4093.23 7760.17 4088.3 7755.25 4088.3 7749.17 4088.3 7743.1 4093.23 7738.17 4099.3 7738.17 4105.38 7738.17 4110.3 7743.1 4110.3 7749.17Z" stroke="#FFCB37" stroke-width="3.4375" stroke-linejoin="round" stroke-miterlimit="10" fill="#FFCB37"/><path d="M4169.3 7691.17C4169.3 7697.25 4164.38 7702.17 4158.3 7702.17 4152.23 7702.17 4147.3 7697.25 4147.3 7691.17 4147.3 7685.1 4152.23 7680.17 4158.3 7680.17 4164.38 7680.17 4169.3 7685.1 4169.3 7691.17Z" stroke="#FFCB37" stroke-width="3.4375" stroke-linejoin="round" stroke-miterlimit="10" fill="#FFCB37"/><path d="M4227.3 7714.17C4227.3 7720.25 4222.38 7725.17 4216.3 7725.17 4210.23 7725.17 4205.3 7720.25 4205.3 7714.17 4205.3 7708.1 4210.23 7703.17 4216.3 7703.17 4222.38 7703.17 4227.3 7708.1 4227.3 7714.17Z" stroke="#FFCB37" stroke-width="3.4375" stroke-linejoin="round" stroke-miterlimit="10" fill="#FFCB37"/><path d="M4286.3 7660.17C4286.3 7666.25 4281.38 7671.17 4275.3 7671.17 4269.23 7671.17 4264.3 7666.25 4264.3 7660.17 4264.3 7654.1 4269.23 7649.17 4275.3 7649.17 4281.38 7649.17 4286.3 7654.1 4286.3 7660.17Z" stroke="#FFCB37" stroke-width="3.4375" stroke-linejoin="round" stroke-miterlimit="10" fill="#FFCB37"/><path d="M4345.3 7578.18C4345.3 7584.25 4340.38 7589.17 4334.3 7589.17 4328.23 7589.17 4323.3 7584.25 4323.3 7578.18 4323.3 7572.1 4328.23 7567.18 4334.3 7567.18 4340.38 7567.18 4345.3 7572.1 4345.3 7578.18Z" stroke="#FFCB37" stroke-width="3.4375" stroke-linejoin="round" stroke-miterlimit="10" fill="#FFCB37"/><path d="M4404.3 7468.18C4404.3 7474.25 4399.38 7479.17 4393.3 7479.17 4387.23 7479.17 4382.3 7474.25 4382.3 7468.18 4382.3 7462.1 4387.23 7457.18 4393.3 7457.18 4399.38 7457.18 4404.3 7462.1 4404.3 7468.18Z" stroke="#FFCB37" stroke-width="3.4375" stroke-linejoin="round" stroke-miterlimit="10" fill="#FFCB37"/><path d="M4462.3 7529.17C4462.3 7535.25 4457.38 7540.17 4451.3 7540.17 4445.23 7540.17 4440.3 7535.25 4440.3 7529.17 4440.3 7523.1 4445.23 7518.17 4451.3 7518.17 4457.38 7518.17 4462.3 7523.1 4462.3 7529.17Z" stroke="#FFCB37" stroke-width="3.4375" stroke-linejoin="round" stroke-miterlimit="10" fill="#FFCB37"/><path d="M4521.3 7575.18C4521.3 7581.25 4516.38 7586.17 4510.3 7586.17 4504.23 7586.17 4499.3 7581.25 4499.3 7575.18 4499.3 7569.1 4504.23 7564.18 4510.3 7564.18 4516.38 7564.18 4521.3 7569.1 4521.3 7575.18Z" stroke="#FFCB37" stroke-width="3.4375" stroke-linejoin="round" stroke-miterlimit="10" fill="#FFCB37"/><path d="M4580.3 7517.17C4580.3 7523.25 4575.38 7528.17 4569.3 7528.17 4563.23 7528.17 4558.3 7523.25 4558.3 7517.17 4558.3 7511.1 4563.23 7506.17 4569.3 7506.17 4575.38 7506.17 4580.3 7511.1 4580.3 7517.17Z" stroke="#FFCB37" stroke-width="3.4375" stroke-linejoin="round" stroke-miterlimit="10" fill="#FFCB37"/><path d="M4638.3 7498.18C4638.3 7504.25 4633.38 7509.17 4627.3 7509.17 4621.23 7509.17 4616.3 7504.25 4616.3 7498.18 4616.3 7492.1 4621.23 7487.18 4627.3 7487.18 4633.38 7487.18 4638.3 7492.1 4638.3 7498.18Z" stroke="#FFCB37" stroke-width="3.4375" stroke-linejoin="round" stroke-miterlimit="10" fill="#FFCB37"/><path d="M4697.3 7435.18C4697.3 7441.25 4692.38 7446.17 4686.3 7446.17 4680.23 7446.17 4675.3 7441.25 4675.3 7435.18 4675.3 7429.1 4680.23 7424.18 4686.3 7424.18 4692.38 7424.18 4697.3 7429.1 4697.3 7435.18Z" stroke="#FFCB37" stroke-width="3.4375" stroke-linejoin="round" stroke-miterlimit="10" fill="#FFCB37"/><path d="M4756.3 7447.18C4756.3 7453.25 4751.38 7458.17 4745.3 7458.17 4739.23 7458.17 4734.3 7453.25 4734.3 7447.18 4734.3 7441.1 4739.23 7436.18 4745.3 7436.18 4751.38 7436.18 4756.3 7441.1 4756.3 7447.18Z" stroke="#FFCB37" stroke-width="3.4375" stroke-linejoin="round" stroke-miterlimit="10" fill="#FFCB37"/><path d="M4815.3 7492.17C4815.3 7498.25 4810.38 7503.17 4804.3 7503.17 4798.23 7503.17 4793.3 7498.25 4793.3 7492.17 4793.3 7486.1 4798.23 7481.17 4804.3 7481.17 4810.38 7481.17 4815.3 7486.1 4815.3 7492.17Z" stroke="#FFCB37" stroke-width="3.4375" stroke-linejoin="round" stroke-miterlimit="10" fill="#FFCB37"/><path d="M4873.3 7474.17C4873.3 7480.25 4868.38 7485.17 4862.3 7485.17 4856.23 7485.17 4851.3 7480.25 4851.3 7474.17 4851.3 7468.1 4856.23 7463.17 4862.3 7463.17 4868.38 7463.17 4873.3 7468.1 4873.3 7474.17Z" stroke="#FFCB37" stroke-width="3.4375" stroke-linejoin="round" stroke-miterlimit="10" fill="#FFCB37"/><path d="M4932.3 7431.17C4932.3 7437.25 4927.38 7442.17 4921.3 7442.17 4915.23 7442.17 4910.3 7437.25 4910.3 7431.17 4910.3 7425.1 4915.23 7420.17 4921.3 7420.17 4927.38 7420.17 4932.3 7425.1 4932.3 7431.17Z" stroke="#FFCB37" stroke-width="3.4375" stroke-linejoin="round" stroke-miterlimit="10" fill="#FFCB37"/><path d="M4991.3 7426.17C4991.3 7432.25 4986.38 7437.17 4980.3 7437.17 4974.23 7437.17 4969.3 7432.25 4969.3 7426.17 4969.3 7420.1 4974.23 7415.17 4980.3 7415.17 4986.38 7415.17 4991.3 7420.1 4991.3 7426.17Z" stroke="#FFCB37" stroke-width="3.4375" stroke-linejoin="round" stroke-miterlimit="10" fill="#FFCB37"/></g><g><text fill="#E5E7EB" font-family="Calibri,Calibri_MSFontService,sans-serif" font-weight="400" font-size="41" transform="matrix(1 0 0 1 3227.22 8316)"> $-</text></g><g><text fill="#E5E7EB" font-family="Calibri,Calibri_MSFontService,sans-serif" font-weight="400" font-size="41" transform="matrix(1 0 0 1 3164.49 8180)"> $50.00</text></g><g><text fill="#E5E7EB" font-family="Calibri,Calibri_MSFontService,sans-serif" font-weight="400" font-size="41" transform="matrix(1 0 0 1 3143.59 8044)"> $100.00</text></g><g><text fill="#E5E7EB" font-family="Calibri,Calibri_MSFontService,sans-serif" font-weight="400" font-size="41" transform="matrix(1 0 0 1 3143.59 7909)"> $150.00</text></g><g><text fill="#E5E7EB" font-family="Calibri,Calibri_MSFontService,sans-serif" font-weight="400" font-size="41" transform="matrix(1 0 0 1 3143.59 7773)"> $200.00</text></g><g><text fill="#E5E7EB" font-family="Calibri,Calibri_MSFontService,sans-serif" font-weight="400" font-size="41" transform="matrix(1 0 0 1 3143.59 7637)"> $250.00</text></g><g><text fill="#E5E7EB" font-family="Calibri,Calibri_MSFontService,sans-serif" font-weight="400" font-size="41" transform="matrix(1 0 0 1 3143.59 7501)"> $300.00</text></g><g><text fill="#E5E7EB" font-family="Calibri,Calibri_MSFontService,sans-serif" font-weight="400" font-size="41" transform="matrix(1 0 0 1 3143.59 7365)"> $350.00</text></g><g><text fill="#E5E7EB" font-family="Calibri,Calibri_MSFontService,sans-serif" font-weight="400" font-size="41" transform="matrix(1 0 0 1 3325.87 8370)">0</text></g><g><text fill="#E5E7EB" font-family="Calibri,Calibri_MSFontService,sans-serif" font-weight="400" font-size="41" transform="matrix(1 0 0 1 3619.43 8370)">5</text></g><g><text fill="#E5E7EB" font-family="Calibri,Calibri_MSFontService,sans-serif" font-weight="400" font-size="41" transform="matrix(1 0 0 1 3902.53 8370)">10</text></g><g><text fill="#E5E7EB" font-family="Calibri,Calibri_MSFontService,sans-serif" font-weight="400" font-size="41" transform="matrix(1 0 0 1 4196.09 8370)">15</text></g><g><text fill="#E5E7EB" font-family="Calibri,Calibri_MSFontService,sans-serif" font-weight="400" font-size="41" transform="matrix(1 0 0 1 4489.65 8370)">20</text></g><g><text fill="#E5E7EB" font-family="Calibri,Calibri_MSFontService,sans-serif" font-weight="400" font-size="41" transform="matrix(1 0 0 1 4783.21 8370)">25</text></g><g><text fill="#E5E7EB" font-family="Calibri,Calibri_MSFontService,sans-serif" font-weight="400" font-size="41" transform="matrix(1 0 0 1 5076.76 8370)">30</text></g><g><text fill="#E5E7EB" font-family="Calibri,Calibri_MSFontService,sans-serif" font-weight="400" font-size="64" transform="matrix(1 0 0 1 3754.04 7279)">Profit with 50$ on each Signal</text></g><rect x="3114.5" y="7184.5" width="2055" height="1227" stroke="#D9D9D9" stroke-width="3.4375" stroke-linejoin="round" stroke-miterlimit="10" fill="none"/></g></svg>