<svg width="1091" height="1104" xmlns="http://www.w3.org/2000/svg" xmlns:xlink="http://www.w3.org/1999/xlink" xml:space="preserve" overflow="hidden"><defs><clipPath id="clip0"><rect x="3765" y="4444" width="1091" height="1104"/></clipPath></defs><g clip-path="url(#clip0)" transform="translate(-3765 -4444)"><g><path d="M4309.79 4670.02C4493.78 4670.02 4642.94 4819.17 4642.94 5003.17 4642.94 5187.16 4493.78 5336.32 4309.79 5336.32 4149.87 5336.32 4012.51 5222.68 3982.54 5065.59L4064.35 5049.99C4090.21 5185.54 4221.06 5274.46 4356.61 5248.6 4492.16 5222.75 4581.08 5091.9 4555.23 4956.35 4532.75 4838.53 4429.73 4753.3 4309.79 4753.3Z" stroke="#FFFFFF" stroke-width="6.875" stroke-linejoin="round" stroke-miterlimit="10" fill="#4ADE80" fill-rule="evenodd"/></g><g><path d="M3982.54 5065.59C3948.06 4884.86 4066.63 4710.4 4247.36 4675.92 4267.94 4671.99 4288.84 4670.02 4309.79 4670.02L4309.79 4753.3C4171.79 4753.3 4059.93 4865.17 4059.93 5003.17 4059.93 5018.88 4061.41 5034.55 4064.35 5049.99Z" stroke="#FFFFFF" stroke-width="6.875" stroke-linejoin="round" stroke-miterlimit="10" fill="#FFCB37" fill-rule="evenodd"/></g><g><path d="M4534.5 5188.5 4598.65 5249.5 4619.5 5249.5" stroke="#A6A6A6" stroke-width="3.4375" stroke-linejoin="round" stroke-miterlimit="10" fill="none"/></g><g><path d="M4085.5 4817.5 4058.63 4761.5 4037.5 4761.5" stroke="#A6A6A6" stroke-width="3.4375" stroke-linejoin="round" stroke-miterlimit="10" fill="none"/></g><g><text fill="#4ADE80" font-family="Calibri,Calibri_MSFontService,sans-serif" font-weight="400" font-size="41" transform="matrix(1 0 0 1 4633.29 5263)">72%</text></g><g><text fill="#FFCB37" font-family="Calibri,Calibri_MSFontService,sans-serif" font-weight="400" font-size="41" transform="matrix(1 0 0 1 3952.8 4775)">28%</text></g><g><text fill="#E5E7EB" font-family="Calibri,Calibri_MSFontService,sans-serif" font-weight="400" font-size="64" transform="matrix(1 0 0 1 4166.02 5036)">WIN RATE</text></g><g><rect x="4167.5" y="5468.5" width="23" height="23" stroke="#FFFFFF" stroke-width="6.875" stroke-linejoin="round" stroke-miterlimit="10" fill="#4ADE80"/></g><g><text fill="#E5E7EB" font-family="Calibri,Calibri_MSFontService,sans-serif" font-weight="400" font-size="41" transform="matrix(1 0 0 1 4200.2 5492)">PROFIT</text></g><g><rect x="4353.5" y="5468.5" width="22" height="23" stroke="#FFFFFF" stroke-width="6.875" stroke-linejoin="round" stroke-miterlimit="10" fill="#FFCB37"/></g><g><text fill="#E5E7EB" font-family="Calibri,Calibri_MSFontService,sans-serif" font-weight="400" font-size="41" transform="matrix(1 0 0 1 4385.56 5492)">LOSS</text></g><rect x="3766.5" y="4445.5" width="1088" height="1101" stroke="#D9D9D9" stroke-width="3.4375" stroke-linejoin="round" stroke-miterlimit="10" fill="none"/></g></svg>