<svg width="1056" height="1101" xmlns="http://www.w3.org/2000/svg" xmlns:xlink="http://www.w3.org/1999/xlink" xml:space="preserve" overflow="hidden"><defs><clipPath id="clip0"><rect x="5002" y="4452" width="1056" height="1101"/></clipPath></defs><g clip-path="url(#clip0)" transform="translate(-5002 -4452)"><g><path d="M5540.25 4670.62C5729.44 4670.62 5882.81 4823.99 5882.81 5013.19 5882.81 5202.38 5729.44 5355.75 5540.25 5355.75 5351.06 5355.75 5197.69 5202.38 5197.69 5013.19 5197.69 5006.01 5197.91 4998.84 5198.36 4991.68L5283.84 4997.05C5274.93 5138.67 5382.5 5260.69 5524.12 5269.6 5665.73 5278.51 5787.76 5170.93 5796.67 5029.32 5805.57 4887.7 5698 4765.68 5556.38 4756.77 5551.01 4756.43 5545.63 4756.26 5540.25 4756.26Z" stroke="#FFFFFF" stroke-width="6.875" stroke-linejoin="round" stroke-miterlimit="10" fill="#4ADE80" fill-rule="evenodd"/></g><g><path d="M5198.36 4991.68C5209.72 4811.19 5359.41 4670.62 5540.25 4670.62L5540.25 4756.26C5404.62 4756.26 5292.35 4861.69 5283.83 4997.05Z" stroke="#FFFFFF" stroke-width="6.875" stroke-linejoin="round" stroke-miterlimit="10" fill="#FFCB37" fill-rule="evenodd"/></g><g><path d="M5745.5 5231.5 5809.69 5416.5 5830.5 5416.5" stroke="#A6A6A6" stroke-width="3.4375" stroke-linejoin="round" stroke-miterlimit="10" fill="none"/></g><g><path d="M5335.5 4794.5 5169.67 4734.5 5148.5 4734.5" stroke="#A6A6A6" stroke-width="3.4375" stroke-linejoin="round" stroke-miterlimit="10" fill="none"/></g><g><text fill="#4ADE80" font-family="Calibri,Calibri_MSFontService,sans-serif" font-weight="700" font-size="41" transform="matrix(1 0 0 1 5843.89 5430)">76%</text></g><g><text fill="#FFC000" font-family="Calibri,Calibri_MSFontService,sans-serif" font-weight="700" font-size="41" transform="matrix(1 0 0 1 5063.23 4749)">24%</text></g><g><text fill="#FFCB37" font-family="Calibri,Calibri_MSFontService,sans-serif" font-weight="700" font-size="64" transform="matrix(1 0 0 1 5371.4 5029)">Short</text></g><g><text fill="#E5E7EB" font-family="Calibri,Calibri_MSFontService,sans-serif" font-weight="700" font-size="64" transform="matrix(1 0 0 1 5530.21 5029)">&amp;</text></g><g><text fill="#4ADE80" font-family="Calibri,Calibri_MSFontService,sans-serif" font-weight="700" font-size="64" transform="matrix(1 0 0 1 5589.93 5029)">Long</text></g><rect x="5003.5" y="4453.5" width="1053" height="1098" stroke="#D9D9D9" stroke-width="3.4375" stroke-linejoin="round" stroke-miterlimit="10" fill="none"/></g></svg>