<svg width="1900" height="1108" xmlns="http://www.w3.org/2000/svg" xmlns:xlink="http://www.w3.org/1999/xlink" xml:space="preserve" overflow="hidden"><defs><clipPath id="clip0"><rect x="4002" y="7173" width="1900" height="1108"/></clipPath></defs><g clip-path="url(#clip0)" transform="translate(-4002 -7173)"><rect x="4003" y="7174" width="1897" height="1105" fill="#FFFFFF"/><g><path d="M4173.5 8080.77 5828.5 8080.77M4173.5 7988.76 5828.5 7988.76M4173.5 7895.76 5828.5 7895.76M4173.5 7803.76 5828.5 7803.76M4173.5 7711.75 5828.5 7711.75M4173.5 7619.75 5828.5 7619.75M4173.5 7527.75 5828.5 7527.75M4173.5 7435.74 5828.5 7435.74M4173.5 7344.5 5828.5 7344.5" stroke="#D9D9D9" stroke-width="3.4375" stroke-linejoin="round" stroke-miterlimit="10" fill="none"/></g><g><path d="M4449.65 7344.5 4449.65 8172.5M4724.66 7344.5 4724.66 8172.5M5000.66 7344.5 5000.66 8172.5M5276.67 7344.5 5276.67 8172.5M5552.68 7344.5 5552.68 8172.5M5828.5 7344.5 5828.5 8172.5" stroke="#D9D9D9" stroke-width="3.4375" stroke-linejoin="round" stroke-miterlimit="10" fill="none"/></g><g><path d="M0 0 0.000360892 828" stroke="#BFBFBF" stroke-width="3.4375" stroke-linejoin="round" stroke-miterlimit="10" fill="none" fill-rule="evenodd" transform="matrix(1 0 0 -1 4173.5 8172.5)"/></g><g><path d="M4173.5 8172.5 5828.5 8172.5" stroke="#BFBFBF" stroke-width="3.4375" stroke-linejoin="round" stroke-miterlimit="10" fill="none" fill-rule="evenodd"/></g><g><path d="M4228.5 8129.5 4283.64 8074.77 4338.64 8035.76 4393.64 8013.76 4449.65 7895.76 4504.65 7856.76 4559.65 7797.76 4614.65 7862.76 4669.65 7740.75 4724.66 7643.75 4780.66 7553.75 4835.66 7638.75 4890.66 7611.75 4945.66 7581.75 5000.66 7526.75 5055.67 7421.5 5111.67 7579.75 5166.67 7654.75 5221.67 7793.76 5276.67 7761.75 5331.68 7895.76 5386.68 8003.76 5442.68 7983.76 5497.68 7891.76 5552.5 7845.76" stroke="#FFCB37" stroke-width="6.875" stroke-linecap="round" stroke-linejoin="round" stroke-miterlimit="10" fill="none"/></g><g><path d="M4239.57 8129.56C4239.57 8135.64 4234.65 8140.56 4228.57 8140.56 4222.5 8140.56 4217.57 8135.64 4217.57 8129.56 4217.57 8123.49 4222.5 8118.56 4228.57 8118.56 4234.65 8118.56 4239.57 8123.49 4239.57 8129.56Z" stroke="#FFCB37" stroke-width="3.4375" stroke-linejoin="round" stroke-miterlimit="10" fill="#FFCB37"/><path d="M4294.57 8074.56C4294.57 8080.64 4289.65 8085.56 4283.57 8085.56 4277.5 8085.56 4272.57 8080.64 4272.57 8074.56 4272.57 8068.49 4277.5 8063.56 4283.57 8063.56 4289.65 8063.56 4294.57 8068.49 4294.57 8074.56Z" stroke="#FFCB37" stroke-width="3.4375" stroke-linejoin="round" stroke-miterlimit="10" fill="#FFCB37"/><path d="M4349.57 8036.56C4349.57 8042.64 4344.65 8047.56 4338.57 8047.56 4332.5 8047.56 4327.57 8042.64 4327.57 8036.56 4327.57 8030.49 4332.5 8025.56 4338.57 8025.56 4344.65 8025.56 4349.57 8030.49 4349.57 8036.56Z" stroke="#FFCB37" stroke-width="3.4375" stroke-linejoin="round" stroke-miterlimit="10" fill="#FFCB37"/><path d="M4405.57 8013.56C4405.57 8019.64 4400.65 8024.56 4394.57 8024.56 4388.5 8024.56 4383.57 8019.64 4383.57 8013.56 4383.57 8007.49 4388.5 8002.56 4394.57 8002.56 4400.65 8002.56 4405.57 8007.49 4405.57 8013.56Z" stroke="#FFCB37" stroke-width="3.4375" stroke-linejoin="round" stroke-miterlimit="10" fill="#FFCB37"/><path d="M4460.57 7895.56C4460.57 7901.64 4455.65 7906.56 4449.57 7906.56 4443.5 7906.56 4438.57 7901.64 4438.57 7895.56 4438.57 7889.49 4443.5 7884.56 4449.57 7884.56 4455.65 7884.56 4460.57 7889.49 4460.57 7895.56Z" stroke="#FFCB37" stroke-width="3.4375" stroke-linejoin="round" stroke-miterlimit="10" fill="#FFCB37"/><path d="M4515.57 7856.56C4515.57 7862.64 4510.65 7867.56 4504.57 7867.56 4498.5 7867.56 4493.57 7862.64 4493.57 7856.56 4493.57 7850.49 4498.5 7845.56 4504.57 7845.56 4510.65 7845.56 4515.57 7850.49 4515.57 7856.56Z" stroke="#FFCB37" stroke-width="3.4375" stroke-linejoin="round" stroke-miterlimit="10" fill="#FFCB37"/><path d="M4570.57 7797.56C4570.57 7803.64 4565.65 7808.56 4559.57 7808.56 4553.5 7808.56 4548.57 7803.64 4548.57 7797.56 4548.57 7791.49 4553.5 7786.56 4559.57 7786.56 4565.65 7786.56 4570.57 7791.49 4570.57 7797.56Z" stroke="#FFCB37" stroke-width="3.4375" stroke-linejoin="round" stroke-miterlimit="10" fill="#FFCB37"/><path d="M4625.57 7862.56C4625.57 7868.64 4620.65 7873.56 4614.57 7873.56 4608.5 7873.56 4603.57 7868.64 4603.57 7862.56 4603.57 7856.49 4608.5 7851.56 4614.57 7851.56 4620.65 7851.56 4625.57 7856.49 4625.57 7862.56Z" stroke="#FFCB37" stroke-width="3.4375" stroke-linejoin="round" stroke-miterlimit="10" fill="#FFCB37"/><path d="M4680.57 7740.56C4680.57 7746.64 4675.65 7751.56 4669.57 7751.56 4663.5 7751.56 4658.57 7746.64 4658.57 7740.56 4658.57 7734.49 4663.5 7729.56 4669.57 7729.56 4675.65 7729.56 4680.57 7734.49 4680.57 7740.56Z" stroke="#FFCB37" stroke-width="3.4375" stroke-linejoin="round" stroke-miterlimit="10" fill="#FFCB37"/><path d="M4736.57 7643.56C4736.57 7649.64 4731.65 7654.56 4725.57 7654.56 4719.5 7654.56 4714.57 7649.64 4714.57 7643.56 4714.57 7637.49 4719.5 7632.56 4725.57 7632.56 4731.65 7632.56 4736.57 7637.49 4736.57 7643.56Z" stroke="#FFCB37" stroke-width="3.4375" stroke-linejoin="round" stroke-miterlimit="10" fill="#FFCB37"/><path d="M4791.57 7553.56C4791.57 7559.64 4786.65 7564.56 4780.57 7564.56 4774.5 7564.56 4769.57 7559.64 4769.57 7553.56 4769.57 7547.49 4774.5 7542.56 4780.57 7542.56 4786.65 7542.56 4791.57 7547.49 4791.57 7553.56Z" stroke="#FFCB37" stroke-width="3.4375" stroke-linejoin="round" stroke-miterlimit="10" fill="#FFCB37"/><path d="M4846.57 7638.56C4846.57 7644.64 4841.65 7649.56 4835.57 7649.56 4829.5 7649.56 4824.57 7644.64 4824.57 7638.56 4824.57 7632.49 4829.5 7627.56 4835.57 7627.56 4841.65 7627.56 4846.57 7632.49 4846.57 7638.56Z" stroke="#FFCB37" stroke-width="3.4375" stroke-linejoin="round" stroke-miterlimit="10" fill="#FFCB37"/><path d="M4901.57 7611.56C4901.57 7617.64 4896.65 7622.56 4890.57 7622.56 4884.5 7622.56 4879.57 7617.64 4879.57 7611.56 4879.57 7605.49 4884.5 7600.56 4890.57 7600.56 4896.65 7600.56 4901.57 7605.49 4901.57 7611.56Z" stroke="#FFCB37" stroke-width="3.4375" stroke-linejoin="round" stroke-miterlimit="10" fill="#FFCB37"/><path d="M4956.57 7582.56C4956.57 7588.64 4951.65 7593.56 4945.57 7593.56 4939.5 7593.56 4934.57 7588.64 4934.57 7582.56 4934.57 7576.49 4939.5 7571.56 4945.57 7571.56 4951.65 7571.56 4956.57 7576.49 4956.57 7582.56Z" stroke="#FFCB37" stroke-width="3.4375" stroke-linejoin="round" stroke-miterlimit="10" fill="#FFCB37"/><path d="M5011.57 7526.56C5011.57 7532.64 5006.65 7537.56 5000.57 7537.56 4994.5 7537.56 4989.57 7532.64 4989.57 7526.56 4989.57 7520.49 4994.5 7515.56 5000.57 7515.56 5006.65 7515.56 5011.57 7520.49 5011.57 7526.56Z" stroke="#FFCB37" stroke-width="3.4375" stroke-linejoin="round" stroke-miterlimit="10" fill="#FFCB37"/><path d="M5067.57 7421.56C5067.57 7427.64 5062.65 7432.56 5056.57 7432.56 5050.5 7432.56 5045.57 7427.64 5045.57 7421.56 5045.57 7415.49 5050.5 7410.56 5056.57 7410.56 5062.65 7410.56 5067.57 7415.49 5067.57 7421.56Z" stroke="#FFCB37" stroke-width="3.4375" stroke-linejoin="round" stroke-miterlimit="10" fill="#FFCB37"/><path d="M5122.57 7579.56C5122.57 7585.64 5117.65 7590.56 5111.57 7590.56 5105.5 7590.56 5100.57 7585.64 5100.57 7579.56 5100.57 7573.49 5105.5 7568.56 5111.57 7568.56 5117.65 7568.56 5122.57 7573.49 5122.57 7579.56Z" stroke="#FFCB37" stroke-width="3.4375" stroke-linejoin="round" stroke-miterlimit="10" fill="#FFCB37"/><path d="M5177.57 7655.56C5177.57 7661.64 5172.65 7666.56 5166.57 7666.56 5160.5 7666.56 5155.57 7661.64 5155.57 7655.56 5155.57 7649.49 5160.5 7644.56 5166.57 7644.56 5172.65 7644.56 5177.57 7649.49 5177.57 7655.56Z" stroke="#FFCB37" stroke-width="3.4375" stroke-linejoin="round" stroke-miterlimit="10" fill="#FFCB37"/><path d="M5232.57 7793.56C5232.57 7799.64 5227.65 7804.56 5221.57 7804.56 5215.5 7804.56 5210.57 7799.64 5210.57 7793.56 5210.57 7787.49 5215.5 7782.56 5221.57 7782.56 5227.65 7782.56 5232.57 7787.49 5232.57 7793.56Z" stroke="#FFCB37" stroke-width="3.4375" stroke-linejoin="round" stroke-miterlimit="10" fill="#FFCB37"/><path d="M5287.57 7761.56C5287.57 7767.64 5282.65 7772.56 5276.57 7772.56 5270.5 7772.56 5265.57 7767.64 5265.57 7761.56 5265.57 7755.49 5270.5 7750.56 5276.57 7750.56 5282.65 7750.56 5287.57 7755.49 5287.57 7761.56Z" stroke="#FFCB37" stroke-width="3.4375" stroke-linejoin="round" stroke-miterlimit="10" fill="#FFCB37"/><path d="M5342.57 7895.56C5342.57 7901.64 5337.65 7906.56 5331.57 7906.56 5325.5 7906.56 5320.57 7901.64 5320.57 7895.56 5320.57 7889.49 5325.5 7884.56 5331.57 7884.56 5337.65 7884.56 5342.57 7889.49 5342.57 7895.56Z" stroke="#FFCB37" stroke-width="3.4375" stroke-linejoin="round" stroke-miterlimit="10" fill="#FFCB37"/><path d="M5398.57 8004.56C5398.57 8010.64 5393.65 8015.56 5387.57 8015.56 5381.5 8015.56 5376.57 8010.64 5376.57 8004.56 5376.57 7998.49 5381.5 7993.56 5387.57 7993.56 5393.65 7993.56 5398.57 7998.49 5398.57 8004.56Z" stroke="#FFCB37" stroke-width="3.4375" stroke-linejoin="round" stroke-miterlimit="10" fill="#FFCB37"/><path d="M5453.57 7983.56C5453.57 7989.64 5448.65 7994.56 5442.57 7994.56 5436.5 7994.56 5431.57 7989.64 5431.57 7983.56 5431.57 7977.49 5436.5 7972.56 5442.57 7972.56 5448.65 7972.56 5453.57 7977.49 5453.57 7983.56Z" stroke="#FFCB37" stroke-width="3.4375" stroke-linejoin="round" stroke-miterlimit="10" fill="#FFCB37"/><path d="M5508.57 7891.56C5508.57 7897.64 5503.65 7902.56 5497.57 7902.56 5491.5 7902.56 5486.57 7897.64 5486.57 7891.56 5486.57 7885.49 5491.5 7880.56 5497.57 7880.56 5503.65 7880.56 5508.57 7885.49 5508.57 7891.56Z" stroke="#FFCB37" stroke-width="3.4375" stroke-linejoin="round" stroke-miterlimit="10" fill="#FFCB37"/><path d="M5563.57 7846.56C5563.57 7852.64 5558.65 7857.56 5552.57 7857.56 5546.5 7857.56 5541.57 7852.64 5541.57 7846.56 5541.57 7840.49 5546.5 7835.56 5552.57 7835.56 5558.65 7835.56 5563.57 7840.49 5563.57 7846.56Z" stroke="#FFCB37" stroke-width="3.4375" stroke-linejoin="round" stroke-miterlimit="10" fill="#FFCB37"/></g><g><text fill="#E5E7EB" font-family="Calibri,Calibri_MSFontService,sans-serif" font-weight="400" font-size="41" transform="matrix(1 0 0 1 4082.94 8184)"> $-</text></g><g><text fill="#E5E7EB" font-family="Calibri,Calibri_MSFontService,sans-serif" font-weight="400" font-size="41" transform="matrix(1 0 0 1 4053.76 8092)"> $50</text></g><g><text fill="#E5E7EB" font-family="Calibri,Calibri_MSFontService,sans-serif" font-weight="400" font-size="41" transform="matrix(1 0 0 1 4032.86 8000)"> $100</text></g><g><text fill="#E5E7EB" font-family="Calibri,Calibri_MSFontService,sans-serif" font-weight="400" font-size="41" transform="matrix(1 0 0 1 4032.86 7908)"> $150</text></g><g><text fill="#E5E7EB" font-family="Calibri,Calibri_MSFontService,sans-serif" font-weight="400" font-size="41" transform="matrix(1 0 0 1 4032.86 7816)"> $200</text></g><g><text fill="#E5E7EB" font-family="Calibri,Calibri_MSFontService,sans-serif" font-weight="400" font-size="41" transform="matrix(1 0 0 1 4032.86 7724)"> $250</text></g><g><text fill="#E5E7EB" font-family="Calibri,Calibri_MSFontService,sans-serif" font-weight="400" font-size="41" transform="matrix(1 0 0 1 4032.86 7632)"> $300</text></g><g><text fill="#E5E7EB" font-family="Calibri,Calibri_MSFontService,sans-serif" font-weight="400" font-size="41" transform="matrix(1 0 0 1 4032.86 7540)"> $350</text></g><g><text fill="#E5E7EB" font-family="Calibri,Calibri_MSFontService,sans-serif" font-weight="400" font-size="41" transform="matrix(1 0 0 1 4032.86 7448)"> $400</text></g><g><text fill="#E5E7EB" font-family="Calibri,Calibri_MSFontService,sans-serif" font-weight="400" font-size="41" transform="matrix(1 0 0 1 4032.86 7356)"> $450</text></g><g><text fill="#E5E7EB" font-family="Calibri,Calibri_MSFontService,sans-serif" font-weight="400" font-size="41" transform="matrix(1 0 0 1 4162.94 8238)">0</text></g><g><text fill="#E5E7EB" font-family="Calibri,Calibri_MSFontService,sans-serif" font-weight="400" font-size="41" transform="matrix(1 0 0 1 4438.78 8238)">5</text></g><g><text fill="#E5E7EB" font-family="Calibri,Calibri_MSFontService,sans-serif" font-weight="400" font-size="41" transform="matrix(1 0 0 1 4704.18 8238)">10</text></g><g><text fill="#E5E7EB" font-family="Calibri,Calibri_MSFontService,sans-serif" font-weight="400" font-size="41" transform="matrix(1 0 0 1 4980.03 8238)">15</text></g><g><text fill="#E5E7EB" font-family="Calibri,Calibri_MSFontService,sans-serif" font-weight="400" font-size="41" transform="matrix(1 0 0 1 5255.88 8238)">20</text></g><g><text fill="#E5E7EB" font-family="Calibri,Calibri_MSFontService,sans-serif" font-weight="400" font-size="41" transform="matrix(1 0 0 1 5531.72 8238)">25</text></g><g><text fill="#E5E7EB" font-family="Calibri,Calibri_MSFontService,sans-serif" font-weight="400" font-size="41" transform="matrix(1 0 0 1 5807.57 8238)">30</text></g><g><text fill="#E5E7EB" font-family="Calibri,Calibri_MSFontService,sans-serif" font-weight="400" font-size="64" transform="matrix(1 0 0 1 4455.58 7269)">Profit with 50$ Engaged on Each Entry</text></g><rect x="4003.5" y="7174.5" width="1897" height="1105" stroke="#D9D9D9" stroke-width="3.4375" stroke-linejoin="round" stroke-miterlimit="10" fill="none"/></g></svg>