<svg width="1091" height="1104" xmlns="http://www.w3.org/2000/svg" xmlns:xlink="http://www.w3.org/1999/xlink" xml:space="preserve" overflow="hidden"><defs><clipPath id="clip0"><rect x="3765" y="4238" width="1091" height="1104"/></clipPath></defs><g clip-path="url(#clip0)" transform="translate(-3765 -4238)"><g><path d="M4309.79 4463.77C4493.78 4463.77 4642.94 4612.92 4642.94 4796.92 4642.94 4980.91 4493.78 5130.07 4309.79 5130.07 4125.8 5130.07 3976.64 4980.91 3976.64 4796.92 3976.64 4749.16 3986.91 4701.96 4006.75 4658.52L4082.51 4693.12C4025.18 4818.64 4080.47 4966.87 4205.99 5024.2 4331.52 5081.52 4479.75 5026.24 4537.07 4900.71 4594.4 4775.19 4539.11 4626.96 4413.59 4569.63 4381.01 4554.75 4345.61 4547.05 4309.79 4547.05Z" stroke="#FFFFFF" stroke-width="6.875" stroke-linejoin="round" stroke-miterlimit="10" fill="#4ADE80" fill-rule="evenodd"/></g><g><path d="M4006.75 4658.52C4060.93 4539.88 4179.36 4463.77 4309.79 4463.77L4309.79 4547.05C4211.97 4547.05 4123.14 4604.14 4082.51 4693.12Z" stroke="#FFFFFF" stroke-width="6.875" stroke-linejoin="round" stroke-miterlimit="10" fill="#FFCB37" fill-rule="evenodd"/></g><g><path d="M4467.5 5042.5 4531.65 5102.5 4552.5 5102.5" stroke="#A6A6A6" stroke-width="3.4375" stroke-linejoin="round" stroke-miterlimit="10" fill="none"/></g><g><path d="M4152.5 4551.5 4125.64 4495.5 4104.5 4495.5" stroke="#A6A6A6" stroke-width="3.4375" stroke-linejoin="round" stroke-miterlimit="10" fill="none"/></g><g><text fill="#E5E7EB" font-family="Calibri,Calibri_MSFontService,sans-serif" font-weight="400" font-size="41" transform="matrix(1 0 0 1 4566.28 5116)">82%</text></g><g><text fill="#E5E7EB" font-family="Calibri,Calibri_MSFontService,sans-serif" font-weight="400" font-size="41" transform="matrix(1 0 0 1 4019.81 4509)">18%</text></g><g><text fill="#E5E7EB" font-family="Calibri,Calibri_MSFontService,sans-serif" font-weight="400" font-size="64" transform="matrix(1 0 0 1 4175.18 4821)">WIN RATE</text></g><g><rect x="4167.5" y="5262.5" width="23" height="23" stroke="#FFFFFF" stroke-width="6.875" stroke-linejoin="round" stroke-miterlimit="10" fill="#4ADE80"/></g><g><text fill="#E5E7EB" font-family="Calibri,Calibri_MSFontService,sans-serif" font-weight="400" font-size="41" transform="matrix(1 0 0 1 4200.2 5286)">PROFIT</text></g><g><rect x="4353.5" y="5262.5" width="22" height="23" stroke="#FFFFFF" stroke-width="6.875" stroke-linejoin="round" stroke-miterlimit="10" fill="#FFCB37"/></g><g><text fill="#E5E7EB" font-family="Calibri,Calibri_MSFontService,sans-serif" font-weight="400" font-size="41" transform="matrix(1 0 0 1 4385.56 5286)">LOSS</text></g><rect x="3766.5" y="4239.5" width="1088" height="1101" stroke="#D9D9D9" stroke-width="3.4375" stroke-linejoin="round" stroke-miterlimit="10" fill="none"/></g></svg>