<svg width="1056" height="1101" xmlns="http://www.w3.org/2000/svg" xmlns:xlink="http://www.w3.org/1999/xlink" xml:space="preserve" overflow="hidden"><defs><clipPath id="clip0"><rect x="5002" y="4246" width="1056" height="1101"/></clipPath></defs><g clip-path="url(#clip0)" transform="translate(-5002 -4246)"><g><path d="M5540.25 4464.37C5729.44 4464.37 5882.81 4617.74 5882.81 4806.94 5882.81 4996.13 5729.44 5149.5 5540.25 5149.5L5540.25 5063.86C5682.14 5063.86 5797.17 4948.83 5797.17 4806.94 5797.17 4665.04 5682.14 4550.01 5540.25 4550.01Z" stroke="#FFFFFF" stroke-width="6.875" stroke-linejoin="round" stroke-miterlimit="10" fill="#4ADE80" fill-rule="evenodd"/></g><g><path d="M5540.25 5149.5C5351.06 5149.5 5197.69 4996.13 5197.69 4806.94 5197.69 4617.74 5351.06 4464.37 5540.25 4464.37L5540.25 4550.01C5398.36 4550.01 5283.33 4665.04 5283.33 4806.94 5283.33 4948.83 5398.36 5063.86 5540.25 5063.86Z" stroke="#FFFFFF" stroke-width="6.875" stroke-linejoin="round" stroke-miterlimit="10" fill="#FFCB37" fill-rule="evenodd"/></g><g><path d="M5839.5 4806.5 5903.69 4991.5 5924.5 4991.5" stroke="#A6A6A6" stroke-width="3.4375" stroke-linejoin="round" stroke-miterlimit="10" fill="none"/></g><g><path d="M5240.5 4806.5 5122.67 4747.5 5102.5 4747.5" stroke="#A6A6A6" stroke-width="3.4375" stroke-linejoin="round" stroke-miterlimit="10" fill="none"/></g><g><text fill="#4ADE80" font-family="Calibri,Calibri_MSFontService,sans-serif" font-weight="700" font-size="41" transform="matrix(1 0 0 1 5938.44 5006)">50%</text></g><g><text fill="#FFCB37" font-family="Calibri,Calibri_MSFontService,sans-serif" font-weight="700" font-size="41" transform="matrix(1 0 0 1 5016.79 4761)">50%</text></g><g><text fill="#FFCB37" font-family="Calibri,Calibri_MSFontService,sans-serif" font-weight="700" font-size="64" transform="matrix(1 0 0 1 5371.4 4823)">Short</text></g><g><text fill="#E5E7EB" font-family="Calibri,Calibri_MSFontService,sans-serif" font-weight="700" font-size="64" transform="matrix(1 0 0 1 5530.21 4823)">&amp;</text></g><g><text fill="#4ADE80" font-family="Calibri,Calibri_MSFontService,sans-serif" font-weight="700" font-size="64" transform="matrix(1 0 0 1 5589.93 4823)">Long</text></g><rect x="5003.5" y="4247.5" width="1053" height="1098" stroke="#D9D9D9" stroke-width="3.4375" stroke-linejoin="round" stroke-miterlimit="10" fill="none"/></g></svg>