<svg width="1900" height="1107" xmlns="http://www.w3.org/2000/svg" xmlns:xlink="http://www.w3.org/1999/xlink" xml:space="preserve" overflow="hidden"><defs><clipPath id="clip0"><rect x="4002" y="6967" width="1900" height="1107"/></clipPath></defs><g clip-path="url(#clip0)" transform="translate(-4002 -6967)"><g><path d="M4173.5 7862.76 5828.5 7862.76M4173.5 7758.75 5828.5 7758.75M4173.5 7655.75 5828.5 7655.75M4173.5 7551.75 5828.5 7551.75M4173.5 7448.74 5828.5 7448.74M4173.5 7344.74 5828.5 7344.74M4173.5 7241.74 5828.5 7241.74M4173.5 7137.5 5828.5 7137.5" stroke="#D9D9D9" stroke-width="3.4375" stroke-linejoin="round" stroke-miterlimit="10" fill="none"/></g><g><path d="M4504.65 7137.5 4504.65 7966.5M4835.66 7137.5 4835.66 7966.5M5166.67 7137.5 5166.67 7966.5M5497.68 7137.5 5497.68 7966.5M5828.5 7137.5 5828.5 7966.5" stroke="#D9D9D9" stroke-width="3.4375" stroke-linejoin="round" stroke-miterlimit="10" fill="none"/></g><g><path d="M0 0 0.000360892 829" stroke="#BFBFBF" stroke-width="3.4375" stroke-linejoin="round" stroke-miterlimit="10" fill="none" fill-rule="evenodd" transform="matrix(1 0 0 -1 4173.5 7966.5)"/></g><g><path d="M4173.5 7966.5 5828.5 7966.5" stroke="#BFBFBF" stroke-width="3.4375" stroke-linejoin="round" stroke-miterlimit="10" fill="none" fill-rule="evenodd"/></g><g><path d="M4239.5 7932.5 4305.64 7825.76 4371.64 7773.76 4438.65 7902.76 4504.65 7790.76 4570.65 7751.75 4636.65 7878.76 4702.65 7775.76 4769.66 7862.76 4835.66 7819.76 4901.66 7751.75 4967.66 7697.75 5033.67 7644.75 5100.67 7595.75 5166.67 7506.75 5232.67 7444.74 5298.67 7571.75 5364.68 7508.75 5431.68 7410.74 5497.68 7332.74 5563.68 7278.74 5629.5 7263.5" stroke="#FFCB37" stroke-width="6.875" stroke-linecap="round" stroke-linejoin="round" stroke-miterlimit="10" fill="none"/></g><g><path d="M4250.57 7932.31C4250.57 7938.39 4245.65 7943.31 4239.57 7943.31 4233.5 7943.31 4228.57 7938.39 4228.57 7932.31 4228.57 7926.24 4233.5 7921.31 4239.57 7921.31 4245.65 7921.31 4250.57 7926.24 4250.57 7932.31Z" stroke="#FFCB37" stroke-width="3.4375" stroke-linejoin="round" stroke-miterlimit="10" fill="#FFCB37"/><path d="M4316.57 7825.31C4316.57 7831.39 4311.65 7836.31 4305.57 7836.31 4299.5 7836.31 4294.57 7831.39 4294.57 7825.31 4294.57 7819.24 4299.5 7814.31 4305.57 7814.31 4311.65 7814.31 4316.57 7819.24 4316.57 7825.31Z" stroke="#FFCB37" stroke-width="3.4375" stroke-linejoin="round" stroke-miterlimit="10" fill="#FFCB37"/><path d="M4382.57 7773.31C4382.57 7779.39 4377.65 7784.31 4371.57 7784.31 4365.5 7784.31 4360.57 7779.39 4360.57 7773.31 4360.57 7767.24 4365.5 7762.31 4371.57 7762.31 4377.65 7762.31 4382.57 7767.24 4382.57 7773.31Z" stroke="#FFCB37" stroke-width="3.4375" stroke-linejoin="round" stroke-miterlimit="10" fill="#FFCB37"/><path d="M4449.57 7902.31C4449.57 7908.39 4444.65 7913.31 4438.57 7913.31 4432.5 7913.31 4427.57 7908.39 4427.57 7902.31 4427.57 7896.24 4432.5 7891.31 4438.57 7891.31 4444.65 7891.31 4449.57 7896.24 4449.57 7902.31Z" stroke="#FFCB37" stroke-width="3.4375" stroke-linejoin="round" stroke-miterlimit="10" fill="#FFCB37"/><path d="M4515.57 7791.31C4515.57 7797.39 4510.65 7802.31 4504.57 7802.31 4498.5 7802.31 4493.57 7797.39 4493.57 7791.31 4493.57 7785.24 4498.5 7780.31 4504.57 7780.31 4510.65 7780.31 4515.57 7785.24 4515.57 7791.31Z" stroke="#FFCB37" stroke-width="3.4375" stroke-linejoin="round" stroke-miterlimit="10" fill="#FFCB37"/><path d="M4581.57 7751.31C4581.57 7757.39 4576.65 7762.31 4570.57 7762.31 4564.5 7762.31 4559.57 7757.39 4559.57 7751.31 4559.57 7745.24 4564.5 7740.31 4570.57 7740.31 4576.65 7740.31 4581.57 7745.24 4581.57 7751.31Z" stroke="#FFCB37" stroke-width="3.4375" stroke-linejoin="round" stroke-miterlimit="10" fill="#FFCB37"/><path d="M4647.57 7878.31C4647.57 7884.39 4642.65 7889.31 4636.57 7889.31 4630.5 7889.31 4625.57 7884.39 4625.57 7878.31 4625.57 7872.24 4630.5 7867.31 4636.57 7867.31 4642.65 7867.31 4647.57 7872.24 4647.57 7878.31Z" stroke="#FFCB37" stroke-width="3.4375" stroke-linejoin="round" stroke-miterlimit="10" fill="#FFCB37"/><path d="M4714.57 7776.31C4714.57 7782.39 4709.65 7787.31 4703.57 7787.31 4697.5 7787.31 4692.57 7782.39 4692.57 7776.31 4692.57 7770.24 4697.5 7765.31 4703.57 7765.31 4709.65 7765.31 4714.57 7770.24 4714.57 7776.31Z" stroke="#FFCB37" stroke-width="3.4375" stroke-linejoin="round" stroke-miterlimit="10" fill="#FFCB37"/><path d="M4780.57 7862.31C4780.57 7868.39 4775.65 7873.31 4769.57 7873.31 4763.5 7873.31 4758.57 7868.39 4758.57 7862.31 4758.57 7856.24 4763.5 7851.31 4769.57 7851.31 4775.65 7851.31 4780.57 7856.24 4780.57 7862.31Z" stroke="#FFCB37" stroke-width="3.4375" stroke-linejoin="round" stroke-miterlimit="10" fill="#FFCB37"/><path d="M4846.57 7819.31C4846.57 7825.39 4841.65 7830.31 4835.57 7830.31 4829.5 7830.31 4824.57 7825.39 4824.57 7819.31 4824.57 7813.24 4829.5 7808.31 4835.57 7808.31 4841.65 7808.31 4846.57 7813.24 4846.57 7819.31Z" stroke="#FFCB37" stroke-width="3.4375" stroke-linejoin="round" stroke-miterlimit="10" fill="#FFCB37"/><path d="M4912.57 7751.31C4912.57 7757.39 4907.65 7762.31 4901.57 7762.31 4895.5 7762.31 4890.57 7757.39 4890.57 7751.31 4890.57 7745.24 4895.5 7740.31 4901.57 7740.31 4907.65 7740.31 4912.57 7745.24 4912.57 7751.31Z" stroke="#FFCB37" stroke-width="3.4375" stroke-linejoin="round" stroke-miterlimit="10" fill="#FFCB37"/><path d="M4978.57 7697.31C4978.57 7703.39 4973.65 7708.31 4967.57 7708.31 4961.5 7708.31 4956.57 7703.39 4956.57 7697.31 4956.57 7691.24 4961.5 7686.31 4967.57 7686.31 4973.65 7686.31 4978.57 7691.24 4978.57 7697.31Z" stroke="#FFCB37" stroke-width="3.4375" stroke-linejoin="round" stroke-miterlimit="10" fill="#FFCB37"/><path d="M5045.57 7645.31C5045.57 7651.39 5040.65 7656.31 5034.57 7656.31 5028.5 7656.31 5023.57 7651.39 5023.57 7645.31 5023.57 7639.24 5028.5 7634.31 5034.57 7634.31 5040.65 7634.31 5045.57 7639.24 5045.57 7645.31Z" stroke="#FFCB37" stroke-width="3.4375" stroke-linejoin="round" stroke-miterlimit="10" fill="#FFCB37"/><path d="M5111.57 7595.31C5111.57 7601.39 5106.65 7606.31 5100.57 7606.31 5094.5 7606.31 5089.57 7601.39 5089.57 7595.31 5089.57 7589.24 5094.5 7584.31 5100.57 7584.31 5106.65 7584.31 5111.57 7589.24 5111.57 7595.31Z" stroke="#FFCB37" stroke-width="3.4375" stroke-linejoin="round" stroke-miterlimit="10" fill="#FFCB37"/><path d="M5177.57 7506.31C5177.57 7512.39 5172.65 7517.31 5166.57 7517.31 5160.5 7517.31 5155.57 7512.39 5155.57 7506.31 5155.57 7500.24 5160.5 7495.31 5166.57 7495.31 5172.65 7495.31 5177.57 7500.24 5177.57 7506.31Z" stroke="#FFCB37" stroke-width="3.4375" stroke-linejoin="round" stroke-miterlimit="10" fill="#FFCB37"/><path d="M5243.57 7444.31C5243.57 7450.39 5238.65 7455.31 5232.57 7455.31 5226.5 7455.31 5221.57 7450.39 5221.57 7444.31 5221.57 7438.24 5226.5 7433.31 5232.57 7433.31 5238.65 7433.31 5243.57 7438.24 5243.57 7444.31Z" stroke="#FFCB37" stroke-width="3.4375" stroke-linejoin="round" stroke-miterlimit="10" fill="#FFCB37"/><path d="M5309.57 7571.31C5309.57 7577.39 5304.65 7582.31 5298.57 7582.31 5292.5 7582.31 5287.57 7577.39 5287.57 7571.31 5287.57 7565.24 5292.5 7560.31 5298.57 7560.31 5304.65 7560.31 5309.57 7565.24 5309.57 7571.31Z" stroke="#FFCB37" stroke-width="3.4375" stroke-linejoin="round" stroke-miterlimit="10" fill="#FFCB37"/><path d="M5376.57 7508.31C5376.57 7514.39 5371.65 7519.31 5365.57 7519.31 5359.5 7519.31 5354.57 7514.39 5354.57 7508.31 5354.57 7502.24 5359.5 7497.31 5365.57 7497.31 5371.65 7497.31 5376.57 7502.24 5376.57 7508.31Z" stroke="#FFCB37" stroke-width="3.4375" stroke-linejoin="round" stroke-miterlimit="10" fill="#FFCB37"/><path d="M5442.57 7410.31C5442.57 7416.39 5437.65 7421.31 5431.57 7421.31 5425.5 7421.31 5420.57 7416.39 5420.57 7410.31 5420.57 7404.24 5425.5 7399.31 5431.57 7399.31 5437.65 7399.31 5442.57 7404.24 5442.57 7410.31Z" stroke="#FFCB37" stroke-width="3.4375" stroke-linejoin="round" stroke-miterlimit="10" fill="#FFCB37"/><path d="M5508.57 7332.31C5508.57 7338.39 5503.65 7343.31 5497.57 7343.31 5491.5 7343.31 5486.57 7338.39 5486.57 7332.31 5486.57 7326.24 5491.5 7321.31 5497.57 7321.31 5503.65 7321.31 5508.57 7326.24 5508.57 7332.31Z" stroke="#FFCB37" stroke-width="3.4375" stroke-linejoin="round" stroke-miterlimit="10" fill="#FFCB37"/><path d="M5574.57 7278.31C5574.57 7284.39 5569.65 7289.31 5563.57 7289.31 5557.5 7289.31 5552.57 7284.39 5552.57 7278.31 5552.57 7272.24 5557.5 7267.31 5563.57 7267.31 5569.65 7267.31 5574.57 7272.24 5574.57 7278.31Z" stroke="#FFCB37" stroke-width="3.4375" stroke-linejoin="round" stroke-miterlimit="10" fill="#FFCB37"/><path d="M5640.57 7263.31C5640.57 7269.39 5635.65 7274.31 5629.57 7274.31 5623.5 7274.31 5618.57 7269.39 5618.57 7263.31 5618.57 7257.24 5623.5 7252.31 5629.57 7252.31 5635.65 7252.31 5640.57 7257.24 5640.57 7263.31Z" stroke="#FFCB37" stroke-width="3.4375" stroke-linejoin="round" stroke-miterlimit="10" fill="#FFCB37"/></g><g><text fill="#E5E7EB" font-family="Calibri,Calibri_MSFontService,sans-serif" font-weight="400" font-size="41" transform="matrix(1 0 0 1 4082.94 7978)"> $-</text></g><g><text fill="#E5E7EB" font-family="Calibri,Calibri_MSFontService,sans-serif" font-weight="400" font-size="41" transform="matrix(1 0 0 1 4053.76 7874)"> $50</text></g><g><text fill="#E5E7EB" font-family="Calibri,Calibri_MSFontService,sans-serif" font-weight="400" font-size="41" transform="matrix(1 0 0 1 4032.86 7771)"> $100</text></g><g><text fill="#E5E7EB" font-family="Calibri,Calibri_MSFontService,sans-serif" font-weight="400" font-size="41" transform="matrix(1 0 0 1 4032.86 7667)"> $150</text></g><g><text fill="#E5E7EB" font-family="Calibri,Calibri_MSFontService,sans-serif" font-weight="400" font-size="41" transform="matrix(1 0 0 1 4032.86 7563)"> $200</text></g><g><text fill="#E5E7EB" font-family="Calibri,Calibri_MSFontService,sans-serif" font-weight="400" font-size="41" transform="matrix(1 0 0 1 4032.86 7460)"> $250</text></g><g><text fill="#E5E7EB" font-family="Calibri,Calibri_MSFontService,sans-serif" font-weight="400" font-size="41" transform="matrix(1 0 0 1 4032.86 7356)"> $300</text></g><g><text fill="#E5E7EB" font-family="Calibri,Calibri_MSFontService,sans-serif" font-weight="400" font-size="41" transform="matrix(1 0 0 1 4032.86 7253)"> $350</text></g><g><text fill="#E5E7EB" font-family="Calibri,Calibri_MSFontService,sans-serif" font-weight="400" font-size="41" transform="matrix(1 0 0 1 4032.86 7149)"> $400</text></g><g><text fill="#E5E7EB" font-family="Calibri,Calibri_MSFontService,sans-serif" font-weight="400" font-size="41" transform="matrix(1 0 0 1 4162.94 8031)">0</text></g><g><text fill="#E5E7EB" font-family="Calibri,Calibri_MSFontService,sans-serif" font-weight="400" font-size="41" transform="matrix(1 0 0 1 4493.95 8031)">5</text></g><g><text fill="#E5E7EB" font-family="Calibri,Calibri_MSFontService,sans-serif" font-weight="400" font-size="41" transform="matrix(1 0 0 1 4814.52 8031)">10</text></g><g><text fill="#E5E7EB" font-family="Calibri,Calibri_MSFontService,sans-serif" font-weight="400" font-size="41" transform="matrix(1 0 0 1 5145.54 8031)">15</text></g><g><text fill="#E5E7EB" font-family="Calibri,Calibri_MSFontService,sans-serif" font-weight="400" font-size="41" transform="matrix(1 0 0 1 5476.55 8031)">20</text></g><g><text fill="#E5E7EB" font-family="Calibri,Calibri_MSFontService,sans-serif" font-weight="400" font-size="41" transform="matrix(1 0 0 1 5807.57 8031)">25</text></g><g><text fill="#E5E7EB" font-family="Calibri,Calibri_MSFontService,sans-serif" font-weight="400" font-size="64" transform="matrix(1 0 0 1 4455.58 7063)">Profit with 50$ Engaged on Each Entry</text></g><rect x="4003.5" y="6968.5" width="1897" height="1104" stroke="#D9D9D9" stroke-width="3.4375" stroke-linejoin="round" stroke-miterlimit="10" fill="none"/></g></svg>