<svg width="1080" height="1104" xmlns="http://www.w3.org/2000/svg" xmlns:xlink="http://www.w3.org/1999/xlink" xml:space="preserve" overflow="hidden"><defs><clipPath id="clip0"><rect x="3869" y="4582" width="1080" height="1104"/></clipPath></defs><g clip-path="url(#clip0)" transform="translate(-3869 -4582)"><g><path d="M4408.69 4807.52C4592.69 4807.52 4741.84 4956.67 4741.84 5140.67 4741.84 5324.66 4592.69 5473.82 4408.69 5473.82 4224.7 5473.82 4075.55 5324.66 4075.55 5140.67 4075.55 5095.29 4084.82 5050.38 4102.79 5008.71L4179.27 5041.7C4124.61 5168.41 4183.02 5315.44 4309.73 5370.09 4436.44 5424.75 4583.47 5366.34 4638.12 5239.63 4692.78 5112.92 4634.37 4965.9 4507.66 4911.24 4476.41 4897.76 4442.73 4890.8 4408.7 4890.8Z" stroke="#FFFFFF" stroke-width="6.875" stroke-linejoin="round" stroke-miterlimit="10" fill="#4ADE80" fill-rule="evenodd"/></g><g><path d="M4102.79 5008.71C4155.46 4886.6 4275.71 4807.52 4408.7 4807.52L4408.69 4890.8C4308.96 4890.8 4218.77 4950.12 4179.27 5041.7Z" stroke="#FFFFFF" stroke-width="6.875" stroke-linejoin="round" stroke-miterlimit="10" fill="#FFCB37" fill-rule="evenodd"/></g><g><path d="M4568.5 5384.5 4631.65 5444.5 4652.5 5444.5" stroke="#A6A6A6" stroke-width="3.4375" stroke-linejoin="round" stroke-miterlimit="10" fill="none"/></g><g><path d="M4248.5 4897.5 4222.64 4841.5 4202.5 4841.5" stroke="#A6A6A6" stroke-width="3.4375" stroke-linejoin="round" stroke-miterlimit="10" fill="none"/></g><g><text fill="#4ADE80" font-family="Calibri,Calibri_MSFontService,sans-serif" font-weight="400" font-size="41" transform="matrix(1 0 0 1 4666.45 5458)">81%</text></g><g><text fill="#FFCB37" font-family="Calibri,Calibri_MSFontService,sans-serif" font-weight="400" font-size="41" transform="matrix(1 0 0 1 4117.09 4855)">19%</text></g><g><text fill="#E5E7EB" font-family="Calibri,Calibri_MSFontService,sans-serif" font-weight="400" font-size="64" transform="matrix(1 0 0 1 4275.87 5155)">WIN RATE</text></g><g><rect x="4266.5" y="5606.5" width="23" height="23" stroke="#FFFFFF" stroke-width="6.875" stroke-linejoin="round" stroke-miterlimit="10" fill="#4ADE80"/></g><g><text fill="#E5E7EB" font-family="Calibri,Calibri_MSFontService,sans-serif" font-weight="400" font-size="41" transform="matrix(1 0 0 1 4299.1 5629)">PROFIT</text></g><g><rect x="4452.5" y="5606.5" width="22" height="23" stroke="#FFFFFF" stroke-width="6.875" stroke-linejoin="round" stroke-miterlimit="10" fill="#FFCB37"/></g><g><text fill="#E5E7EB" font-family="Calibri,Calibri_MSFontService,sans-serif" font-weight="400" font-size="41" transform="matrix(1 0 0 1 4484.47 5629)">LOSS</text></g><rect x="3870.5" y="4583.5" width="1077" height="1101" stroke="#D9D9D9" stroke-width="3.4375" stroke-linejoin="round" stroke-miterlimit="10" fill="none"/></g></svg>