<svg width="1044" height="1100" xmlns="http://www.w3.org/2000/svg" xmlns:xlink="http://www.w3.org/1999/xlink" xml:space="preserve" overflow="hidden"><defs><clipPath id="clip0"><rect x="5093" y="4590" width="1044" height="1100"/></clipPath></defs><g clip-path="url(#clip0)" transform="translate(-5093 -4590)"><g><path d="M5625.24 4811.79C5812.41 4811.79 5964.14 4963.52 5964.14 5150.69 5964.14 5337.86 5812.41 5489.59 5625.24 5489.59 5475.5 5489.59 5343.52 5391.33 5300.57 5247.88L5381.74 5223.58C5422 5358.06 5563.66 5434.44 5698.14 5394.18 5832.62 5353.92 5909 5212.27 5868.73 5077.79 5836.53 4970.21 5737.54 4896.51 5625.24 4896.51Z" stroke="#FFFFFF" stroke-width="6.875" stroke-linejoin="round" stroke-miterlimit="10" fill="#4ADE80" fill-rule="evenodd"/></g><g><path d="M5300.57 5247.88C5246.89 5068.58 5348.73 4879.7 5528.04 4826.02 5559.57 4816.58 5592.32 4811.78 5625.24 4811.78L5625.24 4896.51C5484.86 4896.51 5371.06 5010.31 5371.06 5150.69 5371.06 5175.38 5374.66 5199.93 5381.74 5223.58Z" stroke="#FFFFFF" stroke-width="6.875" stroke-linejoin="round" stroke-miterlimit="10" fill="#FFCB37" fill-rule="evenodd"/></g><g><path d="M5863.5 5327.5 5925.69 5512.5 5946.5 5512.5" stroke="#A6A6A6" stroke-width="3.4375" stroke-linejoin="round" stroke-miterlimit="10" fill="none"/></g><g><path d="M5387.5 4973.5 5224.67 4913.5 5203.5 4913.5" stroke="#A6A6A6" stroke-width="3.4375" stroke-linejoin="round" stroke-miterlimit="10" fill="none"/></g><g><text fill="#4ADE80" font-family="Calibri,Calibri_MSFontService,sans-serif" font-weight="700" font-size="41" transform="matrix(1 0 0 1 5960.11 5527)">70%</text></g><g><text fill="#FFCB37" font-family="Calibri,Calibri_MSFontService,sans-serif" font-weight="700" font-size="41" transform="matrix(1 0 0 1 5118.06 4928)">30%</text></g><g><text fill="#FFCB37" font-family="Calibri,Calibri_MSFontService,sans-serif" font-weight="700" font-size="64" transform="matrix(1 0 0 1 5458.34 5167)">Short</text></g><g><text fill="#E5E7EB" font-family="Calibri,Calibri_MSFontService,sans-serif" font-weight="700" font-size="64" transform="matrix(1 0 0 1 5617.15 5167)">&amp;</text></g><g><text fill="#4ADE80" font-family="Calibri,Calibri_MSFontService,sans-serif" font-weight="700" font-size="64" transform="matrix(1 0 0 1 5676.87 5167)">Long</text></g><rect x="5094.5" y="4591.5" width="1041" height="1097" stroke="#D9D9D9" stroke-width="3.4375" stroke-linejoin="round" stroke-miterlimit="10" fill="none"/></g></svg>