<svg width="1874" height="1107" xmlns="http://www.w3.org/2000/svg" xmlns:xlink="http://www.w3.org/1999/xlink" xml:space="preserve" overflow="hidden"><defs><clipPath id="clip0"><rect x="4107" y="7311" width="1874" height="1107"/></clipPath><clipPath id="clip1"><rect x="4278" y="7481" width="1633" height="888"/></clipPath></defs><g clip-path="url(#clip0)" transform="translate(-4107 -7311)"><g><path d="M4278.5 8365.5 5907.5 8365.5M4278.5 8070.77 5907.5 8070.77M4278.5 7923.76 5907.5 7923.76M4278.5 7776.76 5907.5 7776.76M4278.5 7628.75 5907.5 7628.75M4278.5 7481.5 5907.5 7481.5" stroke="#D9D9D9" stroke-width="3.4375" stroke-linejoin="round" stroke-miterlimit="10" fill="none"/></g><g><path d="M4603.65 7481.5 4603.65 8365.5M4929.66 7481.5 4929.66 8365.5M5255.67 7481.5 5255.67 8365.5M5581.68 7481.5 5581.68 8365.5M5907.5 7481.5 5907.5 8365.5" stroke="#D9D9D9" stroke-width="3.4375" stroke-linejoin="round" stroke-miterlimit="10" fill="none"/></g><g><path d="M0 0 0.000360892 884" stroke="#BFBFBF" stroke-width="3.4375" stroke-linejoin="round" stroke-miterlimit="10" fill="none" fill-rule="evenodd" transform="matrix(1 0 0 -1 4278.5 8365.5)"/></g><g><path d="M4278.5 8218.5 5907.5 8218.5" stroke="#BFBFBF" stroke-width="3.4375" stroke-linejoin="round" stroke-miterlimit="10" fill="none" fill-rule="evenodd"/></g><g clip-path="url(#clip1)"><path d="M4343.5 8327.5 4408.64 8313.77 4473.65 8111.77 4538.65 8224.77 4603.65 8090.77 4669.65 8044.76 4734.66 8029.76 4799.66 8023.76 4864.66 7991.76 4929.66 7933.76 4995.66 7777.76 5060.67 7749.75 5125.67 7553.75 5190.67 7659.75 5255.67 7721.75 5321.67 7703.75 5386.68 7681.75 5451.68 7630.75 5516.68 7698.75 5581.68 7664.75 5646.69 7633.75 5712.69 7616.75 5777.69 7605.75 5842.69 7596.75 5907.69 7580.75 5972.7 7560.75 6038.5 7545.5" stroke="#FFCB37" stroke-width="6.875" stroke-linecap="round" stroke-linejoin="round" stroke-miterlimit="10" fill="none"/></g><g><path d="M4354.37 8327.06C4354.37 8333.14 4349.44 8338.06 4343.37 8338.06 4337.29 8338.06 4332.37 8333.14 4332.37 8327.06 4332.37 8320.99 4337.29 8316.06 4343.37 8316.06 4349.44 8316.06 4354.37 8320.99 4354.37 8327.06Z" stroke="#FFCB37" stroke-width="3.4375" stroke-linejoin="round" stroke-miterlimit="10" fill="#FFCB37"/><path d="M4419.37 8313.06C4419.37 8319.14 4414.44 8324.06 4408.37 8324.06 4402.29 8324.06 4397.37 8319.14 4397.37 8313.06 4397.37 8306.99 4402.29 8302.06 4408.37 8302.06 4414.44 8302.06 4419.37 8306.99 4419.37 8313.06Z" stroke="#FFCB37" stroke-width="3.4375" stroke-linejoin="round" stroke-miterlimit="10" fill="#FFCB37"/><path d="M4484.37 8111.06C4484.37 8117.14 4479.44 8122.06 4473.37 8122.06 4467.29 8122.06 4462.37 8117.14 4462.37 8111.06 4462.37 8104.99 4467.29 8100.06 4473.37 8100.06 4479.44 8100.06 4484.37 8104.99 4484.37 8111.06Z" stroke="#FFCB37" stroke-width="3.4375" stroke-linejoin="round" stroke-miterlimit="10" fill="#FFCB37"/><path d="M4549.37 8225.06C4549.37 8231.14 4544.44 8236.06 4538.37 8236.06 4532.29 8236.06 4527.37 8231.14 4527.37 8225.06 4527.37 8218.99 4532.29 8214.06 4538.37 8214.06 4544.44 8214.06 4549.37 8218.99 4549.37 8225.06Z" stroke="#FFCB37" stroke-width="3.4375" stroke-linejoin="round" stroke-miterlimit="10" fill="#FFCB37"/><path d="M4615.37 8091.06C4615.37 8097.14 4610.44 8102.06 4604.37 8102.06 4598.29 8102.06 4593.37 8097.14 4593.37 8091.06 4593.37 8084.99 4598.29 8080.06 4604.37 8080.06 4610.44 8080.06 4615.37 8084.99 4615.37 8091.06Z" stroke="#FFCB37" stroke-width="3.4375" stroke-linejoin="round" stroke-miterlimit="10" fill="#FFCB37"/><path d="M4680.37 8044.06C4680.37 8050.14 4675.44 8055.06 4669.37 8055.06 4663.29 8055.06 4658.37 8050.14 4658.37 8044.06 4658.37 8037.99 4663.29 8033.06 4669.37 8033.06 4675.44 8033.06 4680.37 8037.99 4680.37 8044.06Z" stroke="#FFCB37" stroke-width="3.4375" stroke-linejoin="round" stroke-miterlimit="10" fill="#FFCB37"/><path d="M4745.37 8029.06C4745.37 8035.14 4740.44 8040.06 4734.37 8040.06 4728.29 8040.06 4723.37 8035.14 4723.37 8029.06 4723.37 8022.99 4728.29 8018.06 4734.37 8018.06 4740.44 8018.06 4745.37 8022.99 4745.37 8029.06Z" stroke="#FFCB37" stroke-width="3.4375" stroke-linejoin="round" stroke-miterlimit="10" fill="#FFCB37"/><path d="M4810.37 8024.06C4810.37 8030.14 4805.44 8035.06 4799.37 8035.06 4793.29 8035.06 4788.37 8030.14 4788.37 8024.06 4788.37 8017.99 4793.29 8013.06 4799.37 8013.06 4805.44 8013.06 4810.37 8017.99 4810.37 8024.06Z" stroke="#FFCB37" stroke-width="3.4375" stroke-linejoin="round" stroke-miterlimit="10" fill="#FFCB37"/><path d="M4875.37 7992.06C4875.37 7998.14 4870.44 8003.06 4864.37 8003.06 4858.29 8003.06 4853.37 7998.14 4853.37 7992.06 4853.37 7985.99 4858.29 7981.06 4864.37 7981.06 4870.44 7981.06 4875.37 7985.99 4875.37 7992.06Z" stroke="#FFCB37" stroke-width="3.4375" stroke-linejoin="round" stroke-miterlimit="10" fill="#FFCB37"/><path d="M4941.37 7933.06C4941.37 7939.14 4936.44 7944.06 4930.37 7944.06 4924.29 7944.06 4919.37 7939.14 4919.37 7933.06 4919.37 7926.99 4924.29 7922.06 4930.37 7922.06 4936.44 7922.06 4941.37 7926.99 4941.37 7933.06Z" stroke="#FFCB37" stroke-width="3.4375" stroke-linejoin="round" stroke-miterlimit="10" fill="#FFCB37"/><path d="M5006.37 7777.06C5006.37 7783.14 5001.44 7788.06 4995.37 7788.06 4989.29 7788.06 4984.37 7783.14 4984.37 7777.06 4984.37 7770.99 4989.29 7766.06 4995.37 7766.06 5001.44 7766.06 5006.37 7770.99 5006.37 7777.06Z" stroke="#FFCB37" stroke-width="3.4375" stroke-linejoin="round" stroke-miterlimit="10" fill="#FFCB37"/><path d="M5071.37 7750.06C5071.37 7756.14 5066.44 7761.06 5060.37 7761.06 5054.29 7761.06 5049.37 7756.14 5049.37 7750.06 5049.37 7743.99 5054.29 7739.06 5060.37 7739.06 5066.44 7739.06 5071.37 7743.99 5071.37 7750.06Z" stroke="#FFCB37" stroke-width="3.4375" stroke-linejoin="round" stroke-miterlimit="10" fill="#FFCB37"/><path d="M5136.37 7553.06C5136.37 7559.14 5131.44 7564.06 5125.37 7564.06 5119.29 7564.06 5114.37 7559.14 5114.37 7553.06 5114.37 7546.99 5119.29 7542.06 5125.37 7542.06 5131.44 7542.06 5136.37 7546.99 5136.37 7553.06Z" stroke="#FFCB37" stroke-width="3.4375" stroke-linejoin="round" stroke-miterlimit="10" fill="#FFCB37"/><path d="M5201.37 7660.06C5201.37 7666.14 5196.44 7671.06 5190.37 7671.06 5184.29 7671.06 5179.37 7666.14 5179.37 7660.06 5179.37 7653.99 5184.29 7649.06 5190.37 7649.06 5196.44 7649.06 5201.37 7653.99 5201.37 7660.06Z" stroke="#FFCB37" stroke-width="3.4375" stroke-linejoin="round" stroke-miterlimit="10" fill="#FFCB37"/><path d="M5267.37 7721.06C5267.37 7727.14 5262.44 7732.06 5256.37 7732.06 5250.29 7732.06 5245.37 7727.14 5245.37 7721.06 5245.37 7714.99 5250.29 7710.06 5256.37 7710.06 5262.44 7710.06 5267.37 7714.99 5267.37 7721.06Z" stroke="#FFCB37" stroke-width="3.4375" stroke-linejoin="round" stroke-miterlimit="10" fill="#FFCB37"/><path d="M5332.37 7703.06C5332.37 7709.14 5327.44 7714.06 5321.37 7714.06 5315.29 7714.06 5310.37 7709.14 5310.37 7703.06 5310.37 7696.99 5315.29 7692.06 5321.37 7692.06 5327.44 7692.06 5332.37 7696.99 5332.37 7703.06Z" stroke="#FFCB37" stroke-width="3.4375" stroke-linejoin="round" stroke-miterlimit="10" fill="#FFCB37"/><path d="M5397.37 7681.06C5397.37 7687.14 5392.44 7692.06 5386.37 7692.06 5380.29 7692.06 5375.37 7687.14 5375.37 7681.06 5375.37 7674.99 5380.29 7670.06 5386.37 7670.06 5392.44 7670.06 5397.37 7674.99 5397.37 7681.06Z" stroke="#FFCB37" stroke-width="3.4375" stroke-linejoin="round" stroke-miterlimit="10" fill="#FFCB37"/><path d="M5462.37 7630.06C5462.37 7636.14 5457.44 7641.06 5451.37 7641.06 5445.29 7641.06 5440.37 7636.14 5440.37 7630.06 5440.37 7623.99 5445.29 7619.06 5451.37 7619.06 5457.44 7619.06 5462.37 7623.99 5462.37 7630.06Z" stroke="#FFCB37" stroke-width="3.4375" stroke-linejoin="round" stroke-miterlimit="10" fill="#FFCB37"/><path d="M5527.37 7698.06C5527.37 7704.14 5522.44 7709.06 5516.37 7709.06 5510.29 7709.06 5505.37 7704.14 5505.37 7698.06 5505.37 7691.99 5510.29 7687.06 5516.37 7687.06 5522.44 7687.06 5527.37 7691.99 5527.37 7698.06Z" stroke="#FFCB37" stroke-width="3.4375" stroke-linejoin="round" stroke-miterlimit="10" fill="#FFCB37"/><path d="M5592.37 7664.06C5592.37 7670.14 5587.44 7675.06 5581.37 7675.06 5575.29 7675.06 5570.37 7670.14 5570.37 7664.06 5570.37 7657.99 5575.29 7653.06 5581.37 7653.06 5587.44 7653.06 5592.37 7657.99 5592.37 7664.06Z" stroke="#FFCB37" stroke-width="3.4375" stroke-linejoin="round" stroke-miterlimit="10" fill="#FFCB37"/><path d="M5658.37 7633.06C5658.37 7639.14 5653.44 7644.06 5647.37 7644.06 5641.29 7644.06 5636.37 7639.14 5636.37 7633.06 5636.37 7626.99 5641.29 7622.06 5647.37 7622.06 5653.44 7622.06 5658.37 7626.99 5658.37 7633.06Z" stroke="#FFCB37" stroke-width="3.4375" stroke-linejoin="round" stroke-miterlimit="10" fill="#FFCB37"/><path d="M5723.37 7616.06C5723.37 7622.14 5718.44 7627.06 5712.37 7627.06 5706.29 7627.06 5701.37 7622.14 5701.37 7616.06 5701.37 7609.99 5706.29 7605.06 5712.37 7605.06 5718.44 7605.06 5723.37 7609.99 5723.37 7616.06Z" stroke="#FFCB37" stroke-width="3.4375" stroke-linejoin="round" stroke-miterlimit="10" fill="#FFCB37"/><path d="M5788.37 7605.06C5788.37 7611.14 5783.44 7616.06 5777.37 7616.06 5771.29 7616.06 5766.37 7611.14 5766.37 7605.06 5766.37 7598.99 5771.29 7594.06 5777.37 7594.06 5783.44 7594.06 5788.37 7598.99 5788.37 7605.06Z" stroke="#FFCB37" stroke-width="3.4375" stroke-linejoin="round" stroke-miterlimit="10" fill="#FFCB37"/><path d="M5853.37 7596.06C5853.37 7602.14 5848.44 7607.06 5842.37 7607.06 5836.29 7607.06 5831.37 7602.14 5831.37 7596.06 5831.37 7589.99 5836.29 7585.06 5842.37 7585.06 5848.44 7585.06 5853.37 7589.99 5853.37 7596.06Z" stroke="#FFCB37" stroke-width="3.4375" stroke-linejoin="round" stroke-miterlimit="10" fill="#FFCB37"/><path d="M5918.37 7580.06C5918.37 7586.14 5913.44 7591.06 5907.37 7591.06 5901.29 7591.06 5896.37 7586.14 5896.37 7580.06 5896.37 7573.99 5901.29 7569.06 5907.37 7569.06 5913.44 7569.06 5918.37 7573.99 5918.37 7580.06Z" stroke="#FFCB37" stroke-width="3.4375" stroke-linejoin="round" stroke-miterlimit="10" fill="#FFCB37"/></g><g><text fill="#E5E7EB" font-family="Calibri,Calibri_MSFontService,sans-serif" font-weight="400" font-size="41" transform="matrix(1 0 0 1 4142.86 8377)"> $(50)</text></g><g><text fill="#E5E7EB" font-family="Calibri,Calibri_MSFontService,sans-serif" font-weight="400" font-size="41" transform="matrix(1 0 0 1 4187.73 8230)"> $-</text></g><g><text fill="#E5E7EB" font-family="Calibri,Calibri_MSFontService,sans-serif" font-weight="400" font-size="41" transform="matrix(1 0 0 1 4158.56 8083)"> $50</text></g><g><text fill="#E5E7EB" font-family="Calibri,Calibri_MSFontService,sans-serif" font-weight="400" font-size="41" transform="matrix(1 0 0 1 4137.66 7935)"> $100</text></g><g><text fill="#E5E7EB" font-family="Calibri,Calibri_MSFontService,sans-serif" font-weight="400" font-size="41" transform="matrix(1 0 0 1 4137.66 7788)"> $150</text></g><g><text fill="#E5E7EB" font-family="Calibri,Calibri_MSFontService,sans-serif" font-weight="400" font-size="41" transform="matrix(1 0 0 1 4137.66 7640)"> $200</text></g><g><text fill="#E5E7EB" font-family="Calibri,Calibri_MSFontService,sans-serif" font-weight="400" font-size="41" transform="matrix(1 0 0 1 4137.66 7493)"> $250</text></g><g><text fill="#E5E7EB" font-family="Calibri,Calibri_MSFontService,sans-serif" font-weight="400" font-size="41" transform="matrix(1 0 0 1 4267.73 8284)">0</text></g><g><text fill="#E5E7EB" font-family="Calibri,Calibri_MSFontService,sans-serif" font-weight="400" font-size="41" transform="matrix(1 0 0 1 4593.68 8284)">5</text></g><g><text fill="#E5E7EB" font-family="Calibri,Calibri_MSFontService,sans-serif" font-weight="400" font-size="41" transform="matrix(1 0 0 1 4909.19 8284)">10</text></g><g><text fill="#E5E7EB" font-family="Calibri,Calibri_MSFontService,sans-serif" font-weight="400" font-size="41" transform="matrix(1 0 0 1 5235.14 8284)">15</text></g><g><text fill="#E5E7EB" font-family="Calibri,Calibri_MSFontService,sans-serif" font-weight="400" font-size="41" transform="matrix(1 0 0 1 5561.09 8284)">20</text></g><g><text fill="#E5E7EB" font-family="Calibri,Calibri_MSFontService,sans-serif" font-weight="400" font-size="41" transform="matrix(1 0 0 1 5887.04 8284)">25</text></g><g><text fill="#E5E7EB" font-family="Calibri,Calibri_MSFontService,sans-serif" font-weight="400" font-size="64" transform="matrix(1 0 0 1 4546.59 7407)">Profit with 50$ Engaged on each entry</text></g><rect x="4108.5" y="7312.5" width="1871" height="1104" stroke="#D9D9D9" stroke-width="3.4375" stroke-linejoin="round" stroke-miterlimit="10" fill="none"/></g></svg>