<svg width="1123" height="1127" xmlns="http://www.w3.org/2000/svg" xmlns:xlink="http://www.w3.org/1999/xlink" xml:space="preserve" overflow="hidden"><defs><clipPath id="clip0"><rect x="3100" y="4792" width="1123" height="1127"/></clipPath></defs><g clip-path="url(#clip0)" transform="translate(-3100 -4792)"><g><path d="M3649.59 4955.27C3854.97 4955.27 4021.47 5121.77 4021.47 5327.15 4021.47 5532.52 3854.97 5699.02 3649.59 5699.02 3534.53 5699.02 3425.96 5645.76 3355.53 5554.77L3429.04 5497.86C3523.33 5619.67 3698.51 5641.98 3820.31 5547.7 3942.12 5453.41 3964.43 5278.23 3870.14 5156.43 3817.32 5088.19 3735.89 5048.24 3649.59 5048.24Z" stroke="#FFFFFF" stroke-width="6.875" stroke-linejoin="round" stroke-miterlimit="10" fill="#4ADE80" fill-rule="evenodd"/></g><g><path d="M3355.53 5554.77C3229.81 5392.36 3259.56 5158.79 3421.97 5033.08 3487.13 4982.64 3567.19 4955.27 3649.59 4955.27L3649.59 5048.24C3495.56 5048.24 3370.69 5173.11 3370.69 5327.15 3370.69 5388.95 3391.22 5448.99 3429.04 5497.86Z" stroke="#FFFFFF" stroke-width="6.875" stroke-linejoin="round" stroke-miterlimit="10" fill="#FFCB37" fill-rule="evenodd"/></g><g><path d="M3941.5 5470.5 4009.63 5531.5 4030.5 5531.5" stroke="#A6A6A6" stroke-width="3.4375" stroke-linejoin="round" stroke-miterlimit="10" fill="none"/></g><g><path d="M3357.5 5183.5 3327.61 5126.5 3307.5 5126.5" stroke="#A6A6A6" stroke-width="3.4375" stroke-linejoin="round" stroke-miterlimit="10" fill="none"/></g><g><text fill="#4ADE80" font-family="Calibri,Calibri_MSFontService,sans-serif" font-weight="400" font-size="41" transform="matrix(1 0 0 1 4044.49 5546)">65%</text></g><g><text fill="#FFCB37" font-family="Calibri,Calibri_MSFontService,sans-serif" font-weight="400" font-size="41" transform="matrix(1 0 0 1 3222.3 5140)">35%</text></g><g><text fill="#E5E7EB" font-family="Calibri,Calibri_MSFontService,sans-serif" font-weight="400" font-size="64" transform="matrix(1 0 0 1 3498.47 5334)">WIN RATE</text></g><g><rect x="3519.5" y="5839.5" width="22" height="22" stroke="#FFFFFF" stroke-width="6.875" stroke-linejoin="round" stroke-miterlimit="10" fill="#4ADE80"/></g><g><text fill="#E5E7EB" font-family="Calibri,Calibri_MSFontService,sans-serif" font-weight="400" font-size="41" transform="matrix(1 0 0 1 3551.53 5862)">PROFIT</text></g><g><rect x="3704.5" y="5839.5" width="23" height="22" stroke="#FFFFFF" stroke-width="6.875" stroke-linejoin="round" stroke-miterlimit="10" fill="#FFCB37"/></g><g><text fill="#E5E7EB" font-family="Calibri,Calibri_MSFontService,sans-serif" font-weight="400" font-size="41" transform="matrix(1 0 0 1 3736.9 5862)">LOSS</text></g><rect x="3101.5" y="4793.5" width="1120" height="1124" stroke="#D9D9D9" stroke-width="3.4375" stroke-linejoin="round" stroke-miterlimit="10" fill="none"/></g></svg>