<svg width="1135" height="1099" xmlns="http://www.w3.org/2000/svg" xmlns:xlink="http://www.w3.org/1999/xlink" xml:space="preserve" overflow="hidden"><defs><clipPath id="clip0"><rect x="4543" y="4797" width="1135" height="1099"/></clipPath></defs><g clip-path="url(#clip0)" transform="translate(-4543 -4797)"><g><path d="M5121.58 4988.97C5324.93 4988.97 5489.78 5153.82 5489.78 5357.17 5489.78 5518.05 5385.32 5660.31 5231.81 5708.48L5204.25 5620.65C5349.77 5574.99 5430.72 5420.02 5385.07 5274.5 5348.94 5159.37 5242.25 5081.02 5121.58 5081.02Z" stroke="#FFFFFF" stroke-width="6.875" stroke-linejoin="round" stroke-miterlimit="10" fill="#4ADE80" fill-rule="evenodd"/></g><g><path d="M5231.81 5708.48C5037.79 5769.35 4831.15 5661.41 4770.28 5467.39 4709.4 5273.37 4817.34 5066.73 5011.36 5005.86 5047.03 4994.67 5084.2 4988.97 5121.58 4988.97L5121.58 5081.02C4969.07 5081.02 4845.44 5204.66 4845.44 5357.17 4845.44 5509.68 4969.07 5633.31 5121.58 5633.31 5149.62 5633.31 5177.5 5629.04 5204.25 5620.65Z" stroke="#FFFFFF" stroke-width="6.875" stroke-linejoin="round" stroke-miterlimit="10" fill="#FFCB37" fill-rule="evenodd"/></g><g><path d="M5440.5 5308.5 5513.68 5493.5 5534.5 5493.5" stroke="#A6A6A6" stroke-width="3.4375" stroke-linejoin="round" stroke-miterlimit="10" fill="none"/></g><g><path d="M4803.5 5405.5 4710.65 5327.5 4689.5 5327.5" stroke="#A6A6A6" stroke-width="3.4375" stroke-linejoin="round" stroke-miterlimit="10" fill="none"/></g><g><text fill="#4ADE80" font-family="Calibri,Calibri_MSFontService,sans-serif" font-weight="700" font-size="41" transform="matrix(1 0 0 1 5548.54 5507)">45%</text></g><g><text fill="#FFCB37" font-family="Calibri,Calibri_MSFontService,sans-serif" font-weight="700" font-size="41" transform="matrix(1 0 0 1 4604.09 5341)">55%</text></g><g><text fill="#FFCB37" font-family="Calibri,Calibri_MSFontService,sans-serif" font-weight="700" font-size="64" transform="matrix(1 0 0 1 4939.07 5374)">Short</text></g><g><text fill="#E5E7EB" font-family="Calibri,Calibri_MSFontService,sans-serif" font-weight="700" font-size="64" transform="matrix(1 0 0 1 5097.89 5374)">&amp;</text></g><g><text fill="#4ADE80" font-family="Calibri,Calibri_MSFontService,sans-serif" font-weight="700" font-size="64" transform="matrix(1 0 0 1 5157.61 5374)">Long</text></g><rect x="4544.5" y="4798.5" width="1132" height="1096" stroke="#D9D9D9" stroke-width="3.4375" stroke-linejoin="round" stroke-miterlimit="10" fill="none"/></g></svg>