<svg width="1882" height="1107" xmlns="http://www.w3.org/2000/svg" xmlns:xlink="http://www.w3.org/1999/xlink" xml:space="preserve" overflow="hidden"><defs><clipPath id="clip0"><rect x="2680" y="7947" width="1882" height="1107"/></clipPath></defs><g clip-path="url(#clip0)" transform="translate(-2680 -7947)"><g><path d="M2851.5 8841.79 4488.5 8841.79M2851.5 8738.79 4488.5 8738.79M2851.5 8634.78 4488.5 8634.78M2851.5 8531.78 4488.5 8531.78M2851.5 8427.78 4488.5 8427.78M2851.5 8324.77 4488.5 8324.77M2851.5 8220.77 4488.5 8220.77M2851.5 8117.5 4488.5 8117.5" stroke="#D9D9D9" stroke-width="3.4375" stroke-linejoin="round" stroke-miterlimit="10" fill="none"/></g><g><path d="M3085.6 8117.5 3085.6 8945.5M3318.61 8117.5 3318.61 8945.5M3552.62 8117.5 3552.62 8945.5M3786.62 8117.5 3786.62 8945.5M4020.63 8117.5 4020.63 8945.5M4254.64 8117.5 4254.64 8945.5M4488.5 8117.5 4488.5 8945.5" stroke="#D9D9D9" stroke-width="3.4375" stroke-linejoin="round" stroke-miterlimit="10" fill="none"/></g><g><path d="M0 0 0.000360892 828" stroke="#BFBFBF" stroke-width="3.4375" stroke-linejoin="round" stroke-miterlimit="10" fill="none" fill-rule="evenodd" transform="matrix(1 0 0 -1 2851.5 8945.5)"/></g><g><path d="M2851.5 8945.5 4488.5 8945.5" stroke="#BFBFBF" stroke-width="3.4375" stroke-linejoin="round" stroke-miterlimit="10" fill="none" fill-rule="evenodd"/></g><g><path d="M2898.5 8681.79 2944.6 8896.79 2991.6 8632.78 3038.6 8844.79 3085.6 8668.78 3131.6 8557.78 3178.6 8405.78 3225.61 8581.78 3272.61 8738.79 3318.61 8703.79 3365.61 8665.78 3412.61 8581.78 3459.61 8761.79 3506.62 8898.5 3552.62 8802.79 3599.62 8683.79 3646.62 8737.79 3693.62 8872.79 3739.62 8813.79 3786.62 8637.78 3833.63 8726.79 3880.63 8616.78 3926.63 8580.78 3973.63 8705.79 4020.63 8848.79 4067.63 8748.79 4113.64 8707.79 4160.64 8421.78 4207.64 8398.78 4254.64 8241.77 4301.5 8165.5" stroke="#FFCB37" stroke-width="6.875" stroke-linecap="round" stroke-linejoin="round" stroke-miterlimit="10" fill="none"/></g><g><path d="M2909.58 8682C2909.58 8688.08 2904.65 8693 2898.58 8693 2892.5 8693 2887.58 8688.08 2887.58 8682 2887.58 8675.92 2892.5 8671 2898.58 8671 2904.65 8671 2909.58 8675.92 2909.58 8682Z" stroke="#FFCB37" stroke-width="3.4375" stroke-linejoin="round" stroke-miterlimit="10" fill="#FFCB37"/><path d="M2955.58 8897C2955.58 8903.08 2950.65 8908 2944.58 8908 2938.5 8908 2933.58 8903.08 2933.58 8897 2933.58 8890.92 2938.5 8886 2944.58 8886 2950.65 8886 2955.58 8890.92 2955.58 8897Z" stroke="#FFCB37" stroke-width="3.4375" stroke-linejoin="round" stroke-miterlimit="10" fill="#FFCB37"/><path d="M3002.58 8633C3002.58 8639.08 2997.65 8644 2991.58 8644 2985.5 8644 2980.58 8639.08 2980.58 8633 2980.58 8626.92 2985.5 8622 2991.58 8622 2997.65 8622 3002.58 8626.92 3002.58 8633Z" stroke="#FFCB37" stroke-width="3.4375" stroke-linejoin="round" stroke-miterlimit="10" fill="#FFCB37"/><path d="M3049.57 8846C3049.57 8852.07 3044.65 8857 3038.58 8857 3032.5 8857 3027.58 8852.07 3027.58 8846 3027.58 8839.92 3032.5 8835 3038.58 8835 3044.65 8835 3049.57 8839.92 3049.57 8846Z" stroke="#FFCB37" stroke-width="3.4375" stroke-linejoin="round" stroke-miterlimit="10" fill="#FFCB37"/><path d="M3096.58 8669C3096.58 8675.08 3091.65 8680 3085.58 8680 3079.5 8680 3074.58 8675.08 3074.58 8669 3074.58 8662.92 3079.5 8658 3085.58 8658 3091.65 8658 3096.58 8662.92 3096.58 8669Z" stroke="#FFCB37" stroke-width="3.4375" stroke-linejoin="round" stroke-miterlimit="10" fill="#FFCB37"/><path d="M3142.58 8558C3142.58 8564.08 3137.65 8569 3131.58 8569 3125.5 8569 3120.58 8564.08 3120.58 8558 3120.58 8551.92 3125.5 8547 3131.58 8547 3137.65 8547 3142.58 8551.92 3142.58 8558Z" stroke="#FFCB37" stroke-width="3.4375" stroke-linejoin="round" stroke-miterlimit="10" fill="#FFCB37"/><path d="M3189.58 8406C3189.58 8412.07 3184.65 8417 3178.58 8417 3172.5 8417 3167.58 8412.07 3167.58 8406 3167.58 8399.92 3172.5 8395 3178.58 8395 3184.65 8395 3189.58 8399.92 3189.58 8406Z" stroke="#FFCB37" stroke-width="3.4375" stroke-linejoin="round" stroke-miterlimit="10" fill="#FFCB37"/><path d="M3236.57 8582C3236.57 8588.07 3231.65 8593 3225.58 8593 3219.5 8593 3214.58 8588.07 3214.58 8582 3214.58 8575.92 3219.5 8571 3225.58 8571 3231.65 8571 3236.57 8575.92 3236.57 8582Z" stroke="#FFCB37" stroke-width="3.4375" stroke-linejoin="round" stroke-miterlimit="10" fill="#FFCB37"/><path d="M3283.58 8739C3283.58 8745.08 3278.65 8750 3272.58 8750 3266.5 8750 3261.58 8745.08 3261.58 8739 3261.58 8732.92 3266.5 8728 3272.58 8728 3278.65 8728 3283.58 8732.92 3283.58 8739Z" stroke="#FFCB37" stroke-width="3.4375" stroke-linejoin="round" stroke-miterlimit="10" fill="#FFCB37"/><path d="M3330.58 8704C3330.58 8710.08 3325.65 8715 3319.58 8715 3313.5 8715 3308.58 8710.08 3308.58 8704 3308.58 8697.92 3313.5 8693 3319.58 8693 3325.65 8693 3330.58 8697.92 3330.58 8704Z" stroke="#FFCB37" stroke-width="3.4375" stroke-linejoin="round" stroke-miterlimit="10" fill="#FFCB37"/><path d="M3376.58 8666C3376.58 8672.08 3371.65 8677 3365.58 8677 3359.5 8677 3354.58 8672.08 3354.58 8666 3354.58 8659.92 3359.5 8655 3365.58 8655 3371.65 8655 3376.58 8659.92 3376.58 8666Z" stroke="#FFCB37" stroke-width="3.4375" stroke-linejoin="round" stroke-miterlimit="10" fill="#FFCB37"/><path d="M3423.57 8582C3423.57 8588.07 3418.65 8593 3412.58 8593 3406.5 8593 3401.58 8588.07 3401.58 8582 3401.58 8575.92 3406.5 8571 3412.58 8571 3418.65 8571 3423.57 8575.92 3423.57 8582Z" stroke="#FFCB37" stroke-width="3.4375" stroke-linejoin="round" stroke-miterlimit="10" fill="#FFCB37"/><path d="M3470.58 8762C3470.58 8768.08 3465.65 8773 3459.58 8773 3453.5 8773 3448.58 8768.08 3448.58 8762 3448.58 8755.92 3453.5 8751 3459.58 8751 3465.65 8751 3470.58 8755.92 3470.58 8762Z" stroke="#FFCB37" stroke-width="3.4375" stroke-linejoin="round" stroke-miterlimit="10" fill="#FFCB37"/><path d="M3517.58 8899C3517.58 8905.08 3512.65 8910 3506.58 8910 3500.5 8910 3495.58 8905.08 3495.58 8899 3495.58 8892.92 3500.5 8888 3506.58 8888 3512.65 8888 3517.58 8892.92 3517.58 8899Z" stroke="#FFCB37" stroke-width="3.4375" stroke-linejoin="round" stroke-miterlimit="10" fill="#FFCB37"/><path d="M3563.58 8803C3563.58 8809.08 3558.65 8814 3552.58 8814 3546.5 8814 3541.58 8809.08 3541.58 8803 3541.58 8796.92 3546.5 8792 3552.58 8792 3558.65 8792 3563.58 8796.92 3563.58 8803Z" stroke="#FFCB37" stroke-width="3.4375" stroke-linejoin="round" stroke-miterlimit="10" fill="#FFCB37"/><path d="M3610.57 8685C3610.57 8691.08 3605.65 8696 3599.58 8696 3593.5 8696 3588.58 8691.08 3588.58 8685 3588.58 8678.92 3593.5 8674 3599.58 8674 3605.65 8674 3610.57 8678.92 3610.57 8685Z" stroke="#FFCB37" stroke-width="3.4375" stroke-linejoin="round" stroke-miterlimit="10" fill="#FFCB37"/><path d="M3657.58 8738C3657.58 8744.08 3652.65 8749 3646.58 8749 3640.5 8749 3635.58 8744.08 3635.58 8738 3635.58 8731.92 3640.5 8727 3646.58 8727 3652.65 8727 3657.58 8731.92 3657.58 8738Z" stroke="#FFCB37" stroke-width="3.4375" stroke-linejoin="round" stroke-miterlimit="10" fill="#FFCB37"/><path d="M3704.58 8874C3704.58 8880.08 3699.65 8885 3693.58 8885 3687.5 8885 3682.58 8880.08 3682.58 8874 3682.58 8867.92 3687.5 8863 3693.58 8863 3699.65 8863 3704.58 8867.92 3704.58 8874Z" stroke="#FFCB37" stroke-width="3.4375" stroke-linejoin="round" stroke-miterlimit="10" fill="#FFCB37"/><path d="M3750.58 8814C3750.58 8820.08 3745.65 8825 3739.58 8825 3733.5 8825 3728.58 8820.08 3728.58 8814 3728.58 8807.92 3733.5 8803 3739.58 8803 3745.65 8803 3750.58 8807.92 3750.58 8814Z" stroke="#FFCB37" stroke-width="3.4375" stroke-linejoin="round" stroke-miterlimit="10" fill="#FFCB37"/><path d="M3797.57 8639C3797.57 8645.08 3792.65 8650 3786.58 8650 3780.5 8650 3775.58 8645.08 3775.58 8639 3775.58 8632.92 3780.5 8628 3786.58 8628 3792.65 8628 3797.57 8632.92 3797.57 8639Z" stroke="#FFCB37" stroke-width="3.4375" stroke-linejoin="round" stroke-miterlimit="10" fill="#FFCB37"/><path d="M3844.58 8728C3844.58 8734.08 3839.65 8739 3833.58 8739 3827.5 8739 3822.58 8734.08 3822.58 8728 3822.58 8721.92 3827.5 8717 3833.58 8717 3839.65 8717 3844.58 8721.92 3844.58 8728Z" stroke="#FFCB37" stroke-width="3.4375" stroke-linejoin="round" stroke-miterlimit="10" fill="#FFCB37"/><path d="M3891.58 8617C3891.58 8623.08 3886.65 8628 3880.58 8628 3874.5 8628 3869.58 8623.08 3869.58 8617 3869.58 8610.92 3874.5 8606 3880.58 8606 3886.65 8606 3891.58 8610.92 3891.58 8617Z" stroke="#FFCB37" stroke-width="3.4375" stroke-linejoin="round" stroke-miterlimit="10" fill="#FFCB37"/><path d="M3938.58 8581C3938.58 8587.08 3933.65 8592 3927.58 8592 3921.5 8592 3916.58 8587.08 3916.58 8581 3916.58 8574.92 3921.5 8570 3927.58 8570 3933.65 8570 3938.58 8574.92 3938.58 8581Z" stroke="#FFCB37" stroke-width="3.4375" stroke-linejoin="round" stroke-miterlimit="10" fill="#FFCB37"/><path d="M3984.57 8706C3984.57 8712.08 3979.65 8717 3973.58 8717 3967.5 8717 3962.58 8712.08 3962.58 8706 3962.58 8699.92 3967.5 8695 3973.58 8695 3979.65 8695 3984.57 8699.92 3984.57 8706Z" stroke="#FFCB37" stroke-width="3.4375" stroke-linejoin="round" stroke-miterlimit="10" fill="#FFCB37"/><path d="M4031.58 8849C4031.58 8855.08 4026.65 8860 4020.58 8860 4014.5 8860 4009.58 8855.08 4009.58 8849 4009.58 8842.92 4014.5 8838 4020.58 8838 4026.65 8838 4031.58 8842.92 4031.58 8849Z" stroke="#FFCB37" stroke-width="3.4375" stroke-linejoin="round" stroke-miterlimit="10" fill="#FFCB37"/><path d="M4078.58 8750C4078.58 8756.08 4073.65 8761 4067.58 8761 4061.5 8761 4056.58 8756.08 4056.58 8750 4056.58 8743.92 4061.5 8739 4067.58 8739 4073.65 8739 4078.58 8743.92 4078.58 8750Z" stroke="#FFCB37" stroke-width="3.4375" stroke-linejoin="round" stroke-miterlimit="10" fill="#FFCB37"/><path d="M4125.58 8709C4125.58 8715.08 4120.65 8720 4114.58 8720 4108.5 8720 4103.58 8715.08 4103.58 8709 4103.58 8702.92 4108.5 8698 4114.58 8698 4120.65 8698 4125.58 8702.92 4125.58 8709Z" stroke="#FFCB37" stroke-width="3.4375" stroke-linejoin="round" stroke-miterlimit="10" fill="#FFCB37"/><path d="M4171.58 8422C4171.58 8428.08 4166.65 8433 4160.58 8433 4154.5 8433 4149.58 8428.08 4149.58 8422 4149.58 8415.92 4154.5 8411 4160.58 8411 4166.65 8411 4171.58 8415.92 4171.58 8422Z" stroke="#FFCB37" stroke-width="3.4375" stroke-linejoin="round" stroke-miterlimit="10" fill="#FFCB37"/><path d="M4218.58 8400C4218.58 8406.08 4213.65 8411 4207.58 8411 4201.5 8411 4196.58 8406.08 4196.58 8400 4196.58 8393.92 4201.5 8389 4207.58 8389 4213.65 8389 4218.58 8393.92 4218.58 8400Z" stroke="#FFCB37" stroke-width="3.4375" stroke-linejoin="round" stroke-miterlimit="10" fill="#FFCB37"/><path d="M4265.58 8243C4265.58 8249.08 4260.65 8254 4254.58 8254 4248.5 8254 4243.58 8249.08 4243.58 8243 4243.58 8236.92 4248.5 8232 4254.58 8232 4260.65 8232 4265.58 8236.92 4265.58 8243Z" stroke="#FFCB37" stroke-width="3.4375" stroke-linejoin="round" stroke-miterlimit="10" fill="#FFCB37"/><path d="M4312.58 8166C4312.58 8172.07 4307.65 8177 4301.58 8177 4295.5 8177 4290.58 8172.07 4290.58 8166 4290.58 8159.92 4295.5 8155 4301.58 8155 4307.65 8155 4312.58 8159.92 4312.58 8166Z" stroke="#FFCB37" stroke-width="3.4375" stroke-linejoin="round" stroke-miterlimit="10" fill="#FFCB37"/></g><g><text fill="#E5E7EB" font-family="Calibri,Calibri_MSFontService,sans-serif" font-weight="400" font-size="41" transform="matrix(1 0 0 1 2760.94 8957)"> $-</text></g><g><text fill="#E5E7EB" font-family="Calibri,Calibri_MSFontService,sans-serif" font-weight="400" font-size="41" transform="matrix(1 0 0 1 2731.77 8854)"> $20</text></g><g><text fill="#E5E7EB" font-family="Calibri,Calibri_MSFontService,sans-serif" font-weight="400" font-size="41" transform="matrix(1 0 0 1 2731.77 8750)"> $40</text></g><g><text fill="#E5E7EB" font-family="Calibri,Calibri_MSFontService,sans-serif" font-weight="400" font-size="41" transform="matrix(1 0 0 1 2731.77 8647)"> $60</text></g><g><text fill="#E5E7EB" font-family="Calibri,Calibri_MSFontService,sans-serif" font-weight="400" font-size="41" transform="matrix(1 0 0 1 2731.77 8543)"> $80</text></g><g><text fill="#E5E7EB" font-family="Calibri,Calibri_MSFontService,sans-serif" font-weight="400" font-size="41" transform="matrix(1 0 0 1 2710.87 8440)"> $100</text></g><g><text fill="#E5E7EB" font-family="Calibri,Calibri_MSFontService,sans-serif" font-weight="400" font-size="41" transform="matrix(1 0 0 1 2710.87 8336)"> $120</text></g><g><text fill="#E5E7EB" font-family="Calibri,Calibri_MSFontService,sans-serif" font-weight="400" font-size="41" transform="matrix(1 0 0 1 2710.87 8233)"> $140</text></g><g><text fill="#E5E7EB" font-family="Calibri,Calibri_MSFontService,sans-serif" font-weight="400" font-size="41" transform="matrix(1 0 0 1 2710.87 8129)"> $160</text></g><g><text fill="#E5E7EB" font-family="Calibri,Calibri_MSFontService,sans-serif" font-weight="400" font-size="41" transform="matrix(1 0 0 1 2840.94 9011)">0</text></g><g><text fill="#E5E7EB" font-family="Calibri,Calibri_MSFontService,sans-serif" font-weight="400" font-size="41" transform="matrix(1 0 0 1 3074.78 9011)">5</text></g><g><text fill="#E5E7EB" font-family="Calibri,Calibri_MSFontService,sans-serif" font-weight="400" font-size="41" transform="matrix(1 0 0 1 3298.17 9011)">10</text></g><g><text fill="#E5E7EB" font-family="Calibri,Calibri_MSFontService,sans-serif" font-weight="400" font-size="41" transform="matrix(1 0 0 1 3532.01 9011)">15</text></g><g><text fill="#E5E7EB" font-family="Calibri,Calibri_MSFontService,sans-serif" font-weight="400" font-size="41" transform="matrix(1 0 0 1 3765.85 9011)">20</text></g><g><text fill="#E5E7EB" font-family="Calibri,Calibri_MSFontService,sans-serif" font-weight="400" font-size="41" transform="matrix(1 0 0 1 3999.69 9011)">25</text></g><g><text fill="#E5E7EB" font-family="Calibri,Calibri_MSFontService,sans-serif" font-weight="400" font-size="41" transform="matrix(1 0 0 1 4233.53 9011)">30</text></g><g><text fill="#E5E7EB" font-family="Calibri,Calibri_MSFontService,sans-serif" font-weight="400" font-size="41" transform="matrix(1 0 0 1 4467.37 9011)">35</text></g><g><text fill="#E5E7EB" font-family="Calibri,Calibri_MSFontService,sans-serif" font-weight="400" font-size="64" transform="matrix(1 0 0 1 3064.23 8043)">Profit with max 5% Engaged on Each Signal</text></g><rect x="2681.5" y="7948.5" width="1879" height="1104" stroke="#D9D9D9" stroke-width="3.4375" stroke-linejoin="round" stroke-miterlimit="10" fill="none"/></g></svg>