<svg width="1160" height="1020" xmlns="http://www.w3.org/2000/svg" xmlns:xlink="http://www.w3.org/1999/xlink" xml:space="preserve" overflow="hidden"><defs><clipPath id="clip0"><rect x="3790" y="4100" width="1160" height="1020"/></clipPath></defs><g clip-path="url(#clip0)" transform="translate(-3790 -4100)"><g><path d="M4359.7 4258.89C4553.02 4258.89 4709.73 4415.6 4709.73 4608.92 4709.73 4802.23 4553.02 4958.94 4359.7 4958.94 4166.39 4958.94 4009.67 4802.23 4009.67 4608.92 4009.67 4496.87 4063.31 4391.59 4153.96 4325.74L4205.4 4396.53C4088.1 4481.75 4062.1 4645.92 4147.32 4763.22 4232.54 4880.52 4396.71 4906.52 4514.01 4821.3 4631.31 4736.08 4657.31 4571.91 4572.09 4454.61 4522.69 4386.62 4443.74 4346.39 4359.7 4346.39Z" stroke="#FFFFFF" stroke-width="6.875" stroke-linejoin="round" stroke-miterlimit="10" fill="#4ADE80" fill-rule="evenodd"/></g><g><path d="M4153.96 4325.74C4213.76 4282.29 4285.78 4258.89 4359.7 4258.89L4359.7 4346.39C4304.26 4346.39 4250.25 4363.94 4205.4 4396.53Z" stroke="#FFFFFF" stroke-width="6.875" stroke-linejoin="round" stroke-miterlimit="10" fill="#FFCB37" fill-rule="evenodd"/></g><g><path d="M4454.5 4900.5 4546.65 4977.5 4567.5 4977.5" stroke="#A6A6A6" stroke-width="3.4375" stroke-linejoin="round" stroke-miterlimit="10" fill="none"/></g><g><path d="M4265.5 4317.5 4238.5 4245.5" stroke="#A6A6A6" stroke-width="3.4375" stroke-linejoin="round" stroke-miterlimit="10" fill="none"/></g><g><text fill="#4ADE80" font-family="Calibri,Calibri_MSFontService,sans-serif" font-weight="400" font-size="41" transform="matrix(1 0 0 1 4580.86 4991)">90%</text></g><g><text fill="#FFCB37" font-family="Calibri,Calibri_MSFontService,sans-serif" font-weight="400" font-size="41" transform="matrix(1 0 0 1 4203.07 4228)">10%</text></g><g><text fill="#E5E7EB" font-family="Calibri,Calibri_MSFontService,sans-serif" font-weight="700" font-size="55" transform="matrix(1 0 0 1 4244.28 4635)">WIN RATE</text></g><g><rect x="4227.5" y="5040.5" width="23" height="23" stroke="#FFFFFF" stroke-width="6.875" stroke-linejoin="round" stroke-miterlimit="10" fill="#4ADE80"/></g><g><text fill="#E5E7EB" font-family="Calibri,Calibri_MSFontService,sans-serif" font-weight="400" font-size="41" transform="matrix(1 0 0 1 4259.97 5064)">PROFIT</text></g><g><rect x="4413.5" y="5040.5" width="22" height="23" stroke="#FFFFFF" stroke-width="6.875" stroke-linejoin="round" stroke-miterlimit="10" fill="#FFCB37"/></g><g><text fill="#E5E7EB" font-family="Calibri,Calibri_MSFontService,sans-serif" font-weight="400" font-size="41" transform="matrix(1 0 0 1 4445.33 5064)">LOSS</text></g><rect x="3791.5" y="4101.5" width="1157" height="1017" stroke="#D9D9D9" stroke-width="3.4375" stroke-linejoin="round" stroke-miterlimit="10" fill="none"/></g></svg>