<svg width="1010" height="966" xmlns="http://www.w3.org/2000/svg" xmlns:xlink="http://www.w3.org/1999/xlink" xml:space="preserve" overflow="hidden"><defs><clipPath id="clip0"><rect x="5142" y="4109" width="1010" height="966"/></clipPath></defs><g clip-path="url(#clip0)" transform="translate(-5142 -4109)"><g><path d="M5656.55 4273.24C5837.55 4273.24 5984.28 4419.97 5984.28 4600.97 5984.28 4781.97 5837.55 4928.7 5656.55 4928.7 5514.57 4928.7 5388.74 4837.28 5344.87 4702.24L5422.79 4676.93C5464.74 4806.03 5603.4 4876.69 5732.51 4834.74 5861.61 4792.79 5932.27 4654.12 5890.32 4525.02 5857.41 4423.74 5763.04 4355.18 5656.55 4355.18Z" stroke="#FFFFFF" stroke-width="6.875" stroke-linejoin="round" stroke-miterlimit="10" fill="#4ADE80" fill-rule="evenodd"/></g><g><path d="M5344.87 4702.24C5288.94 4530.1 5383.14 4345.22 5555.28 4289.29 5587.99 4278.66 5622.16 4273.25 5656.55 4273.25L5656.55 4355.18C5520.81 4355.18 5410.76 4465.22 5410.76 4600.97 5410.76 4626.76 5414.82 4652.4 5422.79 4676.93Z" stroke="#FFFFFF" stroke-width="6.875" stroke-linejoin="round" stroke-miterlimit="10" fill="#FFCB37" fill-rule="evenodd"/></g><g><path d="M5888.5 4769.5 5946.7 4931.5 5967.5 4931.5" stroke="#A6A6A6" stroke-width="3.4375" stroke-linejoin="round" stroke-miterlimit="10" fill="none"/></g><g><path d="M5424.5 4432.5 5269.67 4379.5 5248.5 4379.5" stroke="#A6A6A6" stroke-width="3.4375" stroke-linejoin="round" stroke-miterlimit="10" fill="none"/></g><g><text fill="#4ADE80" font-family="Calibri,Calibri_MSFontService,sans-serif" font-weight="700" font-size="41" transform="matrix(1 0 0 1 5981.18 4946)">70%</text></g><g><text fill="#FFCB37" font-family="Calibri,Calibri_MSFontService,sans-serif" font-weight="700" font-size="41" transform="matrix(1 0 0 1 5162.94 4394)">30%</text></g><g><text fill="#FFCB37" font-family="Calibri,Calibri_MSFontService,sans-serif" font-weight="700" font-size="64" transform="matrix(1 0 0 1 5495.61 4624)">Short</text></g><g><text fill="#E5E7EB" font-family="Calibri,Calibri_MSFontService,sans-serif" font-weight="700" font-size="64" transform="matrix(1 0 0 1 5654.43 4624)">&amp;</text></g><g><text fill="#4ADE80" font-family="Calibri,Calibri_MSFontService,sans-serif" font-weight="700" font-size="64" transform="matrix(1 0 0 1 5714.15 4624)">Long</text></g><rect x="5143.5" y="4110.5" width="1007" height="963" stroke="#D9D9D9" stroke-width="3.4375" stroke-linejoin="round" stroke-miterlimit="10" fill="none"/></g></svg>