<svg width="2008" height="1108" xmlns="http://www.w3.org/2000/svg" xmlns:xlink="http://www.w3.org/1999/xlink" xml:space="preserve" overflow="hidden"><defs><clipPath id="clip0"><rect x="4026" y="6829" width="2008" height="1108"/></clipPath></defs><g clip-path="url(#clip0)" transform="translate(-4026 -6829)"><rect x="4027" y="6830" width="2005" height="1105" fill="#FFFFFF"/><g><path d="M4197.5 7736.75 5961.5 7736.75M4197.5 7644.75 5961.5 7644.75M4197.5 7552.75 5961.5 7552.75M4197.5 7460.75 5961.5 7460.75M4197.5 7368.74 5961.5 7368.74M4197.5 7276.74 5961.5 7276.74M4197.5 7184.74 5961.5 7184.74M4197.5 7092.73 5961.5 7092.73M4197.5 7000.5 5961.5 7000.5" stroke="#D9D9D9" stroke-width="3.4375" stroke-linejoin="round" stroke-miterlimit="10" fill="none"/></g><g><path d="M4549.65 7000.5 4549.65 7828.5M4902.66 7000.5 4902.66 7828.5M5255.67 7000.5 5255.67 7828.5M5608.68 7000.5 5608.68 7828.5M5961.5 7000.5 5961.5 7828.5" stroke="#D9D9D9" stroke-width="3.4375" stroke-linejoin="round" stroke-miterlimit="10" fill="none"/></g><g><path d="M0 0 0.000360892 828" stroke="#BFBFBF" stroke-width="3.4375" stroke-linejoin="round" stroke-miterlimit="10" fill="none" fill-rule="evenodd" transform="matrix(1 0 0 -1 4197.5 7828.5)"/></g><g><path d="M4197.5 7828.5 5961.5 7828.5" stroke="#BFBFBF" stroke-width="3.4375" stroke-linejoin="round" stroke-miterlimit="10" fill="none" fill-rule="evenodd"/></g><g><path d="M4267.5 7711.5 4338.64 7669.75 4408.64 7562.75 4479.65 7488.75 4549.65 7453.74 4620.65 7359.74 4691.65 7301.74 4761.66 7259.74 4832.66 7303.74 4902.66 7284.74 4973.66 7247.74 5043.67 7284.74 5114.67 7256.74 5184.67 7240.74 5255.67 7221.74 5325.67 7194.74 5396.68 7173.74 5467.68 7136.73 5537.68 7120.73 5608.5 7114.5" stroke="#FFC000" stroke-width="6.875" stroke-linecap="round" stroke-linejoin="round" stroke-miterlimit="10" fill="none"/></g><g><path d="M4278.49 7711.81C4278.49 7717.89 4273.56 7722.81 4267.49 7722.81 4261.41 7722.81 4256.49 7717.89 4256.49 7711.81 4256.49 7705.74 4261.41 7700.81 4267.49 7700.81 4273.56 7700.81 4278.49 7705.74 4278.49 7711.81Z" stroke="#FFCB37" stroke-width="3.4375" stroke-linejoin="round" stroke-miterlimit="10" fill="#FFCB37"/><path d="M4349.49 7670.81C4349.49 7676.89 4344.56 7681.81 4338.49 7681.81 4332.41 7681.81 4327.49 7676.89 4327.49 7670.81 4327.49 7664.74 4332.41 7659.81 4338.49 7659.81 4344.56 7659.81 4349.49 7664.74 4349.49 7670.81Z" stroke="#FFCB37" stroke-width="3.4375" stroke-linejoin="round" stroke-miterlimit="10" fill="#FFCB37"/><path d="M4419.49 7562.81C4419.49 7568.89 4414.56 7573.81 4408.49 7573.81 4402.41 7573.81 4397.49 7568.89 4397.49 7562.81 4397.49 7556.74 4402.41 7551.81 4408.49 7551.81 4414.56 7551.81 4419.49 7556.74 4419.49 7562.81Z" stroke="#FFCB37" stroke-width="3.4375" stroke-linejoin="round" stroke-miterlimit="10" fill="#FFCB37"/><path d="M4490.49 7488.81C4490.49 7494.89 4485.56 7499.81 4479.49 7499.81 4473.41 7499.81 4468.49 7494.89 4468.49 7488.81 4468.49 7482.74 4473.41 7477.81 4479.49 7477.81 4485.56 7477.81 4490.49 7482.74 4490.49 7488.81Z" stroke="#FFCB37" stroke-width="3.4375" stroke-linejoin="round" stroke-miterlimit="10" fill="#FFCB37"/><path d="M4561.49 7454.81C4561.49 7460.89 4556.56 7465.81 4550.49 7465.81 4544.41 7465.81 4539.49 7460.89 4539.49 7454.81 4539.49 7448.74 4544.41 7443.81 4550.49 7443.81 4556.56 7443.81 4561.49 7448.74 4561.49 7454.81Z" stroke="#FFCB37" stroke-width="3.4375" stroke-linejoin="round" stroke-miterlimit="10" fill="#FFCB37"/><path d="M4631.49 7360.81C4631.49 7366.89 4626.56 7371.81 4620.49 7371.81 4614.41 7371.81 4609.49 7366.89 4609.49 7360.81 4609.49 7354.74 4614.41 7349.81 4620.49 7349.81 4626.56 7349.81 4631.49 7354.74 4631.49 7360.81Z" stroke="#FFCB37" stroke-width="3.4375" stroke-linejoin="round" stroke-miterlimit="10" fill="#FFCB37"/><path d="M4702.49 7301.81C4702.49 7307.89 4697.56 7312.81 4691.49 7312.81 4685.41 7312.81 4680.49 7307.89 4680.49 7301.81 4680.49 7295.74 4685.41 7290.81 4691.49 7290.81 4697.56 7290.81 4702.49 7295.74 4702.49 7301.81Z" stroke="#FFCB37" stroke-width="3.4375" stroke-linejoin="round" stroke-miterlimit="10" fill="#FFCB37"/><path d="M4772.49 7259.81C4772.49 7265.89 4767.56 7270.81 4761.49 7270.81 4755.41 7270.81 4750.49 7265.89 4750.49 7259.81 4750.49 7253.74 4755.41 7248.81 4761.49 7248.81 4767.56 7248.81 4772.49 7253.74 4772.49 7259.81Z" stroke="#FFCB37" stroke-width="3.4375" stroke-linejoin="round" stroke-miterlimit="10" fill="#FFCB37"/><path d="M4843.49 7304.81C4843.49 7310.89 4838.56 7315.81 4832.49 7315.81 4826.41 7315.81 4821.49 7310.89 4821.49 7304.81 4821.49 7298.74 4826.41 7293.81 4832.49 7293.81 4838.56 7293.81 4843.49 7298.74 4843.49 7304.81Z" stroke="#FFCB37" stroke-width="3.4375" stroke-linejoin="round" stroke-miterlimit="10" fill="#FFCB37"/><path d="M4913.49 7284.81C4913.49 7290.89 4908.56 7295.81 4902.49 7295.81 4896.41 7295.81 4891.49 7290.89 4891.49 7284.81 4891.49 7278.74 4896.41 7273.81 4902.49 7273.81 4908.56 7273.81 4913.49 7278.74 4913.49 7284.81Z" stroke="#FFCB37" stroke-width="3.4375" stroke-linejoin="round" stroke-miterlimit="10" fill="#FFCB37"/><path d="M4984.49 7248.81C4984.49 7254.89 4979.56 7259.81 4973.49 7259.81 4967.41 7259.81 4962.49 7254.89 4962.49 7248.81 4962.49 7242.74 4967.41 7237.81 4973.49 7237.81 4979.56 7237.81 4984.49 7242.74 4984.49 7248.81Z" stroke="#FFCB37" stroke-width="3.4375" stroke-linejoin="round" stroke-miterlimit="10" fill="#FFCB37"/><path d="M5054.49 7284.81C5054.49 7290.89 5049.56 7295.81 5043.49 7295.81 5037.41 7295.81 5032.49 7290.89 5032.49 7284.81 5032.49 7278.74 5037.41 7273.81 5043.49 7273.81 5049.56 7273.81 5054.49 7278.74 5054.49 7284.81Z" stroke="#FFCB37" stroke-width="3.4375" stroke-linejoin="round" stroke-miterlimit="10" fill="#FFCB37"/><path d="M5125.49 7256.81C5125.49 7262.89 5120.56 7267.81 5114.49 7267.81 5108.41 7267.81 5103.49 7262.89 5103.49 7256.81 5103.49 7250.74 5108.41 7245.81 5114.49 7245.81 5120.56 7245.81 5125.49 7250.74 5125.49 7256.81Z" stroke="#FFCB37" stroke-width="3.4375" stroke-linejoin="round" stroke-miterlimit="10" fill="#FFCB37"/><path d="M5196.49 7240.81C5196.49 7246.89 5191.56 7251.81 5185.49 7251.81 5179.41 7251.81 5174.49 7246.89 5174.49 7240.81 5174.49 7234.74 5179.41 7229.81 5185.49 7229.81 5191.56 7229.81 5196.49 7234.74 5196.49 7240.81Z" stroke="#FFCB37" stroke-width="3.4375" stroke-linejoin="round" stroke-miterlimit="10" fill="#FFCB37"/><path d="M5266.49 7221.81C5266.49 7227.89 5261.56 7232.81 5255.49 7232.81 5249.41 7232.81 5244.49 7227.89 5244.49 7221.81 5244.49 7215.74 5249.41 7210.81 5255.49 7210.81 5261.56 7210.81 5266.49 7215.74 5266.49 7221.81Z" stroke="#FFCB37" stroke-width="3.4375" stroke-linejoin="round" stroke-miterlimit="10" fill="#FFCB37"/><path d="M5337.49 7194.81C5337.49 7200.89 5332.56 7205.81 5326.49 7205.81 5320.41 7205.81 5315.49 7200.89 5315.49 7194.81 5315.49 7188.74 5320.41 7183.81 5326.49 7183.81 5332.56 7183.81 5337.49 7188.74 5337.49 7194.81Z" stroke="#FFCB37" stroke-width="3.4375" stroke-linejoin="round" stroke-miterlimit="10" fill="#FFCB37"/><path d="M5407.49 7173.81C5407.49 7179.89 5402.56 7184.81 5396.49 7184.81 5390.41 7184.81 5385.49 7179.89 5385.49 7173.81 5385.49 7167.74 5390.41 7162.81 5396.49 7162.81 5402.56 7162.81 5407.49 7167.74 5407.49 7173.81Z" stroke="#FFCB37" stroke-width="3.4375" stroke-linejoin="round" stroke-miterlimit="10" fill="#FFCB37"/><path d="M5478.49 7136.81C5478.49 7142.89 5473.56 7147.81 5467.49 7147.81 5461.41 7147.81 5456.49 7142.89 5456.49 7136.81 5456.49 7130.74 5461.41 7125.81 5467.49 7125.81 5473.56 7125.81 5478.49 7130.74 5478.49 7136.81Z" stroke="#FFCB37" stroke-width="3.4375" stroke-linejoin="round" stroke-miterlimit="10" fill="#FFCB37"/><path d="M5548.49 7121.81C5548.49 7127.89 5543.56 7132.81 5537.49 7132.81 5531.41 7132.81 5526.49 7127.89 5526.49 7121.81 5526.49 7115.74 5531.41 7110.81 5537.49 7110.81 5543.56 7110.81 5548.49 7115.74 5548.49 7121.81Z" stroke="#FFCB37" stroke-width="3.4375" stroke-linejoin="round" stroke-miterlimit="10" fill="#FFCB37"/><path d="M5619.49 7114.81C5619.49 7120.89 5614.56 7125.81 5608.49 7125.81 5602.41 7125.81 5597.49 7120.89 5597.49 7114.81 5597.49 7108.74 5602.41 7103.81 5608.49 7103.81 5614.56 7103.81 5619.49 7108.74 5619.49 7114.81Z" stroke="#FFCB37" stroke-width="3.4375" stroke-linejoin="round" stroke-miterlimit="10" fill="#FFCB37"/></g><g><text fill="#E5E7EB" font-family="Calibri,Calibri_MSFontService,sans-serif" font-weight="400" font-size="41" transform="matrix(1 0 0 1 4106.85 7840)"> $-</text></g><g><text fill="#E5E7EB" font-family="Calibri,Calibri_MSFontService,sans-serif" font-weight="400" font-size="41" transform="matrix(1 0 0 1 4056.78 7748)"> $100</text></g><g><text fill="#E5E7EB" font-family="Calibri,Calibri_MSFontService,sans-serif" font-weight="400" font-size="41" transform="matrix(1 0 0 1 4056.78 7656)"> $200</text></g><g><text fill="#E5E7EB" font-family="Calibri,Calibri_MSFontService,sans-serif" font-weight="400" font-size="41" transform="matrix(1 0 0 1 4056.78 7564)"> $300</text></g><g><text fill="#E5E7EB" font-family="Calibri,Calibri_MSFontService,sans-serif" font-weight="400" font-size="41" transform="matrix(1 0 0 1 4056.78 7472)"> $400</text></g><g><text fill="#E5E7EB" font-family="Calibri,Calibri_MSFontService,sans-serif" font-weight="400" font-size="41" transform="matrix(1 0 0 1 4056.78 7380)"> $500</text></g><g><text fill="#E5E7EB" font-family="Calibri,Calibri_MSFontService,sans-serif" font-weight="400" font-size="41" transform="matrix(1 0 0 1 4056.78 7288)"> $600</text></g><g><text fill="#E5E7EB" font-family="Calibri,Calibri_MSFontService,sans-serif" font-weight="400" font-size="41" transform="matrix(1 0 0 1 4056.78 7196)"> $700</text></g><g><text fill="#E5E7EB" font-family="Calibri,Calibri_MSFontService,sans-serif" font-weight="400" font-size="41" transform="matrix(1 0 0 1 4056.78 7104)"> $800</text></g><g><text fill="#E5E7EB" font-family="Calibri,Calibri_MSFontService,sans-serif" font-weight="400" font-size="41" transform="matrix(1 0 0 1 4056.78 7012)"> $900</text></g><g><text fill="#E5E7EB" font-family="Calibri,Calibri_MSFontService,sans-serif" font-weight="400" font-size="41" transform="matrix(1 0 0 1 4186.85 7894)">0</text></g><g><text fill="#E5E7EB" font-family="Calibri,Calibri_MSFontService,sans-serif" font-weight="400" font-size="41" transform="matrix(1 0 0 1 4539.62 7894)">5</text></g><g><text fill="#E5E7EB" font-family="Calibri,Calibri_MSFontService,sans-serif" font-weight="400" font-size="41" transform="matrix(1 0 0 1 4881.94 7894)">10</text></g><g><text fill="#E5E7EB" font-family="Calibri,Calibri_MSFontService,sans-serif" font-weight="400" font-size="41" transform="matrix(1 0 0 1 5234.7 7894)">15</text></g><g><text fill="#E5E7EB" font-family="Calibri,Calibri_MSFontService,sans-serif" font-weight="400" font-size="41" transform="matrix(1 0 0 1 5587.47 7894)">20</text></g><g><text fill="#E5E7EB" font-family="Calibri,Calibri_MSFontService,sans-serif" font-weight="400" font-size="41" transform="matrix(1 0 0 1 5940.24 7894)">25</text></g><g><text fill="#E5E7EB" font-family="Calibri,Calibri_MSFontService,sans-serif" font-weight="400" font-size="64" transform="matrix(1 0 0 1 4533.87 6926)">Profit with </text></g><g><text fill="#E5E7EB" font-family="Calibri,Calibri_MSFontService,sans-serif" font-weight="400" font-size="64" transform="matrix(1 0 0 1 4822.83 6926)">50</text></g><g><text fill="#E5E7EB" font-family="Calibri,Calibri_MSFontService,sans-serif" font-weight="400" font-size="64" transform="matrix(1 0 0 1 4887.87 6926)">$ Engaged on Each Entry</text></g><rect x="4027.5" y="6830.5" width="2005" height="1105" stroke="#D9D9D9" stroke-width="3.4375" stroke-linejoin="round" stroke-miterlimit="10" fill="none"/></g></svg>