<svg width="1091" height="1104" xmlns="http://www.w3.org/2000/svg" xmlns:xlink="http://www.w3.org/1999/xlink" xml:space="preserve" overflow="hidden"><defs><clipPath id="clip0"><rect x="4261" y="4582" width="1091" height="1104"/></clipPath></defs><g clip-path="url(#clip0)" transform="translate(-4261 -4582)"><g><path d="M4805.99 4807.52C4989.98 4807.52 5139.13 4956.67 5139.13 5140.67 5139.13 5324.66 4989.98 5473.82 4805.99 5473.82 4714.27 5473.82 4626.6 5436 4563.66 5369.29L4624.24 5312.13C4718.94 5412.51 4877.08 5417.11 4977.45 5322.41 5077.83 5227.71 5082.43 5069.57 4987.73 4969.2 4940.52 4919.16 4874.78 4890.8 4805.99 4890.8Z" stroke="#FFFFFF" stroke-width="6.875" stroke-linejoin="round" stroke-miterlimit="10" fill="#4ADE80" fill-rule="evenodd"/></g><g><path d="M4563.66 5369.29C4437.4 5235.46 4443.53 5024.61 4577.36 4898.34 4639.19 4840.01 4720.98 4807.52 4805.99 4807.52L4805.99 4890.8C4667.99 4890.8 4556.12 5002.67 4556.12 5140.67 4556.12 5204.42 4580.49 5265.76 4624.24 5312.13Z" stroke="#FFFFFF" stroke-width="6.875" stroke-linejoin="round" stroke-miterlimit="10" fill="#FFCB37" fill-rule="evenodd"/></g><g><path d="M5073.5 5256.5 5138.67 5316.5 5158.5 5316.5" stroke="#A6A6A6" stroke-width="3.4375" stroke-linejoin="round" stroke-miterlimit="10" fill="none"/></g><g><path d="M4538.5 5025.5 4511.65 4969.5 4490.5 4969.5" stroke="#A6A6A6" stroke-width="3.4375" stroke-linejoin="round" stroke-miterlimit="10" fill="none"/></g><g><text fill="#4ADE80" font-family="Calibri,Calibri_MSFontService,sans-serif" font-weight="400" font-size="41" transform="matrix(1 0 0 1 5172.54 5330)">63%</text></g><g><text fill="#FFCB37" font-family="Calibri,Calibri_MSFontService,sans-serif" font-weight="400" font-size="41" transform="matrix(1 0 0 1 4405.94 4983)">37%</text></g><g><text fill="#E5E7EB" font-family="Calibri,Calibri_MSFontService,sans-serif" font-weight="400" font-size="64" transform="matrix(1 0 0 1 4671.38 5178)">WIN RATE</text></g><g><rect x="4664.5" y="5606.5" width="22" height="23" stroke="#FFFFFF" stroke-width="6.875" stroke-linejoin="round" stroke-miterlimit="10" fill="#4ADE80"/></g><g><text fill="#E5E7EB" font-family="Calibri,Calibri_MSFontService,sans-serif" font-weight="400" font-size="41" transform="matrix(1 0 0 1 4696.39 5629)">PROFIT</text></g><g><rect x="4849.5" y="5606.5" width="23" height="23" stroke="#FFFFFF" stroke-width="6.875" stroke-linejoin="round" stroke-miterlimit="10" fill="#FFCB37"/></g><g><text fill="#E5E7EB" font-family="Calibri,Calibri_MSFontService,sans-serif" font-weight="400" font-size="41" transform="matrix(1 0 0 1 4881.76 5629)">LOSS</text></g><rect x="4262.5" y="4583.5" width="1088" height="1101" stroke="#D9D9D9" stroke-width="3.4375" stroke-linejoin="round" stroke-miterlimit="10" fill="none"/></g></svg>