<svg width="1056" height="1100" xmlns="http://www.w3.org/2000/svg" xmlns:xlink="http://www.w3.org/1999/xlink" xml:space="preserve" overflow="hidden"><defs><clipPath id="clip0"><rect x="5498" y="4590" width="1056" height="1100"/></clipPath></defs><g clip-path="url(#clip0)" transform="translate(-5498 -4590)"><g><path d="M6036.45 4808.12C6225.64 4808.12 6379.01 4961.49 6379.01 5150.69 6379.01 5339.88 6225.64 5493.25 6036.45 5493.25 5996.48 5493.25 5956.83 5486.26 5919.28 5472.59L5948.57 5392.11C6081.91 5440.64 6229.34 5371.9 6277.87 5238.56 6326.4 5105.22 6257.65 4957.79 6124.32 4909.26 6096.15 4899.01 6066.42 4893.77 6036.44 4893.77Z" stroke="#FFFFFF" stroke-width="6.875" stroke-linejoin="round" stroke-miterlimit="10" fill="#4ADE80" fill-rule="evenodd"/></g><g><path d="M5919.28 5472.59C5741.5 5407.88 5649.83 5211.31 5714.54 5033.52 5763.8 4898.2 5892.43 4808.12 6036.44 4808.12L6036.45 4893.76C5894.55 4893.76 5779.52 5008.79 5779.52 5150.69 5779.52 5258.7 5847.08 5355.17 5948.57 5392.11Z" stroke="#FFFFFF" stroke-width="6.875" stroke-linejoin="round" stroke-miterlimit="10" fill="#FFCB37" fill-rule="evenodd"/></g><g><path d="M6331.5 5202.5 6395.71 5387.5 6416.5 5387.5" stroke="#A6A6A6" stroke-width="3.4375" stroke-linejoin="round" stroke-miterlimit="10" fill="none"/></g><g><path d="M5741.5 5098.5 5619.68 5038.5 5598.5 5038.5" stroke="#A6A6A6" stroke-width="3.4375" stroke-linejoin="round" stroke-miterlimit="10" fill="none"/></g><g><text fill="#4ADE80" font-family="Calibri,Calibri_MSFontService,sans-serif" font-weight="700" font-size="41" transform="matrix(1 0 0 1 6430.08 5401)">56%</text></g><g><text fill="#FFCB37" font-family="Calibri,Calibri_MSFontService,sans-serif" font-weight="700" font-size="41" transform="matrix(1 0 0 1 5512.99 5053)">44%</text></g><g><text fill="#FFCB37" font-family="Calibri,Calibri_MSFontService,sans-serif" font-weight="700" font-size="64" transform="matrix(1 0 0 1 5867.6 5167)">Short</text></g><g><text fill="#595959" font-family="Calibri,Calibri_MSFontService,sans-serif" font-weight="700" font-size="64" transform="matrix(1 0 0 1 6026.41 5167)">&amp; </text></g><g><text fill="#4ADE80" font-family="Calibri,Calibri_MSFontService,sans-serif" font-weight="700" font-size="64" transform="matrix(1 0 0 1 6086.13 5167)">Long</text></g><rect x="5499.5" y="4591.5" width="1053" height="1097" stroke="#D9D9D9" stroke-width="3.4375" stroke-linejoin="round" stroke-miterlimit="10" fill="none"/></g></svg>