<svg width="1900" height="1107" xmlns="http://www.w3.org/2000/svg" xmlns:xlink="http://www.w3.org/1999/xlink" xml:space="preserve" overflow="hidden"><defs><clipPath id="clip0"><rect x="4498" y="7311" width="1900" height="1107"/></clipPath></defs><g clip-path="url(#clip0)" transform="translate(-4498 -7311)"><g><path d="M4700.5 8143.77 6324.5 8143.77M4700.5 7978.76 6324.5 7978.76M4700.5 7812.76 6324.5 7812.76M4700.5 7646.75 6324.5 7646.75M4700.5 7481.5 6324.5 7481.5" stroke="#D9D9D9" stroke-width="3.4375" stroke-linejoin="round" stroke-miterlimit="10" fill="none"/></g><g><path d="M4971.66 7481.5 4971.66 8309.5M5241.67 7481.5 5241.67 8309.5M5512.68 7481.5 5512.68 8309.5M5783.69 7481.5 5783.69 8309.5M6053.7 7481.5 6053.7 8309.5M6324.5 7481.5 6324.5 8309.5" stroke="#D9D9D9" stroke-width="3.4375" stroke-linejoin="round" stroke-miterlimit="10" fill="none"/></g><g><path d="M0 0 0.000360892 828" stroke="#BFBFBF" stroke-width="3.4375" stroke-linejoin="round" stroke-miterlimit="10" fill="none" fill-rule="evenodd" transform="matrix(1 0 0 -1 4700.5 8309.5)"/></g><g><path d="M4700.5 8309.5 6324.5 8309.5" stroke="#BFBFBF" stroke-width="3.4375" stroke-linejoin="round" stroke-miterlimit="10" fill="none" fill-rule="evenodd"/></g><g><path d="M4754.5 8114.77 4808.66 7892.76 4863.66 7733.75 4917.66 7644.75 4971.66 7560.5 5025.67 7711.75 5079.67 7806.76 5133.67 7894.76 5187.67 7801.76 5241.67 7941.76 5296.67 7896.76 5350.68 7857.76 5404.68 8011.76 5458.68 7926.76 5512.68 7860.76 5566.68 7755.75 5620.68 7700.75 5674.69 7802.76 5729.69 7903.76 5783.69 8060.76 5837.69 8140.5 5891.69 8105.77 5945.7 8037.76 5999.7 7981.76 6053.7 7927.76 6107.7 7889.76 6162.5 7841.76" stroke="#FFCB37" stroke-width="6.875" stroke-linecap="round" stroke-linejoin="round" stroke-miterlimit="10" fill="none"/></g><g><path d="M4765.77 8114.06C4765.77 8120.14 4760.84 8125.06 4754.77 8125.06 4748.69 8125.06 4743.77 8120.14 4743.77 8114.06 4743.77 8107.99 4748.69 8103.06 4754.77 8103.06 4760.84 8103.06 4765.77 8107.99 4765.77 8114.06Z" stroke="#FFCB37" stroke-width="3.4375" stroke-linejoin="round" stroke-miterlimit="10" fill="#FFCB37"/><path d="M4820.77 7892.06C4820.77 7898.14 4815.84 7903.06 4809.77 7903.06 4803.69 7903.06 4798.77 7898.14 4798.77 7892.06 4798.77 7885.99 4803.69 7881.06 4809.77 7881.06 4815.84 7881.06 4820.77 7885.99 4820.77 7892.06Z" stroke="#FFCB37" stroke-width="3.4375" stroke-linejoin="round" stroke-miterlimit="10" fill="#FFCB37"/><path d="M4874.77 7733.06C4874.77 7739.14 4869.84 7744.06 4863.77 7744.06 4857.69 7744.06 4852.77 7739.14 4852.77 7733.06 4852.77 7726.99 4857.69 7722.06 4863.77 7722.06 4869.84 7722.06 4874.77 7726.99 4874.77 7733.06Z" stroke="#FFCB37" stroke-width="3.4375" stroke-linejoin="round" stroke-miterlimit="10" fill="#FFCB37"/><path d="M4928.77 7644.06C4928.77 7650.14 4923.84 7655.06 4917.77 7655.06 4911.69 7655.06 4906.77 7650.14 4906.77 7644.06 4906.77 7637.99 4911.69 7633.06 4917.77 7633.06 4923.84 7633.06 4928.77 7637.99 4928.77 7644.06Z" stroke="#FFCB37" stroke-width="3.4375" stroke-linejoin="round" stroke-miterlimit="10" fill="#FFCB37"/><path d="M4982.77 7560.06C4982.77 7566.14 4977.84 7571.06 4971.77 7571.06 4965.69 7571.06 4960.77 7566.14 4960.77 7560.06 4960.77 7553.99 4965.69 7549.06 4971.77 7549.06 4977.84 7549.06 4982.77 7553.99 4982.77 7560.06Z" stroke="#FFCB37" stroke-width="3.4375" stroke-linejoin="round" stroke-miterlimit="10" fill="#FFCB37"/><path d="M5036.77 7711.06C5036.77 7717.14 5031.84 7722.06 5025.77 7722.06 5019.69 7722.06 5014.77 7717.14 5014.77 7711.06 5014.77 7704.99 5019.69 7700.06 5025.77 7700.06 5031.84 7700.06 5036.77 7704.99 5036.77 7711.06Z" stroke="#FFCB37" stroke-width="3.4375" stroke-linejoin="round" stroke-miterlimit="10" fill="#FFCB37"/><path d="M5090.77 7806.06C5090.77 7812.14 5085.84 7817.06 5079.77 7817.06 5073.69 7817.06 5068.77 7812.14 5068.77 7806.06 5068.77 7799.99 5073.69 7795.06 5079.77 7795.06 5085.84 7795.06 5090.77 7799.99 5090.77 7806.06Z" stroke="#FFCB37" stroke-width="3.4375" stroke-linejoin="round" stroke-miterlimit="10" fill="#FFCB37"/><path d="M5144.77 7895.06C5144.77 7901.14 5139.84 7906.06 5133.77 7906.06 5127.69 7906.06 5122.77 7901.14 5122.77 7895.06 5122.77 7888.99 5127.69 7884.06 5133.77 7884.06 5139.84 7884.06 5144.77 7888.99 5144.77 7895.06Z" stroke="#FFCB37" stroke-width="3.4375" stroke-linejoin="round" stroke-miterlimit="10" fill="#FFCB37"/><path d="M5198.77 7801.06C5198.77 7807.14 5193.84 7812.06 5187.77 7812.06 5181.69 7812.06 5176.77 7807.14 5176.77 7801.06 5176.77 7794.99 5181.69 7790.06 5187.77 7790.06 5193.84 7790.06 5198.77 7794.99 5198.77 7801.06Z" stroke="#FFCB37" stroke-width="3.4375" stroke-linejoin="round" stroke-miterlimit="10" fill="#FFCB37"/><path d="M5253.77 7941.06C5253.77 7947.14 5248.84 7952.06 5242.77 7952.06 5236.69 7952.06 5231.77 7947.14 5231.77 7941.06 5231.77 7934.99 5236.69 7930.06 5242.77 7930.06 5248.84 7930.06 5253.77 7934.99 5253.77 7941.06Z" stroke="#FFCB37" stroke-width="3.4375" stroke-linejoin="round" stroke-miterlimit="10" fill="#FFCB37"/><path d="M5307.77 7896.06C5307.77 7902.14 5302.84 7907.06 5296.77 7907.06 5290.69 7907.06 5285.77 7902.14 5285.77 7896.06 5285.77 7889.99 5290.69 7885.06 5296.77 7885.06 5302.84 7885.06 5307.77 7889.99 5307.77 7896.06Z" stroke="#FFCB37" stroke-width="3.4375" stroke-linejoin="round" stroke-miterlimit="10" fill="#FFCB37"/><path d="M5361.77 7857.06C5361.77 7863.14 5356.84 7868.06 5350.77 7868.06 5344.69 7868.06 5339.77 7863.14 5339.77 7857.06 5339.77 7850.99 5344.69 7846.06 5350.77 7846.06 5356.84 7846.06 5361.77 7850.99 5361.77 7857.06Z" stroke="#FFCB37" stroke-width="3.4375" stroke-linejoin="round" stroke-miterlimit="10" fill="#FFCB37"/><path d="M5415.77 8011.06C5415.77 8017.14 5410.84 8022.06 5404.77 8022.06 5398.69 8022.06 5393.77 8017.14 5393.77 8011.06 5393.77 8004.99 5398.69 8000.06 5404.77 8000.06 5410.84 8000.06 5415.77 8004.99 5415.77 8011.06Z" stroke="#FFCB37" stroke-width="3.4375" stroke-linejoin="round" stroke-miterlimit="10" fill="#FFCB37"/><path d="M5469.77 7926.06C5469.77 7932.14 5464.84 7937.06 5458.77 7937.06 5452.69 7937.06 5447.77 7932.14 5447.77 7926.06 5447.77 7919.99 5452.69 7915.06 5458.77 7915.06 5464.84 7915.06 5469.77 7919.99 5469.77 7926.06Z" stroke="#FFCB37" stroke-width="3.4375" stroke-linejoin="round" stroke-miterlimit="10" fill="#FFCB37"/><path d="M5523.77 7860.06C5523.77 7866.14 5518.84 7871.06 5512.77 7871.06 5506.69 7871.06 5501.77 7866.14 5501.77 7860.06 5501.77 7853.99 5506.69 7849.06 5512.77 7849.06 5518.84 7849.06 5523.77 7853.99 5523.77 7860.06Z" stroke="#FFCB37" stroke-width="3.4375" stroke-linejoin="round" stroke-miterlimit="10" fill="#FFCB37"/><path d="M5577.77 7755.06C5577.77 7761.14 5572.84 7766.06 5566.77 7766.06 5560.69 7766.06 5555.77 7761.14 5555.77 7755.06 5555.77 7748.99 5560.69 7744.06 5566.77 7744.06 5572.84 7744.06 5577.77 7748.99 5577.77 7755.06Z" stroke="#FFCB37" stroke-width="3.4375" stroke-linejoin="round" stroke-miterlimit="10" fill="#FFCB37"/><path d="M5631.77 7700.06C5631.77 7706.14 5626.84 7711.06 5620.77 7711.06 5614.69 7711.06 5609.77 7706.14 5609.77 7700.06 5609.77 7693.99 5614.69 7689.06 5620.77 7689.06 5626.84 7689.06 5631.77 7693.99 5631.77 7700.06Z" stroke="#FFCB37" stroke-width="3.4375" stroke-linejoin="round" stroke-miterlimit="10" fill="#FFCB37"/><path d="M5686.77 7802.06C5686.77 7808.14 5681.84 7813.06 5675.77 7813.06 5669.69 7813.06 5664.77 7808.14 5664.77 7802.06 5664.77 7795.99 5669.69 7791.06 5675.77 7791.06 5681.84 7791.06 5686.77 7795.99 5686.77 7802.06Z" stroke="#FFCB37" stroke-width="3.4375" stroke-linejoin="round" stroke-miterlimit="10" fill="#FFCB37"/><path d="M5740.77 7903.06C5740.77 7909.14 5735.84 7914.06 5729.77 7914.06 5723.69 7914.06 5718.77 7909.14 5718.77 7903.06 5718.77 7896.99 5723.69 7892.06 5729.77 7892.06 5735.84 7892.06 5740.77 7896.99 5740.77 7903.06Z" stroke="#FFCB37" stroke-width="3.4375" stroke-linejoin="round" stroke-miterlimit="10" fill="#FFCB37"/><path d="M5794.77 8060.06C5794.77 8066.14 5789.84 8071.06 5783.77 8071.06 5777.69 8071.06 5772.77 8066.14 5772.77 8060.06 5772.77 8053.99 5777.69 8049.06 5783.77 8049.06 5789.84 8049.06 5794.77 8053.99 5794.77 8060.06Z" stroke="#FFCB37" stroke-width="3.4375" stroke-linejoin="round" stroke-miterlimit="10" fill="#FFCB37"/><path d="M5848.77 8140.06C5848.77 8146.14 5843.84 8151.06 5837.77 8151.06 5831.69 8151.06 5826.77 8146.14 5826.77 8140.06 5826.77 8133.99 5831.69 8129.06 5837.77 8129.06 5843.84 8129.06 5848.77 8133.99 5848.77 8140.06Z" stroke="#FFCB37" stroke-width="3.4375" stroke-linejoin="round" stroke-miterlimit="10" fill="#FFCB37"/><path d="M5902.77 8105.06C5902.77 8111.14 5897.84 8116.06 5891.77 8116.06 5885.69 8116.06 5880.77 8111.14 5880.77 8105.06 5880.77 8098.99 5885.69 8094.06 5891.77 8094.06 5897.84 8094.06 5902.77 8098.99 5902.77 8105.06Z" stroke="#FFCB37" stroke-width="3.4375" stroke-linejoin="round" stroke-miterlimit="10" fill="#FFCB37"/><path d="M5956.77 8037.06C5956.77 8043.14 5951.84 8048.06 5945.77 8048.06 5939.69 8048.06 5934.77 8043.14 5934.77 8037.06 5934.77 8030.99 5939.69 8026.06 5945.77 8026.06 5951.84 8026.06 5956.77 8030.99 5956.77 8037.06Z" stroke="#FFCB37" stroke-width="3.4375" stroke-linejoin="round" stroke-miterlimit="10" fill="#FFCB37"/><path d="M6010.77 7981.06C6010.77 7987.14 6005.84 7992.06 5999.77 7992.06 5993.69 7992.06 5988.77 7987.14 5988.77 7981.06 5988.77 7974.99 5993.69 7970.06 5999.77 7970.06 6005.84 7970.06 6010.77 7974.99 6010.77 7981.06Z" stroke="#FFCB37" stroke-width="3.4375" stroke-linejoin="round" stroke-miterlimit="10" fill="#FFCB37"/><path d="M6065.77 7927.06C6065.77 7933.14 6060.84 7938.06 6054.77 7938.06 6048.69 7938.06 6043.77 7933.14 6043.77 7927.06 6043.77 7920.99 6048.69 7916.06 6054.77 7916.06 6060.84 7916.06 6065.77 7920.99 6065.77 7927.06Z" stroke="#FFCB37" stroke-width="3.4375" stroke-linejoin="round" stroke-miterlimit="10" fill="#FFCB37"/><path d="M6119.77 7889.06C6119.77 7895.14 6114.84 7900.06 6108.77 7900.06 6102.69 7900.06 6097.77 7895.14 6097.77 7889.06 6097.77 7882.99 6102.69 7878.06 6108.77 7878.06 6114.84 7878.06 6119.77 7882.99 6119.77 7889.06Z" stroke="#FFCB37" stroke-width="3.4375" stroke-linejoin="round" stroke-miterlimit="10" fill="#FFCB37"/><path d="M6173.77 7842.06C6173.77 7848.14 6168.84 7853.06 6162.77 7853.06 6156.69 7853.06 6151.77 7848.14 6151.77 7842.06 6151.77 7835.99 6156.69 7831.06 6162.77 7831.06 6168.84 7831.06 6173.77 7835.99 6173.77 7842.06Z" stroke="#FFCB37" stroke-width="3.4375" stroke-linejoin="round" stroke-miterlimit="10" fill="#FFCB37"/></g><g><text fill="#E5E7EB" font-family="Calibri,Calibri_MSFontService,sans-serif" font-weight="400" font-size="41" transform="matrix(1 0 0 1 4560.25 8321)"> $900</text></g><g><text fill="#E5E7EB" font-family="Calibri,Calibri_MSFontService,sans-serif" font-weight="400" font-size="41" transform="matrix(1 0 0 1 4560.25 8156)"> $950</text></g><g><text fill="#E5E7EB" font-family="Calibri,Calibri_MSFontService,sans-serif" font-weight="400" font-size="41" transform="matrix(1 0 0 1 4529.06 7990)"> $1,000</text></g><g><text fill="#E5E7EB" font-family="Calibri,Calibri_MSFontService,sans-serif" font-weight="400" font-size="41" transform="matrix(1 0 0 1 4529.06 7824)"> $1,050</text></g><g><text fill="#E5E7EB" font-family="Calibri,Calibri_MSFontService,sans-serif" font-weight="400" font-size="41" transform="matrix(1 0 0 1 4529.06 7659)"> $1,100</text></g><g><text fill="#E5E7EB" font-family="Calibri,Calibri_MSFontService,sans-serif" font-weight="400" font-size="41" transform="matrix(1 0 0 1 4529.06 7493)"> $1,150</text></g><g><text fill="#E5E7EB" font-family="Calibri,Calibri_MSFontService,sans-serif" font-weight="400" font-size="41" transform="matrix(1 0 0 1 4690.32 8375)">0</text></g><g><text fill="#E5E7EB" font-family="Calibri,Calibri_MSFontService,sans-serif" font-weight="400" font-size="41" transform="matrix(1 0 0 1 4960.97 8375)">5</text></g><g><text fill="#E5E7EB" font-family="Calibri,Calibri_MSFontService,sans-serif" font-weight="400" font-size="41" transform="matrix(1 0 0 1 5221.17 8375)">10</text></g><g><text fill="#E5E7EB" font-family="Calibri,Calibri_MSFontService,sans-serif" font-weight="400" font-size="41" transform="matrix(1 0 0 1 5491.82 8375)">15</text></g><g><text fill="#E5E7EB" font-family="Calibri,Calibri_MSFontService,sans-serif" font-weight="400" font-size="41" transform="matrix(1 0 0 1 5762.47 8375)">20</text></g><g><text fill="#E5E7EB" font-family="Calibri,Calibri_MSFontService,sans-serif" font-weight="400" font-size="41" transform="matrix(1 0 0 1 6033.12 8375)">25</text></g><g><text fill="#E5E7EB" font-family="Calibri,Calibri_MSFontService,sans-serif" font-weight="400" font-size="41" transform="matrix(1 0 0 1 6303.77 8375)">30</text></g><g><text fill="#E5E7EB" font-family="Calibri,Calibri_MSFontService,sans-serif" font-weight="400" font-size="64" transform="matrix(1 0 0 1 4951.78 7407)">Profit with 50$ Engaged on Each Entry</text></g><rect x="4499.5" y="7312.5" width="1897" height="1104" stroke="#D9D9D9" stroke-width="3.4375" stroke-linejoin="round" stroke-miterlimit="10" fill="none"/></g></svg>