<svg width="1212" height="1104" xmlns="http://www.w3.org/2000/svg" xmlns:xlink="http://www.w3.org/1999/xlink" xml:space="preserve" overflow="hidden"><defs><clipPath id="clip0"><rect x="3794" y="4032" width="1212" height="1104"/></clipPath></defs><g clip-path="url(#clip0)" transform="translate(-3794 -4032)"><g><path d="M4399.09 4241.79C4587.14 4241.79 4739.58 4394.23 4739.58 4582.28 4739.58 4770.33 4587.14 4922.77 4399.09 4922.77 4211.04 4922.77 4058.6 4770.33 4058.6 4582.28 4058.6 4436.84 4150.98 4307.46 4288.53 4260.24L4316.17 4340.75C4182.78 4386.54 4111.77 4531.8 4157.56 4665.2 4203.35 4798.59 4348.61 4869.6 4482.01 4823.81 4615.4 4778.01 4686.41 4632.75 4640.62 4499.36 4605.2 4396.19 4508.17 4326.91 4399.09 4326.91Z" stroke="#FFFFFF" stroke-width="6.875" stroke-linejoin="round" stroke-miterlimit="10" fill="#4ADE80" fill-rule="evenodd"/></g><g><path d="M4288.53 4260.24C4324.11 4248.02 4361.47 4241.79 4399.09 4241.79L4399.09 4326.91C4370.88 4326.91 4342.86 4331.59 4316.17 4340.75Z" stroke="#FFFFFF" stroke-width="6.875" stroke-linejoin="round" stroke-miterlimit="10" fill="#FFCB37" fill-rule="evenodd"/></g><g><path d="M4448.5 4876.5 4547.65 4959.5 4568.5 4959.5" stroke="#A6A6A6" stroke-width="3.4375" stroke-linejoin="round" stroke-miterlimit="10" fill="none"/></g><g><path d="M4350.5 4288.5 4322.5 4207.5" stroke="#A6A6A6" stroke-width="3.4375" stroke-linejoin="round" stroke-miterlimit="10" fill="none"/></g><g><text fill="#4ADE80" font-family="Calibri,Calibri_MSFontService,sans-serif" font-weight="400" font-size="41" transform="matrix(1 0 0 1 4581.95 4974)">95%</text></g><g><text fill="#FFCB37" font-family="Calibri,Calibri_MSFontService,sans-serif" font-weight="400" font-size="41" transform="matrix(1 0 0 1 4297.32 4190)">5%</text></g><g><text fill="#E5E7EB" font-family="Calibri,Calibri_MSFontService,sans-serif" font-weight="400" font-size="50" transform="matrix(1 0 0 1 4295.04 4602)">WIN RATE</text></g><g><rect x="4257.5" y="5056.5" width="22" height="23" stroke="#FFFFFF" stroke-width="6.875" stroke-linejoin="round" stroke-miterlimit="10" fill="#4ADE80"/></g><g><text fill="#E5E7EB" font-family="Calibri,Calibri_MSFontService,sans-serif" font-weight="400" font-size="41" transform="matrix(1 0 0 1 4289.5 5079)">PROFIT</text></g><g><rect x="4442.5" y="5056.5" width="23" height="23" stroke="#FFFFFF" stroke-width="6.875" stroke-linejoin="round" stroke-miterlimit="10" fill="#FFCB37"/></g><g><text fill="#E5E7EB" font-family="Calibri,Calibri_MSFontService,sans-serif" font-weight="400" font-size="41" transform="matrix(1 0 0 1 4474.86 5079)">LOSS</text></g><rect x="3795.5" y="4033.5" width="1209" height="1101" stroke="#D9D9D9" stroke-width="3.4375" stroke-linejoin="round" stroke-miterlimit="10" fill="none"/></g></svg>