<svg width="1051" height="1100" xmlns="http://www.w3.org/2000/svg" xmlns:xlink="http://www.w3.org/1999/xlink" xml:space="preserve" overflow="hidden"><defs><clipPath id="clip0"><rect x="5151" y="4040" width="1051" height="1100"/></clipPath></defs><g clip-path="url(#clip0)" transform="translate(-5151 -4040)"><g><path d="M5686.37 4259.68C5874.7 4259.68 6027.38 4412.35 6027.38 4600.69 6027.38 4789.02 5874.7 4941.69 5686.37 4941.69 5498.04 4941.69 5345.36 4789.02 5345.36 4600.69 5345.36 4572.46 5348.87 4544.34 5355.8 4516.97L5438.44 4537.9C5403.77 4674.83 5486.66 4813.94 5623.58 4848.61 5760.51 4883.29 5899.62 4800.4 5934.3 4663.47 5968.97 4526.54 5886.08 4387.43 5749.15 4352.76 5728.63 4347.56 5707.54 4344.93 5686.37 4344.93Z" stroke="#FFFFFF" stroke-width="6.875" stroke-linejoin="round" stroke-miterlimit="10" fill="#4ADE80" fill-rule="evenodd"/></g><g><path d="M5355.8 4516.97C5394.12 4365.66 5530.28 4259.68 5686.37 4259.68L5686.37 4344.93C5569.3 4344.93 5467.18 4424.42 5438.44 4537.9Z" stroke="#FFFFFF" stroke-width="6.875" stroke-linejoin="round" stroke-miterlimit="10" fill="#FFCB37" fill-rule="evenodd"/></g><g><path d="M5869.5 4836.5 5932.69 5021.5 5953.5 5021.5" stroke="#A6A6A6" stroke-width="3.4375" stroke-linejoin="round" stroke-miterlimit="10" fill="none"/></g><g><path d="M5503.5 4365.5 5338.68 4305.5 5317.5 4305.5" stroke="#A6A6A6" stroke-width="3.4375" stroke-linejoin="round" stroke-miterlimit="10" fill="none"/></g><g><text fill="#4ADE80" font-family="Calibri,Calibri_MSFontService,sans-serif" font-weight="700" font-size="41" transform="matrix(1 0 0 1 5967.48 5035)">79%</text></g><g><text fill="#FFCB37" font-family="Calibri,Calibri_MSFontService,sans-serif" font-weight="700" font-size="41" transform="matrix(1 0 0 1 5232.34 4319)">21%</text></g><g><text fill="#FFCB37" font-family="Calibri,Calibri_MSFontService,sans-serif" font-weight="700" font-size="64" transform="matrix(1 0 0 1 5518.35 4617)">Short</text></g><g><text fill="#E5E7EB" font-family="Calibri,Calibri_MSFontService,sans-serif" font-weight="700" font-size="64" transform="matrix(1 0 0 1 5677.16 4617)">&amp;</text></g><g><text fill="#4ADE80" font-family="Calibri,Calibri_MSFontService,sans-serif" font-weight="700" font-size="64" transform="matrix(1 0 0 1 5736.88 4617)">Long</text></g><rect x="5152.5" y="4041.5" width="1048" height="1097" stroke="#D9D9D9" stroke-width="3.4375" stroke-linejoin="round" stroke-miterlimit="10" fill="none"/></g></svg>