<svg width="2017" height="1107" xmlns="http://www.w3.org/2000/svg" xmlns:xlink="http://www.w3.org/1999/xlink" xml:space="preserve" overflow="hidden"><defs><clipPath id="clip0"><rect x="4029" y="6761" width="2017" height="1107"/></clipPath></defs><g clip-path="url(#clip0)" transform="translate(-4029 -6761)"><g><path d="M4200.5 7656.75 5972.5 7656.75M4200.5 7552.75 5972.5 7552.75M4200.5 7448.74 5972.5 7448.74M4200.5 7345.74 5972.5 7345.74M4200.5 7241.74 5972.5 7241.74M4200.5 7138.73 5972.5 7138.73M4200.5 7034.73 5972.5 7034.73M4200.5 6931.5 5972.5 6931.5" stroke="#D9D9D9" stroke-width="3.4375" stroke-linejoin="round" stroke-miterlimit="10" fill="none"/></g><g><path d="M4377.64 6931.5 4377.64 7759.5M4554.65 6931.5 4554.65 7759.5M4732.66 6931.5 4732.66 7759.5M4909.66 6931.5 4909.66 7759.5M5086.67 6931.5 5086.67 7759.5M5263.67 6931.5 5263.67 7759.5M5440.68 6931.5 5440.68 7759.5M5617.68 6931.5 5617.68 7759.5M5794.69 6931.5 5794.69 7759.5M5972.5 6931.5 5972.5 7759.5" stroke="#D9D9D9" stroke-width="3.4375" stroke-linejoin="round" stroke-miterlimit="10" fill="none"/></g><g><path d="M0 0 0.000360892 828" stroke="#BFBFBF" stroke-width="3.4375" stroke-linejoin="round" stroke-miterlimit="10" fill="none" fill-rule="evenodd" transform="matrix(1 0 0 -1 4200.5 7759.5)"/></g><g><path d="M4200.5 7759.5 5972.5 7759.5" stroke="#BFBFBF" stroke-width="3.4375" stroke-linejoin="round" stroke-miterlimit="10" fill="none" fill-rule="evenodd"/></g><g><path d="M4289.5 7696.5 4377.64 7640.75 4466.65 7521.75 4554.65 7485.75 4643.65 7442.74 4732.66 7405.74 4820.66 7342.74 4909.66 7290.74 4997.66 7248.74 5086.67 7228.74 5174.67 7203.74 5263.67 7171.74 5352.68 7171.74 5440.68 7123.73 5529.68 7114.73 5617.68 7081.73 5706.69 7060.73 5794.69 7032.5 5883.5 7047.73" stroke="#FFCB37" stroke-width="6.875" stroke-linecap="round" stroke-linejoin="round" stroke-miterlimit="10" fill="none"/></g><g><path d="M4300.92 7696.06C4300.92 7702.14 4296 7707.06 4289.92 7707.06 4283.85 7707.06 4278.92 7702.14 4278.92 7696.06 4278.92 7689.99 4283.85 7685.06 4289.92 7685.06 4296 7685.06 4300.92 7689.99 4300.92 7696.06Z" stroke="#FFCB37" stroke-width="3.4375" stroke-linejoin="round" stroke-miterlimit="10" fill="#FFCB37"/><path d="M4388.92 7641.06C4388.92 7647.14 4384 7652.06 4377.92 7652.06 4371.85 7652.06 4366.92 7647.14 4366.92 7641.06 4366.92 7634.99 4371.85 7630.06 4377.92 7630.06 4384 7630.06 4388.92 7634.99 4388.92 7641.06Z" stroke="#FFCB37" stroke-width="3.4375" stroke-linejoin="round" stroke-miterlimit="10" fill="#FFCB37"/><path d="M4477.92 7522.06C4477.92 7528.14 4473 7533.06 4466.92 7533.06 4460.85 7533.06 4455.92 7528.14 4455.92 7522.06 4455.92 7515.99 4460.85 7511.06 4466.92 7511.06 4473 7511.06 4477.92 7515.99 4477.92 7522.06Z" stroke="#FFCB37" stroke-width="3.4375" stroke-linejoin="round" stroke-miterlimit="10" fill="#FFCB37"/><path d="M4566.92 7485.06C4566.92 7491.14 4562 7496.06 4555.92 7496.06 4549.85 7496.06 4544.92 7491.14 4544.92 7485.06 4544.92 7478.99 4549.85 7474.06 4555.92 7474.06 4562 7474.06 4566.92 7478.99 4566.92 7485.06Z" stroke="#FFCB37" stroke-width="3.4375" stroke-linejoin="round" stroke-miterlimit="10" fill="#FFCB37"/><path d="M4654.92 7442.06C4654.92 7448.14 4650 7453.06 4643.92 7453.06 4637.85 7453.06 4632.92 7448.14 4632.92 7442.06 4632.92 7435.99 4637.85 7431.06 4643.92 7431.06 4650 7431.06 4654.92 7435.99 4654.92 7442.06Z" stroke="#FFCB37" stroke-width="3.4375" stroke-linejoin="round" stroke-miterlimit="10" fill="#FFCB37"/><path d="M4743.92 7406.06C4743.92 7412.14 4739 7417.06 4732.92 7417.06 4726.85 7417.06 4721.92 7412.14 4721.92 7406.06 4721.92 7399.99 4726.85 7395.06 4732.92 7395.06 4739 7395.06 4743.92 7399.99 4743.92 7406.06Z" stroke="#FFCB37" stroke-width="3.4375" stroke-linejoin="round" stroke-miterlimit="10" fill="#FFCB37"/><path d="M4831.92 7342.06C4831.92 7348.14 4827 7353.06 4820.92 7353.06 4814.85 7353.06 4809.92 7348.14 4809.92 7342.06 4809.92 7335.99 4814.85 7331.06 4820.92 7331.06 4827 7331.06 4831.92 7335.99 4831.92 7342.06Z" stroke="#FFCB37" stroke-width="3.4375" stroke-linejoin="round" stroke-miterlimit="10" fill="#FFCB37"/><path d="M4920.92 7290.06C4920.92 7296.14 4916 7301.06 4909.92 7301.06 4903.85 7301.06 4898.92 7296.14 4898.92 7290.06 4898.92 7283.99 4903.85 7279.06 4909.92 7279.06 4916 7279.06 4920.92 7283.99 4920.92 7290.06Z" stroke="#FFCB37" stroke-width="3.4375" stroke-linejoin="round" stroke-miterlimit="10" fill="#FFCB37"/><path d="M5008.92 7249.06C5008.92 7255.14 5004 7260.06 4997.92 7260.06 4991.85 7260.06 4986.92 7255.14 4986.92 7249.06 4986.92 7242.99 4991.85 7238.06 4997.92 7238.06 5004 7238.06 5008.92 7242.99 5008.92 7249.06Z" stroke="#FFCB37" stroke-width="3.4375" stroke-linejoin="round" stroke-miterlimit="10" fill="#FFCB37"/><path d="M5097.92 7228.06C5097.92 7234.14 5093 7239.06 5086.92 7239.06 5080.85 7239.06 5075.92 7234.14 5075.92 7228.06 5075.92 7221.99 5080.85 7217.06 5086.92 7217.06 5093 7217.06 5097.92 7221.99 5097.92 7228.06Z" stroke="#FFCB37" stroke-width="3.4375" stroke-linejoin="round" stroke-miterlimit="10" fill="#FFCB37"/><path d="M5186.92 7204.06C5186.92 7210.14 5182 7215.06 5175.92 7215.06 5169.85 7215.06 5164.92 7210.14 5164.92 7204.06 5164.92 7197.99 5169.85 7193.06 5175.92 7193.06 5182 7193.06 5186.92 7197.99 5186.92 7204.06Z" stroke="#FFCB37" stroke-width="3.4375" stroke-linejoin="round" stroke-miterlimit="10" fill="#FFCB37"/><path d="M5274.92 7171.06C5274.92 7177.14 5270 7182.06 5263.92 7182.06 5257.85 7182.06 5252.92 7177.14 5252.92 7171.06 5252.92 7164.99 5257.85 7160.06 5263.92 7160.06 5270 7160.06 5274.92 7164.99 5274.92 7171.06Z" stroke="#FFCB37" stroke-width="3.4375" stroke-linejoin="round" stroke-miterlimit="10" fill="#FFCB37"/><path d="M5363.92 7171.06C5363.92 7177.14 5359 7182.06 5352.92 7182.06 5346.85 7182.06 5341.92 7177.14 5341.92 7171.06 5341.92 7164.99 5346.85 7160.06 5352.92 7160.06 5359 7160.06 5363.92 7164.99 5363.92 7171.06Z" stroke="#FFCB37" stroke-width="3.4375" stroke-linejoin="round" stroke-miterlimit="10" fill="#FFCB37"/><path d="M5451.92 7123.06C5451.92 7129.14 5447 7134.06 5440.92 7134.06 5434.85 7134.06 5429.92 7129.14 5429.92 7123.06 5429.92 7116.99 5434.85 7112.06 5440.92 7112.06 5447 7112.06 5451.92 7116.99 5451.92 7123.06Z" stroke="#FFCB37" stroke-width="3.4375" stroke-linejoin="round" stroke-miterlimit="10" fill="#FFCB37"/><path d="M5540.92 7114.06C5540.92 7120.14 5536 7125.06 5529.92 7125.06 5523.85 7125.06 5518.92 7120.14 5518.92 7114.06 5518.92 7107.99 5523.85 7103.06 5529.92 7103.06 5536 7103.06 5540.92 7107.99 5540.92 7114.06Z" stroke="#FFCB37" stroke-width="3.4375" stroke-linejoin="round" stroke-miterlimit="10" fill="#FFCB37"/><path d="M5628.92 7081.06C5628.92 7087.14 5624 7092.06 5617.92 7092.06 5611.85 7092.06 5606.92 7087.14 5606.92 7081.06 5606.92 7074.99 5611.85 7070.06 5617.92 7070.06 5624 7070.06 5628.92 7074.99 5628.92 7081.06Z" stroke="#FFCB37" stroke-width="3.4375" stroke-linejoin="round" stroke-miterlimit="10" fill="#FFCB37"/><path d="M5717.92 7061.06C5717.92 7067.14 5713 7072.06 5706.92 7072.06 5700.85 7072.06 5695.92 7067.14 5695.92 7061.06 5695.92 7054.99 5700.85 7050.06 5706.92 7050.06 5713 7050.06 5717.92 7054.99 5717.92 7061.06Z" stroke="#FFCB37" stroke-width="3.4375" stroke-linejoin="round" stroke-miterlimit="10" fill="#FFCB37"/><path d="M5806.92 7032.06C5806.92 7038.14 5802 7043.06 5795.92 7043.06 5789.85 7043.06 5784.92 7038.14 5784.92 7032.06 5784.92 7025.99 5789.85 7021.06 5795.92 7021.06 5802 7021.06 5806.92 7025.99 5806.92 7032.06Z" stroke="#FFCB37" stroke-width="3.4375" stroke-linejoin="round" stroke-miterlimit="10" fill="#FFCB37"/><path d="M5894.92 7047.06C5894.92 7053.14 5890 7058.06 5883.92 7058.06 5877.85 7058.06 5872.92 7053.14 5872.92 7047.06 5872.92 7040.99 5877.85 7036.06 5883.92 7036.06 5890 7036.06 5894.92 7040.99 5894.92 7047.06Z" stroke="#FFCB37" stroke-width="3.4375" stroke-linejoin="round" stroke-miterlimit="10" fill="#FFCB37"/></g><g><text fill="#E5E7EB" font-family="Calibri,Calibri_MSFontService,sans-serif" font-weight="400" font-size="41" transform="matrix(1 0 0 1 4110.29 7771)"> $-</text></g><g><text fill="#E5E7EB" font-family="Calibri,Calibri_MSFontService,sans-serif" font-weight="400" font-size="41" transform="matrix(1 0 0 1 4060.21 7668)"> $100</text></g><g><text fill="#E5E7EB" font-family="Calibri,Calibri_MSFontService,sans-serif" font-weight="400" font-size="41" transform="matrix(1 0 0 1 4060.21 7564)"> $200</text></g><g><text fill="#E5E7EB" font-family="Calibri,Calibri_MSFontService,sans-serif" font-weight="400" font-size="41" transform="matrix(1 0 0 1 4060.21 7461)"> $300</text></g><g><text fill="#E5E7EB" font-family="Calibri,Calibri_MSFontService,sans-serif" font-weight="400" font-size="41" transform="matrix(1 0 0 1 4060.21 7357)"> $400</text></g><g><text fill="#E5E7EB" font-family="Calibri,Calibri_MSFontService,sans-serif" font-weight="400" font-size="41" transform="matrix(1 0 0 1 4060.21 7254)"> $500</text></g><g><text fill="#E5E7EB" font-family="Calibri,Calibri_MSFontService,sans-serif" font-weight="400" font-size="41" transform="matrix(1 0 0 1 4060.21 7150)"> $600</text></g><g><text fill="#E5E7EB" font-family="Calibri,Calibri_MSFontService,sans-serif" font-weight="400" font-size="41" transform="matrix(1 0 0 1 4060.21 7047)"> $700</text></g><g><text fill="#E5E7EB" font-family="Calibri,Calibri_MSFontService,sans-serif" font-weight="400" font-size="41" transform="matrix(1 0 0 1 4060.21 6943)"> $800</text></g><g><text fill="#E5E7EB" font-family="Calibri,Calibri_MSFontService,sans-serif" font-weight="400" font-size="41" transform="matrix(1 0 0 1 4190.29 7825)">0</text></g><g><text fill="#E5E7EB" font-family="Calibri,Calibri_MSFontService,sans-serif" font-weight="400" font-size="41" transform="matrix(1 0 0 1 4367.44 7825)">2</text></g><g><text fill="#E5E7EB" font-family="Calibri,Calibri_MSFontService,sans-serif" font-weight="400" font-size="41" transform="matrix(1 0 0 1 4544.59 7825)">4</text></g><g><text fill="#E5E7EB" font-family="Calibri,Calibri_MSFontService,sans-serif" font-weight="400" font-size="41" transform="matrix(1 0 0 1 4721.74 7825)">6</text></g><g><text fill="#E5E7EB" font-family="Calibri,Calibri_MSFontService,sans-serif" font-weight="400" font-size="41" transform="matrix(1 0 0 1 4898.89 7825)">8</text></g><g><text fill="#E5E7EB" font-family="Calibri,Calibri_MSFontService,sans-serif" font-weight="400" font-size="41" transform="matrix(1 0 0 1 5065.59 7825)">10</text></g><g><text fill="#E5E7EB" font-family="Calibri,Calibri_MSFontService,sans-serif" font-weight="400" font-size="41" transform="matrix(1 0 0 1 5242.74 7825)">12</text></g><g><text fill="#E5E7EB" font-family="Calibri,Calibri_MSFontService,sans-serif" font-weight="400" font-size="41" transform="matrix(1 0 0 1 5419.89 7825)">14</text></g><g><text fill="#E5E7EB" font-family="Calibri,Calibri_MSFontService,sans-serif" font-weight="400" font-size="41" transform="matrix(1 0 0 1 5597.04 7825)">16</text></g><g><text fill="#E5E7EB" font-family="Calibri,Calibri_MSFontService,sans-serif" font-weight="400" font-size="41" transform="matrix(1 0 0 1 5774.2 7825)">18</text></g><g><text fill="#E5E7EB" font-family="Calibri,Calibri_MSFontService,sans-serif" font-weight="400" font-size="41" transform="matrix(1 0 0 1 5951.35 7825)">20</text></g><g><text fill="#E5E7EB" font-family="Calibri,Calibri_MSFontService,sans-serif" font-weight="400" font-size="64" transform="matrix(1 0 0 1 4541.15 6857)">Profit with 50$ Engaged on Each Entry</text></g><rect x="4030.5" y="6762.5" width="2014" height="1104" stroke="#D9D9D9" stroke-width="3.4375" stroke-linejoin="round" stroke-miterlimit="10" fill="none"/></g></svg>